<mxfile host="app.diagrams.net" modified="2023-01-22T16:05:21.963Z" agent="5.0 (Windows NT 10.0; Win64; x64) AppleWebKit/537.36 (KHTML, like Gecko) Chrome/109.0.0.0 Safari/537.36" version="20.8.5" etag="jHQW1TtUGOnIpcLd5czJ" type="github">
  <diagram id="xxUaq6_TZ_UhTVXxUAcG" name="Page-1">
    <mxGraphModel dx="793" dy="460" grid="1" gridSize="10" guides="1" tooltips="1" connect="1" arrows="1" fold="1" page="1" pageScale="1" pageWidth="850" pageHeight="1100" math="0" shadow="0">
      <root>
        <mxCell id="0" />
        <mxCell id="1" parent="0" />
        <mxCell id="36IHvSum0hNEQyjx92Uq-1" value="" style="rounded=0;whiteSpace=wrap;html=1;strokeColor=none;" vertex="1" parent="1">
          <mxGeometry x="40" y="40" width="770" height="440" as="geometry" />
        </mxCell>
        <mxCell id="36IHvSum0hNEQyjx92Uq-2" value="" style="shape=image;verticalLabelPosition=bottom;labelBackgroundColor=default;verticalAlign=top;aspect=fixed;imageAspect=0;image=data:image/png,iVBORw0KGgoAAAANSUhEUgAAASQAAAIICAYAAADHf5M8AAAAAXNSR0IArs4c6QAAIABJREFUeF7svQV8XseZPXxeEjNbzGCRZXbM7DhMThxqmmwZN+0W9r+F3e5+TZvCbpumu23TpGEm23EcY8yMksVkW2gxSy99v/NcvbLkyLZsy4pg7i+Kpfe9d+7MmZkz53nmmRnd//3f/9mhLoWAQkAhMAoQ0ClCGgW1oLKgEFAICAKKkFRDUAgoBEYNAldFSHa7HTqd7oqZv9J9l/v+Ss/abDZYLBbJg8FgkB91DQ8CDuwv/rd/6hfXz5Xqa7BnryeN4SmpSuV6EOjs7ERRcTGam5sgdYkrc4Ljfe7u7oiPj4enp+egWRhASI6G0tHRgZqaGkRFRUGv18uD586dg5+fH9zc3K5Ylvr6elRXV8t9AQEBCAoKQldXF5qbm+V3fufh4QEvLy+5h+9tampCY2MjYmNjP5M+CYjPt7e3o6enByQlx2UymSRPLKjRaNRk3xBI84qFmAA3mM1mVFVVoaGhQTAMCQnpqxNH8Yl1ZWWl1A3xjYiIkLpzXEyjtLRU8A8NDR2AfV1dHWpra6UN8Vm2BR8fH/mM6cXExID1x4v1e+bMGURGRsLV1XUCoD82i8i+WFZWhsAAD8SF6dDe44VO89Dqi/28tbVVnk9KSoKTk5O0l/4D1KAKqaioCP/4xz9w9913IysrS5B79tlnsWLFCmG3y10ks5dfflmIhQ2xoKAAd911l5DJgQMHJM3XXntNiGnVqlV9Dfj1118H3/uTn/xkQPLd3d1CZGRlqiE2Vv7LglitVvB7khQL5+3tPSTCHJtNYfhy7WgAp06dwo4dO4RkOIhw1Lr11ltBkmFdpKenS+N57733pD5JJMT44Ycf7svM7t278dFHHyEuLg6PPPKI1IPj4ud79uxBSkoK2C7YHlj/fCd/vvKVryA1NVVuZ9tgu/jWt74laalrdCLAfkixMifNjgUJx3CyMgW5NcmUAUPOMAcwDkz8uVg8DEpIhYWF2LZtm5DIgw8+iODgYPzpT3/CypUrpbGwEbIxc4SbN2/egFGVL2MD/s53viMNsLy8XF7MBr9//37ce++9eP/992U05D0cIc+fP4+3335b/v3pT3/ap3LYcdra2mQ05ajMDsN0+A6SUVhYmPyQkHgPR2lfX1+lkIbYND744ANRJnfccYeQzSuvvILHH38cLS0t2LBhAx577DFpfGwHJKdjx47hrbfewq9//WvBmN/94Q9/wIwZM6ReLiYkpsF6fvTRR0XV8l4OQiQ5toXMzEysXbtWBpj//u//lnu/8Y1vKEIaYv19HrdxYGE/XTa1A7Nic3C6OhFHz2ZcVVbICbzYp/39/Qc8e0lCOnToEKZMmSLEc/vtt+O5554TQqIMZ4IcSTmqkTSWLl3aRwIkh2eeeQaTJk2SBhceHi5EUlJS0kdIW7duFRNwzpw5SEtLE4JjA+fnP/vZzwZkkOkzTY7a7EB8p8OHxO+o2EiaNAdIgPxRJtvQ2gfrgAQTGBiIs2fPYvr06Vi8eHGf6etQUsSedcO2wHsWLVokdfD888/LoMRB4Pjx40I8/RUSCYlthZ/z/v/5n//BnXfeKeqLBMb02bZIVn/+859l4Fu9erUipKFV3+dyVx8hTevArJhrJyS2B/ZTtp/+/fWyhEQ1s3nzZmko+/btE5ONjXLmzJli67NBkyBokjl8TUSJsi4vL0+UDEc9NkIqGo6K99xzD7Zv3y6dgGmyse7cuVPIiw28PyH1ty35XpqC9HM4fA/0bZw+fVpG6AceeGBAHj6X2hpDLyW2NKeys7MRHR0tBME6uu2220TxUnHSZ8h6JSHt2rULFRUVUrcPPfQQ8vPzRUXz99zcXPm5//77ZWBwXCSkvXv3Ijk5WZQuieuWW27Bpk2bxJfANsD72Vb4HRUXBzdlso3ehjRchMQS0v1C103/67KERDlNKU9fAEdQdno2PPoEEhMThXA4MlLyk+X4w/vY2CZPniwjH1UNpRl9EA6TjQ2ZyojERLJj56Baomy/WCE5MkuV5HCeUvLTd8Q02dBJjvRtqGvoCBBzKhbW5fLly8VP98c//lFIhfXIulmzZo0MQDSFp02bJir397//Pb773e8KIR0+fFiIhM/SzKO6uvnmm/sysX79evEhkuRcXFyEfNgI33nnHak3qi0SHQetb37zm+D9ipCGXoefx52dnR3CCbNS7Zgbfww5VZORJz6koV/sv+QEtp2LZ8kvSUgHDx6U0Y8XGyWd2k8++aSMmCSZWbNmyciWkZEhCsVxcWQlsSxYsEDk+8aNG8V5SYl2MSGxkf7ud78Tk4uj4tNPP31JQnKkz9F13bp1MpqTxO677z41KzP0tjDgTqpfqlMODiQFNo4vfOELYmJzYKESPXr0KF588UW5hwqG9f+DH/xA/iWp8SIxnTx5UtQu65QXv+NARhX9xBNP9E1E8DsHIXEge+GFF0T1UjnRqb1kyZIrTpxcY3HVY8OAAIVBeXkZoiKj4OvZhS6zO6x2bXZ7KBdFSk5OjvT3wWbsByUkjnb0FfWfgqdDk4lQznOqmKMlGxJDAzil2z92haTEBsrPOALzPqomMivNAz5PduTIS1LjZ0yD5gP9Vpe7aD68++67kj+O4JT9VxMLMxTQJso9jil7+nmoMGlaOeJDHHY9seX3VKdsQJx15UDTH3PWBUMH6M/rb7qTjOgQp5ru7yfgCMkBhe2ruLhYTEOHn5G+R0c4yESph7FWTtY3Hduuri7Q6bSwoKFcbDM0+Vm/nIwa7LqqwMihvHQk7qHaIsGR1NSlEFAIjDwCdJnwR7uolIc27c9Z9cvFmY1JQhp5+NUbFQIKgZFAQBHSSKCs3qEQUAgMCQFFSEOCSd2kEFAIjAQCipBGAmX1DoWAQmBICChCGhJM6iaFgEJgJBBQhDQSKKt3KAQUAkNCQBHSkGBSNykEFAIjgYAipJFAWb1DIaAQGBICipCGBJO6SSGgEBgJBBQhjQTK6h0KAYXAkBBQhDQkmNRNCgGFwEggoAhpJFBW71AIKASGhMAQCckO7jThWLHdYwGKa21wMQGR/noY9FxYd/nzJuXbz5xa4kiXT/eeXTD0dXpDKuBEu2mwE0MG2w1hOHdIGM60Jlp9je7y2gG7DnabGdbOZphr8mA+XwJrewPsViv0Lh4w+YbDadJkGL0nQWdy7i3O0BbaDlb2IRLShUc7uu3YW2TFgUIb4oJ1uG2aEe5OV85A33Epg9yqNWi+48rpjO4KHF25G/y4IYXz6Kql0Z0bu7UH3WdPoOvMEdh7umC3W6E3mKAzOMHa1QKdwUSlAlNgLFxiZsPoGXhd/XiIhESm1KPLYsOnuTYcLbXCYNThtiw9kkIM6D0p6ZLImq1AY7sdRgPg596fdDQ5RPXV2mVHR48dPq46uAyB4EZ3NX5+uXMcjMAdGbnHkOPIIn5++nSubEeblJQ4LJvaZWfn4MSJE7jlltVykIO6xhcCbDNdxXvQVXYYRp9JcI7IQtuJD+EckQmTfwzajr0Lp5Bk6F080VV6EEa/CLinrIDB88I2xleLyKUJSbOxekWLDlYbsP20BfsLbTAZgXtmGRAfxM2ZBlc1fJxEk1NhxeZTNvSYNfMsxEeHO6Yb4eemGXmN7cAn2WacOQ/Y7Do4m+xYkGLAlAg9DAYd7GLMAV09OvxjtxlpEXrMiecxSJqRR9CeWmfBjDg9lqRwk/8L+Xn9gBl+7nqsSBvfh0k6dm7kfsfvvvse8nLzpVq4CdrUqVPkpA+S04svvoyOjnbcf/8a2RStv4K6vNl1sR2t/f3hh+uEkB566EHExsb0toXP2tyO/Ik2+4wSdpj6F+qNm3j94hf/hVWrVmLevLmoqqrGn/70bJ/LwGRykk3/brppNlJTJ8NguHQ7vNoOoe7XEGBfpYlGAnIKToJbyjJ0lh+GuTIb7um3wuQfhdbDb8Fu6YJ7xq2wNlWiPXsjnCdNhkvKMuiNTloiV3lG4hUUkta4qF725FtxqMQKPw8dVmQYkRCsv+K2TCW1Nry534LFqQbEBetB39PhEivauuy4LcsoiuntQ1a4OUEIxcNFjzN1NhwssmJyuA7zEi9sjcm03j1kwSRfHe6bZYJTP475r/d74OEC3JxpREIIG6d2wu5r+y3wcwdWpg99i82x2iC5ad2rr74mJ3rMmDETwcFBsuXs0aPHMH36NKxYsRyvvvo62tvbhJConIhR/1NCHMTR1dUNo1EPdnwHUXHrUf7ObW7N5h5pF3wnDwdwHBDJexx+Rm7exV1AHQdBOho5t0DlrpImk6H3wE9d7yAykJB+/vP/wOrVN2P+/Hmyw+gf/vAMJk9OkX25mXZ1VTXOVVQKKS1fvgzOzg7/xVitwdGVb1tPO1oOvgp7dwdcoqZB7+GPzrztgMEkf+tMrrDUl6GnOg8usbNhcPVB19ljsLbUwGPafeJbuhZ38CUJydEQWzrt2JFrwYlyu0ZG6Rq56HWfHdn6Q0py3Fdkxd5CK5682QkULnyiq8cOkktMoB65lTYcLrFhzWwjfMWUo4rS4dQ5G7LP2XDfTAOMMvjp8PZBsxBXQxuE4MJ9L2yd+csPezDJRw8nI3DnNAPcnLXGPZEIidsG//Uvf4NOr8d3v/ttIQLW4aFDh2E0GmRP7Ndee0MIifugcxtZvd4gnTwtLVWIhluTHj58RP41GIyIiYnG1KlZkhbNMz7DbW65hza3qyX5cHvbRYsWCrFt3rxFztni70VFxfIvyTA+Pk7ycuDAQRQXl4iiYX74HuZt9uzZfUcvsd6okP79338hBwbMn0+FVIU//vFPePDBtcjISJOBl1vmUg1SPa1Zcx+Sk5NGV48e47npqc5F26mNgNXcV5IBKtqhfEQFOSal6NoBnMIz4Z66Uvrt1XqFL6uQui3AxhNm5JzlyGjHw3NNCPPluWdDQ7uoRlNI81MMmBFtgAsPNdXyLGnQBKNP6dYp2km0jovmocUKONFfBjsaO4C/bTfjwZuMyDlnR7fFhtuytCOYef1qXQ+WpRlRVGOFu6sOt2Zqiui1/Vr6E0Eh0Tf0zDPPyvFFCxbMx8yZM2TvYsex41Ql//jHS7IXOvch557GPBGku6sbX/7KP4kJ99Zb78im/BkZ6Whqapb9zukfmjZtKrZs2Yo9e/aKEuHzWVlT5Fgk7rX++ONflP22aVZRFXFfbFdXNzkcgvul33ffvXJKyUcfbZS9u/luHiJg7jEjMipCFFt/pXZ5Qkrvq3em+cILL2Lx4kWiANU1fAh0FO5EV8kBeM5aC4OrLyz1JUJQrvHz4ByeKS+ydbeh/dQG8S+5xi+A3dqNjrxtsLbXw2f+V65mZ9u+jF9WIR0qtWHTcSucnYBH5pkwiScNDZWNeu1QmnmHSmywAQhwB2KC9UgJ1cPLRYc/bu7BlEg9FiRf3qTamW9FYbUNX1xgQlmdDe8esOBrK0x9s3skpNunGuDppsNb+y1YkW7E5DAdXj9gnTAmG2uUHXT9+g1obW0T5zXVSmZmOqZOnSpOZ/qQqiqr8MDa+xEVFYmSklK88MI/cM89dyM9PU3+JmF4eXmisbEJ77zzLgIDA3DvvfcIIX366U584QuPilOcrW3dug2ilvoTkr9/AJ544oviNF+3br0cm8X0qWY4mD766MNCWNwk/s9//l852eT++++Dk9MFk2uohMTjl375y1/J6TO33XaLOpdv+PgIHac/QdeZY/Bd8X3o9AZ0V2Wj/eRGuKethHOYdlItCant+AcwuPvBPe1m8Rm15WyCuToHvsu+d025uaxCKqiyYcNxK3osdsxLMmBmnAGmofqHtRAGkWzNHTZUN9tR2wKU1lrhbNJhVYYRr+63ICFYh2Wplyakzh7g1b1meLoCaeEG9Fjt2HjciqVpRsyM1cw2jZCMSA7T4WiZZgaSoHbkaj6v8ayQLnZGNzU1iWlVW3teTB2aSGmpabjt9lvw5ps8D61VFElAgD940CYJaeHChZgzZ7YchUQfFMmoo6NT/ubJIA88sEYIiebf97//pKgkKloSzsWERFOOTm5+TxNt65ZtuHn1KnGA+/v74etf/1rv4ZM9eO655+XkmWtVSNXV1fjv//6D+Jnob+KlTi2+Jh74zEMdeVvRVX4EPou/Ab2TO8SEO7EebpOXwyVCOxmIhNR67D0YvYLgPnkl7DYL2rM/hrmuBL5Lvn1NGbksIdF0OnnWim05VvSYgZnxesxPMsLJwLmvy1c+v+/sscOgA5yNGjnxf+db7fjgqFlIKKfChuYOO+6fbdJ8Rb0Xp/+rmxl0qUPZeSs2Hrch3F8nTnC+uKbFLk7tB+YYYTLq8PS6HomHovJinjdnWyS/9e1AqO/EcGp3dXWJmcUO7unpIT4bHkFEFUPT6vHHH5PfORNHnwvJgYT1/PMkpAVISUkWguDR5+npqbDZ7Ni+fYcoJBIGCYkO8ief/G6fA3kwQkpKSsLatQ9ITR48eAhbNm/FHXfeLgrJ08NTzEOad3RM0y9E5zvz098pfUmFtHYtMjIvmGyffLIZu3ftwepbbsbs2bOuqQOohwZHoKv8MDrzd0DvGSSxRnZzB6ytddC7+co0v8ZIVlhbayUgUu/mB9htEjRp8AiA54wHrmlwuPIsmx04dsaGj45ZxVq7KVGPmxINcNKTXy7ttCIhrT9mRXOnHWtnG8SpTb3U3GnDq/ssWJ1hFJ/Sa3utuHmKAYkh2sm3jvCC7HN2fHuFETvyrOjsBm6dYtTklh3oMAN/29GDO6YaEeWvx6/W9+D2XkLiW5o67HjrgAW1zXZMj9OPa4XE8pJ8qGZeeflVBAQG4NFHH4HJZBT/EQmHs2b87IMPPhRCoolEnxEJiQqJh3ryBOGXXnpZvqODmOrp5ZdflVOBr4uQtmzFmjX34siRo8g+lYOZs2YgMzMD+/cfwLFjx8WpPlSFxPvS0ngisl2c7CyPp6eXmIh+fupIrOEkV0tzJVoPvwmbuRs6g1ELsbFapA/ShBPvrs0K2K0y86aF4FgBm01CBDgTdy3XZQjpwnIQksvJszbsyLagvQe4KcmAOXF6Mb0ud51rJJHZ4O0GRPjrxNwqqrYj1FeHRckGuDoBuwusKKiyIzpQD08XoKLRLqqJsUj+7sC6Y1bMijeIaae5uLXrrYMWhHrrhByfvoiQ6KvIrrBi0wkr0iMnBiGRfDZu/FiczG5u7kI49XV16O7uwaLFC+Sk4Vdeee2ShDRlSqYoJN4fGjpJ7uPBnpxpGw5CCgkJxocfrkd1dQ30Oj0iIsNRX98ghw0OVSExVIHOb/rHWF76yJYtW4rExPjrig6+lo4z3p/hINeRvQE9tcVwS14sy0Naj7wl0drumbeL36izaBd6KnPgmXW3qKS27I2w93TCc9oaWVYyrNP+FwMukb6VdjHfWjvsmBKtx8IUI9ydL+9Mp3nF2CKqFkZ0B3kCMYEGeLhoZEb/VHm9HVWNdnSa7fB21SE2SI9AL52ECJTX2REVqIPrReRX2WSHxWJHmJ8e2eesopR8+kWBy3q7Gpv4nsL9hn665lhuaDSDeBIslU9nZ5ccax0ZGSGnC9MkKigolNihuLhY+Zukw5m2kJBJCAoKlLilsrJyUVwkJaZBpcUTi2n21dXVi/PbcR57efkZcU5TUXF2LSfntDjFOc3Pi9+dO1ch7+O72ts7ZJqf76aT/bm/PS++rLvvuWtAvBIDOqmoIiLCJQCSzzJtx8UZQ5p9kyaFqMNCb1CDZRuwd7Wg7eQ62Lva4BIzEzoXT7SfXAe3pMUwBSag5cBLMsPmNCkV3WWHZHbNLXExTJMmS/jJtVxDXDqikQ5HpaIaO9YftaLbDGTF6LE01QAno0NNXSJq224XU4wmn7YQ96LLzihtwAqIz2mwW66lcBP1GXZo1hU7roM8hoqFI7hxuJ3DDBngLF1iYoKYgSQ+Hp3OsAKGKAz3+4ZaXnXfpRDQbBFrW71EYFtaa2VJiL29UfMjuXqjp6YQBjcf2M3dsJnb4Zq8DC7hmWLiXes1JELSlm84iMSOghobPj5uRZifDiszjPDg2rPLWG/9F88OmBVyBCQ5DLF+M3PXWqCJ/NyNXtV/PdiS6EhIJ0+egrmnB0aTCdOmTcPMmdNVlPX1AHtDn2WntsHa2YLO4j2w1JUK+XA2TS6dHjqjs5CSS8J8WU5y9aGQAwswJEL6rKCxo66VagfwdevNwhCCJa/FpryheI/TxEfzdiBUb5wRpNlGM09doxyB3k5r5wxaS438cLqfzmwuHzG4B8DoEwqd0WVYNuu4JkIa5RCq7CkEFAJjFAFFSGO04lS2FQLjEQFFSOOxVlWZFAJjFAFFSGO04lS2FQLjEQFFSOOxVlWZFAJjFAFFSGO04lS2FQLjEQFFSOOxVlWZFAJjFAFFSGO04lS2FQLjEQFFSOOxVlWZFAJjFAHdU089dfkTHsdowVS2FQIKgbGHgFJIY6/OVI4VAuMWAUVI47ZqVcEUAmMPAUVIY6/OVI4VAuMWAUVI47ZqVcEUAmMPAUVIY6/OVI4VAuMWAUVI47ZqVcEUAmMPAUVIY6/OVI4VAuMWAUVI47ZqVcEUAmMPAUVIY6/OVI4VAuMWAd0f/ucPKlJ73FavKphCYGwhoHv2T/+nCGls1ZnKrUJg3CKge/bZ/1WENG6rVxVMITAaEBj6+WaKkEZDfak8KATGLQJ28Gh7XkM5DPSKhCRH6vam2P/Ax3GLnyqYQkAhMIwIOAwwHfQ8upo/l7kuT0h2wGK1wM5D4a6Q0DCWQCWlEFAIjDMENDFjkKPdL8cllyUkHn9stVpgNF4+kXGGnSqOQkAhMEwIOKwrJmcxW2A0OV07ITExi6UHJpNpmLKnklEIKAQmKgJmsxlGoyKkiVr/qtwKgVGFwAVCEhf3oHm7rMmmFNKoqk+VGYXAmEZAKaQxXX0q8wqB8YWAIqTxVZ+qNAqBMY2AIqQxXX0q8wqB8YWAIqTxVZ+qNAqBMY2AIqTe6tOCsi4fITqma1plXiEwBhAYd4RksVjQ2dkJVxcXGIcQG0Uiqqk9j5qaWiQmxstzl7oukBZD3a9EXpe659LPXgspDu0ZLu1hSL4dOuhkmc9A8tXWEslnsgSI91659VZUVcFkMCIgwB96vb7vgaHl6dLpX+n5/oF0jlQGG0wc911uoLn4XQz0PV9Xh54eMyLCwwbN5OD5uzYMr9zWWCVM24bKyhq4urnCz9cXwOADaP+8XZzPweqdFd3Z1YXz5+tgtdkwKTgILhf1gcvVx1AwvnJLunDHuCOkquoaHDx8BDOmZiE0dNIALC4FbGFhMYpLSnHTTbPg6eEhz1y/Wrp6Quqf2St1St57NY2hvb0DBYWFCAkJwaSQ4AG4dHR0IK+gECHBwQiV74ZGSO99sB4eHu5YMO8mODs7X7LzOvB0lGk4Gvjlyt7/u6vBiPkkEW3fuQsN9fVYe/99Q+5L7e3tyC8swiTiGxw0ZAxbWlpxOi8Pk1OS4eXpecn3dXV148P1HwlJzpo5vW8AuBoC+gxBaY0Ih48cw/GTpxAfF4OpWVPg7eX1mX5zcR0OGZirvHHcEVJZ+Rls2rwFy5cuQWxM9GeA7e7ulqhyjugcDbluhqqKP05OTn3qwTHiW63aGj3H3+0dnbIA0MXFeVDSYqVTobFTu7m5Dng/39HR0SmfG41G+Y554DNMn3nju5gPByHy+66uLunwzKuDiPhMW1ub3OsY0fhZ/zKxcvkd06qtPY+Nn2xBRnoaMtNTe8ujjep1dfX4aNNmpKelYgq/M1Dt6MDnWRZ3d3d598UN+u13PxBCWrRgPiwWs9znyDfvJXbMu4eHR+8ory3CduDpyC//5o+jTCzrYATHsvEiViQA3kMciRu/c3V1lTT4e/86u7gOHbg7OllPj7bSgOny963bP0VdfT0eemCNYMB3OLDnMw5c+D6TySgYUmVvIr6ZGchMS5G0+LnNZpe8urq6SDoXD3Rnz1Xgw/UbcedtqzFpUkhfO2OZmG83Nzcpc1d3N957fx0iIsJw0+xZkg7LeaGd2sCBxd3dDQYD25aGg6NtsR5YRke7czTM7u4ebNq8Dc0tTVhzz13SnhxtzIFx/88c72Rb5jXcKzRGjJDae2yobjajsd0Ki+3yC3o9nPWI8nOCh4sOXWY7nIx66IdgQhCgsvJyAXj50sUDCInA79i5GyVlpfB095CRrPTMGdx12y0oKCxCcWmZPLN9x6cwmy24+87b4OTkjOeefxERkWGYM2smduzcIw2VhJQQHysNo3+FdHS0Y9ee/Thz9iyg08PfzweL5s+Hn58PCgpLsHf/AWnMbGjTsjIxJTMD2Tm5OHDoMCIiwlF7/jxaW9swb85sTMlMR2FRMXbv2Qe9XiOD2bOmIyU5SQhky7ZP0d7RLg0zMz0NU7Mywcb93roNog7zCwrR3dONWTOmIyszA6++/hbqGxqlA4WHh+K21TdrCkun6/2uASajEeFhoVi5fCmOnTiJo8dPwWTQw+TkhHk3zUJcTOwAU+6tdz8Qy455oOT38/MVDH19fXD46HGcPJUtHdJus2LJ4oVwcjJh3UebkJGWKmXMzcvH1k93Yumi+fDz9cMnW7ZLnpne9KlThDz7d+CtOz5FdXWNEFxlVRV8vX0QFRkhyoSdcdrUKQgMCMD6jZvkedZPWVk5PvpkM+bPvQnpqZOlE9FE2bJtB6hOfH18pL7cXF1xy+pVopBJSDW1NYgID0dRcYmQyV233woXV1fk5JzGoSPHJF9Gg0HUCuvk5dfeRGNjo3T4yIgwrFqxHHn5Bdizdz90er0QB/OUnp6mrWgHQNX68mtvCNm4ODtjSkY6kpMSsHPXXtTUnYfdZkdwUCCWLF4Ao8EIKlK2k2lZU7Btx6cyuLGuWtva5G+Sqc1qx7x5c5CUEI8dO3chN68AiQkJKDtzBj3d3VI/CfHxsqCe7XDv/oM4cfIU7LAjKDAQSxctkPS2f7oLFqtNFFTq5GRpR0VGBc/yAAAgAElEQVTFpZIm1VxBURHmzpmNlKTEq9RAl799RAippdOK7XltaGi3wtfdAD39GLSBL5E3gjU1ylVAO3G2C6E+JqRMcoGT8cqsdClCIuls+3QXMlInIzg4CEePn5AGecdtqyEmW2kZVi5fgqqqahw4dAQrli2BwaDHex9skM7Y0tKGguJiLFk4XxrCgcNHMHPaVGSks5Fr+Tp5KkfIZeb0LHh7++LkqVOIjYlBdHQkXn/zbQQFBok6KSkrR1FJKVYsWYyGpkbs2XcAKUlJiI4Kx7Ydu+Dt7SUNjSMn7MDihfNQ19CA7q5uZKSn4tNde9DY2IR5c+eguqZW3rN65Qr0mM1478P1mJKeJg2XpEIiXrvmHiHd3Xv3IyEuBikpKQgKDNBGQuhQkF+AXXv3i2SfnJKEjvYOfLJtByYnJSI8PEzkfGNDIx5au6ZvBOWzVEgdnR2YMXUqus09Qp5LFi1AclKiYOjl6QEfb2/p4D4+3kJK73+4Ac5OToI7G3352XOiDg4cPCwddO5Ns3GuolI6/m233Cx15bhISKWl5Zgxfaog/umuvYiJjpI8Hz9xEhaLFcuWLMIH6z8SUly9cjl27tknhHPnrbcIYfYnpPIzZ2WgMZkMOHL0BNzd3HDn7bdg6/adKCktxaL589DV3YUjx04gdXIK4mKjsWHjJ/LO+LhY5JzORWVVNR5ae5/ki/XIgWpycjJsdjs2bd4KX29vZGSkyQBRUlqGu++8HUGB/tJmuCj9VE4udu3Zh/nz5iA6MlLqq7ikREyz5uZW7Nm/H0sWLUREWBje+2AdAgMDYLfZUFtXL+2ChPrGW+/B399PBjE+W1Z+FjevWIac3DyczsvH1MwM+Pr6YvunOxEUFIi777itV8HZZSDhQN3e0YFVK5bJoPTJlm2gy/GmWTMFu5PZp7Fy2RIZXGjOhgQHCQmHhoTA08tzKO7GIZPWiBDSgZJ2HCnrxJ1TveHtSjqSfnZpP40daOq04NO8dtS2muFs0mFeggdSQzWSutx1KUJi46+orMKq5UvFCctOduTocdxx2y0oKixCUS8heXp44sVXXhMFw8Zx/NQp3HX7bdh34CCqq2sRGOgv5l1DYxPCQyfhjltv6VMNNBVJXCQ2T08vkeocGekkXf/Rx5h30xxpnO1tbXjuxVeweP48GaVIbiuWLUZMVJQ0+NbWVqxasRTHT2aLivDz80NAgB/SJ6eIWvn4k61oa2+Xxs5RsbGpSTopfUDvr9uAB++/VxyfJEeOkF989CE0NDSKcpiSmSYjsXZpZhKVE/OXmZGOKRlpQqzsJI8/9ghcXZyls3MkveeuO6QxOi4SEjvx4kULaCDg5VfflNE7a0oGzpSfQ1FpiSi+6toaUS4k2dz8AmRnn8biBfOw98BBBPj7S0eiqmXn9/HyFhOsqbkZc2bPwLSsrAGEVF/fgJXLl8HNxRl/+fs/RAXxeRIg/YCrVy5DYXEJ8guKhByphPxJTjev7DNvHAqpqbFJSJbXRx9vRml5OR57eC127z2AmtpafOGhtYItzVnWQUJcrLgD1q65VwiAfrftO3bitltWi/r76ONPkDUlXRRrYVGJEPHNK5chKiJSBqCt23dg9ozp0gY05WdHRWW1EM09d94uJltnRyfyCgtRWV2NttY2UcNzb5ojyokmW0tbmygdqsE5M2egoqoa77z/oSg7D08PabPtrW1YtHCekCXV43133SFk/PIrr8Po5IT77r5DU/Z2O7p7zNi0ZSuam1vwyIP348yZs/hk63ZkpKVh5oypqKmpwbsfrkdSQiJCJ4UIIa1athTRMZEyQSKD2jDOUI8IIW040YwOsw33TfcVItK6gkZKBEXzH1zwA1JRfXi8GXVtVrmLEndGtBtmxbpBfwXb7QIhLRJ10isDcODIEZzOzcPyJYul4vftPyCN9s5ek62opAyrli+REYgdnrMaVCGenh5YumghNm3dhq7OLhmtqO4op52cneDfO+ryPZu3bpeOz3S8fHzQTV8SzZm6OnywYSPmzpolDbaxsRkvv/oGFi+cD7PVgoOHj0pnjY4Mx8ebt6GhoUFGOG9vb9TVN4jplpeXj/bOTmm4O3fvgY+3D6ZOzZR8cMR093CX/JKQ2LCoTA4dPors06fxxUcfljTXb/wEmRlpyMokIXFGjf/ZJc/rSEjpadK5T+Wcxo5Pd+GJxx4Vwjly7Bj2HTyM+++5S/BxXG+9+750hEUL5klyr7z2ljwfExWJ1958BwnxcUhOTBBT1WRykjLSF/PSK68hOioSZysqccuqFTAYjeJ/CQoKQmZmWl+Z2MEckwx8JxVSfWMTVi1dImbUX577B+bdNFtUI8taUFQs6dG39MprbyAxIR55+YVYtHCumC0O889BSOfr6oWA2Pg+3PAxzlZU4IkvPCwKlETwyEMPCDGSrKhakxLj8dHGzXhgzd1i3uTm5WH7p7tx1x23Sbk2fLxJzGMSPkmRhLR88ULExcWgoLBYFPq82bORlpbSh2FFRaWoWroIgoOCBevjJ05hzuxZ0tb37z8o5ENF8u7762C2WEQps/y3rl6Jjs4uvP3eB2IG8x62B15eXp7Yd/AQCgqK8MB9d4lCeuW1N6Ez6HHvnbfDyeQkdc8BbdOWbX2EdPZsBT7Zug2Tk5Mwe9YMsRioOPk31SoH9jtuvRmhoaFDVj1Xc+OIENK6480w24C7s+i918Fspe/CLv4JrUtoXMvfalus2JzTgvpeMuI3yZOcMTfBHe7OmlP3clcfIS1ZhNjYGE2JAeDIuv6jTUIigX5+qKmrE4erg5AcJlugf4CYb2xMPeYe3LZ6pfgSDh46Iopl/tzZklv6n1KTExEVHd0nWUkc7MipqSnSAGiGsKFQ7rPz0lRJmzwZhcVF0tBJjtW1tUJIVG70h5AMGxobhARP5+dLA4uLjRE7n+YZGy59M2w4NG+owqqqakQhUTUNRkiPPfoQWppb8NGmLXBzccH0aVPFOepg68amZlEBrs7OmDFtqnQujpKBgYFCLqeyT8sGfGvuvXvA9D4VEgmbhMRRkn6qzMwMhAQFCsGx3IEB/mIq0oRauWwpPDzcxI9EtcpZJZqT3T09+HTXbvEP0S9BhUg1OmvWDPj5+gxQSCRPEht9Pn957gXBgBj3JySSBxUfZ1ypUB99aK3Uu0Nck5A4eJw7VyF55F5eOafzxARZsXwJtmzfifr6Ojzy4ANo6sWGBD9rxlR8vHkrvDy8JETk9OlcdHR24oE196CpuQUbN22WCQtiSCInhnQCT52SISZbfX0j7r37DiELx8U8frh+A+Ji45CWmoLi4hJRUyTauro6HD1+EjfNnomkxERRUqy36MgofLx5i/hI6cP6YN1HcHYyifJqamzWFPO0LBw9cUpmVu+/9x7BkYOg3mDAvXfdIYqOF9UoCYnt4+G196O9s0NMzYbGRsyZOVMU05lz58T85YQOFdIdt5CQBs5gX6lfDvX7kSMkqx13T/VBW7cVh8s6YbHZRfF4uBj6GkpFYw92FrSjtoUefI2m0sJdMCvGDe7O+itubclCc7bj2PETMlLThHEQEhsGOwEdxy7OLujq7MSJ7BzxZZw/X4/qmhpkTcmEt5enzF7tP3hY80ksXSgOxba2dmm0VVVVMgsVEhIsiqL/bBCnjHNyc1FeflY6KO9hI6MTvaq6Gtmnc2Uk4uiWlJggJlr52bMysk+dkil+naPHTohTkaYPlRVHuB6LBc4mI+IT4oUgmpqacOp0LurO14tPh400bXIK6hsasP/gESxZOE9mvEiQ9JMsXbIIVotFFCH/9vH2ko7suNgI6GMq43denpg1Y4aYL1QXNKPop2A5NHPtgs1MnwnjttLTJovCJanExEQjKiIcR44eAxUIiYj+FGLIjsnZydKysziVk4PY6CghaCbJAYPKjKYwO1dkZARSU5IHECCJuLWtXerJ2WQSU4OqIDo6CoWFRWKiTJ+aJTNNJ05li9KhI3vxwgV9MVgss4OQWKeJ8bE4V1ElxEoznQ7zEyez0dLaKj4a+rVo2ru5u4uyPHP2nJjBdKJ7enpKHjkR0GMxIz+/UL739fHGnFkzRAGyPbS3abNf9K3FREcOwJB5yc45LXFwMdHRQuDMOz+nmcu2GBcXi/CwSdi3/5B8lpKcgJzcfGnP07Om9PmimGcnk0mc1rExUWIR8J75c+dIuThY0sE+d86s3tk2u0zgkPQ4IbNo4QKpXeaFdcFBk32FAyLbKycSODjNnDFNCO76Q2M+S1MjSEjArZle2FPYjuxznbDr7EgIcsHCZE+4OulQ32rBJzktON9KM42XHenhruI7Gooz21E0Eg99PJzt6B+sV1tbi42btiA+PhYBfvQhnZR76I8gQfA5x7QsyWSwaU2rlWmb5VWOaeKLIWU6rGTmf7DpYgaf0QTl86xQ+pD448gv38v3O/LCCnJMtfaf0SNZ0ikqsz29ZXWUfUDaNps0Ul7a91oYA2fb+l8XvtPKxjzIu+12UUx0dl588XvH++V+iwUGvV7uZ5ksLFdvuAAJy7GrqCOfvK//dDrL7piiZ1CrYzbK8d6LsaG54UiDz0kdGoziiD124pQMHvfSzAygE/nC5TDZODlBfwrrixMYjilxx3scOPDvAeU0W3rDK7Rn+odo9MeXg6FFZlUZXjLw3v75cbQBloVtlu9ztEet7okTwzAs8j3vu7idS+iK1TqgbTnScbQH1pej7fZ/f//y9sf64vQuvJMhEleeYBqqKup/34gS0qp0T2zLbUXx+Z4+31FqqAuyIl2x8VQL6tq02AaWNTHEGfMTPeHmdCEC+FoK6HC4Eczjx0+Kk497gNOZOn1aFgICAoZ1luBa8qieGV4EaAJ1dnaLv4x+JEeck+MtdPzSv0KTnaayukYPAiNKSHdP80ZVkxk7C9okJokXeZZmW2sXlZHmS6LPaHqMG5o7bYjydxpyDNJgsA6MZKVKsPYqEIc/6sYw/eip4omVE6qSnu4eUWODBXNeQKP/9MrEwmg0l3bECKnHasc903xkZqe+zYxNOa2obbVoa6t6/UWkhvRwF8yJd0dNi0XMuzUzfGA0jABpOJxNA1Z8DGXN2tCqd8CMYl8M1giUa2jZU3cpBEYFAiNGSGYrQIWkdXEd2rsteP9YM+paLWAUFsMykkOdsSjRA04mPQpquoWQHp7jC9MNJqTPrPGhw6M3illCEoawlPbKtUny4dIHjYTo3KbvgE7fq3UOXrxWS5aGnK8TvxAd0OpSCIxVBEaMkC4oJLtEgfJ/tS1mfFrQjprmHiSEuGBegjs8eqf2NUJqw8Nz/G44IdG/xFkwby9vWZvFCG6u+0qMj5e4oeG4OONEJy0jlkkgu/fslyUDixbMHRD9PNR3cW2azW5DcFCQkOcrb7yN4MAAmVHr78wfanrqPoXAaEBgRAiJs2fVzRZRO9raJ63oFCGcVWM0dkyAsza13xuPlH2uCyfOduKBWb4wXq1Hv/fwSpvVCpOzsyOeVELfNTXSG/XEoEwuqOzulhgNxr0wAIzRxR9u2CjrdBiUZraYYTJqM1UONcMZD/64ujr3Lo7Xop4daorBa4x9cSziZZQ0p+gXzJ0jCyYZT0OFROe6Tq8tlOSsEe/pI5Relcb3M2HHjA7vZUwK43fuu/tO+byyskrW3jGSXMNWC3pjWo7ZOUdAp2NhJtPRvhseDTgaGrTKw9hGYEQIKbeqC1tzWpER6SJT/QYSjE7ChLXO0/unA8qmTisOFHcg3M+EhUmeV+XU5szJoaPHUFRUIrTD2A4uSmXnfO/DDVgw9yZZW1ZYXCzxF/NvmiPBbm0trXB2cZbI4ilTMoSQoiMiZAlBW3uHkBMXR3IKloFrXJbBoLKI0FDMmTNLlJWDdKxmizzHOCiuN9u9d58EW5II/H19cf99d2PX7n2ykJRbd3DW59Pdu1F7vh4mowHTpkxBSkqyEAWjnLmokQQTNmmSrHk6cvyEzBiSr8JCJ8kyAQZ9Mk6IS1A6O7uwbcdOicnidDPXyXFGkXE6XNsVFxMtQYFUgmmpyZgxfdrYbsUq9+MGgREhJHamfcXtOF3ZBS4gJgMJCfWD0THnwY8MOjuCvU1YkOgBH7crR2f3rw1uP7Jv/0FROow34SLam1cul0Cul159Q6J8uaSBQWNcn3brzask4Gs3F0bGxcpKZgZHcikBSYxRwBWVlRJgxohfLiJdv/5jhIWFIioiDPsPHUFUZCTmzpkpi01bWlqQnJwkgZcFRSVYungBnJydZeEpZ37SU1MlkJDRsCS0lSuWYfPmbbJ4VoIbGxtRX1cv67Bo0jH4kIteOXN07ORJLJg7V5ZvfLJ5m4QvkNCiIyPwtxdeknB+Bnp+tHETzlVVyXok+qqKioqxZNF8Cf5jVK7JYEJSUoIs9mQw5RceflCCJdWlEPi8ERgRQnIUsqHdgrYuG3qX21yy7FxM6+duhPMQVvdfnAjVBtUJI3pJDowI5mp0Rq6+9Oqbsoo/MYGElC+ExJXmHp6e+Nvf/4H587QtKqgcqJAYVcsFsVy0+fEnW2TNEjswyYXExWhoBuFRld19x+14/8P1EpG7dPEiUSZ/e+FFCb/nYtN3PlgnEcj8jgtWudUGN91aunghXnjpFVnCQHIheZefOSNrpVxd3HCuskJ2F2BZ9h86LGulFs6fi9defxtdPd14ZO39MJqMeObZvyAsPFRWqHNtFBdT3n7ralla8sJLr8raMZZt85ZtSEudjDmzZ2L/wUM4eOioLEdhtLG6FAKfNwIjSkg3srCOmScuYjx89BgiwkOh1+ll+wWaKzRTXnz1DaxYuhiJiQmydQTXmnEtG5XDX/sTUmurbP2RkpQg6764nodrvW5dvUqWc7ATcykF1yvRL+Ps5IzE+DhZ5EinNRfN0q9D1cLQfu5VpBGSkxAQl1twiwcSEu99/qVXhGgY4k8Hm7k3ApmkyYjy8NBQ8fUcPXZcVuQvXDAPr73xtiioh9euke+e+fNfRLUxDS6GnBQcjNWrVogK46p4bl9BYqRC4jonvo/bk3BVP/eE4nYl6lIIfN4IjBtCIpB0ErODcYXyvXfdhsqqGllQOmvmNDHhnnvhZSESbgFBvxE3W3MQEsmDG1FxDxgumBSnduIFQuKs2y03r4JOZ5cOv3zJEsTHRSM3txDtne2ydu6ddz+8JCFRtXCt24qli2ThrYOQVq5YirfeeU/WDHHzLOZp+45dWLZ0EU6cOoWGhiZZ3sBtKrh2i+vnuJj19bfekfV1zD+3UyEhccHjbatX4c2330Vnd7dsm1JVXSV7LHFtHFWQIqTPu8up918OgXFFSFRJpWVncODgIZkS5xajJIH0tBQkJyZi5649soCU5hSny5tbWrF86SJZdc5tFej0pWlDctm2facsKqS/hz4mLtRctJA7G/rg8JHjYsbRJ0QVRgXEjbk2fLxZ0po9c7psqfHW2++JeUSi486QXDTJdWX33XOnmH2cJaOZxoW93G+IzmiuEeKiWy5g5KLP/QcOybo/Px9fWazKhZXcvY97FGWfzoOHu5uYcHRqB4cEY/mSRbKoc+++/Vp6Oj18fL1l47Lmpmbs3LtPNqmjyckFmlwES5LkXtvqUgh83giMK0JyqKTm5mZxaHM/Ie4Jza0q6O+hr4ebkZEU6Ovh7BkDE7kAlL4n+mmcnZ3g7uEh25GS0GiWcSdGbkPBoENu20DQmA6d3tyvh9tdcAaNU/lcriDbS/Ru68r3eLi7w2qxoqmlWVQcV2zT2UzS5L5GjEQgOba2tMDkZIK/n1/fVD0VE8ML6GjnPdzewsvTS3xNzCP3bWIadQ31sseNI9CSK7/5DuaHoQXMN8vY1NwED3cPuLm7yYp1+su41S5DBtSlEPi8ERh3hHQpQLVobMe3nz0KyOGDGuz5/hvXX4iq7tti7pJ16IgAv9SOekP+3BEe4Yjz7jc92RuqJHkYkB6jKvrNZA75XZ93i1Tvn9AITDBCutCTLxDUBXLqT0r9l3MMxxadA9O4EIjYfxnIYC2xL088mUPb4vGifaG0tC5sczcwzrF/OfunP3DRsTokc0KzwCgq/IQhpFGEucqKQkAhcAkEFCGppqEQUAiMGgQUIY2aqlAZUQgoBK6bkLhA02o1D/sJlqpqFAIKgYmHgCKkiVfnqsQKgVGLwHUTkrYhvnY2uroUAgoBhcD1IHDdhMQ9hqxW7fQHbTP168mOelYhoBCYaAjIIbG9cXRyAo/BSfYIu9Sle/bZ/+2/O0jffVqMDDcX47EtPF6HXylGmmgNSpVXITAcCJBOtGOejJfdM/CShNTLa9ox2H2RwsORNZWGQkAhMFEQuLDagMG/2m6N2meDi5srENJEgU2VUyGgEBgNCChCGg21oPKgEFAICAKKkFRDUAgoBEYNAoqQRk1VqIwoBBQCipBUG1AIKARGDQKKkEZNVaiMKAQUAoqQVBtQCCgERg0CipBGTVWojCgEFAKKkFQbUAgoBEYNAoqQRk1VqIwoBBQCipBUG1AIKARGDQKKkEZNVaiMKAQUAoqQVBtQCCgERg0CipBGTVWojCgEFAKKkFQbUAgoBEYNAoqQRk1VqIwoBBQCipBUG1AIKARGDQKKkEZNVaiMKAQUAoqQVBtQCCgERg0CipBGTVWojCgEFAKKkFQbUAgoBEYNAoqQRk1VqIwoBBQCipBUG1AIKARGDQKKkEZNVaiMKAQUAoqQVBtQCCgERg0CipBGTVWojCgEFAKKkFQbUAgoBEYNAoqQRk1VqIwoBBQCipBUG1AIKARGDQKKkEZNVaiMKAQUAoqQVBtQCCgERg0CI0tIdgA6oPcf2O068C/t/3bodPxtDFx2wGqzoaurC05OTjCZjDc0050dnTA5mWA0Xv97bDY7urq74eriomE/jJjb7Vp6VqsNZrMZLi5OWoVfxyVpMg2tkUg76ekxQ6/Xw2g0SMrDWYb+We3u7oFep4fRyQBzjwV6va73nddXpuuAY9w/OmKExIbV3NKG8nOV0AklsfHq4eHhgUnBAXB2crphDWu4apFl4MVOffjEKbS1dyAlMR6hwYHD9YoB6Wivs2P7rv1ITohD6KRA8LPr6YD1jU04nV+IrLTJ8PBwvyH5PldVg87OTiTERl9/+iQhnTZowa6DzW7HoeOnEOTvh+jIsBtKSMdP5cLTwx1xMZGoqjmP+oYmpCbHQ+NwRUrXX7mfTWHECImvrqmrR25uASZNCoHBaIDdZkdLW6v8y47t7uZ6I8o47GlW19bhzLkKpCUnws2NSuMGNU479QCwddc+pCYmYFLI9RMf1QVJKSjAHwYD8z28ee/q6kZBcSmiI8Ph5enRp4avuRLswN5DR5AYH4sAXx/Jb11DI1ycneHu7npd5HylPB3PPg0Pd3fEx0TBYrHiyMkcxESEITDQf5hRu1JOJs73I05IBYXFmJGVCWdnKiKgo7MbuQVFCAzwR2RYiDS47p4etLa2g4rE08MNLjQveu28HrMZ7e0d0kBIBm6uLr2SXifKpa29HV3dPZK+p7ubSHt5FkBnV5eoGr7X08MDzs6mvvd1dnbLu6jirDYrPN3d4eLifJFisaO1rR0VVdWSTkxUBLw9PcVk47vbOzrQ0dkJk9EkI6vDlOvs7ILNboPRYERLW9ugafNFTJMdmmTt7ekheScG23btE4XEd7V3dEq+2dlpTrBn2Gw2tHV0orvXhPRwd4PBoJeyMU2DwSAmFHFhvnp6euR55qm9vVMGgrb2TnT3dMPNxeWCchITCTJo9HT3SD2wgza3tMDd3Q2mi01IO1DX0ICK6lqkJMTByYn4aoqypbVN6tXZScPGoDeI+cXyMK/EprmlVQjG28sTRoMeZosFre2dOJlzGpHhYQj09xPsWCaTk1FUNS+z2SL1YraYJf/MmwMb1jnf72QyoqmlVTCV9PWGPi6mCUscePFZF2ct3ePZudKG4mKi5O+S8rNobGxCVmYa9MNo6k4curlyST8HQirBzKkZ0pjY2K1WKwqKy2AymWQkam1rk7/ZAfRGrVMlJ8RII+rs6JLv2Onpu2Eni44IR0hIAKwWK8rOVOB8fQNcXV3Q2dWJAD9/xMdECmFR1ZSUn4HBaITObpdOTFXm7e0p35WeOYsgf3/UNTaKf4i2UWpSIry9PPpQpJIrKClHXX0dLFYr3N200ZMd7FxFFSqqa6Qx95gtUr7JSfFwMjnhTEWFdCJ2Gl58JsDft1/t6FB+5hwqa2qFBOmbcnd3R0piHIwGg5hswUGB6OjqFIbo7u6WDhpBAtcBxaVnUXO+Di5OTug2m+Hr7YW46EghhNN5hbDYbOjo6IDRaEJoSBAqq2uQlT5ZCCK/qBReHh6ora+HXq8RF/MXHBQA2OzSCStrzsPF2SRKNjx0Es5UVCI5IRY+3l4DW5jdLunp9HpJg32WA0dJ2VkhKmcXZ5h7zFK2tOR4MT8LikvgZDKhsblV0iJZsi2kpSSCPpzSs+fQ2NgIN1dX+Pv6IT4mAqcLiuHn64NJwYFyT25BMTq7u+FsMqKrq0fKGBkRStsWZ85VoqOjU37E/2S2wNXZGVPSJwup1DU0Ib+oRAiQ+WbdpybFC2FrhKSZbLxImCdP5yErPRUkfXUNPwIjTkj5hcWYlpkGZydnGf07OkkypYgMn4QAPz9pXBwxk+JiYYcNJeXnZESelpGG2voGNDQ2ITEuRhoTOxZ9UnNmTEVTcwvyiooxJTVZHLbNrW3ybGpSAqiq6DfhCEsCs9ttyC8uRV19I2ZPyxQSYr4iIyIQGxkujZI+Ik83N6Qk0WfQz6yx21F6tgItLa1In5wkIy5VVXZevuTZ389HOjrLwTKmJMai9Mw5nK2oRMbkZCELTe9fSJMY7Dt0TDpCSFCgKIOcvEJEhE2Cn683tu/eBy8vL6QlJQhhVVXXoqKqRgiPnTc7txCxUeHw8vIUsjqRnYe42EgE+PlKp2L5+RzJUC0AACAASURBVCzVJPOaW1iM6Vnp4hw+dToPrq6uSE9OlCwVlZajqvo85s+ZjobGZpwuKEJ8dCRCQoKEXE7l5EqdpSYnwNfH+zMK8tipXAT4+yAyLFS+o++FZJ85OaVXibUjO68QAf5+iIkMF3VcV98g6bF+unssOHL8lJQ7KT5WBpOdBw4KOQf4+8tAcTInHwEBvggLCUJ+UZmQbUpCvGBT39iIvMJSpCUnwMvLAyVnzuLcuSpkpafBy9NdlNrxnFwkxEYhKDAAhUVlQoix0RHSHnPyC4Xcpmem4URO3gBCstrs2L3/sNTTwAFl+DvmRE1xxAnpdG4B/Px8ZDSmSqGJ4u3FEZ1EARw+fko6openp9QJVUVp+RlMn5IuyoeKiqMiOwdHLHb2ebOmo72jHXmFJTKyU01xRDWaqIYgqon3ZaWnSAdmw+N79x05hrSkRDHRCopKMXfWdFEk7JhUW00tLUhPSRSTxzEzyDwxrZbmVqSnJkOn16G0/KyYkTSrOPNDAiNhUBncNCML5RWVYs6lpyRdmGLs1+JYngNHTyA4MADBgf6Sd3YSmZGkybZ7P+KiIhEVESpp08Q4dTpf/Crenu5ikpAELWaLkFlx2VkhhOAgfyEnqryoiDB5lpidzi/CzKmZ8kx2boE4nx1ESZI+mZuPeTOnieLjAMABxDGD1trWgRPZp5GanAhfnwsKSXO2AwePnhTlNik4SPJF9UHTNTYqQhQI1WmxqK5azJk6BbmFJWI6ZqYm9SKiExI7V1UtPjr6inbtIyHFIzDAT1TaydP5CAzwxaSQYOw9cFRwCQ8NkfbD9pFbWAQXJ2fEx0ZJXbW2tyOT2Ot0Uo6DR0/I4Eflw3olbsSCz1bXnhfVNGf6FHlPf4XEDO4+cETUJ9WZuoYfgREnpLz8IiTGRcNoMsmsBRt8WkoSvDzchST2Hz2u2fhGh//BJiM5n2GDpyKiecaOT98B1dP82TOl89JZW1N7XjqswWBEUICfNFSO+FW155GZSnLRps7ZMD/dewDxMdEw6PUoKjuD+bOn9yF8trJaRm6SiGN62fGlEJIopGSZCs7NL5Z/E+NjpNMzbZaNo+2saVNQVV2D7h6zmDmDXby/sbFZ8kh/E0nOz8cbEWGhoha37+6dZQsJksfZeUhIJBJ2mKIyEmK7RobQoam1FQm9ZhdHeS2tSb1mR5uoRQchUYlRfThMEKqiEzm5mDM9C5wto6mTkZrUR8hmsxUHjlLNDaKQABw8ckLIjwOD3WbDqdPaABQ+Kbiv6FU1dcgvLpF3FJaUiaKlae2ol7a2DpwuKBTSc3d1wy4qpIReQupVSCSkkKAgUSwpSXGirrTngYKiEiFm5pEmH9tPf+w5S+fj6SmEVHO+HpXVtTLocDCiqc92NXvaFCHm/oTEtPcdPoqo8DCE9SvP8HfLiZviiBNSfiF9SJnik6CrZv/h40IaHFV7LBYcPZ6NlIRYISWAPiSbFiRgh/hDqB5ioqgU9GhoakFufhHmzMwSUtFmye0yNVxZfV58RlPSUsSZW362AlPTJ4tq0jq1GXsPHEZKYoKYhkWl105IBSWaz8uhkMRUqT6P/OJiUW9nK6ouS0haT9JibKgA6hubhczioiMEm/6ERPKiCeYgJGJQe74eGZOTxH9F31Z2XoEolJCgADE7qGQcJhRNtiER0oypqD1fJ2bxrGlZ2sQB7DLDlVdY/BmF1FsEqT+adzSnqICpxrQ6C+8la6D87DmUna0QRUpTmWmnpiT09UKWh9/TjOOzAxRSP0JiGUlIsdGRfQRBczuPZr/egKSEaJSeqbgkIdFky8krQHJ8HHx9PaUO6HM6V1WLOTMGKiRRyHY7dh04IgMBsVXX8CMw4oRUQELKyhAHJ8njXGWNOGTFH+JkxOm8Ipnp4AjERsVZqebmVoSHhUjjpmkRGhwE2vOc7WIDWjBnJjq7u0TRsJE5m0wy65STX4CEmBgJ0KNPJ2JSCPwD/OS9ZyurUFVTK76CxqaW61JIJIXC4lKR8nT0kjBKSs+IamPcymCdon9VdnR04UxlJcKCg8QstVhtOJmTJ7E2UZFhGiHFMw7pswqp5nwDWlpbxLzRG/QyO0m/T2JMNIKDNUK6JoU0I0uUAn08rI/Q4GApF00pBmpOTkqEn28/p3bvTCadvvRlRYeHCcFSfdA8S46PFfOLPi6aaZwIoB+HdcrZL/p8OINnsVqQk1sINzdXUTUceHbvPyQzmiQBKhn6kAL9fREaEiz+MIvFgrjoKDg5caauDcVl5fK3n4+X+PsGVUhenuLH4oCWkZoss390eNPE7OrsxqzpU3Cqv0KyQ8q///AxUfT0calr+BEYGULqdTDU1tUjv6AEM6ZmiAOSH3d1d0mj9PPxkUA3kgNHR37JaWWqJofpVV1zXnwzTs4mcWqzsdY3NMpIy9kh+k5ozrhI42KksGYK0PHMmbRzldVwdtaIkJ2NjnSmzVmk4tJyzJ8zQ0PYDpytqkZdXYM4rh1+JYfdQpONJEkntd6gExOSpmRDU7OoFKZNciBBcYQvO3MOPWZNQQ0WmEPzorB39tDVxVkIiYqPTl92zG2794nJQiLuM9lyNZONpF1QUir6hZHcNNvo54kKD0VQUIAQ2+CElIHubrMoMXZ8BknS38YynMjOFdVJP0xDczNqauvEZ8dQCgaxnsjOlwFksE7JuuNUe2JsNPQGgyhH4tXW3gZnJxfBgc5+khHzS/Lkxfp0+MJYloS4aHFCk9U5mLS0topZRmISQgrQCIlhA8WlZ0QZclaxu6tbBoXoiDCpd767D/ve/nPoeDZ8ev1qZeXn0NjcIgMBMae6bm1pw+wZWYKdBEZGa+bk+fp6FBSXY3oWJ2W00AB1DS8CI0NIvZ2cjYYOXMYPycxVr5lC84mXTC3TJOmxSKMmYbHi2cnZuOj8pPlFPws7Bx2/HB3Z6XmxY5OQzOYeCQtgw2dMDxNiunwP/UvyLidnuHJpg04nBEJCc3Vz7Y0IhhAhnZxaTArJTyMq3kCys1lsWpxS72SZo2z0g5FIXVydJR6JDzFtR1nk5YPEIsrzXd0wi3/MKCpP4ph0domRYXkdS0fEKd/dLWUkLuz0xItOYxKazWqV8AaTwYCubrP4oRwxUVzWQZXCGTdbbwiBk7OTdEZmkmTI7znzRrXC97i7uAr28i6zBUdPZMu0vGZW93J4bxQ7Z7EYKsA4JCoilpV1xHpj3TMfxM3JaJTOz8HIocAY7sD7+ZwWFqLJLj5P8uT7mW/OgnGQcJSJ9dHZ1a2RppNJpvUl8JZtyWKRcvUnEGJl0OmFwMxS3h6YOZC5OIsC09qUi+SZ9c52xIvhBsSWZVeRkcNLRI7URoaQ+qaoZB3AZStTW56heSz6Kr03QE+WNPX+ruMvjlVwvebChX4+yDt677lACFzAoiWmLWWRRVHyD9fYXfisH/AXFuFdyFw/onL4sLSlV5pzuy9kwDEN1X+6rq83i4OiHzYDF/0NXM/VO53lIILeR7WCaLkewHeDvU/K7VgfNjA9BxTEhtP72bn5Mr3PyG4qmOKyM0K4MvvYu5ZMw0wrKwmgqLhUZgz9/RyxVtr75JWaM0ZWMDp8THSoUw06Biht7RoHEccymd789o0J/errIlx7m48DDs35OGgQ40UY9KLWt6ayX13bdToZLI5l5yIjJQlujBC/Mf1xwqc6MoQ04WEeowDYIaEP9APR7CFRUDlxAsLV2eWSA0tjU7Oo2FDORA1KiBoeJLhzlVWiTEh4o/ni7GNHVxfCQ4KVOrqBFaUI6QaCOx6SlhlOmx1Wq0W4xcSwCfHfXbp0VEs0xzQz8NLL5Xgf02ZiDJsYnZdWAJvVppVb36veR2dmx3yuFCGN+Sq8sQVw7HBwcbS6dNPLsJJYSjSK2YkvmcWBpumNLcn1pa6VZ9jXIl9fpsbh04qQxmGlqiIpBMYqAoqQxmrNqXwrBMYhAoqQxmGlqiIpBMYqAiNMSJfxcI5VBFW+FQITBIFLRlAMY/lHmJCGMecqKYWAQmDcITAyhGQH2ribYkeniuEYd01IFWi8I8CVEO5ubpcN9RguDEaMkLhGipuoqRDX4ao6lY5CYGQQ4H5lXKh8PYdLDDWnI0NIzI1yHw21TtR9CoFRhcBIdt2RIySBeCSLNqrqVGVGIaAQGAICI0xIQ8iRukUhoBCYsAgoQpqwVa8KrhAYfQgoQhp9daJypBCYsAgoQpqwVa8KrhAYfQgoQhp9daJypBCYsAgoQpqwVa8KrhAYfQgoQhp9daJypBCYsAgoQpqwVa8KrhAYfQgoQhp9daJypBCYsAgoQpqwVa8KrhAYfQgoQhp9daJypBCYsAgoQpqwVa8KrhAYfQgoQhp9daJypBCYsAgoQpqwVa8KrhAYfQgoQhp9daJypBCYsAgoQpqwVa8KrhAYfQgoQhp9daJypBCYsAgoQpqwVa8KrhAYfQgoQhp9daJypBCYsAgoQpqwVa8KrhAYfQgoQhp9daJypBCYsAgoQpqwVa8KrhAYfQiMOCHZ7fYBB85d/PeNhoiH3fGd6lIIKASujMCI989nn/3fEe+dbq5uiImJRlBwYC856a7qmN4LfHJ1WXc8R1LS6a5cGeoOhcBEQYB9g33CZrOjpqYGZWXl6OjoGPHij7hC0uv0SM9Iw4wZ02AymS4q8HCxhEZUGsgXp9mfxIbrfSNeb+qFCoFhRuBCnzGbzTh8+AhOncqGzWYb5vdcPrkRJySS0OLFCxEXFzeiBVUvUwgoBIaOQFFRMXbs+BQ9PT2DDOpDT+dq7/xcCGnJksWIjY252ryq+xUCCoERQqCkpBTbtm0H1dJIXp8LIS1duhgxMYqQRrKi1bsUAleDQGlpKbZuVYR0NZipexUCCoEbhIAipBsErEpWIaAQuHoEFCFdPWbqCYWAQuAGIaAI6QYBq5JVCCgErh4BRUhXj5l6QiGgELhBCChCukHAqmQVAgqBq0dAEdLVY6aeUAgoBG4QAhOKkFRg5A1qRSpZhcAwIaAIaZiAVMkoBBQC14+AIqTrx1CloBBQCAwTAoqQhglIlYxCQCFw/QgoQrp+DFUKCgGFwDAhoAhpmIBUySgEFALXj4AipOvHUKWgEFAIDBMCipCGCUiVjEJAIXD9CChCun4MVQoKAYXAMCEwoQhJbdA2TK1GJaMQuEEIKEK6QcCqZBUCCoGrR0AR0tVjpp5QCCgEbhACipCuE1iejsANyXmwkcFohJOT0w0/LeFKh+hd7vv+h1X2P6ppsIM0CQ3vYfm6u7vld3d39+tETD2uELg0AoqQrqN1HD92DO+++x6ys7PlMLa4+DjcedddmDFjhhDTtVyDkUn/zxy/X+q+/u/87NlwzKZ2DtaVvut/30cbPsIzf/wjAgL88eLLL0sagz1/LeVVzygE+iOgCOka20NlRQUefeRRVFVXYfr06XB1ccW2bdsQHh6OP/35WaSkpFxVyjwYjyd2urm5Qa/XD/qsxWIRpeLq6jroPSSKzs5OGHuV2mCJdHV1ybODEaYjD1RB/Y/+fv+99/Gzn/5UyvbRxxuvqlzqZoXA1SCgCOlq0Op377vvvIPvfe/7WLhgAX71m6fh5eGJ3/32t9i+bRu+9Z3vYPmK5bj/vjUICAzEH5/5Izw8POTpH//oR9i1axe+9a1v4f4HHpBTbg/s34ffPv0bFJeUCFFQZX3pS1+Cf4A/qGeaGhvxt7/+FW+9+RasFguiY2Lwz08+iXnz5/WplYL8AvznL36BnJwcOZp4wcJF+M53v4OoqCh5b15eHn7/+9/j2NGj0EGHlatW4dvf+Tb8AwLQ2tyM559/HiSe5pYWxMfF4Yc//CGmzZguz25YvwH/71//FbGxsXjnvXcvqbCuEUr1mEKgDwFFSNfYGDZ9/DG+/rWvi5n243/9V2RmZMDbx0fUB9VFe3s7lixajOCQELzy6ivw9PSUN339q1/Dli1b8KMf/xhffOJxbN2yBd/8+jfg5u6O4OAgUUmVFZW4+5578LOf/wxURb/49//ABx98IAqFhFVVVSVK6I/PPIMVK1fgwIEDeOzRL4hyioiIgNliQXlZKdLTM/Dr3zwtz91z190oKipCcnIy2traUFJSgkcffQT/9tOf4rm/PYenfvlLRMdEw9fbB4WFhZLfdRs2wNvHG5988gl++C8/ENX36uuvXSNi6jGFwJURUIR0ZYwGvaO5uRk//9nP8fHGjdJ5p06diilZU7BkyRLEJyQIYSxdvATBIcF4+ZVBCOlff4x7770X991zrxDMd/75u/J3RUUF/vK//werzYqf/vSnKC0rwxNffByJiYl4+re/gY+vL95/7z3s27sPCQnx+OrXvobvPfkktm3dhn/54Q/w6KOPyjHEv/7Vr/HWm2/i5//+71hz/xqkTU5FQkICfvu73wnJvPiPF8U8/Ma3vol/efJ7eP/99/H0009j2coV2LRxI44fP4EnnngCMbEx2LFjB773z08ic0om/v7889eImHpMIXBlBMYWIWn+WMiU1lVeJpMJWmBk9LUl0O99DodvS0sL9u/bh02bNgkhkISoIn75q6cQGRl5RUKaNXMmHn7oYXh7e+PvLzwvJhHTbmluQY+5Bz7ePnj55Zfwi//4BX7wox/iq1/9quSCfiCqHINej6amJnzj699Afn4+srKy4OXlJSZbbe15Md/Wrl2LX/zXf4oKI7FERkRgcloaVixfjtk33STk9P677wq5klhjYmMxb95c3Lx6NcLCwqA3GLB3zx5851vfxqzZs/CnZ5+9SuTV7QqBoSOgEdIOmHt6rqmfD/1NA+8cwlHaZB8yj8ZCvZND0tmuJacmkxFLly4ZlqO0mSP6cmhO0UQj2XV3dePb3/4Wtmzegq987av45je/iWVLlsLf3x+vvv46PD09JNtf+acvCzH86Mc/ElX12Bceg5+fH1586UWERURIiWly8SLh/PUvf8FTv3wKP/vZz/DY418UOKierDabmIblZWX45je+gcKCQknP1dVF8BHStNuxYNFC/NOXvgSS53vvvYc333gDZaVlsFqt+Kcv/RP+5Qc/kHIcPHAAL7/4Evbs3YvOzg7xU739zjvw9PLEyZOn8LOf/ATTp03H//vJv6kZtmtt9eq5KyIwuhWSQxH1VydXLNLgN5CQlpGQYodBIQHYs3s3nv3TnxAfn4Cvfu2rCA4OFjPoF//xH3j8icfxve9/H/fefY9mgv31r8jIzJDfv/G1r4v/5kf/+mPcfvvt4ttpbW3Fv/3kJ7h59c1obGzEG6+/gY7ODnz5y1/G6ZzT+MqXv4y5c+fiqV//SuKAdn66EwcPHkBoWBjuuusu/PN3vou9e/fi/3vql7jjjjvEZKNio4qav2C+PLPugw8RGh6GefPmITc3Fz/6wQ/lXYePHsFHGzagqbEJS5YugcnJCU//+mkhrl/+8pdYs/YBSSc/N0/UFM0+dSkEbhQCQkhbtqPHbL7qVwxqOA3RmhqokBxiyKGE7A5lZO9TRo7c2XsV04Xc9nv4MkVwMpmwbPlSxMbGXHVBB3uA5LJ2zf1obGqSuKOAwAAcOngI9C397ve/lxmw3zz9G5kdi42LQ0pysviKaEYx0JCE9MUvfhEvv/QS/vMX/4mwsFCkpqWhob4BBw8exLLly/Drp58WcvnhD36AXbt2Y9asmfD09MKJ48dRW1sr/qG1D64VP9Z3v/NdIcXpM6ajo7MTO7fvQEJiIn77u98iMDhYiK+luVkIimEBDFEInRSKD9Z9iF899RT+/tzfMXv2bMTFx+PwoUPIy82VmKPZc2bj/2fvKuCsqNr3c3sbWFg6RcAgDEJQQkBCUtTvb6CoqICJEkpIdyONgWITBgYdfn4qGKhgUJKLNGzf3Zv/3/OemRsbsLssCjjjDxf2zp05855znnnzeT//7DNMmTRZAHDuvLmIK1bM0JKKZBUZF8kugb1792HduvVwuQoDSBr6aFZUqDGlLKu8j2wmmwIVMctoaaj/wQ8f/D7daPMFzTbdJCmAM8lut6FN29tQvXrRABJNoj///BPjx43HN//7HzJdLlStVAnPPNcXHTp0hM1hx9EjRzB92nRxQhMEunXrhj27d2PrTz8JID3yyCMCOJ999hlmTpuOxMRE8dl06dIZzzz7LCpWrixPePDgQbw8Y6Y4nnlfRtL6Pv8cOnbsKOaimFybt2DMmDHYtXOnSL1xkybi5K5du7aYlVt/3CqRNCZz0tSrU7cuBg0ehBvr18eJEyewYN58vP/ee5LnxFSAno8+iocfeVjGvX7degzo3x81a9TAosVvIiIysgCSNzadIYH8S+DPP/dizep1BQAkP7N8A64dprRwfUviLn+GJAGbck/vk8Hl8CEpl4ey0Zigp3wgPvh8Sify83fac4WWP+T3Ue02O9rf3g41alTP71fOeZ6Mx+8XJzM3smgOuXyLn1M4EQ5H+Ke6IOkX8nrFQU2nNEFGSUkJVH9eXseZkYG44sXFvxRW+kH49tEhngyHwyGgYdZeC/r3+TMpOQlWqw2xWl5UaAKk7iyPjy8Jszn8SdLS0xAVGSWAyWc2MrXPuTyMEwohgd2792DlylVwZbnz7So2CTIQhIg4JkhesQkwmywwmdXvzSaeY0ZeoBQGSJr/FX6/AiKfzwuf1wev1wOfAJUveCOlPAUPzWILljPoJ3CYfkkC5E+H3Y4OHW5HjZp/kw9E1/S0kYaDR7is82d05j674WUl2ssi26lyDmcoG1rqmmiu4KKNX/8stGRFYWU+jfNCLErjK/9eCTAH7vPPVkqUOezQo1o51jEXKkFHf4Grdc7T+VK1WKxabqBZ/eRpuWhKpjlz5vl5Eb9fmWoCRj6/iiB5PfC43fC6XbDaHXDYzbAS6aw2qk8KaMx2QT/9UBpVMACnGYHqF36Is5ZRNobWjcOQgCGBi1MCKspGH5Ir8BIV60i0crOyGjTAkScQZYVmm44yynxjFJx+KOKLxWKBxWoJakyiTYUH601z58zXLB7luKaZRjDyuBlOd8Pj9SI6OhKRkXYZjFluatXMF6/SfLxu+H1emK0OwO9VfieLTYCK49TNEf602W249daiCftfnFNpjMqQwKUvAQLSxo0b4fFwPxMbvKKsmMRFYdGASfM1c8+LYmQJMQ38otgABAAL3C43MjNd4mqwWKglWTRNyRSmKYnJJg5rualPAEhHNY/XLXk7ERERQX9VqIVABDNRs1IDEttQNCwOXJxQ8Pm9MFnsCkH9ftgckWjZsrVkHhuHIQFDAhenBAhIzNNzZWUpUBETjaaWAgCxjsR8o6Wk/EM0tZSvlXtdfYcAplt51LYISgzQWC1WmAhK4vQO4pgAkk+wgo5rryAiszOzXKxmj0BcXIxmghXEV6HCdBxwwH+kOaisdhtatmpTJImRF+dUGqMyJHDpS0A0pA3rRLNR5hm1H+25NI1JqUVaUEfsLGohSpNSGkzQfDNBBcYys1zwuH2w2qxiwil/Ep3cykIzzZk9X2BDTDWvB263F1lZmeLMLl2GUR6zUtm0KFO+nKgCk74ckS5qYSxKbXFrKwOQLv01azzBZSwBBUgb4PGyWkFzFmlOI1pE4oaBBSaJmmlak48uHPq2LRLC0v4B+D3iQ6K2RCsuNSVNnNzUlAhKBC+d6cc0Z84CPxHNq0XTGDZn+UVEpAMlSsQFBpNLsvY5poOKXPi3+C+71Y4WLQ0f0mW8lo1HuwwksG//PmzauEk5tbW0GM2UYthMmWhEB1Fr6C8KmnV6mgyVEnHnCBhZ+EMwKiMjEx6PT9JqLGZG3zQ/kmhIc+b7qbkw/8btJvFYJjKdmYiPjxOTLWADiiGoh6wDMf6A3aiwRwMgLT9KoWf4wUEYGtJlsGKNR7isJUBA2rhxEzxuV6AeU4+iqTwjrZyDoCP7nmZXSBxf8yUrc08lJOl+pyyXC85Mt1hLypdEDUlpWWKy+URDUuE5akjOjEyUSYiDw2EXG9Hv8yisMVuVKSbmoSWoqoW6unhzCQ3q6GkA0mW9co2HuywlIE7tjaz2z0SGxwmn24USEXEAzTKbnUqRlpeowEi0JoVSysVDjYn+JUbaqSERjrTUAK/Xj9TUDNgdBCQbzBJ10wFpDp3aPhVZc9MLniXkZBXKlxaVKpjSyL/Rqe6VUhKG8uBl0pQJJosDfh9rXkxk2Ffg5ffBrKt1IXlKhoZ0Wa5f46EuMwns3f0zNn25GlnpXyLJHYnTrqood+Q0XMcOo1jjNoDVBm9yMmylEjTNSPcjKTON2dkBx5BgFCPxVGYs8Pr8SE5OlUqGXABpnt/nVSYbAYlcQgSkihXKSc5Q6EFPefDQUx4ZTSP+cSB0ZJsBH51YTJpkeYMWFmT4z0e70YqWt7VFtWpFVzpyma0F43EMCfzjEvhzx/fYsP5VuFybAX8MTLbGcB08jaxjh2FPiIUvy4es4374r78ZsbHRkjRtkvIygg4TJzUfk+gmdHbTQUSrClLzmZyShghHhJRPZdOQFCDRm866lcysDGRkOFGhQjmwEFZTwkRFM5m0OrbsNVSBdHKxAgPCVCUoWlWueOiZqW1By9YM+xuA9I+vOmMAhgTykMCerRuw9tOF8MecgjfjGEz+GMAcA0+SF1nHEuE3meGufDvW7rehTpXiqFtJBcD0LG7dp6w0I92PpMw8BtCSk9PgcESIFZYLIAFMglSJS0pDIg2HDkj6mKkh6Z51rzMZ3pQjsJaoDE/qcfiz0lV1rz0KtvjKoq4x70Bc6/DCm3YSfpcTkWWro2Wr21CtmlE6YuwGQwIXqwR2fb8Gq94aBVN8FvzeNFFIqGt404Gsk16YI0rAXOMObD2chgrFk1A1oSSs1nJakEsnJtSTI3UGEaYLmOEhICURkBx5AZKmIRGQnJnIcKajYoXyYrLpiY1KcD7lzDIBriO/I2PHRsTU6wznn1/Dc+YvmKx2yc7mz+ja7WGJr6Q0ILEwzgAAIABJREFULHcmMnasg+f0IcQ37YnW7TqhWnVqSAVJtrxYp84YlyGBy08C27asxesLBsPtcKJ0tA/FIzRmCa8JWYeqIH17FCyx0bA1zICvxB4JYkVHt4cjorKWf6SBkZhvmtmmlZZ4PWTUSIUjwgHbWU22UEAqX0b8PbrdJ/4hCeGp4tnMI7/DuXOTAFLGn1/Dn5mGqJpNxcOesft/MEfEIqp2O5gdsfAkH0Ha1g/FCR6ZUBkdn5mGK66uZ1SqX37r2Hiiy0QCP/y4HgveHgav04uYiAhUjvMhwuKC60QGUjbFwXs6Fn6TH74rT8Pf2Amv1YTIxFooWeUGOMoWV4mT4qZRJWOSEqClCxQKkCqUS4DNytg9MynNgMelnNS8sM+DrGM74dz5X0TX7YDMvZvhd2cJOJmjSsC5fzNcB39GdL2OsBSrAF9mKjJ+Ww1v6jEUv6EL2nR7CNWurJk7R8dlMqHGYxgSuJQl8MtvX+Pjz95BhLkE7LZoOCwmmE0uuE+eRvLao8janyqBqxNlTTjQwAa3LQIltwHXViyHMo1rwOxgAb7yHwf8SppACgVIFSuUDTq1NR4fqUwTv5AXrqO/w7nrK0TXbgfnvu8EsKLrtIM5sgSyDv2MrIM/IuratrCUqAyTxwXn7i/hPrUfJW99QpzaVatdYWhIl/KKNcZ+WUsgWO2vGl2I60XoR7zwZXhw5rNtSN+biD9qxeFwjXLwW2JhO5SMeqeO45p2N8Aer5EkSr5i6GESFhHxIRXIZKtYFuS/Dj0UI4DKvnbTh7RzE6LqdkTW3m/hy0xDZPXG4l8iUFmiSyLqqlYwR8aJDylzz1dwHd+D4g3vxm1d7kW1K68yAOmyXtLGw13KEtCr/ck7r+hHNNOLZpjZDG+6C+mHPsIf3hPYl2GD1xQFU1IxXJv4J6rVvh6xNzQLy09SiKbosBn2T0lOhyMiogA+pApllQ9JR0fRkrQsTACuozsEkGLEZNuinNo2ZnYD1tiycFRrAEvxCkpd8/vgOvKHgJItMgad+8/BFVdfbwDSpbxijbFf1hLYt2+/8CG5yRgpe18LmGtc2YQWT9YenDi5DvuSvXB6gOgDWSh7LAvRZSugVMceIp+wsJVG6sjC/TPJaUJrlG+nNn1I9lBAEq6TIBeK3+2Cz5Uuzmu/2ykkbTIApotbI2Cyq75kAUDzeuB3pcFmtaJ1h26oVr1oKGyDvN6qgE6niA2PDv59a0fdV02FXsmnOGJU9bMuw7xGxLfHzz//jHLlykmDyAt96JS4O3fslBeETi2cL1aHcwwulNY3t1PP9fmFfnbj+nlLQABpw3q43JkwI5h1rbE5yur2eZLhSf8CWVkn4WU9bKIHmb+5YXJEo/w9zwQvriVMyv40W+D1+AoRZdN8SEEOZ7XFfHoSZFixbf6nlolQLVu1LpI8JJa8vLV4MTKdWXj0sZ7CRseNxDyqTz7+WFoVdezUMf+DO48zKaf09HRpJnnnnd1w3fXXY/XqNfjqv1+JpkmaheLFi8nv69Spi7i4WKF2yb4p2b6pc8dO6P7AA3js8cdyfH4eQzzrV5995hnJCWHLp0C3iHxSzuQFLOcCnNAmEUUBgBdKNv/G69Jk27B+PeiARkjpl9Rd+Fid4YPf5EJGygakpe+FxcwOGX78leiHMzMCjZr3EbFJ4a3Pq3EqKerbwjm1yyXASh8SLyYdA4JlIKICaB1bmbFZkKMoAYn3ZS809kt79bXXUL9BA9lMbDE0dMhQvDTsJTS66aaw4Z1rk+T3WfTNFEq+f/r0aTSq3wCTp05B1zvuwKSJE7F0yVJpWMkOt6dOnJTmlCwq7NWrFxo0bJjjdoUBpKJ4pmefeVaAk4CUG1AWVsM519j4UgkFwPzK3zjvwkpAFddugJuAFDh0mhFlCWV5svDDwY3Yc3I/bGY/7CYgxm5G8QgbGtV4BJJILYpLOBNAoQBJFdeq6n5lepEf2xNEOp9H6tb8fMvTXKNJZ7aqc2QAGr9uNsJ/u1XTkITC9vwTI8lO8ESfJ1A6IQHDRgwXu3T4S8PgzHRi2PDhiI2NlTo9NnX8/LPPcfTYUZQuXRrt2rdHw4YNZTOwc+z8efPQqVMn1K5TJyD+3379TTrjPtDjQWkq+c4776BFixb4+qv/ISMjHQ898gjiYuMCj3Hq1Ck0atAQk6dMxh3dumHihIlYu2YNVq9dIxoSJ+evv/7C/LnzsHXrVry+aBHKlC0TtrJ0QPrP//0H5cuXx8ZNm8SGb9WqNdq0bau16IaMh2NbtWqVaGZXX301/u+ee/DmG2+ifv0b0ax5c7nfik8+wbfffiuORDbS7NS5M6KiogLBCR1QCUgkzOrxUA+s+PgTHD16RPrOdbvzrvAOMX6/NMtct3YtTp46hQrly6Nzly64tva16jlMJhw/dgyfffoZtv3yCyxWKxo0qI9ud94pmbmcr0WvvY4ra9SQOWKvOZrxTW6+WToG8xxDW7qwYJOfqweq/T0k6Ff+4+DLQykhKZkpWL1zDU6ln5Kd7PQBMQ4Tri0RjZuq3xsg/VduFM3dQ9PO40FScjoiChJl06v9sw8+QMoki0+nQFLNI8mPy0EzLcBstsLnJZeKD2Z7JOD1CKpaHRGayVY0tWwUFhtFsjX2+AkTULpMafzn7rsxduxY3NqypaQprF+/DkMHDxFz6brrr8NPW3/C5s2bMWzECHS7sxsSDx3CHV26YuSoUejQsUPgkal9vfrKq3j19dek51ufXr3ls5MnTsjG7vPEE4iJjQlsoCAgTcEd3e7IFZD4/aNHjuKuO+/EffffhyefeipXQGJ3llKlSqJ5s+bYuWuntOQe+MJA3Hf//XL+kiVLMGHsODRq3BjXXVcPP/7wI9JSU3H4r79wX/f70btPH8ycPh3vvfseOnfpLEWM77/7Lh5+5BE89czTigk05CAg/fbrdgGrG264ESVLlcS6teuQePgw3v/gA1xZ40o5+92335YW3y1btpR23gTFQ4mJolk1atQIx08cx6AXX8SB/QdEtpTJqpWrcM0112DBKwsFPB+4v7u0KI+JjkGrVq1A7h2e82zfZ/FIz56KRdA4/lEJ6GF/l8cDs0a0JoXzWtEsFY+DyYlYt2cDPD6PsBFlek3w+kxoUKY0bqnaEX6tFxsfRLX6ki4iYi0oQCqIU1ujHwlraaTxHCl+E13BYUhQ8Z1oWVDqxppzV6lsfvgJSH4fbBFRuPW2drjiCrXAz/fg9VmDN3LESJQoXhwHDhyQrinTZ8yQB05LS8MjPR7CzU2bos8TfUBOb6qM82bPwauvvoqPPvlY3spdOnXGyNGjpAutfqxcuRKvvfIqXnv9dXmb9368F8qWK4eXZ70cbCIpSoFC/7MBknAH628JQNp/kwBv0Ztv5gpIJUqUwJuL35SmlzymTJ6M3377HdOmTYPb48ajDz8iWtDzA/oLlwxZPidPnIS3334bfZ97Dr2f6INWLW5F/fr1MXb8ONF+li9bBvbbIgiyEWZ2QPr2m28wfMRwtL/9djHTjyQeRv9+/UWree+D93Ho0CFpBU5A6/loT3nBuLOyMGrkSJHzhEmT8OGHH2LZkqWYPnMGKleuLLf4/vvv0fuxxzFk6FC0ad8W3e+9H6mpqVj24XLwOXlQQ/3yy/9i2vRpohkaxz8rgUDY35WlGDuEllZR2TJ0fzozFV/sXo/kzNPg+8PCfGmfH24PcHOVBrih7HUh5I1adF66lpjg9QJnklILoyGpsL8WuwpKKFDdr8eR6ORSZ4ppF+DZDbCCByJPzG1qweLaK4pGQ9LvuvmbbzBhwgTs27sPi99+C9ddd52Ml9rTY48+hilTJuOGG28MPMPpU6dxc5Mm4mdq2qwZunbuglGjqSGdHZB6PvaogFZuZsW5NCQZq8aU8PijjyEpKRlLli3JFZBoPvYfOCDw2Vdf/ReTJkzCwldfwdGjR/HiwIECutdcq0wlXpfmXvOmTdG7zxMCvnNmz8YnH30s2lyDhg3kXHkr2Ww5xk8NKSM9XfxfxTQQ5HXZNnzEsOFYtnwZfvrpJwwfOgyDhw2Vc3QFmebwl5u+xIcff4QXBgwU8KZWxpCuUvb9mDR+Ahrd1Ei00O73348brr8ew0eODDzfr9u3Y8CAAZg1a5aYc8bxz0rgzx27sWnjenhMisNIrTFqN34cz/Lg+8Pb8eeJXxQ6mEhN7YfVAkTbY9C2ejskRMUH1mWAX19YG82iEBQOkKwEJA10AjFs9mYz4UzSGRxKPIwqVSpLNMvpzBQ1vXTZMoiPL6E6COhdVTUblAs48a+/8J//uxe169QtUomnp6Xj+eeek2vOnT8voPb/tHUrBr04SN7YV10VTMZktLDONdfimWefwe0dOgggjRw1UgBJ7yO38osv8Nqrr+H1RdSQMkVDer5/PzRr1izXsecXkGjWdurQETVr1cSMmTNzBaT7u3fH470eD3y2ZcsWjB09BvMXLsCe3bsxdepUTJsxA9VDGm4SlOjDollGQGK08duvv8Hnn3+Obdu3oXix4hgwcIA4+rM7mwlIPCZNniQao358/b+v0ad3byx+azG2bv0JEydOEHMtNAWEC4x0pBMnTwKB9sSJE6hOE0/6cilN2pmeISYzAZ2A1LJlKzHR9GPXzp14ru9zmDZjOmrVqlWka8O4WMElsOOrrVgx/U1Yq5WELT4aLjOQarfgULoH+1NcSM06g9S0LfD7nMof6fXD4jOhTvlr0OzKRkK8purY6IPWrAMNDwrl1C5XOhYOR5SQr4mmFtay2YRt23/FsqXLRRPp0rUTjh09hnfeeRfNWzQT5ymdqPzDhnD0tuu60py5C0UtJwgU5cHGls8//zwiIyMxcdLEADofP34c/7n7Pxg9ejSaNW8WcObu+OMPdO3SFdNnTJcN2q5tWzz22GN4vFcvrUedH4sWLcIXn30eBkj9BvRH06ZNCwVIeqb7+nXrMGTQYEyYPEn8XKGu/exRNv1G323ZgjEaIBFoHuvZU3xmNzVuHBjLnl27RHt7liZbr144dfo0oiIjERkdhYz0DIwbOw4HDx7ElClTxJkeCkoEpGPHjspnFSsplgYGAxbOX4DXXnsNKz7/FNt+/kVAY9XqVahSpUqgEw3HzA7HpRISMGTwYJnzIUOHiDbGh3NlucS3REDkkSsg7dqF557ti2nTp6PWVQYgFeXeKMy1/tiwBUtfmoeTyZk46vIi0Qo4q5WCrUJJmCPsggc+Twoys/bAmXocrhQvEopVRsfrG6B88bhAJ9tg+6TgKi8UIFUoW0oxRgqftl+oaenIkmJ/ixW/bvsVS5d9JJpI166dkFAyHu+8twQtWjTDtddei02bvsS+/QeQkJAAr9uNEtSa4Mev23/HrNmzcXuH2wsjpzy/w6hTvwAgTQqcR//HkMFDkOl0it8joXRpMXnmzp6D9IwMLFi4QPwpdIonJiaKCUc/EaNhUydPkfqd10I0pIIC0sovPhc/EbWu1JRU7Nq1Ex+8/4FoAcNHjhDfTuhxTkBasACxcbF48YUXxcSihkcZc7wL5i/ADz/8gD59+uCRR3vivnvuQdWq1dDnyScQGRGBDz/8CJs3f6sBUtkws42A9N8vv8Q9996Lrnd0FWCndjl1yhSJ7g15aSiSzyTj0Z49UaFiBTz22OPi+D58+DBmvfwy6tatJ2P5/rvvMGniZHR/oLuYaJTfypWr8MaiRZg1Z7Y899kBaRpqXXVVka4N42IFl8Bv6zZi7gvTsPuUDS6zCWdsfnhYYBsfg4haFWGJYeIz4HI6ceb4SdhNZrS4phKur1RSulvLy04CJyFdIPkFv6I6Sk5i6UgB6EeCUbZsnUO0MP72bduwYsUXElbPynSiVcvmWL/xv2jR/BZYzBasXrsB19W9BrExMdjw5deoceWVaFD/eqz4bKWYKUUNSHxDBzWkICBRMMz9WbhgAeiniIiMRFaWS6I+vfv0xhWayUMnHpMaeS679caXiJew9/bt2/CqOLUz0efxXsgNkHRNQzfZJknY/w7x+XAjXnX11RKBJHjHlywpJh9D3LpDNwcgdeqE7t1VYmRuGhKzuP/44w8Bgt27dqN4ieKIjIgUc3PunDkSvevVu7dkfM+ZNVt8SwRELoTevXujZatWYUDI8VM7OX36FK66+hps/fFHiZamZ6SjRYtbRU76WHfv2oU5s+eA8qIGxPSH+g0a4tHHHpXMclIgr/hkBZYtWyoRTi4Xh92Ge++/H7fffruYkWcFJMNkKzh6XIBv/LRuDcb2G4RkZ3m4rFFI8nvgoTZiNsFeowLsFUuJgzo9ORW+9Aw0r1ke15QvDptFpQjxs7C0Hs3HzOJcxRiZUVhAyv60iqFt27Zt+GLlKrRv1waff75SfAjUUtq0bol9+w/h5KmTuKtbVwldL3xtEWKiotClYzu8+sa7mDJtKjoUscnGUVIL4kHQCRxS0OeXsTHkfPLkScTHxwuQ6s5dVdbBSFUmkpKSQPMvvmS8fM7vqVbiJtlsDrtdcmtyO3gdRptUONMKtnthBFA/GGmzWC2ws2uDcEspZr1QBzn/zU3Le1Om+kHziaBIE4zXoQ+MHYZTUlKQkpyChNIJiI6JQWaGUzRb/btMV+A5BBhqgvqz8Lqh96fs6IBm33X6406dPhUmJ/VyUy8nPpPcNyVFcrp05j99rLwXo35Mj2D2PGXJOaHvkXNBOVIzDH0+fifD6RTNzJItJeEC7DfjkueQwJb1azCx/wCkZSXAay6FUz433Jo/2VopARE1y4sGFOn1oEHZGFxRkukvGm+23lI7EIjnJmSOt2oOwrV8HhpSzpFzWW7/RQHSvf93t3BwL1v+kTQJ6NKpA9IznPju++/R9rbWKFmyJN56+z1UrVIJXbp0wuuL3hIfT1H7kM4m39BNnxsA5BYxU8lgKtEv7AhJ9Mzznto5OtApTrtg/xYdCHRQyAXyz5kyGqa3aqCmD02vNwq9fvbM8hz31EBZtbBS/Of6IHLITE9B084RCWnPGAp0gb8HzlfXzo8IDcT4ZyXwy//WYVz/IUhKqwAfHEj1e5AGr4BQTK2KKFatNMpF21DO4oI/IxWVKlSARSuu15OA1LrQs7WDvEjKh5RSsGr/CuX0Nkghb/CQXbBt23Z88cVK3HvP3ahapQo++/wLfPf9j+jUsT2qVauK5R99gtOnzqBYsTjRTMjR3bXz7fjhx1/Q45GeaNOmzT8rcePuhgQMCeQpgT1/bMfiBW/g5CkT3E4PPNTcLX7EFItE8XIlEGn34/ihAzhx7CiOHT+BZs2aBtwfSpFWWpHWQ1J1IzqfKFv5hDip9heebE1TYAKkfjidGeKbKFkiHvYIG5zpTpw+c1oAKCoyGknJKUhNTUFUVKTK4raYEV+cSX4m3HpbW9SqdbVRImBsCEMCF6kEvv76a4wZO058n1dUvULM8j/37oPX65Ks/d9++w0x0dHYf/AgypYug1uaNUXJ+JDco2wFtaHsG4WMspVU9CNUsVnPwkaQpBXxe+FnqqWVeQYKBaVvN6FGIU8IxYZKGVCqm/LTsGD31lZtUC0kf+YinRNjWIYE/rUSYJUCk3HZ9GPPn3tx+vQZJCSUFF9ktapV8McfO6XG8dDBRDRv0RwxMdFa01oW4yqjnCF/LWsosP8p0EIDEh2z6oIhHD8CLOL+VCxyTAXQutVKWoDFpvUCJ+WA5vzVQIsaGx3CLVu3NShs/7VL3XjwS0ECa9eulSx9ps2kp2dIEOjnn3+C1WIVDalE8RLK6omPlwgsKzBUq2wmY+esRQx4e1hc66UPicGfAoT9K5YtJRqSstKCtGLqwuHFJKEOVsVMoqGksEVqfCiMnPgBq8WEVm07FBlB26UwucYYDQlcahLYvv1XYbdIT0+TwBSx4ODBQ7A5HMKsodJA/LDRka3R25LaVgWIwgNBelBEOhf52QPSU/Cwf8UQxkg9AKMLNSfHjSqwVXUtISyRAeDi50qRs9nYuZYaUnXDh3SprVJjvP8aCejV/kwtEc1HlAvNBSOt1lQKB6v3lYuZdENKeQmUmwUBQ5oDaOqTykMqMMm/tEHSOY10+lV1Q11LOjcha+j8qexNq02ZbNWKqNr/X7NCjAc1JPA3SmD/vn2KwtaltT8TRUPrEit5LBrxv+QcBSNoaogqIVb9VXUpCpK0nQ9jJPuy+Zh7QKe19nciIbMwc0kmyY0vOpj/ohLrDED6G1eVcStDAoWUwL59e7FxwwapR9UbPOoAo/uK+HtlEIVaRZrKIln6gYp8ZQ2dT9i/YrlSSkPS1TWNfiAAfF63cKRkOLOQdCZZAItFlcIcGcIRpBgHFBkYwZKZzl27dcPVV19lNIos5GIxvmZI4EJLQJlsm4R7KwA3IdX7LK7Nldkz0DIpuO8VqRsL7NWVChVlC/UhiQoW6iMi24DPhz17D2LHzr1SxkCSMHrgea4iI7PI71iKQOBiPgP/zdKFJ/o8hvoNri8SCtsLPTHZr5/Tf1a0I8jt+nzP/Pbrr/jggw/QqmVLtLj11nPelNGRNWvWoE6dOqhatSp27Ngh9DBt2rYpUt8dc9F+/OEH3Fi/fhiP0jkHWMgT8it/nrd+7TpUq34FqlcvPPcWr8Nyo2VLl6Jz586oULEifH4f2MqHtYl61j3le+jgIdzW5rbAk13KVLz72XVkE9sgkcKWzmjdRLNqdWq6SRaa0c+oO/1Nuk8pW5WD9pUiAKRsdiFM2H8gEd//uF0cXQQdakGcIFpzQjkS+Kk+J0ry95FRBKTH0aD+DUVBqV3IZZ3za/lZ6Lr5KUpq9pKSIhpJaImH/vfUtDTc2fUO1K5dW4pmr6J2eY6DDQea3NRYOJ7ItT1j+gx88P77+Orr/+VgGDjXtc72OYt8hTZkxnQpWM6PHPNzv7yuk5/r63K7tXkL9HjoITz08EPnNV97du/BhPHjpdiZVDUEn/Xr10uhsrx8AUybNh0fLl+GTf/9b4CL60KtkfzI73zPISBtIMm/1GIqXv3sLbED9yBYCRAxqKX7k3IHo8JrSKQfCenLppxGKlpG1evz1Zukt5LFYpWCUYKO0oKoGSkTjT/1PwQsfh4ZFYWnnnpciN+L+jhXvdbZ7hcMTYZHCkO/k9/rn2sznW1TZQckLmpyIZFChdS5V19zTb7EdiEAKbdxZwckJs5l5+vOTYbnAvXcZH0uMMr+HQLSgz16nBcg8Zr0o5B0rlSpUlIQTM1z0oSJWLVmtYA7z5k+bRqWL1uOL79SgMTfnU0O+ZrEf/AkOrU3bFwPt4v9FhXTYyDJWR+XrjVJdF2PssnMnnXkhdKQKpSJh9UW9CGFFpoSkN5YvFwquSl0q9UiE6PAR5lqHJQy3egD14HJhKjoKDz19BNo2LBoAIkwuX/vPmEyJBVHmTJl8Myzz+KmxjcJv9GAfv3xwqAXUa9evYB6TW7pP37/Ay8NHyYLJzPTiTffWIwVKz6RzNS6dergmb59Ue2KaloxqF/MnZenz8CPW7ciLjYWHTt3Eu4gUrnyGoxGsBfcO2+/A4IB2SmffPop1COVrlYlv/SDJVi6dCmSks6gYaNG6Nevv1TC8zjy1xGMHTNG3r5c+E8+9SRuadZM2jyRk4ifV61WFQ/16IE27dph7JixuO++e4WFUT/IcLls6TKhtmWuBzWkESNH4p57gxrS2vXr8fKMGZJxO+SllwK1w2QFmP3yy6he/Up0uaNr2GbiZ/PmzJWNyJmlD7B79+4ylwSkvs/2Ra9ej+OTjz/Brt27Ub36FejXf4A0H9BNGnJoT5syBV999RXsdge6drsD9erWxZIPlgiXOav82ZDgzOnTuLZObSxe9Ab6PPmkcCqRJ/3lmTPFNOR53brdhf+77x6ZBx6U/YfLP8Tbb70lHFHsYPJcv+dx9513CSA9/MjDYRtk0euLhJpl6rSpAW1x6pSpcg6ZNtnogKwP5ChvfmsLmctpU6fiueefl/Mf7P4Ajvz1l9DKkP+773N9sWLFpzK3LBznWBMTD0v3F65FNkO41LQlOrU3bdgAl8ebLZVHq8jQuLWzs0FmR6JgwbdOcw0h80tOKWAr7Qpl48Wp7fNkSXsj1eJIVftSuK+8vkTeBNSQFCApcApoRCEgFNCWLBYhCnu271No1KjBeeM/gYDE86SfJRtk06bN8N13W7D5282YOetlREdHC3n/goUL0bSZYnnkd8jn88P332PRm28IadqYMWNksXPjMvOU3TY2b9mM119/XTb8nj178HCPh1Cnbh3cdtttQlD/3nvvS5eNFwe9KIA7b+5cfPrpCtx5110CiqwFIs80u3G0bNUS3ARc1KSlJaHau++8K2D2ymuvCoDd3q49brnlZrRo2RI///SztE+aPWc2SsTH4+233sa6tWtwz333SRsm8iH1fKQn+vV7Xoj+9YNNM/lsX6z8QgIGuQESTbbFb74pnUPWbdiA8uXLaYD4Fx7t+aiAdOMQFkp+2O+557Fz50783z3/J9oCWy2Rc4kdQtg04O677hZC/y5dOguPFBkl2UJq2fLlqFiponRCebhHD5FTt7vuRFxMLL5YuRInjx+XhgzvL1kqpQfTpk7D6lWrYHc40LxZU3let8cjTRr4QmnVqqUUcn664hPceGN9DBoyWNbg3DlzxRzt0rULatSsiZ+3/iTj5QuJDKChgMT5Z1soPhPn/6paV4njtnXLloiMjJLflS1bFr/8/It0TyE/O9tkPfPU05jx8kyRPYn7OM5n+j6LYsWLo0njxnjjjTexYP58NGnSRNYi1/mSJUsFtKdPny7EgJfSoechcb5DNVMxzQSMqAGqINZZNX7ZdPzj1b6nmgEkJxeQoK182XiVqa1JMeDU0hjgXlu0RMBH/EbyU3VnVY5s5ewLgpMpoCXRh9S379NodFPOJomFmbBNGzfhySeewLz583FLs1vE2cgOFjff0lSI1tgFlqyQJPLXj9mzZgcAiW9MrpHwAAAgAElEQVTsMaNHY/KUKahbr64Ij3xE48aOlU3AfmKPP/Y4XK4sYbosXlzRsJKZ8bMVn6Lv88/Jgn36yafkbUinMSeJxcfjxozFtl+24e1338HoUaOk/dKHn3wspHXbt2+XzqAPPPggduzYie733YdXXn0FLVu3ltT6eXPmiBZFnwWdszQJZs+ZI1oSieAefaSnaAHNcwWklaI15wVIR48dQ9dOnYV7+4knn5C5YrsntobiG56gHPpGb9GsuVDtEnxpsrCswJnhRLt2bbF33z7c85//w+gxo9GxUyf5HoGA42PvO/Jmz5wxAx99+CHmzpsv2g8XNJ3hL77wAnb8sQMfffJJAJDYR+6DpUvEeUw5PP7oo8okmjEj4DT/9ptvpdMJifBiYmKkPRV7591///3iTiANDnu/zZgxAwNfeCEHINFR26ljR2G9vOvuu6QryqAXXkBcXDE5n1rZxx99JFzkC195RUD32aefEUAi4+XaNWsxedIkrFy9SnFjick2Xbooz18wX+aNB0kMSfk7YdJEoXW+lA620t6kObW1QlXxE0k6pJZ7pNNa526gaZnQuibFoJi0RWIekg9nklIK2AaJGlKYDylcnAteeU/8Rjr48KfSksI1JUFRLfKm+5Cef54m1fkDEhcqF3bfZ5/F8WPHRRO5rU0bca7yvlQ7Saa/8BVqSDkB6fU3Fon2sXbtGsybNw8xmgnAJyXRGg+aKx07dESPHj2EOVHfqHxz8BxuCGpD7LZBFkhuZv3YtWuXaF6vLVqE06dOyeIkvW+r1q2kHxnfmpQbNS46hqnt6c9Qt25dZRKbTAJc1B5mz52DatWq4eSJk+jZkxpSP3kb59SQzg5IvOeI4SPw+++/S9MA1il1aN8e3e/vjgcf6pGDMI5mKFtG1b/xRrRq3RpNbm4iZHC8DrnJCcbkSa9br54MhVHXhx58EMXiislm7P98PzFNx4wdG7g25+6zTz/FzJkzRZOiNstnJGMnXyD8nJpjh/a3K7bRmxoFcoCp1VJDoXlFk4nfmzFzBqpWY/NRFXAgCdwtTW7GU08/ncNk4zljRo2ScQ4aPBgvDRki7ab4MiO5HdtI8QXA8ojHe/cSV4CuIdF8o+lKc46ApFMQcwyMxK1dv05MPo6BtMID+vfHPffci06dO11KeAQdkCQxUnzHikok0AA2+9Oo6vqA/0gK8OXfeq6S8kHxUF1HCghI5aghWa05+Mn0bM15C9+CxWITzYhMcQQAApIy46ghBc03ZiFIlE1zavcb0Bc33aS6xp7voTsdv/j8Cyz54APpCHtL06YYN36cMBp2vL1DQEPS/RmzZ82SxooEJJplW77dLF1JCC6hzm2O7dixY6JlPfX0U6LNhJKr6Y5LLtBBL7yI66+7Tpz2oc9Fs4xmGonzCZ5vvvGGdHUV/9bAgcrhyjeH3ySmFk0Pjq3edfUkckMyfjYFyA2Qntc0JH3MbEqwYN58MYfOpiFxE/G52ByTIEGzafCLg7Dis0+FTzz7rNDfRPB69513pKEjAWzchAlo0qSx+LxCo2z6fLL1lNVikU4k/Z7vJxxZg4YMCbv2mtWrMWXyFCxZtjQASMeOHpWIHZ+JY+zUsRPKlS0rqQs8Qs0DmsfUXMklzu9IHzhtT3DMjRvdJA0zs/uQRMP9/ntpEzVq9Gi0b98er7zyKk6dOomFCxaK2fbS0JfkJdSwUUPwxaJrSNkBSX8hc36WL1+GL7UoG9cAO/gOHDBQOMrZWv1SOiRTe9NGka+s87DSkJxPosSuom0sE6F5Lv2JcmH/LJRTW5ls1G5yAQ36Yea/HQI+yjxTYKSAKAyQNFWN1KR8e/Qb8ByaNLnpvOeHgiLJ/IF9+3FD/RtFBaTt2+uxx4Vknv3Imt58C1548YUAmJCedeTIkbJYuPBWr16Nl2fMlH5nFStWFOHTVFixYoX4gthokc7RK6pfgYmTgi2CqM0w+kUCfI6h33PPSc+x+ppqzg3x3XffiQOPnUGYR0T5XFu7Dtxul7xNZ06fgdffeEMaIOzauQsNb2oo3NgHDxwUMn22qH76madzABJNxCd69xETib4cLn5qbIMHDcaXmzZh5apV5wQkmhlPP/U0Spcpg/379wkfNsevH6Ga4DdffyN0MRUrVhCNcfy4cWBfuzHjxuLIkSNnBSRqdTSJf/iemuLrQnnLg3lSUyZOwtp16/Dxik8CgMQGDOwEo79o7r7zTtS66mrpmadT3jLiRQrlxjc1xqHEQ3jqiSfFn8T2TDpobdq4UX4/IJvJpj8fzVZ2M6bWR+2PvrVTJ0/i3nvulYaWH330EYYOHYpKlSsJIIVqSDRZJ4wbL1E2Ug3zyA2QCKjUnAlGBKVL6di/dy82bFgvPjzuZTHPstEtB55HykNCSknoV8pWZBuKIoUCpHKlooVSgHQiqreS8AqoCYcPczVA4mB18Amab+GAZCEgSb6GSQjbBr7YHzffHGzfU9iJIipv2bwFzzz1lOSI0KnNVj6jR40WreSuu++WhXQ4MRGPUUupWAk//PA9Fr+5WN64byx+U8CE2gH5pu/vfr/8pI9i9uzZGDN2jFDt8k1OE4c5LXSOc1MufuNN8VXQac2DPqcTx09IVKdMmdLiI5o5Yybuuece9OrTW1T89RvWY8iQoShXrixWrVolUZnFi98SzemRhx+WZ6Cvhol4bM5IUKXjmE726dOmYvbcuWKyUY2e/fIssfGZl8Tn+uWXX0T7ohmZH0DihufGGj92HFKSk6WLbG4cVfS3PNC9O0qVSsDDDz8s3XYXLFgo5vzw4SOQeDjxrIA0b8F8iWixp13Dhg0kJyoqOlqAk5oigW/p8mU5AElfE/SfjRgxQmTB9lOZWVl45+23xZybOm2alCKxXx39cGz9VKFSRezcsUOijdJi/amnctWQ6CecOGECvvn6azRucrMAHl8iHCe5wGvXqYOhw14SECQgEbxnvjxTIm50inPN0LTji4qNIqilMXrLsL9uxhGQBg4YgDu63iFRxUvpkM61GzcKIIUeIUZZgLaYGpHJH6INhRXYZ1NppNqfnNoFpLAtX0aZbKIgiRrmg/TM9Xkk2jbvFeXUprmh/ES6lqQSqHRNSW8hrRLImIcUiRcH9ZeI0vkeFA41kC+//BJTJ0/GqVOnZTFQlScIREdFiQOYDmU2POQmpBOYptnBQwex6I035HcMK0+aOAlbtmwWVZNvcTpjCQ42ux1ej0cS4eicZZ83vg0IfmwprXctOXbsOBbMm4cVn34qZm5cbBwe7PGgpAY4IiKQmpKCGdOni0OU/g1Gz4YPH47GTRrLGLZs3oyxY8fJZuAzdOjYQZzkNI/Wick2FXPmzBHQ4Pn0mc2cOQM0Vblp6EilBvPxRx+HR9lGjRRQpIP3g/dUYiRfHDwOJx4W/1uZsmUlopeXCU3zkoC79cetoj3WrlsHgwcPxpVXXqlMtr6qnxp9d/pBk41R2rnz58tGJ0CPGjFSfETk2aJZzezud955G+++954CpGnTICbb9OmB6/BtSvBipOrI0SOyCRo2bIhnn+uLmjVrynnUqmiGM8jA+apWtSpeGDRI/Df0iRFIs0eC2BFl6dIl0oJ9ydKluLa26gD84bLlGDlyhIAtI4I82MTy6aefCQASQZ/RzE8+/ggJCaUxbsJ4rFm1GsuyAVLQZLv0NKRAK20385CCR4CvXSNnFAIAKiXZ2x1pXwmL0KkkRnFqM4exQHxIAkjZnNqSeKbpXi/PeR0Ws1VaHtHRpfuRuKjpS9I1Jwt7OfFLAlzKZBs0eCBuuaXJ+eKRpq2pIjmOjT4jbmAdBPUb8LP0tDQ5R3dc6/QJinReRQQYOaL2wb5ndCjr+UNyHUYHvB4knUmSKBlD0/rv1UAUiZ3L7ZZxMBqnR2B0YnueQ42D5go3IH8f+hnHx8XOziL8rppk7flCpBWgfgAE3Hg9+qroo5M3mEbSH1JzHfh2KOjs/XOvdPvNHq3LPjH6IqRWob9UwsArOz+N5usRl6YWFqb8CEypycnCGsrnF+TOywwIWdD8Kx3O7JbM74V2TlGiV7Fgaq7kbxfZa6Crpi43t0NITbpWf6lfS9cCdH+hkqdiPA1dU3JtnYYjdH608wKb9wJm9hfJJsrlIrkCkshZy8qWZzIz+/mcQwiCktpnHo+74HxI5csUlzdZzkOVyE2f9WpIqJ/RIC2Tk6yQWiqAbsqpQl+TgBfzMgYPeQFNm56/hhS6OEIXRvhmCa210ZIYQhZgjgWWH0e7tjgDgtY7bgh+5CSn0guOQzePvlECizbbpgh9hrC3jAZ+gc1xlg2tb9TQ+4fOJ00MJhROnT5Ncm/OdejX04EyF8KHPC8RSuKnNnLwKMh1Qm8QrCVXvw3lbc4+kOwaUo7rnAMYzyUbdf/cc5QL+3z5ueeFOicHIIWUhyjXTbC49mzPp5gBlI9JP7xeRsfTCtZ1RDQkO3Msco+ETZ05X2lIAj7qj9pELDpU0blAoqRGPUDQio6JxtChg9C0WdEB0oWalMv9ug/c3x0Nb2oknW6zd9C93J/deL6zS0ASIzdtgkeLsgVeIno32ly/rorwRU9nAbJkAuhcasHyE4+HBG2pBWsUWb50cditJOnWAUkVEaqaFj8mTZkt9JXiyGaEzay0KWWqKS1JJUeq7+v/jo6OwUvDBqFZs1uMNfEPSYDvquSkJPGJ0b9Us1Ytbe7OPw3jH3ok47ZFLIEAHxIZI8W1EELYn9e9NHoSaqOKjoihf1VGFtTS/YWjHylXKhZ2G8GHWpJK+4bFJohH+oVJ0xZIyJOaka4l6dila0tKQyJiqta6BCuWCAwbPgTNm6tSDuP4ZySg/IHn9uH8M6Mz7vpPS0A0pA3r4GYtmzBCaoX12VwaAj6kJ5EBa8abAJjuW8pp0BUq7F+hTElVXCt3Ineu3tFU2YNjJ82W6E6wZERRjqhomxqQ0pC0n5rZRkAaPuIltGhhANI/veiM+xsSyEsCKuyvCNrCDs0VJG2xlQM0pO1Rdirb3K9eaEAiIb86dHRUKQA8Ro6fAZtV9ZCns5otUVT4n5EVBWRBYNJNOZNESUaNHoYWLYIlD8ayMCRgSODikkDuYX8VJQu0OxL9g0mQShvKr8FfKECiD0kobPWwqtSliP4j5tfwUVMFjGi2BbWkkLoV4UgJrf5XXnmG/UePGY5bbw1WqV9cU2GMxpCAIYFco2y660YUjpAom0Qo6S/SMeLs8iskIBWTTO1ARSOBSUsHJxK+NGKcgJHN5oDVYtO4kVRhbdCXpABJDxHy99SQRo8ZgZYtWxizbkjAkMBFKgEVZdsIdxYZI7WwveaGyaXAtUBPUThAKhUrPdRUPyaPhP9NVq0rLQFp+BjYrHZYCUhWB8wWErTRwa07tHQNifClEbWZlck2ZiwB6dy80AV6SuNkQwKGBIpMAkLQtn4dXKxlYyBfB6MiuEOhAKlC2RLiIxKTTfxGyqnt96ouBENGTYDFZBVAstkJSgqQlJmmrEk9E1k5uBXNZXR0FMaNG4WWrQxAKoK5NS5hSOCCSEAxRm5UjJGaMVYU7BwcbKEASWVqa+UTIVmWugk3ZPh4CfdbrXaYyRipUZFkTwHQH0KPurGOjIDUqvX5AxJDjqzQHjF8OLo/+KCQYLHuip0xCaDMNGchZyjhGKv4+e+bbw4mZp5N0GfL8NVXQiCDOT9Z3hdk+RgXNSRQtBLIq5Yt33fJFu3XIYRbpHCAxMTIXAjalNuKxFZjYbFqHNoCSMzaJp0tndx6LRvNN72WSDnBGPYfP35MkQASR3L0yBGMHzde6FXr1K2LXo/1ksJe8hIRKEh50q59O7Rt204Ke3s9/ri0xek/YEBAgzubkA1AyvcSNE68jCRwPoAUikWyf7SyHr18hApDUnJ6QYtrS4Q4tTU6yoBKALwwZJQqDZEWR6qg1my2Ssif1BTUnKT9kTLeAiYcNaSJEwlIirvmfA8pqk1NRXRUJFJT09Cyxa14pOcjwkHDYs5ft/8q7H/Dhg8T/mlyJVW/srqQowm0nqM7RH4BKT/XEUkYWtT5Trnx/b9BAucDSAp41B/yZ+sQIAnSJjM8Hi+SktMKCEgJsdIdglwnKgHTopWOSLgNQ4aPFtUL4sQmZ7bq8U3TzWq2SkU26FeymiF0llpn2+ioGEyeMr7INCTy4pBAjaRa199wvQDS8/36CX8OD1bvkzpW9TTrhT69+0hXj7i4WOmSQbbEW1u0QL8BA4RSltCZ6XQKV9Abi97AocRE6W7RuUtndH/gAaE1JdD1e/55XH3NtRBmvfXrJQWChHBPPPWkojCFCenpaXj//Q/w4bJlOHHypJD7ky+JdKY8xzgMCVysEjgb/UhYvpGmDimKW40NIFjDrihvs2UoFcpkq1C6GKzUcAhIUosS8nezGSNGTUZKSjI8PnLn6u2zLYiKjILD7pA6N1J0mNjNlqnlohmYERMdg0lTxuG221qd91xQKyGZWbNbmmLK1CnS/kbApV//ACCRjqJP795o0eJWPPTQQ1JI+sfvvwt5PwnDyKVDwrZKlSri5dmzhXnxlYULpSVPj4d6oNbVV+P40WNYvmwpKleughcHDxKKE3YhIWcySeDq1KktfNivvfqaEMSTFpZUGGOFQ+hHASEyMu7dswfLly/HHWwj9MADAbbB8xaEcQFDAkUsgTw1JM1YCvBsB+4bwr1wjohc4QApoZgqHRG7Rv2PpFaqVs6EsWOnICUtDenOjAAHj9lklb5ZpGFVWdwOWJjLJGVTyldPk23ylAlFAkgcFQGJNLVTpk4V8nkCUvNmzQUYyBW0fdt27N+/H6PHjJG20o8//rg4u0ePG4v44iXggx/vv/seJoyfgPUb1wuhG1kmyd7Y7a67VLa534StW38UilgyC95w440CSFWqVsWQoUNEG2R9H/msZ8+eg83fbRHWQnbDYGcMtr7WOXXImc2OFnPmzkV8yZKGCVfEG8m4XNFIIE8NSRQULTVJldBqaziUL+rsOduFA6TSJcK6jojpxiI77Rg1cjxIMOD2+6VTAwGI1AP048RFx8Lv9cHKshKrKsAlkLH+pXix4hg/YQzatGldJJLLDkg02UjQRT5sgl+NmjWkqWH5ChVEcGxpRBrYgS8MDJB4kZKU1KUfLFkims7QIYPxv2++kVQGnaSLpiFNv44dO4h29VCPh9C6dWthhdQ7lJKMv3ev3li9do201hk9cpR0QdGTRYnrZIRka2YS27NjRl5cRUUiHOMihgQKKQG+xDcy7O9m1xEaOdz/jF5bVDsjXjdQQFuwmxQRIAWL6Hj7UcPGwuXzIC0zU8w2k8UMm8UGhz0CdosdDhtbbFslYdJkVhnftNqioiIwfvxYdOjYvmBPkcfZuQFSqA8pjPUPEEC6UnNq6w5mkvWTcvX9JR/gr8N/YcigQVi3caNEBPWQPu/T95lnBYzoT3r4oYfRtm1bMQ3162zcuBGPP/qYkL//9NNPGDliBO6/vzscDnuooilNBO9/oLvwdxuHIYGLUQKqUeQGuF1apnZAExIkyn/hWi4PV0SA5A0hfTNh5LCx8Ph8yPS44JYeTGqg0dGxiHJEwed2w26LgIUoarWKSeP1u8W8mTZ9Mjp16lgk83A2QMoORrwhAYlhf2pIOpBs2bJFgISAxHIYdvS497578dDDDwfO+d///ocxo0YLfzJ7plFDatu2jfiCQgGp16OPYeWa1dJs8pGHHhYTj212dAubznKS+nfs2DEHFWuRCMS4iCGBIpCADkjkrBfLSLPCzsbKmd/bFg6QEoqr0hGty4jirSYyKq/WyBETVbjfboPH75cERK/PB7YZMvlMsMIimhLTAPxmPzI9mXD7XYiJicXcubNkQxbFoQPS5KlTJNmxlR5le/CBXC+fm4ZEQHqs56PSMbVmjZrSFofdb9kJtUGjhti7508sXrwYzVs0R/+BAxHhcOQKSOzSQGAjIFWuUkVaLn/x+efSrYRdcdkKid1KHu7ZUwDPYGksihVgXONCSOC8wv7nGNB5AJKKjAkdkjiwFD7yGD5svPxkljZtSm4udnxISUoVfm2CkYWwRP+R2QeX3yOAxAjVzJnT0alT0XTypG+na5eukmfETO272XGkV2/cqXWMyC6bgQMHomqVKujzhGohzYPm1YB+/cGWPTVq1JDfffLxx1i4cKG0NmJC5b333ivAIg5sn0+6dTRv0QJ33nlnwM/07TffYMCAgXjn3XfE4U0QX/zmm2Dn16SkJOmC0ufJJ6VHFzWx3DS4C7G4jGsaEiioBC4+QBKndngOgc6DQv1t2EtjFRcK/NKhlD9Z+e/O8gggWU02mKHI/z0mDzI9WfDAJfk38+fPKzKTTTS4EIL2s5K5h5TAZE9QzF7+wX+z5U9GeoYAUqg2k1tyo37fUCJ8nY6BnUaczkzpZqKClPlljinoMjLONyRQNBK4SAEpvOtIKCANHzYukIkp2do+tjfxwm61w8bqf5NFAZLZjCxfFtIy0+DyZqF4ieJ49dVXcPvtRePULhrxG1cxJGBIIFQC5wVI52izUiiTLZSgLehSD7YzGT58gjQkMdOc8/mkhMTn9sNmssHGhEgCkvbH48+C05MJDzyIkM6n8yV8bhyGBAwJXJwSOC9AyuWRAmy37G/o8SApOVV8sUwXUmyzWnnZnDnz/D6vHx6vR8osMp2ZyHCmo3xCXIAxUr9+4KIM+4+YpPE20aukmyAsIbHAYY+EX/PMi4li9iPd5USGKx2lEkph5syZ6Ny5aJzaF+d0GqMyJHBpS+D8ASnYh031YVXU1/w7i2uTk9ML2gaJxbU6p3ZQuMpHYsKIocqpHajkJQSZbbBIcS27uqrebCqZyo/0rAykZKYgvlRJLJg/t8iibJf2tBujNyRwcUrgbICU3U8riCCtj7RcxaA6pD0c612DpSUerxfJSQUEpArZMrUDWpLmGB4xRAGSgJKJTUm8YOkI6Ues1oiQlHLWsQEueJCSkYyIqEi8+sqCIouyXZzTaYzKkMClLYEgIHl08pCAAiIJiZrWE+zerJWOKA1FawOvJ1CGB3EK5UPKPyCRCVLvlGuS7GyHPVpR3mqdbJkbme7KQJY3SzrXzp07R6JsRrTp0l60xugvXwmoxMiNUmwezIgmnYjWGlusIzaJDYKNnhIkuYqa7ZS9tTwlVihAKp9QLJAYGSp23WQbOXRiQDvSWSSll6TFighHtFb3RlDyiiJHp3ZaZqo4tV95dSG6duly+c6m8WSGBC5xCQitzob1cEmmdmjYTGVtB4CmEBkshQMkaaUdHvZXPinVqXLESxMChaG6dUhAYj2b3Rop5pvi1CZLAOCBGynpybA4LHj9jdfEZDM0pEt81RrDv2wlEAAkjeT/fDuNhAqqUICUl8mmmkb6Mewl5iGFHwQediJxWCOlAUBAhWL7bZMfXpNbUgXmLZyNDh1psl2282k8mCGBS1oC+/btB0uhVOfacyQWFfBJixaQNGfWMEbZQmxFMeX8gN0aIX+oIfFQ5RE+OZd0JX6LD3MWzEHHTkYeUgHn0TjdkMDfJgEBJPZlc7Pav2g1h0IBUvnSeYX9leGWXUMiIBGTHDbSj0RIljb5c1nnpof+mZpE7qRps6eifYd2hsn2ty0v40aGBAomgfPPQ8r7foUDpIQ42LVW2jlMMwLSsAlhyKkDUoQ9UgGSn86vbIAEP6JiojB11hS0ad+mYBIyzjYkYEjgb5PARQdIefuQVDHrsJfGhAESw4GkJ6GG5KDJlouGRJONhPlTXp6M29rf9rcJ17iRIQFDAgWTwCUDSLp7a+iQ0SE+Iq1bm8+ECFuEFNdKjoKwRDJLKkh9yzykKbMmoY0BSAVbIcbZhgT+RglcMoAkHiS/Hy8NHRPoaaZTbjCEFmmP0kpIQkpHQgEpOhpTZhuA9DeuLeNWhgQKLIGLDpDKJ8TmKK5VTyXlshg2bHyAb1p/WpPfLIDEXkxmsGkkVSRG2JSGROCihjR19mRDQyrwEjG+YEjg75NAWKZ2EdxW72DLS5FnLCkpFY4IWlP5rfYvXTwPQFLRNDJG5iAlo4bkiFYhf7+iFJBcIwn9q/wldgIRQLrd8CEVwTwblzAkcEEkkB2QggSGulKi3TasbzZ/FywtUUoIM3588AsGKH3G6/EhJSWjYNX+Z3NqM+z/0tCxuQCSGVERrGNTTJEqUzsckKghTZs9xQCkC7KMjIsaEigaCegmm8vlVrWqqpo2BIX0Cv+g3RRCOBIyCI3nSNhlVV5iocL+CpBytsHV75SbU9vktyDSESX5R/yPhXcEJtGQJApHk83QkIpmyRhXMSRw4SQggLRxI1yurDAQUqCk3Da6shE+ipwtkkRLCsmtPA9Ayr2WjYN5afAYyb7W69HEfPOZEeGIVIBEtkj6klSoTZlsPp/mQzI0pAu3lIwrGxI4fwns3fsnNm3YADer/UVFyguACn6vQgGSVPvnkRjJIdBkk66r2h/mIVFDYh4SO40IGJktWrs2BUg0IiXsP1vlIRVtQnrBBWN8w5CAIYHcJaBrSAJIeiMNUY7Of9cWDpCkdCSnhqSG78fQIUyMRKCNND3njKwJIFk0Pm1NQ6KbSx5DA6TJsyYZgGTsBEMCF7EEdKd2aC1bUbFzFAqQzu7UBoYMHiXakfIRsWWQT/Fpk3rEbBZeJPEkmczS000/YqJjMHnWRMOpfREvRmNohgT27f0TG9athtvt0RKcLZK+Q7YO8R9xS5u1hOdcyADO1o7sPAAplFNb46aUuTKBTm1JwibgsJqfnNomm7TPpt/IYmZipFlaaavP1RETGwtqSG3atzZm3ZCAIYGLVAL79u3FxnVrwFbajLApl4wy2aiI+NhxSPILNQc3G8ISBULJ2/J4tkICUhys9CHJHRQ/XJCmGxg2ZJzkFRB8/D5FLUIQIiBJYiQd2+JHMsPn053ffkRHM8pGk80ApIt0LRrDMiQAakib1qLDwKYAACAASURBVK+VTkQq7K/lFGncSHoTVN2jxDwjdRCwNKYPLaCVXZyFAqTypc/h1B48TlPlTIKeBCWrxQ67zaEAKQBKmkNbAzSabCwdua1da4N+xFj4hgQuUgnogMSuy4HSsGxjJShRVZGfwquvkp+Vr4mfUJkh4wfdOqq2lb9nQ9lkydQuQF+2c/mQBg0apUxIyZdiSN8Pq9mOCGskTBYTzGaWjjA5kn/88MlAgejoKEydPVUAyTgMCRgSuDglsO9Phv3XwiUEbSHmUS7D1XuuhfmNxNmkWiMpU88Ck4V+KIvWly2tCAHJDwwaPFLMMZVfpBrBOSwOcWoTkKA5tKkp+XzuQPifpSOTXp6Etre3MTSki3MtGqMyJIB9e+lDWi2ApOVa5yoVlcEtfY+CR1jKtgl+rSeb5Gr7TfD6gZRUV0EBqbj4kAI2omYfqh9+DBk8Rswym80mf1JTU2Az22G3OCTsL620BbB4BeUYY36Sw+HA1DnT0K5j25COt8YKMCRgSOBikgBNNjq1GfZXQTTCiUrg0QEq0BgyTIMKAaBQp3NI80ivz4eUNE/BAclmsQTsQwndhwDhsOGTYXVY4IUPtWpdhTNnzuB44jHYTXbVp1vzyPMvJotqneJ1exEZHYlZc19Gu47tLib5G2MxJGBIIEQCQUAiyb9+aLxnWmxNd8MIHtElo0XcwuptWc2hTtA7ysJDQEr3IKIg1f4VypSAjW2QVJ9cZUZqXWt5g9HjZkhaeWZWBuJLxqNqlStwNPEoUk4lwecl5YiKwJnMZnj175lMiIlWxbWdunYyFoAhAUMCF6kE/tyzW6JsdGqHJkQqDAikOmummhaD1/Z52CPpjm6qNsQDPwQPUtJ9BdSQysaDGlL4Eaz4feu9z3DkaCJOnz4Jr8eDJk2a4/jhozh1/Lg4uHXwkhwGGSiR0iwk/4/27onnX3gO0dFsKHm2o2jbr1ykc38JDqsw81KY71yCoinyIf/9ciMIff/dZvy67WetU63ehzbQgTGk8l89cBgVkeCTNu6QlCHd/eP1+pGc7kaEwwGbzQ6zRVEV8TDNmTPPzyxrln4w5yDTmYkMZzrKl42HPQcgBVs0rd70M9JTz2DrD5uF36RJ01uxd+ceZCQnKdOOXEis+NeyuPmQPOhXqlCpAm5rdxuur38dIhj6s9skm7tYsTjQvkxOTobZaoGN2pUrC3aLojJJdzqRmZkFu90m6p7L7RGBSYIWQ35+wOVxSbNKamYetwdev0/lQalBieC8Xg98Xg9HB7uDJib/BjmPSZweHxOszAKhZCeIi42DxWqR61nNZmRkOJHpzECWU1VCs82TFuRU/5YJCffy+bzewKSZNbny3rWuqq4mImQh507jkPfC1AKv2soIuVggeSzY0FgNS3+xhDc6DuaWqNyz4KFeKIFWyap1qeK50dR0eQatpboimgh1IIR09pJkOl3j5l+9Mi85yhJExVdMEXoveXWuyhhWz8C3rj4qLcTMl6GJ88GXaYgkpRWXdk7gwfT8OonKnL1OK9AvXped5r/Q8vRyxyHN4av5X/Q1omc7Bycs+9zymUPrG9SjBJzL+hzmCX66xqK1ITsLSIbOKk/jfjp2/BgO/PknMjLSNSRS0TIdZKS1mW44actErR2Vua0vu9AVFDoEAlJKukv8yfQ/K0BSe9M0Z858PwfB3ACXKxNOJ/9koJx0rtWyL0Oupg0F//3pAJJPHcWPm78BOVNubtYKifsO4Myxo1pOkur7Tae2bBiqal6vSNZqtUp/toioKNS7vi5OnTmBYiWKoVRCKaSlOLF33z6cTjmFmjWq49ShA0iItCM2OgIpaRn4c/9BJGdkoliJkmKLun1MZ1cTaDP54fR6YSIAyTq3IMPr5o3lvj6/WcDInZkBuxVIKFYCdrsF9JR5fX5kuX3I8njgpCnq8aFEQllUv7ImKlWuLKCTlZkpjAU0ZXft2IUzJ04i6fQpkB9TstY5FSpbVE1M4HeAy+uG1+eVRpq6i61EfHE82fcR/RWjNqXPC7+ZIwoHKW5+TrhfZMqsWX3a1WaSllN8SgFXlftl8rnhN9sCnwWm0e9V/fJCwER9mWUC3PAqj0SBrR9+rwcmqzXQx128BQLqbphtEcHzuYl8ms+B99U3on4NFltb7Gpx62DB+bLYtAxfBe6cL5ON56mXjLCOCn2NDyazOpdy5hgoTJNWFSBb2Kfm2mTiS84HE3vRS5KuTZsQfZtoYWlel+cJXY6eeZzbDvbJS8wkr0413wra1VOGYFwgFQYCipwf9UKUcRN8w944ub1+uKYVXY+aCfXK0f+m7hW+3cOCT5R3KL7K+gjOZ+jX1T3U/gwCuB6uV75f/i/4epE3UcAlpC0S7fG1NamRseWow9VMOu61lHQ3HA4yRlrBFzQ1JBnL3Dnz/bLoOBzNNAx7uGxzkx31dEGdBYQv8Ee5aQ7B3wUnMziNuWsg4dN8tnNC3wIFf7jQseXQfEPWtb4IC36Hv/cbofLP37OdbXwBpS7kpHOtx9C5yv3cvLXLv0tWZ3uG8xlDbvLK7/UKM6a871cIGWtfEYoiDUBNs2fNEx1UmVgK/YzDkIAhAUMCf4sEFPqI5SGgNGvWHD/zjXSn0t8yCOMmhgQMCRgS0CSgm4tutxemefPm+RUY5eWCMuRmSMCQgCGBCyGBoJlHt5EEnxYsWGDYaBdC1sY1DQkYEsi3BAI5jgYg5VtmxomGBAwJXGAJGBrSBRawcXlDAoYE8i8BA5DyLyvjTEMChgQusAQMQLrAAjYub0jAkED+JWAAUv5lZZxpSMCQwAWWgAFIF1jAxuUNCRgSyL8EDEDKv6yMMw0JGBK4wBIwAOkCC9i4vCEBQwL5l4ABSPmXlXGmIQFDAhdYAgYgXWABG5c3JGBIIP8SMAAp/7IyzjQkYEjgAkvAAKQLLGDj8oYEDAnkXwIGIOVfVsaZhgQMCVxgCRiAdIEFbFzekIAhgfxLwACk/MvKONOQgCGBCywBA5AusICNyxsSMCSQfwkYgJR/WRlnGhIwJHCBJWAA0gUWsHF5QwKGBPIvgaIDJL8P7lMHkHnwR/hdGQZHd/7nwDjTkMAlKQGzIwqOyjfAFl9Fa955/o9RZIDkTT+FtJ8/gTf1uAFG5z8vxhUMCVz0EmBPRmtsacRc1xWW6PgiGW+RAZL79EGkfv++am9sQFKRTI5xEUMCF70ETCbENrgHtvjKRTLUogOkUwcUIBmHIQFDAv8qCQgglaxSJM9sAFKRiNG4iCGBf68EDED698698eSGBC46CRiAdNFNiTEgQwL/XgkYgPTvnXvjyQ0JXHQSMADpopsSY0CGBP69EjAA6d8798aTGxK46CRgANJFNyXGgAwJ/HslYADSv3fujSc3JHDRSeDfCUgmE8yxpWCy2KRWzpd+JiwfnPnhprCpMuWRMa7yyP1+P0ym8G+Efj34efa8cz/kwrxb2NdDzrNYYY6IBbxu+DJTc81bV+PlBVRmOy/GEavfBscIkzrr7GPT7x28Ks8Pv1rwCtrVA+PK/ds5bqp+oQ2G3zFb7DBHxsHvccGXlSZZ+nkd8pR+aDIP3lFdMPzfobIJF3JQxvp8W6R0oQtcR3fCufurwDNnk5j2TzX40Bl1VKuPiIrXITPxF2Tu+17JXk7IuTaCa0y7jjxP9jvp85o3bnBtiSjzWH8BaeSxRnX5WGLiYTLb4M1Igt+TBYu2P+QZ/T7A44bPy7lJl7nJe7WfH8b9KwHJHBGDuMYPwuyIhSfpL6RseTtsA+QsV8m7gCX7wsp9OvTNlXMaFXAEd2coDHCx2UtWRnS9znAnHUb6Tx/nMdtc+NqVtFsEoUeHDLWI1JYNjkPAQBYdPwwZJ38RWOR6CU/o+HOTSfjv8j5D+0TuoZ6d2bkxN9wJ94k/kf7rSgGm3I7sL4sAFGvXUiMMBSYdNkIQMAAl4XewFi+PuJseRFbiLzKGbG8J7eS8yplMiKzVHJHVboJz32Y4d24KuXhu2zc/qyw73OeUSN4rMztchr9ggldSoBnb+H5YIksifdsKKWyPa/IgrLHlRATyxB43vOkn4Tq+B1mJ2+AnMF2A498HSH4/HJXrIfradjIRFHbKt4vhTTkWEK96qZlhja8ES3QJ2RzuUwfh55s75CyzPQrWklVgskXAl5EK9+n9gM8bOIO/t5aoBHNULPyZaeoa7kz1ucUKW4lKMNkcsgAsMSXBNzTvwX/7XJkwmy2IuPJmRFRtABYcZ+77Dt60k/CmnghbCtxI5og4eFiMbLbAGh0vb3ke5shYVUFtsarvnk7UAFBdgs9pKVEB5uiSopl4kw7DGlcWJqsDrqN/wGSxw1qiAky2SLiP74bf65aNao4uAVtcWXhSjsGbflppibx3sXKwxCUAPg/cZw5r2mdwuJa4MrDEJsgvPHzOzFSYHdGwV6qHqCtvketlHdgKT9JhuW72w0S5laoGU0SsPI8n6QjspaurOTpzWJ7HVqoqfM5kubaFsrFY4T6TCF9Gctj8mewRsJW6Erym58whmKwRiLvpAQ2QVuWqFfNlZi1ZVb7jSz8l94TPJ9dVgNQIzn3fwXXoF7k3MV3mMzN07QAmeyRsvI49At6MM/CePAif36tpumqYZkcMrPEVYbJHwZd+Wt1L5K9giBqltXg5mRtPynF4k48C1Gb0w2wRWXHMfpcT7pP7cgF6da3YRvfDElUc6ds+g+vkfhS7uYesKefur+FzpcEaUxL2ctfCHFUCWUf/gPP3tXm+NM4Hp/59gAQgrkkPNcmZybAVqwDn/u/ljaa/Q/hZ9DW3wVa6pmgJVId9niyk/fIJPCf2ibwJAjE33AWzLSIgf9ep/cj4dSV8mSmyYWPqdYE1roxSP0wm2WBpP30Ib+opWUzUCKyxCcg6+jvsZWrBZLLKUvMkHUL69i/gczkR36qv0lR4DZ9XvX33fB0259F1O8Be9iq4T+2HNbYMvO50pH69GPYK1yDq6tYCKrrm4D5zAGlbPxa1nOAVc11n2BJqaiaeH760EwJGJkcszqyZAnNUccTU6yxAk/TlXPicNBsBR5UbEX11a2T8sRaZB7bKdyJrtYCjQh0BBR5+jnfHWmQe2ia/i7z6Vjgq14dJ14z8QOpPywW8oup0hMURo14Sfh+cuzYhc/93IVqKXzZIdO12ssn0l4kr8Wc4Kt4Ab9oJpG37VIAi9qYHteeIkE1NmfrdTqT9tFyBFkywFq+A2Pr/gclqFzCF3wtX4i9wVL4xAEjhG8sEW8IViLq2HSyOKGWqa2CT/uNy+H0eAaSIqo3gTTsOsy0KJkc0YQMebWw+7UViS6iO6Dq3gy80AXJAXjipPy4VIFUaY2VE1+0Esz1as/pMcJ/aJ4Dhy8qAPaEaomrfDtijAhquc983yNyt1gZfcNE33g1rRJz2GCYBlvSfP4b79GFN+QvqV7GN7pMq+/RfPpN1JHvEFom0H5fCm3pSxmCJKiaWBUwWZPy+Gq4jO84He3L97r8OkCzFyqBY4x7yFshK/BkxdTrAm34GqT8sgc+VrjbOFTchsvotcCclwnV0h4CGrUxNeROm/vAe4ANiG9wLk82OrMO/it1tL1MD1mJlkbl/C5x7v0PsDd1gLVYeWX/9Cu/pQ7CUqAhH+WvlrZ28+W0BMgGkuDLwZqbAfWyngJ69VHV1nYNbkbFjI6JqNoej0nVyj6yDPyqNhG/CkEMAqfy18LtdsjG9KUfh+utXRNfrApPZiswDP4ivzFb2atgTrkDWoZ+R/sc6RNVsIcDCN73r+C65IoHREl1SwCR/gLQGzgM/IaLydYi6qhXcpw/Bdfg3WCKiYK94HSyRxZGydZlohrHXdwUsDmTsWCd+MUeFugIcGbu+hL1CbURWvUk2r+vwNrioVYRqgpyX6o0RcUUT+DJOq/GazLCXuUo2CjdNEJAeEBPDdWwHvGcOw1KyMuyla8LnTEHy16/JvekrssSVh+f0fpBdgtqBvBSsjnBA0l4m6gXSDZaI4shM/Ek0Hp7P+cs6vA3pO9bLXEVWbSTgl3V4u3rhlbkKthKV4TzwHZw7NopvJrpuZ1giYpF15A/4nGdEU7KWqgb3yf1IJ6jaIxHXsLtoQtRSqR0RxKzxVeS5M35dhahr2sBe7ho4d26Az50pLwJzZDGkbnlLXl4EKwI3zU/vmUR5odi5jpL+Qtr2z+F1poT5gc4KSGmnAlpZZI2miKzeBJn7NiNj11fhGlkRwNO/DpCoMURUvh7Ovd8ic+9mxDbqLosj7ddVcB3bBbPVjtiG96qNtOVt0Wr4FuVioBOcpoStdHVE1WoJz+mDSPv5I/g9bqU+l6gkZg/V42JNHoIn5ajcw+fOgMkWJUBnKVYOqd+9B1/GGU1DKo2M3f9F1v7v4Pf5lOZ1XRfRXpI2zhGzMea6O+BJSkTaj8sC7utwQOoIR7lrkHXkd2Ts3AhkpcNe+TpEX90GWX/9hqzDv6i3ZnRJRF3bFr7U40j/Yz2ir20v5lLG72vku1zI1LSohcBszRcgpf+xBlkHfkZso3tEO8vYuUlMKWp1ERXrwVbuGrj++g2ZB75HzPXdBIjpMKbvTrQTr1tMTVuJioi58T9wn9iDtG2fiQYXdMnzpWyTeTHHlETaD0vhOZMo93CUry3aBs1YHZDoB6J5nL79M2USRscjpm4nWOLKIvm/c+WnmOwAUr59U4CK4BZ1VUtEVMmpIVGLcZStKfMg4POrMudoxlj+v70vf47rus783tY7VoIECBIgwAXcV5GUJVsSKUXL2LKiyElkTcXx1ExlKqnxj7P8EZkZu5KpipUpW7aTcuxJxiNHkq1d1katpriCOyluIEGCABrovd8ydc7rbnSTANFAPwDdjfOqZIPAe/ed+937vnfOd869r6EdjpVh7SvY9yACvV9B5toJxI++wp4f3atx73O8t9fYJ/8E/8qtCG9+vPBSIMyJIBvu/3P2+sgzJu8o0LOXz2HP3cpACxORPcmERhJDoGc3fJ1b2Iskj4YImOfn2CD0xmUIb32S+8d6nJXlcDq06VH2ymKHX0J26HyJRnZ3QhoqnOtbvpE9ZrItcfLtXAjvARPlmlgkhORwxKMFIuymq8FmjP/+/yA7fAXB3r0Irt/PhJA48z4/iM0P/AUTy/inP4edTd+WwXAQ7NuPYO8epC7+ngclH5LlY3uDJu/2P+IwgCZT/u8qZfVUDfGjr8K8daEQso19+nN+k9uOwzZGtn8TWusqjL75A/aWwjueLiIkN4d2OyH52vuQOvsekhc+4z+F+vbD33uve3/WtdywkQjBio/yRKY3HT2I45/8I8z4CLdKE54IUQ21Yvi1v2YNjUO2xuUYfY9CtrFcyLYH4Q2PgAgpdekQmvf9FZMbSIzmfawcDp+g+WDeuoTxz38JX0cfv9kpm0OEQ6Qc73+dyYR0n4bdz7JoSl6CK2rngmgKaww/mh74j3CyCYx9/I98Hxbk/WE07//eHYSUudaP+PHXXWLzhdgTJi9k7KOfsLcQ3PAIrBGy65/d8Iu8w5wNrqj9agnGgd572aNMnHgdyUsHc5lMDkwLSYlQQdT+pCBqM9nc+xycbBrRAz9DiD2M+xA79CLrfPkMLJ2jN3Qwnv72DdDbevjlQnoa3UE1gghvfgxG+0YOo+zMOMKbHuMXHGFBHlvy7AfIDJ5izy209Rsu/tm0Gz7TeOh+Hu/44V8XNMZ8J6ciJAojyfsk2YIwCvbsRnD9w+ytM1kWaaZe0NIiISQXKn4gNj/BD6WdTRZSsqoeRDZ6BfHDL3Fo0Xjfd6CoPkQ//hkTk6JoPPEpnKOwzr9qNwuw5D7T24bToJrBE5/eiqS7kEhID2LqwiewzRS/oUjkpoPcZorDXQ1pGb/FyMXnty69zXc9w3rJ8Jv/k939yM4/ghkd4LDyzsQ9+M1JkzBxmibw79mLCq7ei9C6fexa00NOegdpSUSKFBpSWBHZ+S32UqgP5hBpYw701m4mJBJ4KWRTgo1oIEJq7uQ3s8nhooPQ+v2ghzSvIZHmQBpQ/NTbsBJRlr2oDeqnnR5nr4m1KSK9pnYON/ztG2HGh/gBIw+gYc+fIkNZtsMvA2aqJPsIzUATZUYDDYge+AkLwdQYhTsN9zwLOzYRsnGmbOA4Eiy85gnp6xz2RA/8mO8V2vwYexXR9/83p7PZo+vZg3Dfw+xRFhMSjUugczPjnDz/MetbdKh6gMeUNC/yxCaybLcR0t7n+MUw9uELfA8KbZOn3+W2mGx0H5oe/EvGJn78Vehta+BfsYXnDpEMbAdquJlJVWtewaRKWp6iqizu08uI8KSs8fjHP4XiC/O5NMepvTzpkSZEc5U8dzdLdjcN6c/Zq2ddizxemnn+MBp3P8uhIb2Iibi9PhYPIZHLuv4hFlXNofOw0uOcKucHpLkDWqgV4wf/L4cC9LD5u3fynt7ZwbOgGo1A9y7WY0jYpoesYde3eCKSV0VCpG/ZWvg6NiI9cBSpcx+j8d5/y5OVQkMzOgijuYN1KBIkyZ0nsTKvIZnRa67OQxpSxwaeXNnrpxA7/K8svkZ2Ps0eQ+LkWyx+lmaL7iQkmjwc6m1/ih8UmtR0PbVtNHUwQZGQH97qiuHkrdHkopAx0LUDettq1gaIkIgIIqRRLVuPzLXjrIkpmh+hjQ8zaeZDtuBa0nfuQ/rSF0hfPwnNH2bNjCYxaWH0wAfXfBWOY3K2kA5KCpC2FaNyBlVF01e+CzN2A2nCjLJsLKDnShFU3SXB7l3IDJ1ne+mtTS8Ho7mrRNSekpDa1iD60Y9ZC6SEgxZpc8d46AK/cAJrvwYt0DipqE2CL3nXZE/i1LuwzSSHyUbbGmSHziJ+7HUE+x7Ipf3vJCRYGUQ//ClnxTgkp3ZOvw8nE2exnOfl6AB7h2qoycUmGUWSQvnkGJMpaYkUksUO/guC6x507f/yU/aOAr174e/YhNiRX4PmE5NXUycSJ97kcJE8bbKXwuPk2QNurVfRMZmHRAkBCq/phaL6IjDa17n9Hb6YS964CQ4vj7onpHxljRZs4noePbIU0ff/nnWdfJ2Jr2M9x9zpywcR73+TRWyKt8krcFJxQPexh5M8+x7SF7/gN45/5TZ+QNywLAvFF4E1ft0NQYiAlvQgtPlRzlSQpkSbmFP4F+9/DebN8/ww5z2k7MhlzorQQefz2/7Yq+xJUco2tOUJ+Np6mcxoAqa+/LxkDrgeUh8Sp3/HLj63oxnw99yD4Or73YyabULxR7iWhDwiKzYMPdSC8PYnOVRgLw7gzB71l7QGJiSAxVEiNwq/6AGiE4noSLQnD4lEbS3YiNDGRzglTqUL7DEaAQ5riRCJzEmjyQv7hCGNCREceTL0gEZ2PwujuZNF2sTp91zSKXqLa43LWAOjkMvJUPmEw2UKxrJ1MMdvuoJwLstGuhWNBXIeEpPv0jUY++gFmGM3QVoIaWicQSVvmVL/ty6ypzlZyEaanr9rO4Jrv+ZqW1aGPREzNoTE4X/lFwVlGSnLRmPE4Qz3sRENe7/NL4SxAz8DNA2Brp1czsGVYzR3aMzTcfZmzKGLjC8RTHD1ffzSo3PoBUbZO8KKXnC+zk0Ird/nhsfZFHtKTmIUY5//krEhkgtv+TfcL55/5L07FuL9b7jhWnF5AJxc2r81l/a/gOav/juoVIZC2NgUMvv4eeGi0fMH7ijn8IqU6p6QCjUbgQhnIigln7p6lNOxTFY0afwhFgjp5+TFz3iS0gNEHo/e3A4nnXKzZYnREtzVUCP8nVt5sOnNTg+BY5qFc8g7oImvN7RxyEJpUisV44k4QUhLEf34H6CFWmAs6eJ7UJbKSscLShGL6m2rWc8xR66ymF58kGalh5dwlobejsUHvUVJ+FV0g7OGFMpQ37nrFNxRP8nGpg5YsVswhy+zSEw1UXlCInu5Lyu3sXeYvXHava5tNYdYbhjH5dYwlq3muifHMlncJZKmekuqjiFctdZu+Jeu5XoaImKyOX845PG093HJBGW+zOGBO6qXCQt/11ZooSXIjg5wbVRg1R4OpbPXT7OnRXba40NsGxOxZnAJhxZuRuryIQ5XuEiU5sTKHVANP4fflG31r9zONWmZG2cmLYykFwdlNCn8JC+OsrD5OiS9bRWM5hVcWkDkRoSkGj74VmxlHY+EYBd3SjC08JzTfEEmmPRAP9vqTkm38p8EfP/yDey9ZUevcSaWMqn5saMxJ1tIgqCQPjN4BnZOeyPvXzUM+FZu5WSGnYzxC9cxUxwZFDDPVZP7u7ZxO5TYIQ+c/+1vyJ1ms+5ItVruaoG8LOp9vfYiIKRi2XFiQcUEquxPFOLpiai6tLq6UMhcGIPbqpdLSmYn/lb46baSWk495+qQogdeYOHQPXL3ZdEn/2/XvqkXEuQbv3vdbp6c8xPe/f+J/pPwr4fJa3qqhJAmCG7yBSRuWVG+srsYN7eCPC+ol2Jb9FC4b4Yi8rltnEootgijwu9zbd3R/dIxLGDL5ccTVeIlvy+UjU61JGgSrAtV7fn73WGwiwNXwt8+19zfFSPLmmTxUhC6Lkci+aUiky0DKiaZqSr1J6s+Lx6Xws/8Q+m8c5+BXB8L82aSvlbwq0VBSBXgM2eXuoT0DLTIUoyRSBuj6uvylhjMlVEcYuSyaq6H9NdT2DRXFtRyu9O9DGq5b/NnuxDS/GFdcidOB+/6FtRIG2eNqEBwckKaPwM5lMhVZheHbPNngdxpsSMghLRQM0BVWTeCajAZ0dKDhSYkdtBVjUmJ175FB6fdyWCh4JP71icCQkhVMa55HWFhKam8nQuqAjAxok4REEKq04GVbgkCtYiAEFItjprYLAjUKQJCSHU6sNItQaAWERBCqsVRE5sFgTpFQAipTgdWuiUI1CICQki1OGpisyBQpwgIIdXpwEq3BIFaRKA6CWn4EsY/+8VdP4VTi2CLzYKAIHAXBBQFjXu+zXtyeXEozz//SduI+QAAGKRJREFU/F1WF5Z/C9rKIX7o18iO3yhsTl/+1XKmICAI1BoCtI7SaGxHeMdTvDuBF4dnhER7tdCeyLRdAu/PI4cgIAjUNQK0hY+/e4f7ya7cV2sq7bB3hFSyU7H3e65U2lG5XhAQBLxGILfFioePu6eElPuUatEeMl4DIO0JAoJAtSAwF5u3eEtI1YKU2CEICAI1iYAQUk0OmxgtCNQnAkJI9Tmu0itBoCYREEKqyWETowWB+kRACKk+x1V6JQjUJAJCSDU5bGK0IFCfCAgh1ee4Sq8EgZpEQAipJodNjBYE6hMBIaT6HFfplSBQkwgIIdXksInRgkB9IiCEVJ/jKr0SBGoSASGkmhw2MVoQqE8EhJDqc1ylV4JATSIghFSTwyZGCwL1iYAQUn2Oq/RKEKhJBISQanLYxGhBoD4REEKqz3Gdu14V7crFPzoOHChQPNw1cO6Ml5arHQEhpGofoSqzjzZ2V5h98sw0F/sGVlmnxZx5Q0AIad6grqIbOfkPzeTIZCbuDW2j7FjIDJ6CNXwZgdX3Qwk25L40U0V9FFNqEgEhpJocttkbbcWHkblxBo5lspejKBoUXwB6Ywe0xg7X+yHCup2kcr8jCnPSccSP/QbZm+cR3vIE/Cu3T2LQFBvA3/bRLSfnbNH/mbEbMIcvQw21wNe2GsJysx/nWr1SCKlWR26WdmdunEXs6CtAlj5VlRN+VBVaqAXBtV+D0b6euYh1IdaH6DSlwA38b9uCOXIFVuwmfMs3QvWFXWtynpdTdP7kZhaHebmfHSB15SCSJ9+BsWwtItufAoitRJua5UjX5mVCSLU5brO2OnuTCOk30IJNaLz3z2CbGaTOvY/UxYPQ23oR2foNKP4GKJYJM3oVmZtn4ZgZGEt6YLSthqL74Ngme0fW+A34VmyBGmgi+oKTTSI9cBTkhamBBvg7t0INNhSIz3FsJjJqE7YNo6ULxtLVUDQDVjKKRP/ryA59CTXSCn/HRvja10GLLJ11X+XC2kNACKn2xqwii4kM4kdfgRpoRtN932UPxIoPYfS9H0Fv7kBk2zeZTBKn3kH66lHQxwDpI4B2ahzGklUIb34C0HQkTryJzEA/Inueha+1G+R5xftfBSwLii8MJ5OAAxuhDQ/Dv3wLh4eJM+8iffkQVN0PByqcbAK+pWsQ3PQ47FQUsc//GU42BUXTmRRD6/fB195XUX/l4tpCQAiptsarYmsLhOSLILLjKdaSMoMnkTr/KYz2dUw45tAFxI79hr9IGujZA2g+ZAaOIn3lKAK9uxHovQ+JE28wITXseRZqsJlJzhodQHDjI6xHWYlhJI6/ATXUiPDWJ2HHhxE78hK0puUI9u5lUktfOgRr5DICfQ/Cv3wTkmc/dD21lpUcPmrhVqj+XDhYcc+lgVpAQAipFkbJQxvzIZuTTUP1BUFhFIVkiu5ngjJauzH22S84tCJ9iLwfUpKs2C2kLh+BomlofuAvED/+BjLXXEJybBvxoy9BUQ0E197vflbZcZC68BmHYuFt30Dm6hGYty4hsO4BBHv2sIcEM5W7tw+K4Ufq8kEkTpCGtA4NO/7Qw15LU7WCgBBSrYyUR3a6HtJvAFWFsWQ1stdPAJqBpvv/PdRAhEOr6Ac/YgJSjACTjCty5w7FQdP9/wHxIg/JMdOIH3kZVKNEJFeqRCsctqXOH4CVGEVo0x/A17m1RKvO1zalLx1E/OTb8LWvRXj701CkxMmjUa+dZoSQamesPLGUCClBGlKwGZF7/gRxEpIHTyG49gEEV5N3A8QOv4jM4FkEVu1iYZoYyU4MM6GQSK239hZCNtKQVEVB7MgrlH5DZOcz7G0RSZGXpegG9CWrkTzzLrLXTyHQey8Ca77KXpQ1dh3W+E0OzShMS13+AokTb7HQ3bDjGfbM3CJMORYLAkJIi2Wkc/0saEjBFjR95Tuc8Yofe5VJp2HXM9CbOpEduYLYZ7+EGmyCv2s7oGocntnJKEKbH4XR3F3wkIiQ9Mgyty5p6Dx8yzdBb+2GNXIJ2aGL0FuWI7TxMb52/NN/guIPw9e5BYqqF9oMb38SvmV9SF/r50wb3S/QfQ+M9j7okbZFNkKLu7tCSIts/POEpAWb0Xjfd1lDih8ij+gMfJ2bEd78OKfhk5e/QOrUO6zx8KFo8HfvRGj9fsDKIs5ZtuNo2PNtzr6ZsSHEvvgX2PFoYVmJ4guyx2S0rOQm0uQBnXwbNhVl0hIUTWcvLLjuQSYhJxXD+KEXWRynf4e3PpHL0C2yQVrE3RVCWmSDT+l7c/QqFM3HdUcUEtnJUWRHBlhYNlpWQNEDrAfZsSE+l+qOuJK7qQOKqsE200j057NsLiGxxmRmkL11gUsESEsy2tZwm3zkRCgrNoTs6BWuQ6I29aYOJjtXVHK4bWvkCtdH6c0ruF5KjsWDgBDS4hnrop5OqMV5sdpVakrXdXDhNRdL51TtnJxjZxKIH38N2cHTaPzKn0Fr7syJ1Iqr++Qla3c7gKL75hfl0q3yVdj5K4otceA4uVZEQlpUM1QIaVENd+WdpRT/2Mc/hR0f4SUkTfu/x2vhJhaXVH4PaWHxIiCEtHjHflY9d2wL0Xd/CGiu8BxYtTsXbokrMytA5aISBISQZELMCAHWlhIj7BWpOtUcuYtv5RAEvEBACMkLFKUNQUAQ8AQBISRPYJRGBAFBwAsEhJC8QFHaEAQEAU8QEELyBEZpRBAQBLxAQAjJCxSlDUFAEPAEASEkT2CURgQBQcALBISQvEBR2hAEBAFPEBBC8gRGaUQQEAS8QEAIyQsUpQ1BQBDwBAEhJE9glEYEAUHACwSEkLxAUdoQBAQBTxAQQvIERmlEEBAEvEBACMkLFKUNQUAQ8AQBISRPYJRGBAFBwAsEhJC8QFHaEAQEAU8QEELyBEZpRBAQBLxAQAjJCxSlDUFAEPAEASEkT2CURgQBQcALBISQvEBR2hAEBAFPEFCef/6Hue/PyL7IniAqjQgCgsCsEVD+7u9+6KgqXS+ENGsU5UJBQBCoCAH6eAR9B1D5wQ/+xgkEfPwFUzkEAUFAEFgIBIiQUqkMlP/x33/gqBoQCPihuq6SHIKAICAIzBsCtm0zGVmWDeX73/9+6feT580MuZEgIAgIAqUI5LJsE996F4AEAUFAEFgoBCTtv1DIy30FAUHgDgSEkGRSCAKCQNUgIIRUNUMhhggCgoAQkswBQUAQqBoEhJCqZijEEEFAEBBCkjkgCAgCVYOAEFLVDIUYIggIAkJIMgcEAUGgahAQQqqaoRBDBAFBQAhJ5oAgIAhUDQJCSFUzFBUawisSHeQXJvLeDbKDQ4WgyuXzjYAQ0nwj7sH9iHYU3r/K3UPGsbKwE8OwEsNw0klA1aAGG6CG2qAFGqCodK67vczEtR4YIk0IAh4jIITkMaBz3ZxjW3AycZjxW8jeOAvz1kWYsVuF7fVoXxnXO8r9j2ZAb14O39K10JescglKD4j3NNcDJe3PCgEhpFnBNj8XTewL40CxbZjjN5C5eZaJyBq/iQL5lGEO7+egGzBaV8FYtha+ZWuh+sLsYeXZTLboKwNIOWVOERBCmlN4PWicQ7I0khc+Rub6KdiJUbgsQuHX7DYeVnQf1MgSBHv2wLesj0M8OQSBakBACKkaRmEqGxzAjA0idvD/wUqOsm6UJ6GZk9Gd6pGiavB370Rw7degaP7ZsVs14ye21RwCQkjVNmS807kCxzaRGTyF5Kl3YafG59RKo30dQn0PQQsvmdP7SOOCwHQICCFNh9B8/z2Xvk9dOYTUuY9gp8ZmGZjNxHAHeksXQhv2Q29cDkdxc3hyCALzjYAQ0nwjPt39HCA9cASJE2/BMTMsXJPHNFcEka9cUqBCb12J8ObHxVOabozk73OGgBDSnEE7i4YdB9lbXyJ25CU4meQsGqj8El/nJoQ3PQ5F84mmVDmc0sIMERBCmiFgc3E6eykOODxLHH8V2aEv5+I25bWpqgj17YN/1W4mJNczmyv/rDyT5KzFg4AQUpWMNZFS6vzHSJ39ELZtLhARuLk7xfAjcs8fw2heOevSgiqBVcyoMQSEkKpkwGwzjbH3noc9VajGWpJbguQuUVMK+tLkPsxEYUA+4Z+vXipHkaLiyciOp0GlAVV1TFHvUNxb8eiqasRmZMziIKSZF+3MCMRKTybCSJ58G6kvP5+2KSXQAD3UUlj6YSVGYSejU15HBZCav4H/7jgWrNhQWfqU6o8gvO3rMJb0TmvTvJ1QGMdJvm3qFOLLeTNHbuQ9AnVPSPSwk0BM1cmKqnuPoActEqFEP/wxZ9WmOtxn0YG/aydCmx7LLRtxkDr3IZLnDuRCq1KthzJ04S1PwL9iq1vbZGYRP/ISsjfPTW+1oiDQswfBdQ9UHW7m2CDsdKKwmYGi+6E1LIOikTcnetf0g1u9Z9Q5ITkwo9eQ6H8D/pXb+D9H0apuyqYufYF4/2s8S6YKp/LOgb9rB4J9+5A8/Q7MkSuwMwk49F9h/b/7SObDNMUfhmoEYLRvQKB3D+KHyyMkul5v7kTDjqehBhqrZwY7NuLHX0fmxpnCOGpNHZwZVINVZKdXiHGyYxTZ0as8jnrLKiiaXhS6e3Wj6minbgmJVsWbty4gdujXcCyT12uFN+yHb+V2QNWrhpQcesAOvYjs4JnCXkZ3mxrsIfU9iOSFT+FfvglEOExkmo701aNInn4P4W3fgNHaDWob0GBFryA7fAWB3r2IH3m5PA+J2lQ1NOx9DnrziuqYrRx32lwWkbl2smAT2RfZ/iTUYHP12FmxJW5YSsQbP/ZqLsx2oC/pYa9Xq6u+ToBVl4RE+wOlrx1H6vQHsDLxIvJREFi9l1Pamj9S8ZTxogErGUXsixdhjl2fhiRdH0lvWckLYs3xQQRX34fk2ffg2Db8K7ZwGJM8/S7C256EFbsJa3QAasNSGC0rkbp8CEZLF9JXj8AaH5rW9LxKE9rwCII9u6c9f95OWDSE5JaBRD/6Ce9xxTs7kExG6w979yK45qu0fUPd7cFXf4TkAMkvDyB14fccytxx0IB2bkJw3UNQ/KEpQ6T5esAo7IodefmuwvTtttDkNChM2fZNjH30AhzL4jBOMXxInPodItueRPrKUWRvnOY9kIK99yJ+5BUO72Z6+Do3c3sLebgPY25hsWMxXpN7SC3uHgi5+LbKcxnTQkq7O4wfejEXyk/sBWosXYPw1q9D9YWmbaPWTqgbQnKXgNlInXgDyUuHc5tzTDYcdKYKX9sqhHf9MYdyCymDkkseO/pbIDuzymytsR2RbU8hfe0Y99toWw0rfgvJU79jonLMFHtCaqgFWrCRH2JXa8qrTdNPVUJKb+lE073fmf7kOTvDYQ+QKthJzFbhIH3tFHuA+YM0Ll/HesAI8AZ0vvY+TmLUusCdGb6I2Ke/yHVzgpB8yzcivPkxd6O9OjvqhpDsdAzJsx8ifeUwP6CTTcbSNyaJtivdeJxWuS/Q/tOk+yT6X2edq/w3ugMt3IrAmvuhBZp4StK12RtnODQLrrkfRktO93GAbPQaUuc/gp1Nlu0R5m1R/WE07//egk17JlAHsOJDiPe/AXP40hRE4zD50niy8LuQbxmP0CIddPyLX8G89SVAO4U6gBaIILThYRApuUcddLQIr/ogJPKMBo4hO3ga2ZsXcoTEhTe3EU3pI28s6YHW3IlA9y7Qg7cQR/rSQcT737yLR3enVXk9gTy9XEot5/nkqalokuaLKYvuMJMprCgqWh7/LwsBzR33pF0yEyffQubWxTseQ/IYw5serS4BfpaoFZdbWelxZK4chjU+CGg+ULjmW7YOimbMsvXqvqw+CAmOW+HsOIh+8CM4+fDndkIq+beC5n3/CY6qQNX9C1aRTISUOPGmW3Vd9uFAi7QhuO5BzrbkK7Az108jffEz/j2Fglq4BVpjBxLH3ZIC19uYWQEh1fa0PPqfy7Zsbk90YKXGkThG6/0uFPbM1BqW8i4FelPngnm63vXbLdrI7wqa3xsLVKOmqrzombaHoVO4RGQmbxfvjJyzluqEkCbwGXn7b0oqkYN9DxX+mKICQitbCHGWPPHfZqSpzMUoZAaOI378NThWZtLixqnumdeQUlcPQbEd3ifbStxC4sTbMNp6eWN/ErvZ1c+mkLnWz/codwbntSYt1ISmB/9yLro+yzYdWIkRToVnhy9DCzaxwGu0dpXdt1neeN4uUxz6mozNc9VMjsIev+Hui6UZ0ELN0CMdUHyButzlsw4J6W8nsmuKgtbH/2thIo2+879gp+O5f+f+tsBvmOzQOcSP/rbIrunnfXGWLXrgBSYdzrLpPiRPvgWtpQtGW4+7nxK9WRUgc+UInKz7czlHPmzQ21ahcfe3y7lkfs7JGWaN30Dy3EcIdO+A1tLNWbjZ7zI+P6ZPdxc3MePAGruOzPWT7AVSmFp6OFCMIBetknhvLF27YHLDdP2Zzd/rj5De+Vs46Vx6+26EdNvfZgOeF9eY0QHEDr/kbt5/1yNXh7RkFfwdG2GOXkWg914kzx8AiZ/+zs2wUzEkT70Nf/cuJinoASi+ILLXT7Kr7+voA1WFW2OD05ueW8xLleHhzU9Mf/5cnlESak9kmzg0NwK3cWz++3Nlc+9cWj7Dth1Y8RHEvvgVrNjwlLpiPrynYljaEz1Ee6Lr/hneqzpPF0Ja4HGxM3HEDv6KCcY97u7CBLp2IlhcqZ1fLqGo7AUlTrxB1XOc+qe3qxm9yqK9Fb3OBXXlV2q7Dz4VWfo7tywgSg4c00T25tlJa7XcHS8nFtyQ92AsWwNaHFyLR+rCJ1xLdrfDlRvd2ixaw8dV6pGl5Tq/VQ1L3REShTCF3RYVBc0P/VVhAKIHflISzhX/bcFGyXEQO/YK0leP3TUlX7KWbf0+pM5+AHN0gLUF9yMAk3kGbiqcvr9G32Gjtyl5Y2UtrqUWDT8a9jwHvbF9IeGBk03wlr7myOUSOyarqVJDzQht/APoDcsWzOZKbpy6+DlSFz6d1lfOZ5A1KnXY9CjU8JJc2FrJ3Rf+2jojJAfZkav0IbMCsvRhxPyRHbly29+6p/VI5mOI6Osi9KmjuxXPlKz23/hozix3tX/i3IGcb3W7d+UgtJlW+2/jv5NIWvZqf4DFcVoXR4S2oAetS4zfmsie3sUYSofTw6nyFrxlCmYL2rnSm9NSIicxCkqGlnWoBvRIG38EdDrvuqz2FvikuiGk0s3wi1PoxSNb+nuuWc5pJQs5Do6Zxuh7fz/5UpfbDFN8Ia5Gdg8FVBBK/01+OFCCTVCNYO6bbjbsRBR0v2kPReXvtdGyE0o3L+jBbFx+2agrbrv41NRB2X6l/Er6mupbmcbWDyGxC+DG1eUeBXFwBteU2/bMznOQonqk/remLpCcxY6RrhY8gcfEF0amx4hCn8iOp/izSAt6UAo8t0Pm9FYXWToT/lrQDt5uM6X8S8ftbuYVxpT7OyOEqqXXJXbUDSFVJbozMMq2shj/9Oewotf4qlKpdgYNVXTqhGfh79mN0Pp9UJQq28K2ov7JxdWOgBBSlYwQeWtUvEibyZUVUs2h3WqwifdBoqLDut0JbA7xk6Znj4AQ0uyx8+zKvGBNRYy0jCQ9cHzKBcKe3XTShhwoqoHInj/lvZMmvLSZLGuZWwul9fpGQAipysbXHL+J+NGXeauN/DfR8vsBzYWppEGovFs3LSU3EOjZi9Ba2vxrgYXsueistFn1CAghVd0QOTBHriLe/zoXNuaXE8xErJ9JlwqFhYoK/8qtnFmr1aLCmfRbzq1OBISQqm5c3CwLLSmh8I0qrOfj8HdtQ2DtA9B8Yc5qlfPttvmwS+6xuBAQQqri8TbHbyBx9Le8fzat/iaS8C58y/lGqo5gzx4E6HNHEqZV8WxYHKYJIVXzONMncNJRXtWevXEOtFmXN56Lu+jCaGqHv/se3n1QUfSaqyOs5qET22aHgBDS7HCbl6sKuS3LRPbWBWSuHkOGPvJIK/krOOj7ZbR5v69jA7RwW6ESu/bL6ioARS6tCgSEkKpiGMoxgla9Z0H7AKW+/IwXyDq2eZflEXeWKtNXVgJdu/irK/zxR1WKHstBXs6ZPwSEkOYPaw/v5PAK/+zN88gOX3S/s2abLkHRToMU2NF2p6rBK/Zp33Bf2xrorV2FrXoX94opD4dCmvIUASEkT+Gcn8aKN4GnYiX+Ykkm7n5W28ywOM1bnPrCUGgDMxGr52dg5C4VIyCEVDGE0oAgIAh4hYAQkldISjuCgCBQMQJCSBVDKA0IAoKAVwgIIXmFpLQjCAgCFSMghFQxhNKAICAIeIWAEJJXSEo7goAgUDECQkgVQygNCAKCgFcICCF5haS0IwgIAhUjIIRUMYTSgCAgCHiFgBCSV0hKO4KAIFAxAkJIFUMoDQgCgoBXCAgheYWktCMICAIVI/D/AeZGH7Svswq5AAAAAElFTkSuQmCC;" vertex="1" parent="1">
          <mxGeometry x="80" y="60" width="220" height="391.78" as="geometry" />
        </mxCell>
        <mxCell id="36IHvSum0hNEQyjx92Uq-3" value="" style="shape=image;verticalLabelPosition=bottom;labelBackgroundColor=default;verticalAlign=top;aspect=fixed;imageAspect=0;image=data:image/png,iVBORw0KGgoAAAANSUhEUgAAAPAAAAIICAYAAABQC2PPAAAAAXNSR0IArs4c6QAAIABJREFUeF7sfVd7XFWa7lu5lGXZkpxzxCYYnDDYJoduYk+HOTOXc2b+18zFXJyGJjUZDCaYYIxxxBmcwUGWlSrvOs+X1l67VJIlI9O4XdUPbUlVtffaa33vl0Psv/7rv6povBo70NiBW3IHYg0A35Ln1lh0Ywd4BxoAbhBCYwdu4R1oAPgWPrzG0hs70ABwgwYaO3AL70ADwLfw4TWW3tiBBoAbNNDYgVt4BxoAvoUPr7H0xg40ANyggcYO3MI78KsDuFqN5o3EYrFbePsaS7/ddsDodzy6pc/Y+/7P19uryXzWrjXlAJ7oIq63ERO9zvU2pfF+Ywduxg4UCgUUi0Vks1mkUqm6twiCAPS5SqUy7hKI1uPxONLp9JjXGusCUwpgWug777yDfD7P96MHmDlzJh588EGUy2VeHH1m165dOHHiBP++detW/oy9vv/+e+zfvx8bNmzAwoULb8beN67Z2IEb2gEC448//ogDBw6gr6+Pr0GSluh3zZo1mD9/PgPRaP/ChQtM7wbQtrY2937tAggruVwO7e3taGlpmfD6phTAtXd9++23MWvWLHR0dOCLL77AX/7yFxw9epQ34E9/+hOOHz+O3bt389/pIWmDXnnlFUyfPp3Bu3z58gk/SOODjR242Tvw0ksv4erVqwwyAmxrayuuXLnC9Ey0u2jRIjz22GO8DAIjvUcCjcBJr0cffRRLliwZd5mXL1/GjBkzGA8TMS+nHMB2Y1rIq6++in/7t39jrkMPM3v2bLz//vusdmzZsoUf5H/+53/w/PPPo7OzE2+99RZvwrlz55ibNQB8s0mycf2J7gCB8Ntvv8XcuXORyWSwd+9eDA0Nobu7G3feeSdOnz7NoFu1ahVfcnh4mMHuA3jz5s0M/PFely5d4uv09PRMCMRTDmBb3Pbt21kV2LhxY2S9BFLiMKQi0+t///d/8cgjj/DPtEFPPfUU6LsNAE+UtBqfm8wOEDhWrFjBwCPtj8y9iUo7us/58+fx5ptvMm3TfwRSer344ousadrrlwB4cHAQixcvntBj3RQA//zzzyxp//3f/53VAFrQqVOnsHr1anz44YdIJpN46KGHWLX47//+b354ktYkcUk9OXLkCG8GgZx+b7waOzCVO0BChUw7osX+/n6mQ/LHkJ+GwGw/0z2JVn2A02cI+CR1S6USO57In1MrWX8JgElDJXt5Iq+bAuB3332XgXf//ffzGgjQX331FZ555hkG8s6dO9nu/e6773D27Fk899xzbBvb6+DBgyyl77vvPrYzGq/GDkzVDhAYN23axI4nAvCZM2cYuCSRyTFFTifywZDJRy/6u/8yMJMmSdKYgEvXq32RZKfrffzxx6xqEyN44YUX0NXVNe6j0H3pMxOxf+lCUw5gcq0TQAm8ZCvUvmgDDh06hGPHjqG5uZmlLNm//ouATTYA2cyNV2MHpnoHyEFKwNy3bx+rwARgEjgENJLGJP1IayQQkQCpByZyUpETlrRK8zzXAp0ATM6t2tyHes9D96D/iHmQVJ/oa8oBPNEb0+fGsz0mY5dM5p6NzzZ2oB7t3WjyxT96N/+hAP5HP3zj/o0duNV3oAHgW/0EG+u/rXegAeDb+vgbD3+r70ADwLf6CTbWf1vvQAPAt/XxNx7+Vt+BBoBv9RNsrP+23oEGgG/r4288/K2+Aw0A3+on2Fj/bb0DDQDf1sffePhbfQcaAL7VT7Cx/tt6BxoAvq2Pv/Hwt/oONAB8q59gY/239Q40AHxbH3/j4W/1HWgA+FY/wcb6b+sdaAD4tj7+xsPf6jvQAPCtfoKN9d/WOzAhANMsBZuf0DdUxf5zFWxcnEQ25b/zy/aRrs8zG37RJfXL7hq/6GK/7IF+c99u7MU/5khk30tXT6N06QSqhUFUKwFiiQRi2Take1Yg2THrhpc2IQDL1av4+VoVnxypoLMlhm0rkkgnb/i+kS8GVaBQAl+P+mL/kmErNLmlWAHiMSCVmJr13epXobYu1N6FGrk1Xr/uDlCnj+L5/Sj3nUaiYybKfWeQ6l2O0sVjSE1fiFLfKaR7VyLdu+KGFjY+gAkNMRGKF68BO46U0ZyJ4ck1ybrgKJaBt/eXeCEEwrYm4P7FKWTTwN++KSORqDpw3jUvgYXT4/h5oIpvfiyDpk/E4jGsXRDHnM4Y6H/vHyzjsdVJ2PikiwNVfH++gm0rk3h3fxmFMq2tilgVuGdhArM7YvjiRBl9Q7LmlbMTWDkzjs+OlXFlqIogiIE+TL3zZ3XGsWHxPwbhx44d506GTz31pLBG2mZ6CI91XW/0zPinHb3WuXPnsWfPd3jmmd9NgEiquh5ho7aOo0eP4fDhI3j22d/jvfc+4G6O1MOJ+prdeSdNJZjHv0+0GdsEFvJP8ZFS32kUzn2H5qXbULryA6qlPLKLNiF3/FMkWmYg3jYD+ZM7kV2wEcmOcELJRB/+OhJYBpGdvwoGRmdzDNtWJpAk8VbnRQB+c18Jv7+LZsVUMVSoYv+ZAFtXJvD37yoMxqRMnkAiBuTKAXYeDfDgigQyyRiK5So+P1bBvQsTmNYcw3sHyni8BsCHzlfw0Mok3tpbwqN3pFjSEt0n4sDJSwFGClXcMTtOsMaXJ8pYv0iYTaUKHPu5gs6mGHra48wUbC0T3ayp+hyBgQD89NNPolgsI5lMcCd/6lzoNwKkv1Hr0ra2dl6vgWlgYBDNzU3c/pT+Zu1NBwYGuFcxNVmjBm0ErkQijkpFPpPNZvjfRCLB/ZAJbE1NTe6xcrk8ksk44vEEX5c+R5+hn6lr6PffH8Fzzz2Dd999D3PnzsGiRQvR19ePL7/8CitWLMddd93ZALBHJNVKESMH3mF1MJZqQlAYQiyZQSyRRrWcRzWoIJ5uRlAcQTzdhOYVj5IUmxSZjQtggu/ZvgBfnaigtyOOjYvjSCfHVnAJwASs5+9NsSypVKt4/1AFT61J4u/flfH0XQkkPPDv/lHU8SXd4aJPXQ5w/loV9y9O4L2DYwP47X1lPHUnSecqUCXJCtB3z10NsH4xgbYKUs2J8Ema0+vwhQDTWoDe9slt0qR2dAIfNgDTqI2//e0V9PR0c2fEK1f6sGXLA5gzZw527vwCFy9eQktLM4Kgiscee4Q7Je7Y8QkDk0BMoKEOi2+++Rbmz5+LK1ekyTh1NhwaGgQBmprmE1i//noXXnjhObz11jtobW3hwVxX+/qxYqUA76uvvsbp02e4H3c8Fmc6evRRabhPryNHCMCHHYCp8Tjdn14HDx5ihvTMM78fc/bPBLbln+4jQe4aRo58iPSsNahWSihdOob0zFWIxZMISiMoXTzOvxOFFi8eQcua3/F7k3mNC+DBfBUElHSyit/dlb6uzcsA3lfCvQuIgwNnr1bR0w4s7Ungld0ldLWSiiXL27AogS+PV7ByTgKzOowpVHFpENhzqoIn1iTHl8D7SmhOy/fomnfPi6MtG8euH8q4Ogy0ZYGF3XHMnRaC9bcGYALlyy+/ivXr7+NO/Lt2fYORkRGsWrUSn+z4DC/+4QWWzt/u/hZz583FV1/tYjt23bq1uHq1H2+//S4eeeRhbN/+EV588XkeWfPSS3/D2rX3YOnSJSop52LatGkRAE+f3oWNGzfg0KHvuTUqqfIvv/wKHn/8MdB7xCTK5QozjYkA+OzZc8wAiEGQ1G68ZAcqw30YOfYx2u5+EQTm3IlP0bzqScSSaQT5AYwc2Y6WO+j3LIb2vYqWNc8glqg/6XCsPR1fAler2Hk8wLm+gNXapb3jSy4D8MYlSfSPBLjQH+DhlSkG2BvflfE7TwKTdN95vIL5XTHM6wqve76/iiM/VfDwCgXwmqgNbCo0MRayxUkCs4StUQwK5Sq2H6rggWUJtLOWGPvNSeDHHnuUgfPQQzKh8fDhwzhz5hyrpvTz73//O6eSUsPxl196BZvu38j2ZrFYwGuv/R3r1t3H0x7/9Kc/8mdfffV1bN68CT09vdy4nPofU5N8XwKvXr0KCxYswMmTJ7F//0Fs27aFmcG//uuf+RoHDhzkZvwTlcAnTtB19uPZZ59llb3xkh0IRq5i5OhHaLnzWVaT80d3oPmOJxBLZVAZ6Ufu6A60rH6Szb2RQ+8ogKdQAjMXCQBSdU9dqeCO2QmsnpMYM9RjAH5+bYrVZ3I0bV6WZNv5zT1lPH13EgkTwbEqLg1VcfhcBVtWJDFYqOLIhYC90QtnxDBnWhwfHyljeW8CszsFnQfPVZAvgyX8OwRgUqFVAhNDOHy+grldJIlj7MSiz09rjmPOtN82gB9+eBt6e3sdgO+++058/PEnLNHS6RS+/no3FiyYh2++2c2A3LBhHU8OePfdDxhkO3bswJ///CfeoxDAPfjww+3XBfC+fQfYufXqq29g+fKlWLhwAXZ8/CmaW5rGBvA772HxElKhl2FoaAQfffQxpk3rxAMPbG7YwB73qpZyGD74TvgX8Vaqs5KchTSBkBheFbF0E1pWPTH1NrBAIcYgJifRHXPiWDUrjrgB0VuwD2B6++pIFfvOVLBlWRKv7ilhVoc4j+i1qDuG3rY49p2toG+4iq6WGE5cJBs1xk4quuulwQB7TwfobKZZw8BIEbh/aQLZFKnqZUxriavgrWJJD60J+PqHAL3tQLkCDOXBHutEXJ7ht6dCiwSuBTCprqRO09iPTCbLzqeHH36IHVM7dnzKaio5nFavXom5c+fhrbfexl/+cmMA3r//AJ599hm2f8k7TtcmG5ns7TEl8DvvYVDHhdAkg9mzZmH9hnWTHk59O0jqwpk9qOSuoWnRJuRPf4N4Uycys1cjf2o3UA2Qnr0GuROfIzVtHtIzV056SyYRBxbb9OjPFdw5N8kgNvtz0net+UKpAgzkArRmY+ww27w0iaQKemJaA7kqg5Bs3HFf7M+q4tqIeKXbaLJLHUbzS9f7a33fH7bl35PsZLJ36430uNG1HTl8BN093ezF3rVrN28bSdTG65fvANnBqJQ5/ls4tRtNizcj98NO/peAHG+ZhqZFMkdssq8JAZhFPen0iOHQuQBkh5IHuK3J/LuTva3/efEikyOZXlWehVxFPC7hCw6fWISUf7h+msc/Q87R9UbLXO/9yZ4ITZ4nqU8Ms72tFVu2bpnUpPjJ3u+2+nxQRv7cAZSvnNTHtrzDGFK9K5CZuQKI3Zjzb0IAroEbhvIkDa8PpNvqkP4JHpaYAkl9ii83XlO/AxQHJu8zggqQSCKebUc83fKLbjRpAP+iuzW+3NiBxg5M6Q40ADyl29m4WGMHft0daAD4193vxt0aOzClO9AA8JRuZ+NijR34dXegAeBfd78bd2vswJTuQAPAU7qdjYs1duDX3YHYf/7nf0nNYOPV2IHGDtxyOxD7v/+3AeBb7tQaC27sgO5AA8ANUmjswC28Aw0A38KH11h6YwcaAG7QQGMHbuEdaAD4Fj68xtIbO9AAcIMGGjtwC+9AA8C38OE1lt7YgQaAGzTQ2IFbeAcaAL6FD6+x9MYO/FMDeKq7VjTIpbEDv7Ud+KcCMAH2/PlzmD59BveMarwaO/DPvgM3DGDq+n/l8iUsXLSYB2f1X6WpAFUkkkm0tLSiq2s69wgeb8bPsaNHceTIYTzz7HOj9tmXnufPneOxIz29vXXPwz5LXRvf+vsbWLZiBVasWIEP338fGzZtQm/v5GfO/LMffOP5/jl24IYBfPLkCezdswfPvfAiDh08iO8PHeS5PtRmtFIpY0Z3D7Y99PCoPsH0Pv1HDcSPHD6MA/v34c//+n94N60nE71nc3noswTK1rY2PLhlKwOZXtS7iV70OWp6Th0a6b9Lly6is2MaCsUCf2/L1q2YNXuOrqvC97Vr/HMcYeMpbucd+AUAPom9e751AP7hhxN49rkXGChXrlzGxx9tx/LlK3HP2rVufwloOz76CIODA0il0uicNg3nzp7Bn/7yrwzCHR9t537D1Ouyd9ZMrFu3HmfPnMHXX33JwKOWp0/97vfY8+23OHv2DAOeGqL3XbmCNXfdxZL2vXfe5p+7u3scgGfOnIXPP/+MNQVqu0haw1133f3L5pjezlTTePbfzA5MKYCfe/5F92A7P/8MF86fxwt/+BeWkgQ2AvXVvj7cefc9iCfi2LdnD8rlEv7453/F9g/fR7FQxD333stNy7/9ZhfuW7cOvTNn4f333kVTNou77lnLavlHH36ARYuXgID5w48n8dP5C1i/YSNmzZ6N1199Bffedx9mzprNAH5w61ZUgyo+/+xTbNm6DcPDwzh54ji2bNuGpqbm38xBNBbS2IEb2YGbA+AqsHv3Lvz4ww94/sU/8ICuYrGEN157lYFHAKPX1199AepH/NzzL+D1V1/F9Bkz0DWtC0G1ih9/OIk5c+di4/2b8eYbr6G1tR0PPfwwDhzYj0MHDuDZ55/n0ZjDwyN4+82/47716zFr1mgAkwpN4zk/2v4hq9hLli3H3Dlz0dra2pDAN0Ixje/8pnZgSgFMKjSpuqRG//31V5HJNuGJJ5/iv5F0/fsbr2He/AVYv2EDN2v/cudOnDlzGs899zxee/VVLFm6BHPmzHUblG1q5pk79L3W1jZse/gRfH/wIPbv38eOLxqzOUIAfmtsAJMEnj17NoJKFecvnMP+ffsxPDSIp3//TKNx+W+KFBuLuZEdmDIAHz92FHesXsOzaH+6cAG5/Agef+IpBxLq+P/Fzs9x/txZLFq8GMlEEsePH2Ow//HPf8EXn3+GS5cvYfXqO3kGEAF7w8ZN6O3pxfbtH2LgWj9WrV7Nw7ref+899HR3o3fmTJw5fRrXrl3D+o0b60pgAjDd47tvv8Xy5SsQS8SxZ/duPPzIo+ju6bmRPWt8p7EDv5kduGEAnzt7FseOHsHWhx4GeaR/PPkDq6SJeII9xsuWL0NnJ48FjDixCDzk5KI47fQZ3fjppwt47PEnGGR7vt2Ny5cvsc1MQ7tWrFzF0nvg2jV8990ednQ99PAjOHH8GKvnZFeTmn3xp5+wfNUqzJjRjU8+/ggr9OfPP/0Ed69dy38/eGA/KBxFanTPzJm46667bGDLb+YwGgtp7MBkd+CGAcw3siFEPN4oHLUiEw3rv/gdmrJI/9LcI5u4qB+X93UmEr8n16XP8Vf4O/ol+xvojvSLjGusViVM5ZZhc5f05m4yzQTmLE12Qxufb+zAr7kDvwzAv+ZKG/dq7EBjB0btQAPADaJo7MAtvAMNAN/Ch9dYemMHxgVwo5qnQSCNHfjH7cBE8HddCWzFCP+4x2jcubEDt+cOmAN3vKcfE8AE3AZ4b0/CaTz1b2cHDMRjgdkB2MS1D1yKzUoIpwHm386RNlbyz74DBFYDLOUt0Mv/m//8EQlsgLWSP/9fA3L4ZYumyl+ogkhisdG/j/693vbXfsc+U+/vk/nsRI+6/jUtsj2x4VHyaduFMEjuos6yGBf49q8axtAjwfXrLl+uPfkdJwKx2LqsgwgkqnGNtc9jLar+WYX7Mda586bUvWhIU9G3x6QA90w+RU6GhmqXMXkKsCeRtY/9bIYLf3W+tKWfCbxWVks/1wNxRALTAVK2k/2XiFeRTtJh05fDpSkl6r7TQgNZbiwuSRjxBGV2MJHQh4QwfCIdfV4s5ZUYJdNDOI/wBMoUkXdDNlFzvWoFiEut8Dh5JMpi6HoBqvRcXj4K/1ybWUJ3rFLtMe2BrmnU8oV1gdagn6GVynNYQon87kjV7Y9dTPaoGqsiRmvT9+WZa/eOrkN7ntAv+6Sid6Bklniyznd1e4IyYokkJ70w++V1xiS5ht7jMw+fl1fOx0DvJVCN05qi64q5MwrZdhVxPj9+jwkiTMwREpeziCVSo4kiqFh6DuK0Ft1SenZeWVyq3CJ5PZUykEjzHgoB0n8B0088nkRQpZrwBL/HZ81JRXQfAUh4XnRdSgii+9qalVnqtSVpiJKHwn2ostYqCUX2PXfC9FmmE9lzXgNJ25onl6SlKmcnlstSP09A9kFs92UAm4osXyijXCojnQIyqaSCSg529K2AIJCsKYUqEBCQCMC0gQSQ8YHrI05ArA+oIsI2Va5TKyVqz7wa3n+M+ypMlLHQ2RIhE/HoIdVlNcpAeLNHP0/IeOixNQvMI9bIKvl0VFdxAPEkENObMjN+f6z9kzUJwwi/z4AXTsQEIt+OXsOy1uREQ3XNnaLLegsJN9QMCOf0AQFm5Nr07IyIBAPCfxnwdXEMaNFX6B4VZjbRF50lMVlaoYI3REINOIxdBlw6auAJ9yLgaxFdClMSMSDbVOe8mIGSINLPMvCYs4kAsLPVrEDL+qsyA6f3ibHWCi16HjtX+tBYwmA0HyuVyiiXK6NAzCdrADbwlkolxFFBS3NWuTNxpnHIyHIcvfvK2ZgkIEJTULM0Nm5v+ZTKhFUNrz1E2TC7fzwEeF3CVklkBGzkG/k91CRsi321Z/T2eZKzWkIsRoRmcltBRNKIpBcTRoAYSY5YclQ3ktrvkRRjQo6ctUoN1hDqMwzmcbSnHpGNBimByYjJY7DuvIhw662RaJ3eCzUq0T5sZ2JgMrbfVVrIFos0qjIB1xAEE3fCsUnSfuQ5qoiThpNIR79DgKPv1JHMVZKyDEaf+YjEEm2CJGzIuKpBRSW4SlgFLgGKQRqRoBUBq0p8Rxt8pnoeocQSpYX2lBmEMRpPItMySKgxS4ujqjbtaDob/y+FQpGFJXWTMUnMT/gf//GfLIHp4Qm8xWIB7S1pfmAiRtllItAyYvHUKKL07aaQsyso7eFUXQm5rqgzUV23vnQVlVZUMJjaxmCp91LpxpggArYDNlXKwOJ/X1UwIqJ4HTXOs+uZWzuO4l1zlISjJXtqmVuqED5JCVbrCCiOQEcpUqgGJcTiPmGH0lsIVRniWFLaY7x2TmLrmgZXn0EEQYklLBGKfDRcG6mg/BBkkzH/ItCKRBZ6IWCqdHFfqwIKOvdeyA8Ua8ooTXMzbaxGQ+C1q/ofUV0rZdFrEpmQt5AEZ3OA8J6Rvaf1qgocYZB8JsJknBrNS1JpXEclZk2KwRlXaV1Lk/K+k/p11OWJANkY48hIPgJgZmAEYOljVUGxWOR+Vp2tmTpmpEq3CgHZUxGc7aRqBq+ojprpS2qWLqHjhFQkriM2GyHyVCbtmJPogegmC3epuV8NONWeI6lQD/bhtwUconrq8zGF+vdXldLMhDENBLHrQhvMX6eotqJJqz02pppMUlbtJPUD+AAgSUR27Fj6kTCApGf+6PpVV+CTMknIS9SoA6uXahPWUFhoxYtKyVqHqkhmA/v+Cwa3AgnJzGh6JWbBjFP234hd1FWTeCpHDHwqfU2CqyhXtdRMCrUzmcGozcu2sJp2vgrLz2FmgZkNsh+sbLM/wFc5xFtGWpCo6zXqMB8/vQeWuKJ+11TtmDemxoYeG9Ax5HI5xOMJ59gaBeBCoYCgUkJHa1aJz8hbFk//bzxWnB+09hiCCtkwvr3rQ8U4qykjIeutEsdjTU033X0kop/pF5TwbTOCsqo5BMx6n9dDd44SPchRO6Q35YejZ6IDFhWQObRbkx0SHagA3ezy+roAcfrQqRWCzFevVLOoaw8pwyQGRAzTQE/AUvYqEq9WipqUFoDRd9n1V+ts0fMjKUuMUyrARJ0UOz4Ed/h84thh5mP2oUl5BhcRrOwdSzn5QRxE7MSqY/cxSIgJhGq6MDd5bufMUwFA5gkSovpHtIpKiaUvL87tuzIZdubRuuVsI2CkM3dqvzmZ1IElBB51NPFWiRYi++WdPt/b7GTVRBzjpYcqI18OkEAciSBAPDPR1seiOY7k8g7AzqFlEpjUZwIwcfWuztZJJXFYl0l5MHpmk9Aaw2LbdzSZGzdn5laR7+oFZGNcrGMcg59UVTp8U23rsjCVro4NmY1OxKpOON9bzOqvbz/WSnkCdwWomMddryfeI1UKYiJ5VKKPFYivVgqe2ifmgq/+kAooDGW0RJQ9FU8pO2X49iHTZZU/wlhtc+QwSGu0bfY9zgRotlZqTQOVOixxam05eo80giR5gNXppyCPBWVU4+QQDV0jwiHVY8tahMcmDKzOUyyMSCIadOu462xqDiTW3vjz9llFFklJZXnMEOyp+FlqvMy8PmEAwlAkqsIA1w1jj3WNh140Q2JTarjZ3qjDMihdRlD5GYidQxG9QH8Xymd/QNs9DyB34hialiyn9qrmsYmYWfZMdPuRXJEB7NvBToUm7zN10yAJ3NXRMqZaVg8foR2sUoMf1jaSOJza0XJqClINrxi9OrASFxQHiuxdPcXXP21Sx+VY2Fvp38Mp2CEDYZuI7W+V27wMk+F2vKYCj+UF1mfgBfprIUliV9ZrjeuM8kNnChhHYabuioSqa5bQPrGqRmEdIj4hNKePMIFGHVniAQ9tM/FFRODjMW+9klkRfEZB3RCSKDrGTOx7IYhAIS9njdCHSZ1VW5zB6W0k2bMWjmPwaNyanpXOmJx/XmiHbOIqXZ//rsKDmIMzdRKsKQppKDNnTlDjbCOG60JAnnff/w7tda1Tl8NdMb6HoyViEOUCCme+QLU0gkTrNCSmlxAUCoihE+XhGCoDPyPRthj7Rrpxx7xOtGYoeqMRCjpLeh6FDv00PEwqdHxsAJOOTbo7AZg5P3vjVHFmbqSOEz0J5mylPMrDfYg3dyIYuiyWRKoJidbprP6QKlQtDLJaFm/tQowozYGsHjjDUBIrX3wgY4HYZxiyXuHUQqZmwhqXdn93Ngk901iXV3ubr+eHajxVQtWpMARSZ53qLRZiqVX1TU3WEMcYzykhGB9ovkahwB/LwneebPmO3DG0yTi+WgfAEmYJs4CE9kVqibfVe1YFL1+fHJ3e9cRxqUEbc2qa3axe9OgRiCQXZ5Ln/dYYNP3dxYRtTQxUZcqqBbE2QN9XH4AL9VkM1tG2gtpA6pxVxoCF2TCv9gGv2k/EdvZUjPypqyj9/BPiTUdkTlFwAAAgAElEQVT5UaqJJOLdrUgGg7x1lTxQGc4g0b4SxwspzJueR2vTLMTj5GyrjwsB8DgSWABcxrR2bbfKDgjx6PKhs/QSTzQnHFDAafgK8ucOINO7EoWz3yHe0olqfhCJ9llIz1rNBFM8vQvVchHp2WsY8PG2bqBURKUwgHgqi2q5JA6dRBrxpg4+wPLQRWEE2TYhOic1Q9CyvDGtU7EooQFfYtVuhhxMtVKUgH8N+UYluDq1jMJGxXaNuRERjBfX81w/6lUPnVFyDebcfJ/RK+JEEnbC+SEnldDmi6gN3TBdalxS46i+N9l0lognV1XX0INfJ1GBJbACm7FJtq3GvxnYtSEkDXepZJTEDlGNYvA8/y4HQBx3sUR4HdbwSPqSPe+r7vQdsmF9R54xGWL+8ZRKS2V4bLqSSzrcY7b3jYu7ayuNsBSX6Idz9pmqTlhgJhBN9DAp37/jKCrDOaD7POItZVyuJhA0pTCjuYyOTBXVIjD0zSwEuQCJ1SOIzx1CqjoH2ZY1iNPwgjqESR1YJwBgksAEYNllP4tKH0vXKLZBMHwZxfOHkO5dgcKFg2ha9hCCkT4Uz+9Hdvkj/NnCic8Y/Kl596Lw41fIzr8XxYvHkGjpErD2n0GiYy6Ca2eRnrUGxYtHEW+ZjmDkKhJtvUj3LAul6ihCHQ1QX3rUxafTAEQmS1ICHVYoJMVZR5RZEUdKrbrlXZi9kXaY/g3JgUMMRSKnqt6ZxAw/yAySnSm+g8X0BXV0sSolmWM1eruSX+0+WPhDiKzW0ScOnZhqOKF09VsS1cs0qlBMlQjdMqvUd0CSNmCHmb8x5mlnSz2SkKHsx3lwGYhMctEsJksyoj3kzDK1i9kpx1sUoEqhOGUm9DkxlAnsygQ41COhr8jyXOKJgtDzFIsXme5QExJjNVsdnbXJTXzIAUaGv0H+Qj/Onp+FyzN7kaicwKz2ImY0z0dzUyfS8RJKl3/G4Gc5Xmqus4ifVpWQPtuOZTPnoWVRd11GPgkAkw3sEVg9D5S+XRm+jML5A8jMXIHC+UMC4OE+FC+EAC5dOMiSNz1vLUpnvmUHRJC7iuzizSj3nUZQGEJm4QYUfvySpTCp4vGO2UC5gFgqi9SsNeocUntvzPCNv2gzAWokguchklQ64ex+EGy084YkGXkyPfU5skMe8p1h54x759gaOzFDVVOTsiKe1F4jKWgMovZZNJOIMa1qvmfqsR4ySmuwhfuKq61fbEvfuxsleGKN4kNwqritkxMZVOLx8sX+DmgETrImSYMu6nwRptiHCycpK2twqk+Y7ed70/ltjVUzQwqZm6Tzqi/D1GWXgGGJF3UyolwkojY8pOEw3tPRaZK2T/25Ppy8tAtdmQrODsxEPrYI05tGcEfPNGSSTSEwq0DxyhCGdx/C6W6gb3onKrkWLL98AXM3rEE8PdpDfZMAfIWlbap3Bf+b7JiDytAlJFpnsApNh1C8eByVa+eRXrAOKOWQP/UNEtkOZBZtQunnw/xeoms+KldOIzVrFUqXjiPRNhPVwgAS7TOR6Jzn/B8MIo4dks1zHbVVQxS+WLB8alaj2WFhYRNLQBgNUskDJuZhySe+LaufV89r6Bixz6i+aHZUHUCJxqCA56yukHBDl7RqCqNUClPz6I3Q6SbCREN9o7QWiWEyubPUj+5jwFI2yiwMUGLOhCaKSUJztElmkpgE6k4d7Syid0mSuUobzcpStdQ5sNhWVrBbgoUyJc66MkmrsV3+XrnIsXFLruS/+QkUKkHZ8VebWKG516IJ+cJAQlCyTxRWGsMrUwX2XtiDnwcvIVkK0D0Yx0DrYty3ciGySXHi+aFJTqAqnsPZq/twdiiJWC6JRZcG0HXHWmRmLhh10hMG8DRWoc1hbJ5W36gPrx2U8iwxSR0uD5CrPIZE83TEm9tdFgrtc6X/LOItM1ii5o58gMzCjQzi4k+HEOQHkOyYhVgyg3hrN9uE5UunEG9qQ6K1p0adMOL2wgAcbPctPJNeZDqVEHe5zvUtXlaTGcy1HtnoIfKWiFjTXF57P5QeY0lZUZPJ2UJOHgW95RKzjaepk3VMBAGbxLEFmGJ38t8Yo5Z8EpGX8kskHVNz5VS6EUGOdmLRUsoM4FDx0iQEInC2TT0bkmxNi0dpjDrQfGMKHwVmFvAjMxpl3WYS+GmJarJFUiSZr8l+WWmd8Eo/bCTnxmmZbK6INuKksN0j4mX27WAxcwS1Xjok+xfqOLBGQSv8w6cnP0YxKCFxuYiVI0W0zVmIlhX3jOOIBcpDH6FcGUJlMEDhWIDsgmVoXkxaZ/Q1YQBLGEkIg7dO2KD+bTQIzDZmr3PED6O2H19HpEP5yklUrv3E6jO9GMCFYWQXrHepm7V2nq/sWZxV1iXJHHJQocJlDholbZG1ZluNufkWszU7M/wgg489NZp0zwlaNQyDP27OqHos2tbgL4C4Odm4mtkzRsGI+CIkg0jSSg0CCgqX0RV9OHFGicrnHJGa+CFSv7aQQUAgh2gMXEM49nw10prXwuow3cPPkKPYPmlK4k02gHGCBzGyVJjyKJcui0OK4sj2GOykijqveHUUZqLzpPxpTy0mxyRnptX6EurEfHVBGraRsGUkZOlSK01dHoP5y4O58NSHx7cjV4lhLopYki+iafF6JDrmjOEslQcdHvoaV4cvoiNVxaW+BNo6FqK7+45RlHoDAJZr+PnOY9L/uG+oQ4X43EgfB/XJ28zXzg/w4cWbu/QKSqyWqM/eXU+t9XSbkHGQejN2uInZEKcVppzDx3fICdD1MySFzZ50nMOLr0o8oe7ThpLSJLmnXjMPtBRSU08jepoQpR/ecHdRFY6lg6eau/VFWVxI/+qIcVLYUElpq5Lg73tX5awpphpDoiY+zBlYzA302fnRNJZLP9LnI8tQonbZbCoMNMxDpZCW0s7qtDqGXK42c2R1VGktrKNFXouv+os3mjSTWCzlB8KdI9Yqi5SiheFbKSU75dw7kkFXqyG4s/Ae0kJkem7E1I+e+xDlUgXpQgUL2stIdqxCvHnZ2JFQALvP7EbfSB9KQRVdWWBx13z0dKz8tQEsal2YelhzfxGZmqBPIPHsSGfyWVWP0gITk4QmxuZ/Jp1E/amnH3CuLm+yBsntJ18VVmBGUw6jV1MFdJwUSiNSzeihRxZd0TEnTQIfdTjCQCye6dnEnMhANgiF2ernPUtObrQ2WHRtAdxoXUGoNbR9q5JOKQjR9MtwiXJ0kuTA3l36gxUEWM63b35wWqWlkda4/rQoxnwQ5p9mEvCYg2gcUvRiZ8IZf5xKGUpe/hwxZ3pO+ntoYUlKZY33WTBnuc8UXfCYMb9JTEkZZR2ik8w6ybITPUhzJZSeT577HIXCILKlCmY2VVAttaJp0ba6UQy6W7FcwM4fv0C5WkJRKg6xadYydLcvvFEAlxG1gQV4E36NkTll9GSSL7RNx3JE2T11w8asQBLpybm2SnyRtbpmAFrWRQtJJkdlLRmL5KQJZhq161LpxWVlNdlNSmwc5mHVy6R0LQX4IK3dUWVEnIyipGGaGUtQ/wy863KoSmpaBQRSKCH5zyKBQ3B7oHQAk7CNgZzCRDQep97LeYYpfKjZUXrTUaEt9jKzoyiqQUnhEqVCiqOM18qpi8xt3G2N2dJnLFXXSWBnVysQObnEhILmPzNIVcPwj2HMkFJNXLe+UiNnS9dw9rKf/RbDwNBxDA8dQQfl+Y8EGD5WRvtdm5GZNWvUlhLT/OrcXlwZvqyNM4BSBdg8bx06s6Kh+q9JqNDRubnjRJE8rclXSqNBmZAFyN9PnzmLQiGPpUuXaNwvenijSduSAUQ1vXTpEtrb25HJUHWLqWrq2DCHjuUURwiapIumtyqx0GA0co60tbU5KekzcR861kEitKdrQaX1wOaBrXkQvm5QCrOVXKK7MgfuJhE2F/C/Xi8by+24Fgr4vgORFOQwju6tOYQI3JTlVtt1g2tnPfVZzj5AtVJiJ6MUJ+idTA016a8aDWfxebavnL9JZdWmdF0+8+HnVW1JNAGLwapPmfLlOeZrYSDCUpmdlFL4YEUUnDAdZSpchGGaipc7zgJZfAWjUiujBxCmYdZe2/tcNcijPLQDMZRQHg4wdIDW14PsvGXILupGPCHnMVSu4Hj/CM5e3YtKkGMGnU7GMb2pC+tm3eN4mVR4iZ9kOFdAPHHdTCxK5Gh1xGxrG8sOvnT5Cj77/Ets3bIZzU1NeO+D7Xj8sYeRzWa4PJGmENJ3+wcG8OWXu/DEYw/jp4sXUcgXsHzZEpTLRZQrATJUmVGtolgqIZVMolypIJ2S+twSqY/OoRHHK6+9jfs33Ye5c2az6nf8+A84fPQYgkqARfPnYc2dq5gIC8Ui0uk0yqUS54+WymWkqMsIFwgkUSmXsWv3HmQzWdx3792eeBL1z7SlWg0ktFWNSFTqqucnJJTREthLZgwdRcxkyLMdqp2jmJi2spG/W5xYaUo91BF6449ZOEgYhIE6qiaHlUq18V+rOHNsqiYRIqy7MDanLEWrfmpiMRJeqm3Vw2mTGupR7c3SeF0ihoJaHFpka1vUgVTZEqvOfOdIEYLviKNkHHXmOeejZdlpldRYDkS1c60FU9SrP5pDk3YW5PcjKJ4CylVc21sCim2IxWYhF4tjJJnEpY4MClQwlEqgUhlGsXQBxZFhoJTE1hVrMKOlLWJ1MSMjAI9QJtYEc6FHE1B9NZoA/PGOT9HV1YX7N67DW+9+gKeeeBR79uzFpct9aGlpRlNTFqVShacSLlo0H+lUBgODA7j33rvx4fZPUSqWsHTpQsyfOwcf7diJbFMGQ4PDeGgbMYUs3nnvIyQSSQb24sULcPDQEdx//3rMnT1bBny/+wG2bd3MEvmLL7/Gpg334eQPp3H85I/o6Z6Oq31XsXXrA9j+0ae8lnvuXoN9+w8ilyswsOfOmYV7194VcX4wV7Z4J9O/r1KHiQ+j94kEFhFVtHOH7V6sLCmc9RxhlsIo9qEtR6U6xzytnnN0n63acgyBOSWAWBGB1dqS1CoiTmmkvkNQGSSnDXotbOg3UnfZy6xZV+Y5l8J4UZFZKrN6E/Z7Ml7jmhckvYYJ5gDSUkfJ7gp1NTEtzWEmzEcy0SyiIZ5rkr7CeCRTy92Tz8zK+3xbl72JwgTqmVzuQCWsYRGIiK1ce+h1iKCS+wqV/CXkjpdRvhxguNyCs5UeFBME4jhimSTSy2fzGRTzBQz3D2HNvOlY0dMxpsPrxlVo3ldzAEVXe/HSZez6Zg/a29uQTiVx9twFBsj33x/FY49uxXd7D6BYKmPliqX4eMdOPPfMkzhy9DiuDQwily8wwBbMm4sPtn+CjRvWYtfuvfjdU49h167daG0lNTmNn3++iM33b8Inn36OefNmC4A3rcPcOXNwpa8PH27/BH/6l+fU5iF/TxmvvP4WHn/0IfT19eG7vQdZQ/jo409x//3rMHBtCKfPnMa2Bzfj051fY3pXJ9auvSssO2OtsaKJBlZ/G0pTSewIK29qXV1CRAJZcfxo9wr9i8irOmEoV9xuUlb7KBEhe1VUEUnrcqF9BmPhP7VvzT72vlhb5cVJBVqgLsX84YcD56jSP6ojSKrGpP+VJTdIBwyNCMSog4nkzUttchTAxEhIekYri4j5Ub59+Dz0ObZnGay6LtIu1I3E+xvxWai2wWdkawlNLEnKCP9eV1hpZhd7yzXh53q4tfeFoZRRvLgHxdPnmK+duRzDtdJMFOMtGOKQJpBc2otEcxaF4RyWTMtiWXeHOsXqG+A3DGBHiHWEMAN493d4cPNGvPfBR5z7e999d+PAgcN4aNsD2LvvAMuSu9aswnsffIzfP/0Yjp/4AdcGhrj+uKOjHfPnzcEnn36BjRvuxd59B/HcM0/j2z3fsRrd0tyCM+fOY9OGddi58yssWjgP+w8eweb712HOnNnIjeTx9rvvY+09dyGVSuHkj6dw791r8N4HO1hK9/VdxbFjJ7Ftyybs+PQL/P6px9kGP3r8JLY8uAk7d+7CjBlduO9eCrZHoKG/GNGqM80+otlgorpZsovasi7uXCe0FaM2L74HOPxOVFUf7QEPyyXDdQox0u90L/OuGpGTHRkmp4iAk3i+ZVoxOO3vdRI7LP7sNAi1yeQi4fPZPsjTqEqtioI5rkICV5uT/uDFiO2bTvNRCSjqr3XVID9CmNjiZ4XJc1gxPpXjRaMSrmNkHSediz7Qfog3sG4+8ngg9mmBcDA0eA2ZUj9nGJ67MIBLI7NRjWUwUK0giMXQtGI2ZnQ0Y3q8gmy1xFrseK9JADiaC60n7GXmhLfp6+vHvgMH8dDWBxg8hw8fxbatD2Lf/gO4erUfTU1NaG1twZ1rVuGzz7/CjOnTeLj34PAwVq5YznZxqVRkabpg/jx88+0ePPrwVhw8eBiVIMDiRQuw84tdrO4kkwksWDAPx46fxNq7V6O3p4el2/HjJ3Dy5Cl2wc/snYF77lqDg4eP4NSps5jW2YGhkRFsWLeWNYVtWx9g8vps51fI53NIJ1OYOWsmVt8RjbsJwRKhicNDnCvyN3lLyqBcVwYX1DS/mnH52iORwgXuXMFiy+p9KVRURJUrpAy8Yfgp2kbWoK6xUlubw7wqmmOkbTJuDOP8sxbC1yYzkBJeLiEeUX0dNUQALOpqSduzqm+A1yUOSA4HaU8qISRpqseYY9xJNpQVLAgWyXmmfcPMPuaQGhW2U961l/Lo1F0r0rd+XprHYGm1YzSVY0blxZ3HDdyOhTJVy+nZKuUKPv7kM9x1152sYWTicVztK3LuUbEaIN2cQvfMTly++BPOnD7Nz//AAw+4bLN6t/hFAL5eMgefiZYYeuSl1pzrVaC2nTk7dJC3ElEYSNZaXErbq8mwEiwJwTEhWCcDlgy16ZSSb8tqnCywpozVJIHvsPIIlEsOU9HuqX7qn8uPdrIlhAanZ9bk1LqPaeK930xAPbq1IR/ZVpWsXqxX1DrCh5R4jqpZJkcdrT0SGdfMJt1X6zYZhodqJJZmgHEoqhpjqRHJBPPUVq644vCKl0jhUyGbnmZ2hP47cxSyb5b/zwoZlBFyGEzVabo+95C2ZJvwBqy6a9dHyUUQpitN57wChNAzqQcdSmz+vOUGjBEOrQcskezC7C32/tNPP3EPq4GBQXboXrp0GeVKGUsWL8ahgweRTKWwbv06XL50BcePH8NDDz3M5uJNk8CyJ/V0c1+vru/oqr8ok2p+jav3SfP+aV5tlCOG1ToReyZyI12Lc7TUeoRJAIq6VEvk7ERijm0pk/XCXH4F0egnjIR9XLhIP1ehnOJ6Tdet41gdqV37J34cY0w+8MLn9lvImAeaCDpR08I1tOm1GYJqGqReWz8uu33YLkcyr6x8TzKpouDlkBlntonjiJkTg1zbAxvjduWWXv2xJo5wV05X42vhHrqPmTYqOSMVQtqBxezYurXSdOqiHdQme4wHImGo5li0vl/mA5A1hXnaVVy+fBnNzc345pvdmD9/PtraWnHmzBnufrNs2TIMDQ1h2rRpHBa9XveZCUtgl8jhnsRK4/xH88DqNjMMb0xeBfFBIm1yKCnCNfauA04hvNC7Ouqe2hFRWLCfnMBKm7iYqJlA0iSVEoUgV0MvVoVUe6xy7zFLBF15m8U2TbIrMdeJFUsXSb+1rajp7BGn5TrbzQhFEgqitrGzVsNwU4RFRfOfXWjJoi6OSauXNiF9pHwAi8eZpHJYRsmfqU1+MfvaddaQphDmsZZOKZ5zVPs8S9tdu555kqUjhpNyqoZbeCiqWsl3mB4Y2DVnx+q+tsHhpnW1THwsCGsDAWu7w21vxv+ugZmAOjg4iO7ubly5coVvMGNGN+Jee6DxGAe9N2EAh8UM0UteT42+3gIm/r45hdR+kexcBZ2BTA6ZOSIXg/sxWRfYqKOy+6epuZ/alH30+qx1qLY9rVG/WG2LqPkhqbuY5Wjq0aBLnQw07vOstGuwcbY3U3SUjZEjzVrPuN0g2pW/i6Mq/A6viU0OY07CTFjNdMX4Xk0wq5RR8NrqGHgW+uFMKI9BciqlxHelna/mkVWp37Qlj6gZxSE3YVquFpk7TKa9uuS4pOCad9oVJ1i/LE/yMVPVdkA1YTLZQVWZR/UCq0+dYpsrrak33oXmJk7QU/LJWxLAErHROKQvSYywSEprD14nZV1NrUg/StsU7u1LYSFeomXp9B/t5SQ7bpJ6NHjMm8sfI0L2a/pdGmNNTS2rX9LmRrzGShi8lIr8p+qtPJ7WLPN36jSf483RuVWuh7Vh1gyD0F3FQtycQWonWhdH34zgmKuqvOx4ou9xBiGBiNYdhmBc7a/nG+A6ZC3wV17BTdNZsrqezirNuFGG5ylncOrea4MD7qdGCUF0/lr6yQ0WfH7mtwQew36VBB76Uv2e17Uok0b+XjnhJOziKUFszUV+JQBPxg72V+hJL8OOr7y51LoafcjRp9nn/vuhrSx3qpV68r60c6ltTavvkZOoJiHepJrrjV3PxtIO2rXaW1iW6T+7FfGPruuVNLqwV7XPWCTZpKayaQy7j2t8yflj3loGgyQqRACkjEtUYluX+D+kF5reT+1kf1/FjShEz4xIDEbZXx6vo5M9mC9SdhSVBGqbHLoQ+QZ0KBsxRQGs2rjaxsfsVTttJhXHwEUL840IeV9t53rqdD2k+aEoN07lZkBy7GvWcclOVIWmpnYt45QVjXFT0/38nZ3wM3tlTFo+GGbcqiRyRQZKQH7Zk9akihoYTWgwDTIccVHnfS5ns9isHX/4IGO12wmrk0arw9aIjldP62OzkWxu9Wy7dYYSUmVddNcsA8v5+kRCWafN2rpkCTdFJQxn02qDeKue4QwrddRF86GlvtepxH7hvCtOUEeN3xnFJhCyOk33l8mBHNs1E8da5SitcM9qlz4ZNox3JY46liRsgFBvUiAxWGopW8ck0UwsBnVkjtLYNCzOS2Wk/1CJq0Tj1eEPj0yoK6W0lY3KRktfN5u0dgP81D+TeqNlz4TxzD4k7QFsX2ICVtvGUOFdUGyVWinr2dLMhaUjYfhZvQAViBMBcKmc8T7PUcThJy1K961K56iqB2BrimZTO/V6GkpxUlwlnqiiNVVO3D2zEKqdzrkmEmy0Wq0S1SZLmAnAiNf5srpLHGPlZ4lmXYn2GjqWrN80/Zk6bbhTdRMVtPrHae7iODLtxMJ+HKIx4Np0BZXy3B6H/Qk6esUatLupFFId5s7NCw+NKsTX9Vv5Y9i/axy3Kktcyren4WPqoJsMsU7RZyXkFWqiwqRDHA2P5CdazFAvkUNWWevIottRTvGFny7xLFNpeyKtXblg3HFGicFKDyovc8mlHPLVNbAQvh+9n6ee648mJ53a5BM5/6zv6D5YPDjMF/I97Gp52jA2taU5DhqPs2bSTtoJv+g5yFnk5dn6UtLGWdY6nsboniHdPCxt0w+TiSpbm4UVrQEWp5Scj/gLdCuZaVGKpBToh8TA+c1+WaSqjYGq1OIpVu3BmIUXbRBbXux4p25r22Er2OAbsH9BeomFziy1aV2lDX1DWsZKUpuGdywG7LzbGt6zuUm1XSZZ27FWS3Ua1tUCTSU0s+za5vJTAkorinRhac1fMArSTi92LH7iDf8tKgR/sQ1cD8A0r+Xg4ZMyWsKbKC5EryCmFD2vF6/Sv9hGLN1M2hmI6+2e5ffKZ5jATEUTSrSUHiF4LYQ3DFu4RPbFsqpCpiF/tnVYvyUvoy4Ww9DAIKZPb8eiRXPD+mP+oi+BTdLaBAjvWTi0QfZsTZN250gL5zwpHNX2HN1rWRL7fQeVaiCRHlgG7DqhI9/rq1oA39PvqW3OJGuW526nzfI0Ti4IFikvNr5IdWHUIVN0aY6+x5pKBFX7cXHtoCgZWTaORdcn2V5yn7qDsXlyg57vGF1TlMvpOunT2v5ozE51N4hkExy8Nabt6NrskuOtsc5tJwHgaD2wfy3xUIa8Yc++I6CxhwZe+tcNXooAOKoeViolTaSysRcCKqd6jbNv4SwmIXNiDrwul6Vl/aeiHCySNO8RcKSJmt7XhI31RqYY3tDgIDo7OnDfvStdlo91KozsEUkQhlet2u1gKXRUKQiR8hQBamauZXGud4hmYXkqMYNWQzTmsHE9v5iXhOmJvKFU3xuZsVtVr3xYLUXPIBJZVUh7GO06YU31Baiq7nJqpOumL95azj22Nq/hFAeZMaSOKyVan2m7aRrsiSdnWyZsHujWovOqInnMeuYKElEpxmp3ZCqbhYVkRMsveUUcTQ4XAlbmZ6ZTRpJMbvyOUwTgqNT65PNvWBomEzT2kIYPx1w+pwHZB7Q5X3744SRaWpt5VGJCC6RpxClNIu/p6VVGKVK9XvzZz3YJfQ0htyeQuwT1GunqS1thAAo0U+dFjxMLMRbD1atXufCiuaWZyw/Xrb1DpJ92koiEYBSY1NO6cGq3q9LJLtksKiddm2PHMRRO7kRyxhKU+37k7pvJGYudLBTZQNJM0kld3oelkGoyRehg8xNahEjMETi675V08IhU/EQGVNuMNfE5SLeMUD1lianmguycxtBsrA3HgSU2LGcgaZR+3S9J56BKYFVvNXulNRfaB+l4bWDVAy1S1Ne66gCTr+P1Ff+lDipDKe8DNdkjfmBN/WxG1o2Dtd43JwHgsW1gJgxPPdjx6S6JE/LMFpksQD9bhon8LlLZwEI/Hz58BOVKEU3ZLDLpNLdNodzRSiXAqjtW67R1eYxayWlrsMD/9VLQXIKArt0+f73v0X0oa4aelwowmNkkErj3npWq2vKT19nrAEF+EPkfv0Zm/r28/kp+CNXCENK9K1G8cIAnTpQuHkWyZynKl39Eoq0HqRlLGHaFU18jlmnnhn+pWas59lo8d0BVRyDZORfB0CUxI4rDiDdP40FaNEQrNWMpNwwsntuPoJxHqmsBUp2zRUNhb7TYn/D5jbEAACAASURBVK5+2GxGHebtgqus2mpLHNZsAu0yKV0fmae4hA3yAmvGFtEGe7H1HlrAwIkdHGsXw5qmzUu3TOmyKWEmUpstTHUdW9Y8zON0x2AWpmo3n/VkVFZlmvKPaZ2WOaYpuKGaNspenVroytVuCoA/+uRrAbAClSSUD1pfPSXit/eouH9oeMgJFpG+Mk1h+YqVPHDcXr4k9SWvz0hqwVz7Xr1r1QJY7GRztcQ05Y26hTRFJsLdd89KOdJRDikRSxSGITDlf/iSe2Gnps3j3tfUkTM9fwPyJz9Datp8lK+eRrJ7KcpXfkScANy9hEExcugd/juBNJZu4Qwk+m5i+iKULtAYm5U8jobWSj24S5dP8PiZyshVUd2b2lG5dgGJlukoX7uA5lWPRYrja2tnSX0WNVmlNhEm26/CnFwrIQaf9iTiD5uDyrzTo6fZS5EBef91bIwlhFhjdecYs7xrbQqgtq6zUT1EuAKFMcGrqrVzYE6+NDAkPtMwQnXdjbipU2d9M4Br15wggC0OLFZcvZcPjg8/+oIJSSRunCWUL4Fr1WiTwiJZlbP5t+HKodF3rSeFa7UBH+j11h2xu8wj7o/qUAlNREdJ6Kl0GulMGol4KlLmtf7eVWGM080JkiR3NfYQ5IeQP7ULTUu2spOG1OTK4CVkFqxH/uTnSHUtRLn/NFLTF6PUd0oAPH0RO/5GDr6LphWPcP9sapZPM3fJXkv3rmKmQJ+TeVJzkOyYidzRj9Fyx9Mo9Z/hUTXUPL9aGEasqYNV2fScu2WmrvbB8pkZ+xysOsnOoULzhpKI24R67itAn5Om9G7iIElRtq9FurPk1ba8dLZm9xpzsLwQc25xsYVWGLEqbUxBGYU4qjyPi4V7dJToWGAJq4Nk5KheeHJS0hVQCAsTCR46BcN7+x6hmwnfSUjgaR1Nod1VsyZRSUIn1gcffylcWuOMBl4GrjqxTH026etL5fHUWGMUtXZw1LaV2Kf/sjWKak9qj9jR/vVqt9reo3/7rl7m5gCpZArxBE0vEK3CXhvuW6U0QUUXNjMp6hGuKoCbVzzKnw1y/cj/8BViqRSqpRLSM1cwCAmMpb4zSLR1IzV9CW8sSeCmFY/xyJnK4E9Idi1A/ux3XEVE6YzpmXeEAG7vRe7YDjSvepL/Vr5KA+JWIv/DNxyWoYkZNExOmu777WcVlAxMHb5N5+g6XFr6BGWoSXKG1AdolRYRtfMdWEUQ2YCqhVgCh2Za8R5QSIk5uE645MtRfrZeWz3ZjtH6h+Qaz6nnuAaWotJL/2xLqZ2IicQ8I+RoEu5iP4MMQ6vfwP/mAnWsq09QAo9O5BiL2Onv72//XAEstgsBxleVCcTsj/Vs4NAGlfBSreT01WS7d73DMLWZnBPjvsYd/SnfpGuVyyUMDA4ikYgxgIUJEQFH7dxN6+9kMPiziNz9OT4q85aqxRHEs9Ttkmy+CqgfltQx0wSCDKrlHOKpFrZfKfUwTl0fidBHaN5yl9i11HUx04Igfy2sqCKpRxldVEWVTPE413hTJ1Au8Xdi2Va+N3t0M22yHjdrOdwplpu+VGGvs8bqbTawNXTXGDX36XZdJ0UihQUCUpQgUQLR4MzOdd0n2TZW+9Zyvy0Jx1IdfaGmTjvJpLJzqJF6LvVRQnqTA502Y7Y4uoXnIpFGCSv+o19TBmDmWqrnvvP+pwrcMHwkajP97kvm0JFlktiIxRFNHXXW/0zIKD0dm/dVx6LU7LDj5MHoESK11yX7m1rMUhfLZCpcq5KhWILqnd684W5tbF4nt9qpfCGRSWhMZhv5LmWpZY5KFDeLx2s1I6qnSRYvK47ASqNIvFxsS/AIpZiOOPWaxIkzS+Kvzp5jzUqa4HG3EHu5HsgCDilSkGSdMDnDnkHjtC4xQi7CKi0xsGRWYytW5WWe49rUTyYw1/5nzNGuTs3VuVaTwZh3fT6pccbH/qOBa/efIgCrX04B/PZ7OyTcYnmtsSpn/YhKLd5p+VdT+ZST+b/73K3W1h3Lrg3/bpUzUUkeCT15EtT3SNu9CLz9/dL+hz3mlm7tEj6iQH1g090IgpIWAXhUQ6EQrpxKie3F2iT9S5MDbJqiMR/7t5bqokX95gV1zMuzCSXSVVvM7yVOMA4sWcZA5yxWcdhxybE0tAt7OSuz4mc0TzTHgqQaSB1eLF2pawkX8qtHns6aYyoUW1Ztg2lBe1oRk+b0UOrlXK+BPik3ZJpIA4C6tbqayefyzSN7cB24ca2xTJmI9Nn6raB0nHVMGMDT2jWRw9GWJ/H8MSEA/v7Odo4V0kGT6mySzbd/zeat/6/4FsRH4CU/eEkZvoRmVZAFQWj31nNwRYDPJXeaxMPCQu34WIzju8PDOZa84oCz5AtL/RvdzGDL5rs1Ichv7ypgkbWEgJfcBypnjKYy2tSE6GfFERQW9YtEc5VEYTBYJFokQSOcxMhMSlMXK0GZGWpolqidqKqs8QNmeBy31ZRX6srJNb9h/bA172O1m86Kp1Sop5qls/a1tmb6nI2l4SHtISlJKGQ/a+MCy9m3ODMzifpN1sXOVe83e7atBvz66BOGbi2UJhlSuv7lp+ATo51hkehLEEjC1MQau/tx4NEywPWuqlbxxtsfKICTSNAMVCMADSuFoA3V6QiQbQyNBeJ5DFAgDeElNYsJiWLEhHS+BwIGHP3dYsy+k6p2N6NgVk8ihVCLRb5uKplx4I1Ibr1QrU2+9YF75DkdAVn2r6VVhFLV3ol49JlotYeSt1ibJmiJ/2HhvcXCfY+qqeShbBZG5zEP9iJHO1KYGWDpQmFHEWsCJ0PeZK6uJSaYh5kYoY3y1HxlVVcivl7rWcY2sEneADEu1JcUychLuJxnXdQpDmEvt6rtE4zpMhOjenF2jokvxsW5pwByU3kJprHaTdHsLrFDgJF8QfMtKGFKNdr/+I//rJI0IzWSQRJUwtlIavfVM+CF0Kt45Y13RfrSxEE/jVJzoU2q+okdTkozaMW0IulHa6DWI6VSiSUjvUfZXblcXjoUKmDpmvR5Unnlc6LCt7a2csKFU+drkk6cJA+qKBYLKBRkcgPVw/qqNe+XK6MT7YPfV6n/0Jb7vA4ghnKZsFc7JbGupNWhWyHYqCuG2MnDIwXuoURd+C/39WHhPGr+rYkTmpxHe+HX8JqT7Oz5n9HW0oKurmnqdfcnM5DWIs0EjJClgZtke0kETCfrquSVJxOvrE1UkGPXoWFmV9M1aP3+7GBX7CBxXVmzJHz4L95nyxX2kjgiQFP7XDK5wm6T4wJI6YXPjq/764V7rgtsTS5xRR+GUE9zE/PIYzhV6GSGiYxW6WzxfOt2jBYXFoI2SfXya29ymCVJIRdXzKAAIEBbq1LPK2nqsgBNsDA8PMyJE6bCmopsObo0cIvaz9IoFUnXFMDT58hjTICmnymRhH6mHrs0qUGAp1xYD5HGulCiSCptvbBM9TfV3OJ98uwcjbTKmVgMBODRA8OiNi39Rl5tUnva22hUTQzFUpHvy5N0k0luQE9rpDrPluYmFAtFvPv+R3jggU0oFks4cvQY1q9by58hjYRexOCSyTiass18wLl8nsMzLS2t+OyLLzCzpxcze3vQ0tLi/BBii4cJ9SJdLX5iM4dpj8iGJ8Gr6j5rnary6v1ZJWbvsYaClJFzwb+fSsltczUn3SvS1w3VFtbK9Ea1t5FOI2LqhGNRxpWertzUukw61e66eLqhD2jST4QZeb9IrFxTTCMahsrZCWoR/vUnaAOX0dneNK7bXAhauPPLr7zO3DlJaiilUFICgLAPzbcN/6W/0nCn0N6NYSQ3wpKfJCkTtzIBAiNJYnOIESiJxGiWEv1M71m+s4WtCLymShOoSULTv9QcnuK59F6epDmqnLvtSh2NOVsuNHFCK46whBM+C+GZj27bFEnL479yu5mwLejQ0DCPeent6Ua+SH2vZ+G7vfsxe2YPTp09jzV3rMLpM+fQlM1wA3t67lWrVmD79h3cL5uk6Fdff4MlixZyY/uHtj6IPXv38R7nCwX09sxAe1sbTpz8Eel0EjNnzcK5c+eRzxcwrbMdFy9ewROPP8x7xeBVm1mkrqYHspZh0smsZukzJR44KRl0ZX7czka90fYZnRghn5GhY86zramMXEzhh2HMe1yTj23EKuqkmk9K6OM6mBUsojXZKBmtMrohdE7wS5GMI8szUI0tMstZpamTtJNxl4drmSCA68WBQyeWE/v6p7/+7XU+1FSSnECkjmrs1CV3hEn2rE57Ni8Blry/psLT+yxtWDpVWNrQ9ZqaWvhfAi/l0La2tvEQtNzIMAOZJDJ9hwBLv5NklrhumVVk+pneo/+IoOmz9KL3mej4IOTA5feoDcY9j7lZmqiZjz38QNgVwx1KpDaFpS01pKfZUATC4yeoeKMVdyxfhO2ffImFC+bj9Olz2Hz/es5IoxlRjz36MN58+z08/thDuDYwwE3yH3loK774chdmdE/H3r0H8PyzT3Ov4c+++IqnYezffwjTuqbx6Jpvvv0OPd3dWDh/Ht54810GcFtri3O4WVEC2ZJiFokHSWYeCVhDRZOcSVR4IeNMpO+z12ZWGx+QlJExoTLD2HXG4JRL9YAzE9GsKtWGpCG+T8i6FnY0adpivdCOr+iw+k0r8MpSpyxeW1/llj5ZppUaWIV8nENyytYQZSQTAjCpR12drZGZrOFl7KG0sTqAv778Oqu1pBJKsj+ps1JWJlLYpLE5saSRHBEQpSvSvwSokZERVvuIEFi9TaXYyWRKrHl4CZBkE2ebsmoX0zR5GsAlICNJLmNHwT/7pYf09+XLlzOo6d6Sey10TLncHFwg4ua+v8I1haurN1gdDY8/+qCemKjm3DJGVUa+XjzGjOnChYvo6e3h6RM0EubSpT6eEPHhx59i1coVPOJlywMbed/efvdDntz45tvvY+uDm5DL53D8+I/YuuUBfP3NbnRP78Le/Yew+f4N6Lvaj7Nnz2HFcip+AE93vHzpMjON3t4eLFywAG/8/W2eEtna2iw45TMR6cvDzXiebpy7bLD6q8/LoHOSV6uJFLyIp3VOhTXel3AhbyEBmkNoClYqkdRxpHzgauNHEzKiBGodKSR8NFYir36Hq5u0Wusm5SSHhRbS3lceNLRLjUbMGrkxuTpBaT+ZYobpNPqwXkJyzb3oM//vr6+R5RTWA8ekrJAA7c+mFc+zaJ7kQDJnFTmdCEgEWgnjEBhls+g9+l4uN8zvCw+XsA6NXbHQkFRCJZ1NTJKWvkejU1KpNNuWlMtLAO7s7ORG2iaF6boEdGYWdkGTwOYF1AbwtidPEoD1tHilTKw0t9Y2iJ6hjNNnzvNspsWLF6O9rRnHjh1HjkaeJtPo7p4OGkuzdPF8rtc9eOgwVq9ehQvnL+Bqfz/mzp2Dny9exvKli/Hjj6fR2dmGdCaLw4ePIZNNY+XypXwzmjNFY1RXrViB02fPoKOtDV3Tu3j64h0rV3K3f24TIyhjIHFetHqnpV+VDVvTPtdsCEtTOTfNXseCitNJ2vnIDKOqdPUkaHPLWit2kNJAc1KFDpnRZM5Mk5hEPZW6VhCqI44l+mSqi+ripI6U1fJF4Wccc1QZUr/OeOLw++WfnJQEtgSA8W5Lh/PS315HoUiF6QkGLHFPsi8JODGqTFLASQOzOCpBEYMD/ez4ItuP5vVSl3p6r7mZHC9C/DQTh6bFZzMZdgYRIbGtGIuxzVcqEuhFrSObq8Lx0gCJZBqpdIJn09Dm02xgIh5yAtF5T5vWxYyCPL2WY03PQUyExpwKg7BqHNOuLStIDvOJx7dqoYc1DgiTJCRjS4rjw4xx82ozWeiWet5tp5LRWzJ+xC/3kyyuMI3QIgDhOE3JbJKEGp2uYOmKfpaWZVVxwYHmDrsDNjkidqS4ODQRQ2O2/Am2eclMUrVZc+OtIEKa05NkJieWJEzU7VtlDIXVbFq62q71CM6cYargT6hB3UTw4hxwktxioHU11jdJFZ7I0up9ZsIAnlbT1G7sG1bxyqtvou9av/P0kvRtbmrmQoAUcX9KolBuRsQ1MNiPcqnIElpiqVQ0T87OMtKpOJrJc4yAnTWcwaWxO5KgAUnpeBxtbaIWkqAmCUr2cKlcQalURqFYQoXs30qAckDviYPInGoE3ra2NgZ7b28v/0sSmF4EalEFq6zClosCfie91HH71BPb1DetziFvmoLY0DqI2oWjtFdVJBykpXeseqvwVmcM25R2B262Fqb6CXhFaoqZIqRngLdwmGQaaS2PeqHFASFOq7B3lI05oZ0mwPlVN1qra8POufBBGDGvg3KvOTQkVUriwmY2oplOYcJErawTWzJsj+Oztgi9uQqkqfIqs9HsCmBYq2MCHT1G9kaBdrO+N2EAkw08ERWaFvrKK2/w9L9imTzGRFAJZDIpJBMkCdPCrZ1HOo7hoQGWrHTQFQZtEplkAm3ZNJqzabQ3Z5FJSZode6wRR1Cpsn1XVW8tXVdOgUBNqho5uMrIFYrsoR3JV5Arl5AvlTFSLKJYFgBZcog5XUidJjCTvU12MYGZ/iOmQGo47QFdX5iHVNxUqgG2PbDe2cAqPrwziwJK0a/Q95LxXe8qfxpD6K20OHQkfslMi5iDJiWoNCep6LfNIQ2GQeaMMxlpAu36aGBjXqCSNM4pktZBg2xlbVBrJX/6hKHnXmchKfKoXa4/9SFMAvHJ2YbSaVXUGBJOpL8fH554xpV/NzkJKkbRdFsNNfGSb4Hc51pGMCEAkyMhbCsbep9HE6r85ZWXX0OOEi9oDCXXBCdZhSY7j1vsuHKygO1eIi6a0ka0lUklMKOtFe3NGaQTcaQScbZTJRwl/7GdxYSr0/hYQoqayskd6rwiu5lATCGb4VwexXKAAv9XxkChxDau5WfTuix+3NHRgZ6eHqdO0+c49KKqnZiNYdomAWvL/etE8rlB0bbVpMaTCkkjQsO/WSM29xf+nibgi3iX52BfgmUpSQolq6PmIef0RknicFJQ/bumKTivOncklVVIyNISKOiBilLAry1+RGpLGmRYgStedbmA30BeYsM8MsXZuFKBJVimXlMqgf3cIr++dtQY0yipijNL0zX5opN0D1k40MViTcJaaGmS17tZInWS150wgKPDzTwQsx7krDO+/Usvvc7qK6mrRDBEQKRCB6UqMqk0f54kWAVltnWTiTiDif42d0YnukjiJsV5ZbZzKp1BnO3nELh0L/M0W2KGZUaRas12LKnThSJyxRLyRVWrK1UMFEsYzoudTjY1hZrMadbR1q7pmeD2Pklas6r8kkUWOh7NqXH/+nvEK8nRCwWJAtHIODwbm7kSDZn4DhKuZ9Ycc5fXbTaZKckilphBiq9NK3q4LtemCkrGk7VIlfHD5pASdVscUNbniiRzGPqR+L40SnchJ4aS2cXSJM81uaOFUHqkOp8kWyvCumT/2OEYeoxrpaTfCEG5jYRkJoAz0VSEdfCWaeWXU9mnqKHcJLE25R+n5xyZSGN3CSNRLnTYGSPcJCEi89bSJr381zdQqpSQSInjilS5wYEBZBIZJEh9oQypWBmloMyOJcoa4pygaoBFs7rRmUlyTyw6OPo+haDS6YxHFOIoCjOzNCarkleS/UXtpawtaoqXL5VYpWcpXAwwXKpgpECqdIUlPH2WrklZYl0dnV4HEMvYCvv5mo9Gytvk+Z9/7glJ9FA1WIjFbEBzIuleceZYQqcgSC9pHifipc1RWEccPxaSIc1Cpa8Sp3XTiDaoC51b5MRjm1Kn3fGaHHjVf0+Sk30LXmqhSV4XThLVmW+r3mjSgiQyoA4+7eBB40OlVc4YYR/eM7OrSTLXGfjhO6hc6uAEkOspOKYNmbPPNId6KcBTjqybeUGeJaU3CCiVMnf9YgaLA4vqVatCj17tS399DWVOt6P34siksygVSqI+qzOjFJRA/4l6pxU71QDzeqZjWnMSTWlyXJEHVXKieVoAdcIgycJELSDm1XA3Q/mZVC3i7paVZTZssVJmAJf5oQsYKVdRKJP9WuV0TGIQ3HOLtIVMEzJJcraFRCPRAzUgzW5S7YOe89nnHtONiEpV+aNJZHFm0SR5WbaRVbR7pAcXlbmaWEL11OossoiA85qzTSEdHUV6S56zDL5WHcAlwpMNqBlU2rycVWr2WlP8WucVEbg1qcM0D2HWylQ4xiutZCUsLmZQbUWUST6OCfN21CZshFa9c/g5D/QkgCsqmXPoCXeY5PdvJvgmcG2VB6GfVJ/JEx+RYhSezKAh03GLGciJJfLDpM7Yq3np5ddZ6pENRQQXlKtIpzJip/HE9CpyhRGUqyUGDh1ssUSHH2BOVwdmtDehiYroueGdnIGUJkqHQt/DaqsgRxJLXnYykVQnD3SJnWMUNirS70EFpTKQz5dYAudKNJeWWrdUWMKQ46pQyKM124TmpHi1Q6auzEJ32LBt6vEzLxKAPWKpM2KF7VkjYGOG3ATOn99kdm6Y4M9dI1mqWVkj8YFS1EnF95OEkwjDsBxnrZdlOapZZmzjupJGKZzgNEnmU6J5EICFSRBz02orF+LSXGfSfHgMCmW41ai5GpaR+ULWd3k0qFxsmPeHvMB+TfN1KN/V8/px2l8hbXICgJzwRyx8xXqbVmGJxNQ9VXOAASFXpWMYGR6ZJIAnIIFfful1VUnVDKlUkU5SRZDGGuMk/YosgXkhVPlEBBmPobutGTM729CSlfRJIjhK1E9RVhclRljBt0lBTcPjQAqpwZrwQc4eDieVpYppZKSIEknhCpDLl1ColBnAlSqYeRB4abNIxe9s7UBce2Y5YleiFgMujBEqN8EzLz4eyRSSnlzmGdYNZ+kbzud1YRPn/QwbgIuPyiN0p5qLNJbezBKdpIb4khQjXR7ZtKCvalvYOO0R28Fq57oG41q3y84/GWPqKqws88o4qHfuNudY6n41jZDvF06RMBJzUwAd460ladUurLuIy6CqDTKN9T0XrVXn5m8VuL40MI3K6ML8KsYZvdE81+EAE3Ji+Sq0SHQrUq9/9Zf+ShJYco+Jsya5rDDFTa6l62QVhUoBuaJMVrMpeRRy6mxKY/b0DjSlkwgoXkwx4WQC7W0tLMWJCCs8/5ekkvbkNaloIR+O/4Yho8HBYQzlqfdUhbO1gkoC5aCIMqna5SqK5TJXThGRZ1MpNGdakCSnjdf0bhT56F6bhvbMHx73wkjsKfLypzUNwFR/xz9JKklhAb+0GJ4ZnUpAzpLSqh/6CGkUDDttYUNnIfuqarruRWB07KVEBsyebHh36NlmVmFNCzQLyzmONMuKOm6Y51uYlkrlcoF7eLlOjzo+RcI0XiGBU2XEJheV3ZJN/HlZ41Os8BGNqzOX+8eoyewMdJpIqKfZ0XoTkHS9IYBZS5LeUhMW0GN98IYAfD07mABsPZzNMZRKUBmfqsRxsPTNlaimV6qJ2JMaB3o6WtHV0YbBkRx1UUGlGkMyRZlcMQZVmsHcitbmDLIZUdk4/AKKC1MxAzWCr+DK4DCuDQ4jX6LsLbJ1gVIxxwkjbOZxZCPJTiyx83QmdwCkkxlMy7YprMKh0+azkmQSeoUH8MwfntA9FqIkhhXuk9/CRqQ3j+tUb7FdxfbK8q0taGOqs4z+NHtaQa8OMXEwqsPNOmJorNMla1hLWBoaxqsIs6pc2IhSIN1AcZWC2lghKGsXEXZuSaqkxJa9aYbmCbfMrXr5y6w12Xxea5FzHVp2IafQ+y3N8RRIvxwLkwOTr4my+WZBAwFqmCWnC5sCsNZb4I0B+Dp2sA9gkSxAOp3lVElJNgeKAYV28pz6mOCabFGvuztbEBQLTBRN2SYJu2uPacrMItbd1tqM1pYsh6aoW2SlLBpBvpBndTlXyGNwKI9SJeDQUybbhGyC+jGVOVw1PDiC/pECSErlKaODrp9IiCpajaG9qR3ZtLTRFTtQCM7xUBIiZpvwYVXxzB+ecgCWsFo4OtPa9VAXycKZvWhatpW7TBaoIXvPMhTp33n3oHDqG2Tn3I1ExywMH/4AzYs2Ip5pdfnH3EZHCw5MQgugJadc3XgaLbDsL3JqEYOymbzKeNg7HWajSYG9OdNUfrATTFV+zZBi+cfF+tSQTm1eoyyO1dZ3Ujni00J+sZXHzyUWcKq6qQkY8ri/Alo9DV4YsZUzWmsi30VS0yDx11ifbuhNBbBL4QvIiZVFgjyLnCZIMeAKhvPDoJ+kDjeJfCGHWV3t6G7NYFpnJ5cjUsVMqVLFcI6KC/LIJOJIsi+EygEzWqAf52yr4aERjORznLhBSSNx+j6p76kUgtywA2Ixl0N/rsRFBCOFEqpcHldBtVJFcyqDtmwrgmoCAc234RRoysaSMkMiHW4goKNj4kggEYvj2X95UrQnz85l0FNMVPOAq7l+5E7vRtPybQhGrqJ4/iDSPct5rEpm/nrkf/gCsVQTmpZuRe7odmQX3Y84tYPVIg2b8EeAlcwqz9GlDeikaNxASlq8tBsKY7UqIbjDhg0eo3VS1pQ0O7ASQNZKyAyiHHIFu9MK2PssdrrYuRZC0z7QnrgQB5WAQHpn1eov9WSL5MVa+qd1CLHO1JMTlxP4tBPlpvGSl16Gu/K5qrru4OtA6ooiJxKinsBCJveRGwKwEKpnlNfckySwH6Olt8mJlYwlEZhKFQvYK1wo5URyxOMoFfNYsWA2upqJkIBLff2opjKsBs/onY2fLlzAvN5uJrZMIoZ0nPpgUdePBHeh6Lt6DUMjeWSamzk8NL1nJgoBUCyUcfrkCUyf3oWB/n4kqb9ztcLJHcOaVim+mjiDNx1LEHTZ+1qqkK0sJYZE3BRyYvMgBqQTaaQTGSRjCTz3xye1fU4oVaxSytTeSu4aCqd3o3nlo6gMXUHh3H6kZy5H4fwBNC3YiPzpb5Bo70W1lGeAZxdu5B7Skt0l6qq/96Hda6ozvUvqrQ7sMgnH4RvN9CSD6wAAIABJREFUMWbIkQ2hNjA7sEJblQUtx4a1pRBlyLFKrd07rMuGxoilpzU5r73URo2H8565Sh7rhTWaQMMUUZXuJvFuwnzeiMptajlHMsuufJT3Kp6SxoGal87OOord89RInYHMg9ioLa55iNU1bDXk1yt/nBxW6376pgHYt4HpgDKpJpbAFmZgfhyjpArqhkGbQz2p8li9ZD7akkmWopevXkNnVzeKZAxzj604p1rGVR1sTsWQTYvtXCyUcP7SFYwUqQQxjVQmiWymiWtbuaooP8S2cKFY5oKHRIyytAIM5AqckZUmL3csxTFryrsux8os1em71llTEkMsOZ9y+JNIxlL8XC/88UnnCXY+aiZ+7bTI2YY5HnmSnbsW5YELCMoFnodEEjirAM4ueQD5Y58wQTUt3SJzkLxsJrs/hefoxT2tGLdk12o8lftVGUDJ06+ZWeRZZ8uewj8UPrPQkdqyzKjMoSRlg8yoNf7N2ivHsFUOWV8scZlHXiZ1zZF13VG76il3KrLLC//lVC6gtcHZ1muMdSl5RjojN/fJogehl99fgS+4XEdOzTPnEBwXlVjTvpuv7d90AAuRBcikm9gJJU4PIQDp8wu0pGn+egX91/pxx+IFaKJWNyoxUinKg46jEpMi9aQWPHCaZZy6fkjcMZ8v4mJfP/IlIugE0gT2bIZ7XDF9BQRcAS3lXVM2Vr5cweBIHoO5PNqp6qhCqnwCyUwMw/k8x4/JNuY4sdrDkkghhE82PYWbyOn14h+finZ/ZAM6TNAQ4MRR6TuFUv9ZBlyqdwViFNq6dAzpWatR/Ol7lrpkHxcvfI/MvLWIpZtkRKWfuKItcOhvnAxitqw2ghPpqllgDEApy6NEi3gspclj6sCyqYRafE8eb957ZlR6XyZM7djBkvc6Pak0Ji9B/OvUzGpusrO/JWPml6NW998sVfNei8qv/a7ZNxAG6/zAleNbqkDLmsYJbbFEItpTJ5tNY3SZZFPwSHUucVMBLNxKqk0IwAmoWsb+99AP35qJo2d6Cy73XUHPjBloTkv9cJy8z5rkQEK4xMUHYpGQepOKx101EaWU9bMNXORQEVU/UTpmKknXIg1ds4uorJBV5xIGRwoYyOU5HzuTpMyvpHisY2WMFPI6fdBm8Vb5dyqGp0orqpoiL1gqnmI1+sU/P+2aC0jIWPOPNe+F1H4e1uXZTpIcodKPpYEmRph54hOX6wUt4S4DNGVambOHwzIaguJKI5bMKdf2h7eO729SRh1OLMVJbbT2sL4dLc4ba04gfgDtF+1BTaI7YbXQmPW+cnz60jztCTi0xiR/S1/VPZNEIys0EQbipmBw9RWZA1PBIK4DSNXVq+S5pzAg07G3r1OAZ9JqRoYmmchh9/WT7WvX8tf/95p0y/Bik+LEIseHefPkWyQ9krEAyxb0IkARQbmClmwaabJTuemcJemzP5ptknx+hIkwxd06qLopzu1gL1+5ikKlwp7tQqmEnu4ZaM6SilvlbLCKSo5SKcBIqYChfBlDwzmUgiri5JImDSGZwLXhIVZhqT6Z5htTVll7RzvbzuTFLuapPDHHaaGU30228At/etptg0uFVNvIstecp1gZG0l7AbuFnqzZusbatexS1FivUYDqo2E/fS0oSJBtbxlUYSN0ztoip5MREDMXksSayknA0w6e0hxeOlBKWMv6Y7EupSaQNSuwlCBdG2tVFt90JfCjVGtJjgmvdcNk7aQ322PaDUSZlEuzlXDdZBq+TwG2tNpFmLIIMk140c6dU3MPajksuRQkXMZMpfTLCSOVJb7H08s7rA0j0ccyqSwnLZCta+qIqSnkye1qT6G1JYFMKonWDPXQkqbw7BrRpnjETQmYlG2V4rpgmWyfbsqgMFLgtjPlUoUztq4OiNd57pxepChxoFziTKxyOeBUSgLwYK6EQQJwJWBJGgQxlvoDI4Os9vu9pKd1dfH1KNVycHCQDyiTTLFzjlb5vALYTWJgtOrhcctVAYV45iWeKz8LMNx7LKF0cr2qbzR9kKuJCPAsYNQrzKp0qNaJh1yljwJWuk0G7Atwio+wTlX5REqLyi0Ql+4bUqUk5YEiNsOm9SH5ubGdrG6PkwWlzxnuT7QX9MQJmqS2JoHoc/C6eO2i5soeUUUUhStu8D6OTM27binE+oz660QjRi5VlFsaVyQ5ZwL9rB2TFRtINC+26eVMKDozIQDzaBVLPTECcBzdclDlGF766xuRRA6yeymLCgFJzNBpZ4RMqltTsoLWFlJ7k+juoKyrhPbQkuolInZSb0mNFjstQLlURpIbBFCbnDIDmIBFXT9yw8PciaO7q4uTPkgql8pFBjilTg7k87g6mMdQjmLRVaTjUjJYTcRQqhZRyEuap4HYQiYUZ6YtzMazMnqFnGvVGJ5jANuALm0/YzYTxZnV8cNpiJo5xcfBw8PCXk4GQN8ys7ElarxGgUKOMitIMCtN7UgOaXFfKSJiGnNCjCC0gdk5psQvTELrgV38V00BlsKiLYRqhqRnihY1PkgsZTTS38pMyokg10viEEanvblq+AXXTwfUnC+tfpZJKMsuc0xaJ4nWZLH0lMx7cgPJRXAI04iWS471OGJ6aIaen5dez0+g7wtELQ4uV+ZtcxMl4hAbmFo4X2cygxUzRM9Q43SOL8i7L//17zUA/v/sfQWYXeW19hp3jUzc8CDFPbi7tFixyr0XKBXaokWL126hLZTieuGv4RCgeBIIBEkggYQQt8m465n/ed+11j77nNlnZhKgBDrngSczc87Z8u1v+bvelaEwSPP5vINGgyGboZTWKeUlOdLc2iwTxo6U/GwwWiqfk8/a6enSBBTchtqGFskpyJOiomJySDfWNUlWXpbU1taROys7Q8iRXJSfa00RoNQBcQAEOSZ1LS1S39RGtBaQXlmC0hWSZd20wtoEoa2IyPQ6OyW8BXB25aTnKMDE4KJHn3Co1YnjA9u6jekxst3Pu6d8OoFllLXrx5J4pK6FZ29xOC03Qm8otJjAmdEnYC4tJyEoAkwp6dSljVt62wSAbGLlM7M0CYbfvQWQIA0oBRAQ2FjUkPDye1Ya8skMyZs2KAtRAMxiriN0kMeAILnRSMUXjZOzA83KXYnZpz7VA4WDOHJHdGm1gxaSSql3r6OGO0ZNhM/Zd5VjGzkOFTP9jIucXoZa05AaxDhYrHsYOssnY8e32CLK8/EbW+8kFi8oRS04GUqJhUBM6wPP3AfgWuOvYK1M75IJY4fJmso1UsaOpAJmmcls6OwbPWlkW6xtapaG5jZppUvcTRwz3O0WZI5R9qG9QyydQwHOy8km2AIL00n8c7c0tbZLXXObtLS2SR4YP3psqnyaSG5BnjS1NKnwcgNqSQUxL3HdaXoGXp35UEd/6xBFdBm4wjVnXHhVaD788GNZsWo16Xl23Xl7+WThYpKv4x43mjhORo8dLTOmzySX14RJ42XSpIny1luzpKG+QUaMGCFbb7OVzJv7kaxYsULy8nJl9913kzfenEkIKY6/9dZbSUtzs8xfsIC91HvuubssXbxYFn66hAm43XffmdS2CxYs5PWPHlUhW0yeLO/P+UDWrFpD9sqddwI9kMaSCVSuJpDqKlt2OSofFFhMgxQO2M/UbR4XestIp/q+938TX78OjJRkbXGSwTizSCCYpgQGmuqiHHjCltlno1AmQ2coCx8k2mx5neCP5UYIsuYlVCriVLVhzFeyRvqcBDgeh+EELsCOxMJNcLI95wMjXnGot6bc6YCldUtpSa4SynW0yZgRw6QoF3GpSBsocBqbpR3dQ+DC6gIApItQSCgFRJcZWekUzHYwgXTBLVXNj5oxhDs3O5tWnc1asZjUtYJmp0O6u3okH2wfsDLmRmVgvApqyzgf+g8hmN6mZxMSfSG9T/aYEw4PJe1Q3ulkyUblAMgppYQBx/PBB+0rU597kSNSQOQ+buwoWsLyoUOkvb1Tli9bLhXDh8i7738oe+6xi7z99ruy3bZbyYsvvi6HH36wPP30czJlr92pDDbdbCPJz80h1nva6zNk9113knnzP5HJk7eQadPekO2320bWVlXJxIkTOeEB5wSHNBRPcWGhlA4ZwvDimWeeJYn87NkfyOQtt5Dhw0fYGBOP+ZJI3KNsm8dooRa4xJ0R8SUP6Cj0Ckul0k7uxjKssRYhtJ2KeHLkiVAK68/y0gooss6z8XG8cp+Guu83PdtsZGMO3gmUUKB8TB24hTYx9Rq71815TUnTMPu6gPUW4L6QWMhCe8eSJoNQylEB1kVzLaMQtUy6IXAP1aJ2psWkorxQRgwpYXy1ohIAjQ66sblg+JA0Er7DqoK7CtnoztY2utLNbS3kv2ogqR5ofXoYO8Oa52Sm8fvEQ3d2M0ZGEioHCDHTlXBNSQ7gVp/urMceqCe7XxO3wFiLY048wmxyHCvrpUMfsI0HMePNt9jD2dTcIocevL/M+WCerFq9muu1ySYby+ZbbCKd7R0kdd9s0004XQFnX1u5Vt59f44ceOC+8uabb0l9fSMz74cecqBkZmdJdXWNvPHGGzxmRmYOmTefePxJOeCA/aSouEimTZtBK37QwQfIpws/lY8+ns/nMmb0aBk3bpTMfOtdOfTQg2Xuh3MZF8Mqa7wZsogpaF65PuGe3P4SRxTGoL5mSm4AxO0mvISR4gEFXVq9bWWgFwj6iQ9egyJGP/o6RMd9CnCyHCT/zpiVjCs6WKAvWiDNFWgCU9lDo4fQhy9ovQXYDxIlyOEyEksRQCwZG4f6865tsYyaoIp3p6RLt3RKVlaPlBRkybCyIbKqslraurvJVlmUl0drSnaPdEwkxLHBUgksc7d0dHRJU2uztJKJskO6iLvWyAMgEMTheA9WHc+1IKdAsnoQ+2oO0zO5EGJzdDRZEQznVmQSB1aH4pnjTjqSv2lvrs4OCpeIoLhaW9tlxpszOUnhrbffk0kTx5PMHTEQstszZ87iBAaoss6uLpkx/U3Zb589eB8vv/y67DVlNykoLJKpU1+QffbdS5YsWkywyqSJE2TWrPekYsRwGT1mDJXBK6+8JuPHj5OJEyewzg0wDI6/8caTZOjQUumRLJbInpv6vOyy687yysuvyTHHHi2zZ8/mULSNN9lY4zgndE8BC9TkMsgYvHzk9f0+HFBraFAF4dhp88psFG2kgYfFpVulGW99AtHCyH1JxhDPlvlEEC05rWspOLzP/edkep64x+kRSOIaYI+qZ+ysMuG7jN8Nrxu7gCi+vh35AQlwUEZKdmtSxMEuwFSYmBSI+UhkolRKGM2IK0pJXaaQ38+sXky60zslJ1tkRFk5wRz1ra0c+gWyO6CslCsLdVptQsdzArF7c2uLNLY0MwmlZSO4TcrfhFow4mTSy4LiJy1D8gFVRHwbQgzh2iD47v4ymWKTDIKHF5JvfO6bJx3VKyfAEguZJnXDdXS0yYsvvy6jR4+SxYuXyC477yD19Q0caAbE15DyEhkzZqy8Pm2GDB8+lEPXdtllJ3nmmRekuLiQ/++w447y3HMvMB6ura6RLSZvxskSr742TQ46aH9q71deeoXHHTFqhEwYO0bmzftY8goKOOEBMTEgonNmfyAlJSDvy5QddthOpj77vBQWFUlrS4vsf+ABBMCot5fYtxrctsW5mvBOivVSeMqIhxST7fHdwKLMIMb08aQpYmItfSnizFrkEzLkqQQvEM6wLjCXnBMmguYLzeg7dzUFeGC3EF8RrFu3Yc0dZ50ij6DILsaHKU+zDgKsBOfRR4oHKFi4/wcXGhMSDOqHEo3TwsbjjrgEYMqC17K04CLSJcjQdUt5cZ4MKSlmLFpaXERhQ3ZaAQNAGQHrrNlZlIlgfbBBO9j726nzn40osbG1lSwcYKfEdwpy8piYYjnKSlVUOkE91eM/xwPjHOC61qHlKuC6xsefdIQC4gOKGvUqwooBJHRImq1EsqisVIaUl9F1h/sLJTlsCKxxutTVNUhTc5MMHzac7ZA1VdXWlYOQYRiFbNWqVZJfWMBJh0DjoDFj6NBydhJV1dTqmBlJ4xwkMHpWrl4j+QV5UlY+lAtSW1vDcTbDhg2nIgQlUVVlFYUafdaBUCZvLj42p89V4e7TIfVMtE2S8IrCgPc9N3yHYrsD7uveGsIz7wEKCx6QC6F5U2ELGbaoQdBDbnIP8bQ8pscNAJmqGIJ6udZ0FfiiBA5q8ft+Bcd0L6/XKFX9vjaKWP09BTZ8QAKczMiReHlxEnJnlngkEGAFJeRkgE5HrZDP//UZvxA6JrcwfoW0NpoGADYaTf85WTGpGFIqpYUFUpADNJdOBAS387JVldIeS2O7IQQRSKtYZzstdGlJEc/n50HpqbmjXVrau6Wzo1uyMrIkFywcYAcB5plur2b/WHM2d8dJ5PwpgukDiwqMNas25iofe+LhIXCGATigFOhg2DgRS05ofdFKFiyXKCrJaVuhpLRUZFsHVsDKGsgT0HHkRvMJgtbX6xlcG2GC86BU5PzSIE2gYDqXNMpToZZEBZ4YqMSv1R62xpQWD6eo/QblI919ttGdC6sfTHTCpjJ3shtjbXCyOOOIf8w9uCDbb/RMAQ7cvMMoFspAkClASM5BSLQfff1ehoSzZ4I9F2ZR0egr4uC+3va9YAKGlamCezWaXpIhJh3mcxVgP+Ejf32MriNiKcRf0qGteSRmJ7RAsbw64UCtW5aRvbPUxDAFmGQgn5qluDBHKsqLpbQA41kABtEyTl1Lm6ysqpXm9i4mq9J6uiQnO0NKCwvJ3MHZSZ1wpWPSCNe6rYNNDzgHhmFnpetAbUx4oOX3vIotIKyys2Poez2MTbHJUbpiVx7b6NQCu7VV7R7T2mogwEaD4yUHaxBwnC4Gg2n5wISduXkkNcCtbZsLGgPADzJPIuDupHvF7/UAeKJKwEsQSiqgvcDouOGzZ5lDuasCzuZA2OIzixK8SaOP5bX14r0ya+HRmrvWFDy7nnXNGbH/WteQSLBQJKjgH9cqhqV2cENQ81bvLkp44aEgHFKieEuq8oDrepERos49gmdmnptq+IQmlygF4fE6EXGR4YHljFywQ8r1CxHgfz76jLR3ttEdHDt2nKxevlq6MTMn7okmBOdaH05jqcnT8BSLrHRJz0qTjuZGycvNlqGlRVJeXMiscyYYOGIxWbm2TjqQZc7MlIaGegp/ETLURoDY1d0j9U3NUt/SQjI7JLyQDMsvKpOcvHxmx5vq6+iiI+Z0YAbr07ZQ+nzVv/D5wcH7mqmSk0491oBSunnQLM9X4JbZtgvYHQ3azkWJ9+aqS2oUNQHDhUImdYqlY5ptk2o9JQECGeCZSR2LLykhvpY2kByJ803HrW4KRJV7CzhCklXWG/UUveYyqDCC9sf1MGl0mUGCYO45D+vhlm1/5snsb9404hs/spzkXiKOrZ1IFO6kPMb6Wd/e3wpibV8celtWG061JCb8HIYOcsEo/QB3nbOorDFnoONF+3Ohlasp7iK98958WbL0U2lubpLNNpssq5at4DRBXXO4LIrZhdsIK8dMNaxwDty9HikbNkRKy8qkqblB2pobJD2GVsN6WnDUhwtzMqS1tVMamlukm3DADCkvLZW11dXS1NTCiRCwX9m5ueTJampplvb2mOTmZElWVgaFKj23QIqKSynE+Xm5jCPRSFFdWUlhhjVFSSvDMM3sdUCc3akMkLhmJk0Mtvjt0443AdaRmDr1Xl1OZ85QDDOOYllI678NCOFIaqe8YUQWAZNMAbEmfIdgEuer0xg4TAxrAHiprSk9aXOnFeYIGGU7M/7U8sFo0TiUk75ZUvzGJFwoBou2HgxUgvwIz7GucutlJVjHYE2V0lZzZPHwQpUGiAl1nnEvGtvQRQZxLnuNUcpRuOy/+6X73hWuPc9UiTii3DTRmwjmCF21g0XSMgxK2U8zQ98C3BuRNW9hpaxauVhWr1wpW0zeWpZ+ulhicFNBzE6LgWSQuqKAWKIvODs3W0aPHSNtHa0yvKJCli1bTitegMYGUOnkZMvKVZWEQpaUFnNoGVgrMzLTad0Rw8LtAsAD2WfuXySvkLDqbJfiwnw2H0BxwKVG1xJa73Lyi2STzTYhq0ZbW7t0dXTImlWrpbmhAYx6gXJJcG1iAJMAOwwMqsIcTzj5aAGeGLVJCC/KTIyFDLcbkMZ5HBq4vzbtz5rj+eAsk8p4juWQTknLzA2sXeB2m9NtT5sNG9yk1m7o5HT8Ih96HFgSL7NomJDwsu4oTTj2Mc4k4LeyfmOT3HWS34AVA1od1kdzJTx3lFdL+KFjuPuusoA9g0lvh6Ku04V9fmKuSSsrlXJfap4l0sW3EiufV1p2L6VKVWBhBJTzgFxoLSOhmcHiq6R7C2sYvDVvyVpZNP8jWpGtt9lOZr/9jjYh2EYh1peaXYlahgwtl5LyUikozGf5p7CgkNnajxZ8JGldHTKsIF/KizAZUKS6oVnW1DZIF0s9ylmEhWAmmsO7VKFAqLMzMOEhiwgsUtCiAQITGSDksW7pTs+WEaPHyqjRo1lHRuYWyavKNWukC/Fya6u0NDYpQ6yFNTgKgZpOv2prccLJRxkJgSoodyW52WxGFJIxuidjSjVjZQTAPu1ObKK9Er5p0t86k2iVdbIBrbS71waqjz8S48DiWmdITzfmPyGecLfLQfpWEglcTz1CACbgBIyoFLR3WeFa4qihfrd7yLVVGGM8m6ub1TuHoqWMHgnvPmmoWpSrydKPwz0HGNt6xtquTUuAhlwmDkDXPBidY0lIDZH0XO6W0/vpg06HV2SkArzblNbY6I6S6sFq0FWxt7Rh4glq+v22E6KMlErjheIxEVmytkk+en+25NA1bZa2pmbFPDsVixX90zJ7ZPS4sazbFZeWEMOLmiZGhcIaNjTUypKFC2VoUYGMKCsm+wYWsDOWJvUNWu8Ft7NO0wBgA6gr7QdGg0JJHkakKBMmNg2ErqMrTZpaWqnZQHo3cux4ySkoYo22oLCYMW57W6tUr6mi29NU3yggwdNapCZGNCNrbqqt/zdPOtKSIia8QTnJmgW8nmo0Nsqz7NlLb/b2dj5l1FC+7Hirn1Uw1DLRFaeDaYkus5TIaFvHEZJ6fJ8Z1rhiUW7upC6aUKzr3U+9xNeSc7oA9n1LlPclwF428Wx8APqw7LwTxvkd9ToWM/U6dziIXaOSuiZ0Ac55gBhsTWjpPcVDHh0SHzTg+X06/ZXJgltDL/loaBNO9qQw+0EMH++/TvSCdH/FM/uhenxwbh1upniI9ehG8hPi4nXr6WttU4/MmfW2rF27hkmDvIw867DBxlPLm5mTJWPHj5G8/FxZvXq1lJeVczpCc3OzlJRAiLMkNy9X3ps1SzoaG2Ti6AopyNF4l+gtzJJGLGSQR7rlcEt7esg2ifVBE4PqbMxKggB3S1tHt9Q1NPP46dl5MnTUaGKDCwuL+LfiomKpq62RhvpG9v0OGzJU1qxeLd3tOKaN/LTESuAC9fTIN08+yoilNZmj7Jv4EVo7BCGlxjbrhp+ZVLLJ9txEPmnQs63KwUyLwEwyMqgKfqf8E4QCGKLacH4L50PtFKueGY/7nAMrsf1PFVMA90za9K7tg3m6A7C64a4b7xdWN987oyzhheeFZ0m3Odmto5kxJdZ/yx6nUyITz/Xr31fWCR7a7+yw34F8r29Pw+I2Yq4tjrVZVn7shFJbcDBl4KSnZPmV+N7SZ6MINLRJJqYY1mE6oc5GSvUKT2tYuKJK5syaJZ1gV+wCBjmHAo6mgopRw3WgWEenjB03hqySwDCvXLlSiouLpby8nNzOaMqHRQah3KcLFkhhVpqMHV7Gz2MDwh3nHCTLwBJpZd0peDTIUgMrDavMoWYd4Jns4URCtCLiWrLySyQ7v1Dy83M5JRHvAeG0ZtVKaW1pk2EVwwnyWLNipQwfUSH5+fn8va6uTqrXrpV2QhTRfhaTb518TDCkDQNa9KVJIOeW0sKx9pESZUPXy6YCBrU/xBW6AVCX1houkGbx+brqBaAVzicLKlKlh26yfp8KJHDrrO4chYCyGcQU6mQPiy68E9unyEKHNkRgaVUjqEq3jRx4CyaU1LyRbrrlVCzEInorKvsdtx4SY1ysXoYmfqJ3qXpOPg7VnpHHXQm97n2Laep3fQHdRCK5h3AB+AabJhD1ZUuIcrmS5yS7a891c/bQ+A1+bgIcRra89sYsSe9RRBTqsFhUbP6SshLJRGkoPYNdN01NjYQOIj5du7aSFq6srEzpXLu6aZnR74tN9OnHc0n6PrQUpOsYfBaffOBZYTb2g8zdETuWsOLsYcuUNja3SXNrp6RlZcrQUeOkpr5BNp4wTuobmhl3V4yokI/nzpU8XG9pKdv06uvqZMjwYWzgh5eAOU1YTCgY0NSi0eCoYw5WwWGSSgemaRJIF5vV74QSB2J2pdChMNvoErVelrMkEgfvmRUlQ4ZtPJ4rPKlR4YmB24y4ybOfLO2EWgAd5OB/DyWqPDwws6xUPpppiBQMDat0qBothSGuNK7Te3eLrHvECfMSrydhX0Mpc3hbfLJi5L4PNSmkkto4TDLEOaaS0qeU9o4WE/8SbUlTHJKem46G1fVIUaOmUrYyV1ARiF8nPUCvahi883MUYB9aLbJg4WLJyMqU9rZ2bm7MNoJQwpqihxUCBou5dm2VDB06TIYMHUYCurY2xJrCbqHMrExaukWLl8hmm24qjfV1snblUiktyJayokLJzc2TbCKpVDBAiYPzeBkC9TKlke3k8dAiCHe+Bl08nT0ydMwY6U7LlObmNhk5fKjU1TdKSUkJhXTOnDkyZEiZ5Obm8v/Kykq+hw4onzuMe8GCYrYwSksTx1Yklju4meO1YM08ooTVKbHWehW2nCIS3akRMCYITitEJlktNEsoxr1MIgRWUTRhh/cAz9SYMp2bngB4/L2tXtKRufaaYZi+xbLMSMB0VM5/J/Z2AAAgAElEQVSX7JFbBaUxTxQFumZdWCW9oSGVcMBLYEIotZsbJKt4f6lNKcuQwXTFPmyiI8sCC9i/e00hs4Z8lrKY8PAW2D6uqx/DTWXCZ2QKOSqOd0+MHkrvTHUA+sDapGety4Dvvl3osAV+Y9a7HItSVloiGCyGJn1seGR4i4qKpLgYSaNOqa2tlYaGRtlssy3oGsN1xmcgFEXFxdLU1CSLFi0mTnezzTeXj+bMke6WBinIzZTCggIpys8PFCnBHeB2BnwRQPwenZUEJYJ/0bUD4VtbWyetHTEZt8kWUlPbKOXDhnEj4HM4L/5fsGABcQQQ2MLCQioAIMpw7RAiNOPjd8TrqFfDIo8eXha0tyHhorxStEeWkVbL2b7wNQoXPbaMDMnddH8yPsaaayQtO1/SsnKlp6M52AppmfkBKXusrY6IqozsIpHOlmB2E8av4PsZOUXS3dkiaVn50rrwNckqGSVZwzdTZ76lVjIKyjXGAsNISx3P1TL/JSnc5ig9H/Zpe4P0AN5aUE6rEetokfQsUO52SnpOftyqhhgodZi3s01EZLXotvZIjJ/pqywFS6UdRCktPlx+K9cFTBqpBMfYRmLmtaxLjMvEFpoikBBkF5QnuWwkK8MUJAj77xhyhaAufjxOjrdDJt4AlYcrnqj8gM2WGrAAezeSKsQUaX47IT4xd/5C0q7CHQazxNJly9TKWOYNoP3c/DxZvbpSmpqaJb+gQIYPG0Y3GxYPLwgvBK+quppCXlZeJiVIMFVVSm3lGsnJSpeignwpyM9hfJEJHujsHCUO4LClHmlr75DW1jYeD64v4kqQvw8ZNZpCgKx0aXGJ1NbVMqaG8EKJVFVVcaQprC7+h6BCOeA9/I77gNX1IeK47nGjhwcOo7YfwtqyncNA8SKx+lXSsWau5G68l0hHi3S3NUh6TpF0LHuXExhibQ2SOWxj6a5fKbG2JknPKeDf8jfbX1oXvSFpmTnS3VwtOeO2l+76VdJVv1LSMQ4lv4wCmpadS0HOHbejtK2cLenZhZI9cgtpX/qOZBQOla6GNZK30R6cBCGYiEHWghYp2BolsBhHvXTVLSeZPMIBzG1qWzpLMooqpLupUnJGbyNZ5RMsrtOCWv+uqI114b418EmywBn6Co0bfbmm8KCCRv+U1lmTqT7xsl9ear8WKwdpRlrjfXWao9Ls4ZS08Ws7/hxC2leXkbvQ5lWZK6XXnICB1rOjc0mbJXpbfqxHc1sHBxkAj9AnKyVI7awSkbD8oVsJ/v7enHl0kWFFs7MzZfnyFbSs+fnqgpaVFktObq7UVNdKVXWNDB02lEkkuNZIIkHoYZFxwubmVlmxYjlvDl01I0cMl6WLPpXmmhrJz8mU/Nxsyc1FTIypDUBaZbH3GOsORg0MPIO1x3QHUnDm5MvYjTdnT3Bebq60trZQiSD7jPLTmjVraGHR2eNkYVAm6v7nSUtLC5UMrDFcfPyLexs5rFRjQCZtLE5lvKKN2Xh11S6TrrULJXfS7tKxYo50N1dJRn6pdDVWSmbZWE5qoAuMkZ25xZI1bGNp+eh5yZ20p7QtfE0yh0yiQKfnlQChIrHONsmduKu0zX9RskZsJZmFQ6R57lQOT+tY/r5kDp1Aa9pZ+YlkloyS7pZqzmJqW/K2FGx9BI/VtnCa5G+FRgyRlvkvS2bZGMkqHyctc5+TrIpNpbNmiRRscTAtOq4pe/TWNpvYaqR9uY2GwyYjZipX3EEnKeNCV/yaTFMSvhSJqoTmgP5dXQ9N9BaU0kGb6M0bGUi3oJeD3IXx9aDLHh0qxOs1NnCA9x6t3ALixwjgB2SipaWduYL1KiO5ReW/3nknPTJj5nt0P90FraxcK2vWrJbs7BwKQmlpiRQWFkhVVQ0tLWq/cFMVgdPDBFLF8OGaHJF0qa6tkRUrVklZaRljRWSrK5cvlZa6GoI0QOKeDTJ4TDvIyGC9ODsnlyUVcGjVNdSTkqe4pEwKSodIdhEGp2n5ANYVcS/+R9KsurpaKioQz6ZROLEwsLTIlMPSDh06lD9DuHHtuHfc15hRQ21AmBGHuzCzeGtJpJ6YtHz0omTklUpabr501yyX7DHfkI7l73FKQ3dzjWQWV0hn7QrJyCumNW6dN1XyNztAWj95VbKGb0wrmjV0Ei0wO73Gbidti95QcsC8Yulc+wktdseqD3UcTckY6Vj5vuSMnCydNUsle/S2HKIGdxquaKypSvK3PlKnOy56Q3q62iS9YKh0VS9ibNy5doHkb36AtH06Q9JyCyVn9Df6tJIJloQTLbQhIepF78RAF+HSVmCJmMxG4kYTdn25wLoXjXs5BSOIHzehLs3yzHpSz/ahvNQFdkyAVQT4h2gn1qGzUR6NJzrJ7Z0EEGmGAPfHC90flNKvygX6jbfepab0shBi3VWr1hCHDOsFWOSQIUPYGQRyNgh6cUmJrF61QioqRmojfnuHlJeXSXZODjt/YPnmzpvH7+Xl58mQsjJZsWwZ4YsQ7I62FmlvbpaOtmYpzM9jDRku9KrVa6RixAhNeGTlSGH5CICkJTsdg8riuGYI5eLFi2X06NEUVLjREGqcD9eHmjA2EN6DEsLv+BkJLgg8+paD2q/R0ARNCsAuQxuj7NXRLF31q5TooHwcR6dAaLoqP5H0/FLJKh0rnTWL6S6nF1VI55p5kjl0EoEqnVWLJT2/WLJKx9B9ZlvjkAkchtZZOV8y8sukq62BAg7h7qxaJNnlEyTW2SrddSsko2yMZBQM4TV0rpkvGWWjOGQte8RkTZghqVW1SHo6WyRr+KbSg+81VtJqd1UvkZ7MbMkqHWnbNnUySBMtxsscblcMbXiWVyg8Tg/YWxq0hkznsU98NUuYiFc9854K2eTW0nHm/Ry3L+diQO8ZxpsApqALLDoHkKCAQtRFahwVPaL/oG8g3nfwOQmw3o4L8PSZ73KTgwwd8EiUWiDAiDHhhubn50h+XgGtxoqVK2jNKiqGS31dPTHSZWWlGnkY5hhxJ2JbxsNNTawhb7zJRrSeNdU1MqJiuALcY93SVFcvtbXV0tRYT9pVjCBFTRi9xiUVI6WodKgmjUJDy1paW2TpkqVUOOTYytLaNI6PujQ2CBob0JyhCiiHyS24/EuWLKWQVwxFuQuJq/jgai4364BaUglKNMbFrJbZmsaNuUNxzvg7QBvaMBHAKoFGst7pWAxlFuOy9ha2IG5TqF1gyUIbOmgSTyorJVgGayRXa9BH0iliF6u1wBsGWEn6jNdiOaepD8tHoeQoFG2zDL88Q6xAFhwnPkAu2tTbOoZmIkULYNw8JhWN7J7iiiSZIjaFYY2fxiyygbNTexPs/VWIaq/ZFl7DttZbHPwLEeCPP1kiDY2NLBkhS4sWhk8XLSTkq7SkhEkmHQuaSZoXNCSgnISkVW1NDb+H//Pz8qSru5uWEgkqWGP4+xB0JJSAvALNTjanM+QRgon6MWLZuqoqWbVskRRkZ8qQ0hI2yJdWjJTMvDyJdcUIFMFGQJfU6tVrqN7Ky+CiK9YZQgqrj2wzhBVWHxsJ+GjG9pg53BOTDox0qaqSzTaZaA/ZBdiHgFmzuAMiDMgRxITYmyQP0KSJN/oTL04rpr27yIhqTIWyUryXNa7Z4+whKiSOoQ5tfgpXmNImtL+cecKA8kGv8IBMTVyBw5vgdaZym5GhZ0I3ym3VDC1KY54+SpkkC2qifdST1aoYMCYE3OjrnrSwbUGwhT5+HFe87hWE17gfCXa6H9YlgM4LsOnJF2OtjwltmQmuS6CY4eV+vgLMFLnI7LnzNVlVVsbEFRJFqPlCGIqLYU0zpaCwgEKKuBOx5MhRIy2p1Er3tLuzU/+WlysYbIY2QWSjYdEh2BCo+oYGYpdhwYGdRm0YmWXQ3gBGuXrFcqmtrJTCvFwpLCqUMRtvzmHfSHbhWHjhmuA6D68YrrVYc7OQ8XYCeggyuKphSfEz4mL8DD4uILPQETJh3EgmlmAxCGpgUgQsH+oCeqsf/8XcqKxsje/ItmFJHrpZRmdjlozMPSxLpWnLYKedI8h6JlKwKoAEpwwJCI9lCbUkaF+wNcJ44AFAEXvJgMWqajVStRQ60Vxqdg7CcuE6OxlClKcO5hUS4ve2zuHr0iHoPnZFqXL6KyWxYcGUpR4rzOHm+8MvSlv/grLhOsTSFGLCaJNaHK3KpMR28flWvTwQ6+teBwEGRU08fxa45iHctluQWe99RABFaUkxXWZYXNSCAT1EqyAwx2DgyMhIpwDDmuLvgCU2NoEuFfXgGIUXuGjWdsnn3EPXFnxRSDAh+YV6d11tLV1dChhc35ZmwigxmQHoYGbACwt4THwXw8nygX3O1NozMs/DR4zgxAWuGZICQIN1otMjgxMdmhpbWEKC2wylgWQbNgeURmtbCxlD6J4624VrUCtpJCCtrNdTEzSKhcbSIp6uXFMlW225RQDiQN/r2uoaaWlukwmTJlirIDaj9hkHqB6rtQZNDi6EhnN2UIhvBH2S2gihbl1oQPc6WF3/KDPo2HKhecgJhwE8FEIXUMEmnQQdZN3mVkcpEOeh6ge84WEu78vLeSnux40tew9sHTiGpo9yafShrOAEoYTrz5G0CqHtkwDTEm+aB4gj13iOULzuMNFeQhzrluZ2zMPuJwvNOnBpQRzfGqqQ9YpPpEeWrqgKsM2wwOkZaVJTU0NIIiGVxcV0d/GC8DUiE11Wyuw06rYoI8EyYoPnwjXOzJDCgiLJzVVuXQji6jWrpL2tQ8aOHUuBhfAiQwxUFjYC2gOR2YYVRRMDBpdhj8L6Q1Fo1lvoHiPzjG4oZKxBhIesMrLZei6Ut9RCwmpDiCHY8KZwLzgXFFFxPspeSv8SNMEHkEVN1qClsqO9XXLz86Wjrc1m+2LsDJRZpnzwwVyGEyBhx0aAl4FEz/Q3ZsqokSNk/PixUt/YwvUAvSwzx61tpAQqKkS7J3qjY1SCKIth3XE+wO2KqQjjlk9jVSW+izfyDwyllLiRYsRkO/Y6aoO7V6By0fscAQgokKiIo3gM6a19kSfiE1MKIQAwkrilen3Fk23EWttwNtVr6/4yYvfgi0iqeVgUgpUmHlhDGoQ7HAsbzjAHnrzPaohYux4MN0MdeD3KSLQeIYscvrA1VXWC0hFc3RLEn7E04p7hRgMiWVZSImg1hN7BLKTqqmqWjmBFYQWxKUFaDncY7iqK1Lk5uZKdg3m/WRQqYJ4B04RLO2r0KNaKR4wcIdlZWtRmp7G7oYyrtJ8W64Lsd319rYwaNYqxLrLkeYWqoJqam4kigwC7e45wAJYYn4UiGjJkqIE4UNvOk86udikrUhI9bCB6J9gUPqSKiapuWbZshbz91izZZZedZf78+axP4/q3/cZWMnGjjeWVV16Vb2B0yryPZdny5XLccceSlO7Jx5+QKVN2k+qqWvnkk4X0QnbfY3eu2Ysv/ItrNGbMGNn6G9vI1Gee0VEzGemy//77yVNPPcOkHJQQ6GJ1MoaujbJZrM9utRCRWSQlnlNEUgrB6waZg88N8s8YUMHCCMbEUcLt1sixxJHX65xRyobSpwSqhlVuMSeTW981GICYMxFnNEl9ZdPZH8ycYe+Sm2b1PQeS+Lw+Ux041fWvXlsrK1evIsKqtKSUw7hhCTh4rKdbSkqHUCBhQWA9kUkGsIONDBlqRZBRdisMgUTdGAIF2lNYbyRvMH2gpbmVGxjCgI09bNgwhVSmq8uNZwO+aLBw4BcQqNfV1snIkSODGJddRXSVuxmPw+3H7ygj4RqhMLCIStKnNWAk4WDZ8BnG+yWFljiKzxOKx73AwLaJZOTI9GlvyEaTJsrwUaP5vF54bqrsf+BBPM/UZ56Vgw85kEX9xx97TA47/DBa6aeeeEKOOuoIWbxkqUyctJHMfu99TmOARR85YoQMq6iQZ595Rg4+5BBZumQJ5yk9/vgTcuTRR9OjAEjmueemyhFHHCEZAMlzw0Jg4vj1AezFJOOBZ6TNG6kQesRm03vx3FlyNtkGn/HIvUtFQcbaLHdKVWPZWVIZGcFDtDJR4kOSBPLVe3jZOq9DP1/Q5JU2mVAQI5glAzvIJcBdR2T+PYRI8mK+EAFeU90gNbW1FCTgnrHwcDvh2mGsSFlZOa0H3duuTllTWcmfYdl8VCiEpqGhgcIDwca9o3wEgcnJyyb0Ea4D41ECNtpl2bJlMn78eLq2AHNoEkojd4+fcUy4wY6bxnrAheZxLfMM9xolJfwO64U4Gd+Hu4zYGxYbxy0ogAut2O3iwlxtJjAWRZ3w58OqdAgaNteMaTNk4qSJMmLUKFm2dAnLUHvuuafUVK+VuXM/kilTpjD7/PgTz8jhRxzOmH3O+7Nljz33YOYW6/jcs8/yO3PnzqPVxTU989TTcshhh9K6fvTRRwTJTNlrCtfn5RdfYu19zyl72FSA9bS6tlkdWKA9qhEgDYvtGPOmSuyYRxSGEvZ2LxUSGYloMheT0EfOX07lAZhuCDzGPuJ9Egc6C4daauajwyR65hGQtNBTQg7dioNpI71wBXdYltnx2Z60spsnUwsT6ymy9Nat5N7KFyLAi5av4SaHZfLkEjYw/tbU0CiFxUUyZEi5JlHS02gRkXxCPIo6K4QGG49jQxsbg2w2ssvYNIhhodmLigp5H8gE19TV0n2GizuK2es8CrDHxIiXIZgQVAgvNqFa0mySpDvGGZYXlh8WEdeC3/Fi2aqzk8oB30HW2wUa91mYq22E+nJQvjJrMNbkoOxumT79Tdloo41Z937llVdkiy0ny7ChQ2TO7DmSlZUjW0zegorgiSefkcMOO0Q+/mieFJeUy9jx46jQpr8+TbbaeisZM2YUBR5rBaDKjGmYzHCgfLLwU97PbrvtzoQbuMXGjh0tTz35tBx2xOEMQdYrxgs8X9ABd+gGSwXS4Pup4ZNYr3CeINmIeXweTESITGoZyskqPqnLTXgERkXEWLdv5cXQIkDO4RyWWKMCUJilIrm80qAjZjnXmRxm/eAvaVGs7TTK2rqLb1RKiRBULzEZ8jEt/bNBKVN5D5W1zdIKPmgCKfI4rBsAjXYIZFMTrRaQV4iR8TOsJ9xRvCDweKEZAi4tBBKxb5mNAbG0K91ATBDIys5gs35dfRPHrUCoPv30Uxk/cQKTQGCrwLGaGhspkLT6KOOEBBTZXwA4ILgU+liMygPCgc/hX1hZ/F2FuIAZVdR/OWQN8NACkPMpewabso2cTRM0mjWGpXjzrXeYpILLPX3GTNlrn73YYvb8C6/INt/YmoKNjfDsU0/LgQfuJy+88JLstc/eXMdXXnqZShDXNH7CeNl8iy3kX8+/wLXdcvLmMnbcBJk69VlD7aTJ0cceI889O5X3AiLAvffZN6DKXS9XEbfic41Slky0ZS6gbo04EUEaSa5gwsecVC9FLZmftXyGCmQqbLQNCyMoIgVJnls+9uxaF5kdjik+k3dHREWJv5IQ6uB2lqAgxKk8gnAzAz2HFKUwlvV6bD5Skm/iQ9DSM78YAV5drfVZPO9cuKGZxhjZ0SGtLc2aNS3CCI8c9ux2QICbW4LPQ1icVL2mppbaDSALxL6IjQH4AN0rklxQApjvo8ipFn6utg5JtEomqeCqo/EeL88g68REpWmB8KGUBTSVQys5fcHiNgBPSJTXDTRWFxUNPAXE5XioQGvB3c7LMTZF0944Nlkqbeo9aoWIf7wE5RsPx0FC7qknnmT8iww43utoa5JYTxoHmR1+5OFUTrwu45nGdYNmFwoLf8sAdQ74wgweCuglFSfzH91EojnP9ToLr2WHdcSJdduELJkjzBR4omW4qBcTnwwtQhnfpA963NyLs8scWtZPiaiKxlf74ZQ32hoUUpSFCEvkNVlCy6mi1zOpFcS73DvwMvBIUOpLpWA05mXtm+XH8MtiBNs3CRlq8/Lw3JvbBlxGUlK7vihL9ILTZBXI1jGXyLK34F1GDEm3uK2V5RogmVQQMhnbcuRnSwsb+9lSaNxASCpBAMGOAffVid9xMTgevo/yEqCOEFqUlXBubGRYKwgXBNctKqwpLHCYB8ldaI95sT44RkN9vXoQlszCvaFzCX9DUg2/K0Y6XcpL8yVmtK7q1RmtDFBJNtGeDf0s4Ns0d0++pGfK2jWrCSYJQB/IG3R3SW1tAxNzcVil1ow5roPulvJrh0xFQDvqIP1+yykDkGjniCbEr1d5xhBezksdYaa4SX20Vh9YZR1+1hvooW4rbl0Fo882Qc/ocr31WfQCcNBVxt9By6RlPneNP1OIkSCDds2pcgWMthSZ5VMsElx8PmBnuPTko57Aw4wBsVKGmxnUJYwDOngwuxCNaXtk6coaChA+C82fl5PDn2FJAV1EzAq3rwCNAbDO3bqIyKpCKDElD5bVBQlCDOsB99pjUmRX4WLDpVMEVresXLFKxowZzXNqqalbmpuaAuHFNUAYoQjcCiO2xSQ/TAxUgVDFgM8i5m5saOR5XYiR7UaJC/3CqDXjXAgXRgwvZzOAJx/USoQZJQ2NhTWyuBq8xUrSlyY9Xe3aQ4y9ieMgVuXVAFJpU/1Cls1J5pK7dLyftU8eqQEIrCt5fbRq9XTcZbLJdBJ6QEZTWV404RulTIp4VnqMoD45rjYBDHjEIq03PqThi3rUqUjyHCVpQgPRHkBcHHnTA5VyiosPTcORXDmFcNVeCyYPWBRPd5haKVEZfS5JLEdl6YbrkcqaRoPcahNBFpNJQETpaA8A0CCsAGkA8QQXEkJNywkBzlcOatRIcSAkuKAQ4OZCgJHEAm0sYmpgn1FbhuvZ2QmgBLqYyplEQRJHz6mEdzgeXF4cC5YYwA/8XF9fT1QXeyozkJTQ5mgALBrAC40pDzk5VAQQXvxfip7mnJzADUcOKxinEiQ80km4Rj5swCC9rIKEFhJy+Dshg6rANGHhLXFqxsi2yB9DzIyGFVbUl73MmqvLPlAJHcDnLCuaugfX49noYwW1eHoKvWu0mjSK47MjvQUnyAtvtARLF3dFtR87Aixio0e1S0rrrVaJ7jexRaXqisR9QKcY7m+trSNJ4+QY+wJcUYcfHVfGhnPp8w4d2GMUfibRO/lcBDj50a1YU8NNDlSRE8CB5oaMChxqphsWQgT3F8grTgOE60pK2B5aSQVxoMbbQXcWteKC/Dyr88LapxP0gftDcwI2yNq1awlqCEjk6G3BWqJuaXhguN9G5A4F0djYQgAGLGpBUSGtPwTYy0dVa9dKUUkJAR5QIBB4uOYIA3Rgm0hmukPojAsLLpnhWZ261DmteKM+xYFehA0so+uH7LhaEPV2PEnj2ZQ4ORvfZVrUgBnrZU1SCzGBL6Sw7T2SRAXPrz3JMnuJB9cfZs6MOpWTpSdtTL9zTmswFzfh60EJhxlPJU6I8AB875Mg3/ITPgUy0ptgyUjZK5nH4NRD4zNz9z7oLLI2QeLf9VGxFm2KJjrhpfh3eDNIegb3aRejGGmnJU6KnT1D7sonTb6YJBaYMKpqG4OEMUAPzJ4T5oj4U1vdnOXRs7ueIYZV9PewiARYNCKp00NgiM7d1WSJN9sjLoVFRGa4rFTx0xAuWvxuCKw9ZPJHd5F7Ad9XJBYEEkARzA3WIWdZlnyD0LZ1tBO26aR3uAcM1wa+mlQ82YjDQQWkYH0lsFOSObb8YSPAEmdiqqChagi7NGEkZjZN0nyol0V7fKaBO+hxpj7cIItrRPE6eKw/czAAixsYdAinhZtRbBq2iYOB3aFDh62ubv4Ii2joIu1aikjyWHIpiHVT4KNVKM0qRXxGQw0t5aWuOdvFs/3YepDJAApmTyerSEoxOemdr5f3LussUSM4jFhvC9O8+pXs7uv1GhYa9xO6p2CgG0+gmO0vxALjAXZ0dUltfROFFW60uyAQJApxd4zCgxcElxMRgBPOzWU2GZBKZ4EENBDJI/TtAjONRoXcvBweAzcB6ldYaggx8MpogoB15+NQDCUzgYy3odH5jLqZ+EJ2V8Ed6D7SZYVLj7gTAu7DruGqo8wExYLrRdsjBBoD0/g9bCImsawejBtmQxJGcvj0QGy0bgozsK+g3tUHAWEGIEWThA5RpVXxmMmntVtiRrEDujnjsWeyPh+4wCZatx6j9/FB3xHH6WrXzquIDC+VtXcC9VHiUQ8iqjPJEoB8UGalkoQz8AB4fG/qSL5OmyvFsasu5KmFirzdhIbHPaD47UUJsIU5YdVp4RD2BLPuEXOWmYS03AKa89HqGn7he9gb3AfhbLt7HSxV4kK/oDJS3P3rvVjBBIAgU+toHWNvZMbQF9AyrK7lcEv+IGlREU/YXF90u6DHkmJgSR8fgxIa8clSB5NL2l7m2t81olsLLy2oNlQuJvToojTExBNd5DgenDgr7BcbmcKaYgYUVI9a1sxcYzc0YYagh2b4oESjYA913eIkAKCb1dlB7NENlVO0ESF1a966iG8Qe5plVHc0wqKbu67KLur5hoaEp7Ca3AMpp9J7gsmHmEedxNxhksdFWW8DbxhCKmUZh7GtEddbF9q6rFl/n9V2Rp02qRMzEr+BpSZqn80XPvLVpDTcfUXoZ3hcS9BzKC0sI/UzndBZKf30/fVU+ueUXSJ+1dojG9dwuPAwE70OBFNKUbq+qG9a5pNlCI7t1BgFLz9yQuLDXC+0rXHR2FvqU/b0iz5cjQkNG1fC8SUGbjfujMB9YfLBXBbNHKu7CqHToWHaZE8GfrOMFFxObdDYXkeiaDwFaljyA7OmijgrMe8SXl9tSws1rQfEbZps+7y8Zl9DuP1cpSiSNca0aExwQvnkDWksIP50IuVfOa1TlYoCv53XEHWAeAUkmR9Kr8aSYjbSRhsJIpYJf/Qha33hp/uT0n7e52liOq422Rrr5WLuE+rAvkcT7zk+GC9ZUStgpqWjZ2CslOUloMAJRNMsV9LSBEmXeLo+QYADS6buRawbI1RyucBaJ4wLCu/Ny6eE5QcAACAASURBVDLuKpo7FYwlcSvKHkwl/OKCWPlFN4MX/eOQRhwbrnU6sxXa8K17zlwiK+/w4YdKQzwW3TEoEdOo3ljvzfiWLGHJBYPXnFLHPq9XB8UCBkqkrlH9QJN+b6AFmzFCVlYreHEgxEAV6YD2oLm9UVlcr8Ey2eYY4PA+cwKD0Hzj5HOqy+uTK1JYbyg1KLiU+Gm1vDpDOXQM34YGU9RjJG34cNKL8ap14K4DaEO3t57M1cKAgxYOiDd6JLv0wACZJ6DGJmkaBa/bR/QkZ9jRH68TLAbMShm2dvGacMLTVHmwlHjcTKp21LgncARNeG2jJsRT0NTKC0VLHU7S2EPEXOE0b9kD+4XFFTreREd4JA6HtiZ4aj0FyTPBhGQTBNGK+SrLeo3InOvwbE0+aS0U1hcze8FJbVbds4/uRWATgvXRkyExoJgwXFvHjYaBF4EbH9pM8VlTZmWJ7FHCAFeKn6cAcwYTPZKI6fBUHPAeDGQfsWuJbzZblyppxdgumJVkIh6wl4QlLELlBGGQvRdaK91uvEg/aGifmV0ORtHC8ALf3DeSKzBVAaxTqyi6Btgz3RQcHTwTHadHKTHKj3GXJXhPPodKOxlC7qXKDfucabASO5Va1rcfeCBaPSzgOgIEmV/PSKsryrjScJ++qB5Z0plmLkjnxfBBBUJpbisvRJkP0p2cm1ZV65PBiEhYT8cnq3mPzy7iMDEbMgYXMROQTWwKJ9V2BaWPigPVuIEQfys4HfGuZl9VMWgJCQfxJn8leO9YPU9iDSslA1MThm0sHavmkrMZbJEuAKRihUJoayBLJAjVVcj94en1aALIElkMO/qnjIl6bvHJAylc8qB5IdpysrnBB5cnnEAbAOLY6CiraKwkzG8kATBMUbAtM0l59fKLLSSJdFP5vFUB90eA52sItxenZ0kvqNEnrl58f5seR+NDBioNfUc2HDzOmc298xds7odRoneWGDfr3CvNhfg5vlAB5uYypah0mOY+sjwRT1AxW2fdQbrWGhPQW7E0vsZlcD1VmKmJSE0KAEWcSD2IrSzz7NbA5+gkWFIDsOvwMM18MgdsySL+7qM/4R7COtESGimZ+g86LoQ6AQtsJQS3GJzQoEQCsdZaEqnnjPmGdNWtJIk6CN7B55w7bgfpalwr3Y1rJT2/RL/T3SldVYskc/gmkpaVx/NmDdlIOlZ9IJmlYyTW2SSx+tWczJA9bKN+tk0KlctQBgk0JdJPkj+1+oEi630MbUyIhj/qkioKSevV4cSFemm6ZuZV9NIPxqHVB56YGz4gl4u4R24c3YRgKU3VtaQfcxZRTTyta4LBqweaAO2Lx1o/6Yyjva7aQ9HkDL2m9xN4rP8NAkzoBrWJwgaxN7VvNsj4BtZQa8X8vJGa+RwcJreISoondPjwXClQq+HoZkUMKKHVdYc4mpVi0sDAxNZLqsO2Y4QwqiV1a+ZlHWsWd8pV8h6h9KMziwO6VqMD9XhZ9wUSVpkUlLb5r0paZiZnFmF0CsjUM4orJGvYJGn9+BXJHr6xdNatoBcAy9yx+iMdpdKAWctdkjNuR2n9+HnJHrGltC97R3JGTSbZe87Y7SU9G7OLBv5yZZZq5Akz6USARW98Beboe5FusyfwUkIsbe6tlcZ6JeT4HJSeNh56he7PwCQ+kDzqzolyA+0RPL+UPQU29cE8nPjMif5safiM+tm4IqDKTinIvDXMJ46I12n5UcpkqSjulVhDo4GAtEz6BQuwJ6e099Y1GpkYSVSHPkptv1L0kfZYOpqFVHbWZM3hWejGQdyJB6E+rvSIQgdZDqCWV4EjLI1W2nGkmdb5gU2nJHmqZD3GtFjW2gmhHLQ533t7bbhyeEN565hqJT0W3HR2CMVE0CFklCo6clRj71h7nbQsnCF543aU9sqPJWfYxow921e8LwWbHygdaxeSuD27YlNpW/au5G9xIC01st6543fmuJWcUVtTyNuWvMP4NH/ywalpbVIZJlwnwwy3OGHhwNJp3290TKthSJRgacJKGwR6WxczxD1dEsNziEo047HQJVaAS8KHTKYC0rrkmNpPSPnRXEOYCD35etRg2LP/nLPRzAsgT8P7TB3iEPHmc6N9QdyAcChc4nhXGi5ec4a0cDbSOiSxBq7f9ZPqHmutV91pxfYyAWxM84EL6tbXYyG6y5Z5CzLcNvncXGSWEhwbTBfbAn5D0aiVtsnwsOxIRDgoP0hK4WHDgqMk5A3b6kJpPKrjO7khjIBMIW9IZGitVzO1NhQrSFJpqcnr2rH2Jmn7dJqkZxdId2u95G2yt3StXSBdzTWSN2lXHZGCmBkMjzn5HGPSinlF5eMlo3CItC9/j8PQMNMoZ9wOHKPCgWdNazn+BFMJB5TY8tAhmC+c+FTVMlu9O6J+qQ35cBOjcddB6SwK2uhuoFnuVLVmdRU1S89XSNA176CIt1SlJn48RewayDj3W7ekBxQ767q7+/+8bnmrsITq/OFvepK2F8STz8GqKCF3mlGlsWi2tIOvbQCslENKk8eLDsy90PJQHN8LbKnGB9q+RSEIBh+bLrRykD8ALkJCD6iOq+R4R3tQQbHe4lgmvexGWXe1hQyQPx4bUejVkij0Mj5Ei5fhk+Tpins6X//OMZhMWMHiKoG71rqNUpRhntG2ek26u0O6WzGVMF8EYzuxEVvrJBMjT7o6dK5vThGFOCO/XLrbm3h8/IzJg4z3uzo5zRDxeaxpraTlFgtGjA7kxafGGjsEtDfGmdduiKSUEEgHGUSYT65FH8PMfP5vgIxKNPpaHcAKWpdW8LYLMhKaKahlAyVqKLAolBdjT1MifU2GSAjXuT80pAribcM4BDmW0BC76FQf9gyUkuIcklSmVWMS41vqLTd6vSZBqnC3titVb59lJAdy6E3YqR0na1XX1AG/wuFMgqhKgxJNUILRIdYseFuZRpktLINrUw28RU5n5jgKyTDCtCYa70KjxrSmFChvzxhqvGpk6YbD9YcT6A2CTcx9ZwO6DtyOxdCgAaGLu9uqF7DpNCsNS85uEmxAxoiafdaHFo+TaKVoQBLdTCod42XSRIetl+0oy+tqToEWKDE31J8QM6eAV0r2Q1DmWoklOacFwQ2Nu0w+F9cF71srZPL7CinVJGHUS11DO2lEQo1ZfU9JRUkJ6+bc9v5fr9ME4CKfVZxiwdy4aFJUiek0RHPUjbYwqtOniCs9c3Q+wKsFVPye1EvQTurtKbQy8aKY+8F5e7VzolMP3OWfyYW2THPUgoasmW70RAgdSksZwSBs2672u7pwCv6HgHAymwE3PFOssRYERDHDugG0Vqnvecba4g+ucPxndb/NC7DBWEywZebosdyF92S4JdAoBMwv6HQFT7To7jJTwQetD4Kau0vpRRW3jNZKV1YmpB6H9dq4tnEiNprDLeMiHJipQFn41/wdCmAoERh/3zKcoVJUYIGtVhsorqjA1bqGtJ81dLGueHxIdpJb3UNFhNyAdqolgjTcDhpPVQS22A0DBYwlxmh8tT4WAGtibEdNZXAYHgQzmRzu0Z9a9KtwsgGIsSX/AsUdP4YiEHGdvfuWndyeSdbQCxl0etT0XuPP+QtNYukDdyIwLR15QkE1obZfuRuseF9LSFFYsXkNdOFxSnhsp5V+nI4kXM7w4zvjvWKTtcEem1jrdcYSQYWtXoCWPQwUwgx1qMTkzdZhChY+cGhHgD0QYyu8UmPmuDVzmKgqssQGfReMSMob1/wpBBgr3N7VLvNWL5Caljp+qiy/RCZXbCY5WSFQBu6N3U42UT7ZuqIRA+5dVFKI/dROO9PLLKtSpNuaGBMHdWkLUUyb9b4Th9wml5rM3YUi9usKqyg/kJb2UjVGeB4mdWlHvVSzcuYopZxnPABZDneZpcpJMFikfLigh1QpjXuia6UDL80ghTyYL1CAtYne3YXAhQ2dnCLMjLItnmeqjTcJ2oYdOxA1CJVpUfM9LSZVsIRqAx8xaaWoUBN8MBw6LMAusCzWm/U0cIm2EmnJSoEEToMDgwuwByhjUdpCwd8Gk/lcIiZf4Dl0MCSgO2bTC+JWTQ/fp/Cqhos3cCRtHj/W9E/fltqWeou/06QYc3yzcmSXcduZocG1MG6wGndEDOZNGr08AE3QURVHxbxBKSf1gGrPXwQCHb6PwIOJSohpNpvrT+Uejkz1INqMoOimSCeQgqLVkJRcXVZp4PESrGLv8w1Afu0j3tSBPGw06itgZIlYVw54S/JWPB5WfLeGIV+QAFuhGnhjKyWE3YYgvjCLaPQdwdpQ29DVhYurtUhF6TicULOTQcY9+GY83oaQMUPMsEWhmO7dMsZkHkyTUgqJg4UClQ3gkRoj+7gQxWiHsuEGOcRpYx0tFpvoBEFtfretZDhoWnYKurqXIFLjGJQY4nVNhIWf4Zo1lWylXL1qNfuSx40bxzuEQlz06acybvz4gDGztbNNXpw/TcP/WI/kZOXKtmO2lJlL3pV9Ntld8rNyqDyobKKywmy3VDxtr5dtfGymVJtQJyWa5fata264K6eUUXrghfUWPlWOxp4R0ezvwquIu+hyFNeMPdmph6A5CpCJt0gVkLgq7gHEMxrRIh0oK4cUh46drAg175F0Hs3AWgkp9J4xenIUyxcnwI7AcXyyxrfuLviDDfx81oWtZYoZUGgXbHZPUKmFy0AiyayiYl9RSlBrpxBGZeWg9fNEEIQIFp6IKJ2969xOgVW2WFhddptmR1faBKurTZFQuAtjmgzYBKH9kb3G4w/cZ4MPmjuq8bjI6spKWfDxApmy9x4UtmenPicHH3QQnx4mRqCHGX9/e9a7MnbsGPJeY/OB/A90PojdHnv0UfI742+417XNtfL+ig9lcsWm8lHlJ7L1yM3kvRVz6VbvPH57GZZfohYsFfbX6tTRQIx4nbe39TScuHtNvaxInI0juuXPiA1cuJJ3scEno0pF3luue6APwgBaVN13UdqJ2yYAEfVlbeNwVbYI4nhB4z4MTWrvRK16PP8TXme9fA/pLLQJ6mZuYLDxE6/fG/th1AZkgWHBepeR+nYmeKOWfaU7wFKSag2WTsKtcOGHxzqtaUxiP6GazPqaEvClRsxGoaNWsuZ4ql0dn6GPTrOG8WHJ1uYXyqgSUOLZZl4gEk5OLmYILeOainWCOxqdT1rf089ZR5PFz54ND6CDBhXF36c++7zst/9esmLZSqmtq5fNNt9EXnj+JRk6dAjJCMqHlJOoYNy4sZxuAdID8IUtX76cFLmrVq5MEGCwi7ww/zUpzyuRScMmyrvL5khHN2h30+WATfaQDPa7R5HRGQ9yFFCDXqczhySRrHmOTrVZNJFd6H6jdonCHw1+GZkQU6pcSZHNZl3VmglSWc3U7qnuHre8UYkkv2ZF16lBiQs6RdJq/+bamxKIC2d0IUmPkeitBOfCHrb9HF4zXmdSYtATr2j2aW4bQBZ6fQQ4rLH9Z31o0FhxAWGHBzdRKIPrKXm2p6nrqg+d6HLDLCuiigbZXDEKcxCrwSpaRtGw0zpYOd0SafTTda0IsY5zPxFIYVQ4ARCfDfzK1AGLqwO4NbPsIA8okRisNmVbG/QdgYNrRxP8++/Plsz0NFm8ZJnssOMOtKyYZ7T33nvLnDlzpLmlNUGAUd+bP3+B7DllT7rVjz/6WIIA44Y/WP2xLK1ZrmG8YbPHlo6UrUdsbA0QUYgozZ5HsVd6vsKC9N5IKEMCpWShhCeSAiRiboyufSRSS70kw29GGE5vyEwtJCpgcVL28EE0fAsT7PW2vAF1rTGCRIJFbONocpLazBxGH6Ha+/o0ceVzjZNd5kS8RCDY9p047az5slbGbW1DQnaAdWA9aGQe0OpuetEeW/IB+4IF8Zd+X0s4asW0GcHLGIb/DFxfxCbxc4LsHF9UqJ4mtoA1RkOCCotmG+Na1AvwcXgfPucAfn6HrnWoO8STJjhvqOxCR8o9CXOLWPawdfE6JrOFeFBODUvkkiaQqqtr5JWXX+W1Hn3MkYJ49+23Z8nhhx0q02e8ocPSuntk3PgxUlNdy1nKn8xfIFtuvRVnJb/w/POJAmyZ2urmWllQtZgrtfGQ8TI0tyAezyfHV/A2AgrT+FP1jzHhFlFq8qfPdshe5SBzV1H7DgQzfuKgBBVq4+wlnUaSF03abgISSowmfx/niJeJer2rlpfncOEO7lg9ORoY86wo1+vDduJ7FV5hNFKtGx4S6YgSOba9Rt07RtbrioXHj/JhWB0YuHkwqtqwgrTvfe+/epAw8flEEIqy0kLt5kjxcq3tfr2Xb/Q83nmkC6xABWuNczfUCLsT4GR8z5IrrM2BZIwqQtE+LjrcjPYwmO21hTML7laQqRLjKtLAxQrxAWextSjyPSgfQ+DQhTFctWU8mRlH5tYYG5nMYUIFCTetLwdAC5sFxH7jWI/MnDlThg0fJpMmTSI/2EcfzScvF8jiwQmGtQTlLfiwMzOzpai4SD6c8wFHxTQ3Ncv2O+7AzyXHU0FSj0kzBZBEmDDr4grPBVbR5LNL6uJKtl7xnuiII7N5IfTMEr5M8dHzRPI2Gz1tmDYp9H1i3/vAKjMso/cVnYzC+wqUiM4IO95AlX+iYKfe9X3Jg9Mw9U53qaJAd57hFezBcfmZfPV4OH58utJaPA48InweDf1grelfgEsKOM83pQCrDtMELqB/Ni826G0NxC1OVBbv2cWihqbMUUi1Tc/stbU5GMKGWWWUcfAxZCqtsymeZtbLDOh0DOsMa2lN+3TrGaN7/c95uLRF0bWv06oqzY+2vnm50me2am1ZeZ7V69BkV6IFdtJuVWj6im8UVWjuzum/HiemSpJEJ54catg77tXe3PagK8zcJr0U85R8XYL4PfTA+R7T/70tEz0fAj4sa5MkvIqss+aE5IMToaDY6yjKVy0VabwdFfOqZ6TDyqPhk+bdmWudvIe9bqt/Xx+r2/uIQZxM7EPEzF/zOJPbDrVkF2q9DQ4d5w73yA9vtbRiwHx/LnRPt5SWFkpGHxbY9kA8uLfWwe7u9oQmZ8+IwprkIOtKy4aN7DhjxK7+QLU5Op1sBCZgKplG7aKUN2S5cM6poA9ThcDJTxLlxQZCu4vvJSNXHCEeLoqYbVjlwMIm0via6CE7BnHbdB3jw6Y1XneBVY2rOQAtvYSFmBsz2dUNhCGF4uRXzIF35cX402hZIjLDRLUZ91eCjKn5TVIsJtt8Hg6mSNrgViZhqcoI/ZKFTL0zTfgl34meUUdqqgvgrS1wGbXkBjphJOVcKJKv28tcUcfWEp4iAFOZH59hldo8xdfBQy6i/2y5eisVt7qWDDTXFyOEkPOIe6vwRnvXz9XNj54xRU/DQ05JWzcBhgvd701a1i5uW6z7iE68PsTd9thDTjzpFJK3B4Jv96zWLY5p9cRX1HmDuMqIy/xgegxDH4eggSqfiUW3Xsf1DGyQDHOr6IYqrMWsrcpZ+kNi6UbG46rwQ/brSIXSSdDniae3W0zNvBEJlrADhtcr2Wb09XvcL4jn8hM/b0qrr5Y5iy97Cbc9EwpGeP1MnaSgpFuXy+/3s+u7LqkUXu8T6vq0trbII//3kMyY9nrwEWeu1FnW8ecadU1UsY5ENOU8YAuMGJgtgH0sh2b44kV/JrPMZ/eEFfilrrjqGk4OHHwNrsB/2gqsWrVSrrz0kgCBpx6bh3Px1aAsBc09iaqNw9ggiBg/NFAXekACTH/RHENrvWLmTCvZbLnLyMqSa677FeccDcgC/ac94cH7/VqvQHV1lVx60QXBKCE6ICnKS4ZnDAUVujQ0jGStyVw3AcaX+85Ex2tZ7jp6UsLRM5jle+11N8qQIUO/1g9q8OYGVyBqBaqrquQXF51PWGwYYso43jLg8W4jK3uFuNT9mN4M0TzQhv7yUuOFTgEb01BGs6te3yITpeOdjeRtUIAHN/Z/8gpQgC/4iXQzuanoRI2DtUyJho2M9GylmrIkrNe2g+oF6Zm02tDamc6yU/8N/aUFmmToIxOtGWbNvBokOSgLOLUNxkDQAg8dtMD/yRv5P/Xe4ULDAneDzN8rJlp743wsJX/0YQMGjPIutxDpnoM+WttB69SfABuQg6cxAurkdJYH3T5twLNremmWrWVHTLpce8OvCVQYfA2uwH/aCqgAXyBdHS3WYKLgobAldpI9uNQxMpoaIIdlQ2NAtdJUC6GU6yDArE9FrLqXe/hWQE5nqCQfvYj+3owMue66GwYt8H/azh28X65AXIDbtIeZ7jAaf5QB1WtpCkhRltYAy8A2VpsGwrJrmrS2KXKrfyRWiNQuuZzE+lSIQTKdBAnO4ax8Qt4RlAELTAHGJIL+qsqDT31wBb5eK5CQhSaxvUNejafciDgInHFiCHLRpZPthX3AHp+mZUhr2wBmIzkW2peytwB7366yR7D/VqEk+hXrOILtzshMl2uvHbTAX69tOXg3A10BWuALf84yEtFckI0QNzknP1oNmMMALOw0SF/Q3ugYPPBCf2YLrF6z0rzyH8NSBd16nISgIHH0Jl9z7Q0ydNjwgd7z4OcGV+BrswLIQl9y0c+UvtyhrkEDjg4mwAyk+CxoG8jHrjjUgBXy6swvA2voDyWxfCWT68EBRlP9aQ2FrduHV0sgu0hmerpcc+31MnTYsK/NQxm8kcEVGOgKsIx08fnSbS2mAVsJieyzyL1Gq4vo0gRbSRvjICklGVBMRnP7uiaxzNomw9KZhXaaEetKsi59ScOcF2sQwEze667/9WASa6BPfPBzX6sVoAW+8KfoUYo3Z9C06hC4MFY/aMMNM7FarwE7+YjEggvdXzdSrFvKkyczEHitaxtw+/ACrI0vwx1puATOrAgOjZhce8NvB5NYX6ttOXgzA10BxsAXXyjdXSDYNwIKtN4GJIo2HshHiHoTSECOYYJug+MGPFolLsCG5KAPr03WQeeEZZXRnpWRqa2AOmoxPWBpADHbtdcPQikH+sAHP/f1WgFmoS++UDo729knrOwlTu8UpxJinzqnQ6IWrF1KirFw5lWwxXRIc0fPABv6kyxwOBOtxFtGu0qwRxyupWz5ztavDeHX3vi7QSDH12tfDt7NAFdABfgi6QIBBDO+mWp90e9OskeIkpPva2MtR9IYgWDAkU1Pt1NaO0CLvI51YG9u8kRWN4jOMenApioEQ4jJHOKzcLSzMyN9MAYe4LMe/NjXcAUCF7obhBBdHEHrbCI0e+QMyyBZhNJGpQfdR6wLs29aE1r4qXkgs5GS68DJmWi6yiEaITgFmGlKpoXODknLwghOLVRnZaTL1ddrO+G6vhzthRoajgX0SUS/+7oe9gv7fGdXl3R3dZEadrB18gtb5q/UgVWA0U7orDOGwOKgeCO9gGVGPdhkJhjIxnG4mIZpnHDp6dLSAsab/pJYEWUkrFrcAmMinRKzE8SRhtlASqOiUxaswaGnWzIzM0yA1w8Lffddd8v9991HcrgDDz5Izr/gfBKib2gvKJubb7pJ/v63v8urr7+2oV3e4PV8SStQXV0tl/7iYg6304SvsXg6TzaJ423OtDX6O1MHedaMM93zTgPLQvcpwDY7x7uQ6MdDgJmfFuVVjrPOw2peAyjleljgt99+W04+8SQ59bRT2U/8h5tvpgCfcOKJMmf2HPnGtt8Iphi8+847suWWW0lJaQl7L8EE2djYKFtvvbVUjBjBx4dLXLJ4iXw490MZN3asbLX11pZV75HmpiaZ+dZb1Ha77Lorj4tXc3Oz4NhYwD323NNI1HpkwYIFsnDhQtlss81k4qRJPPZvf/MbuevOu+TDeXO/pO0yeNoNbQUowJdcIl2drUHbba95yuRM02kPHDHk41SsVdfph7CDW1p10MA6YaGDRbEYN8xZG4wxUVFQn95J1pCdzs5VLPR6CPC999wjV11xpTz08MOy0847yZz3Z0tRSbHU19XLN48/Xh5/8gnZaqutZPGixXLgAQfI/Q/cL5O33FL+5/v/JXM+/FDycnOlra1N7nvgPtlu2+3lwYcelCsuu1wqKipkbVWVHH/88XLd9dfJsmXL5LRvnyrt7e2UcizOPffeKyNGjJCDDzyIMQkodwvzC+Txp56Uv/31r3L9ddfL+HHjZNny5XLd9dfLcccfJ3++9Vb5y21/kVnvvjPoQm9okvQlXQ8E+Be/uFhiXTpOlcMGUKnBTC7j26bFhZucaUMClERNqz2cF2VjiNLStZmhXwEO1YHDlJY0sk7kbVyr7Pu1ESpMWxFGqYPFMOYkPTN7vQW4o6ND9t17H1m1apVsvNFGct0N18sOO+4o777zLgX4iSefkC0hwIsXywH77S/3P/gAR5FcdMGF8vTUZ8nD/O2TT+H3H3vicdlp+x3k2OOOkxt+/Su5/9775C+33SZPP/uM/Pf3/4uWFp/B64jDDpcxY8fKpZf+QvbZex/56z/+LsOGDKWF/enPfiaXXHwxP//3R/8pd/zldsF1/vBHP5T777tfbvnTn2TGm298Sdtl8LQb2gqoC32RdHU5+UWPxLraJT0zV0NQlFyZ4wkBO2zwnKeZFKmlv7U0t7HDb2AN/Ub7GZBmOimj0ZuyQgUa0LRMY3TuVpYOuNTG+4P68LXXr58FxgXX1tbKnNmz5e9//4c8/dRTct5558luu+8mxx8XF+BFixbJQQccSAv87LNT5e9/+5u8MfNNjibx15tvvCknn3SSPP7EE7LV1lsFf0eCDFa2srJShg8fTgu8atVq2WTjjeXh//eI/OjcH8obM2bI+AkT5Ohjj5Hvfve78uorr8qPzj1XSkpLZfPNN5fLr7xCxowZI//4+z/k5ptvkpdfeSVwiTa0DTV4Pf/eFYAAX3bJxaEyUoboKJ+s+GB6a0xifGy0s07NqwKOsT06tnbg7YQlhc5AnHDHbCP0gU3MbvsUBiOyC3MTx2KSnpUl14LUbj0a+t9+6y0Kw+mnnyGlZaVy8AEHICYSSAAAIABJREFU0qr+5Lzz5OijjpJ77rlH9tpnb3n9tdfkjNPPkAceelBmv/++/P5/fy8vvfIyXeVnnn5ampqa6YLDSl9x1ZVy+umny7y5c2X27NlyzDHHyAnfOoGTD2648Qbe27Rp0+g+b7PNNvLBnDkybPhw+dcL/2IM/o9//kNaGYekS0tri/z6xl9JaWmJPPDQQ4KHNffDubLX3nuF6Y/+vTtm8Gwb1ApQgH9xCUfLOg+2jp5VKioO5uOUTe/w09G3ypZtA+lhqUGCjxi4uXUAFjhFEouBNrPOcbZ+JTu3rDBHRAIj7RQAMcnIWH8XeuWKlRzHCesGV/mJxx+Xn59/PuNNCCOs555Tpsj0adM4quTB/3tIhg8bLscdeyxjbnxv+vTpctbZZ8vPfv4z+eEPfigvPP+cHHjwwTLt9ddJdfvk00/JE48/IRecf77stttudIeRPLvxV7+SHXfcUQ456CDZfocdCER57LHH5IknHpfb77hTnp86Vc787nfkn//4p2yxxRZy+513yHXXXieI29+cOZMKZ/A1uAKMgS8BlDI+WI4eLRp+2Epo1SPIEWlls9WdJuBDmxjQZuit9M3NLRxcvn5JrECAvTffbb8hr4AeofNsQXdPp2RkrV8Sy9PmK5Yvl4cffljWrl0rxx1/vOyw/faSmZUltXW1cvttf5GsrGw5+pij+ZlTTjlFxo8fLzU1NXLXnXfK2rVVcsSRR8iUKVMYQyCh9dzU5+T5F56X7bbbTr51wglSaG72xx9/LA/cdz8HcH/7tNNk0802pcuydOlSufvuu5nq/9YJ36KwQsiffOpJeeWll2WnXXaR4487jqT1H3/0sTz11FPyk/N+EgyeGtzC/9kr4EisbvQHMCnVoSNnrMMIrjSmXNAak1Mdo3ziTQdqqeNEGJ9ZgF0rxGfkaluUJqEVKx3veugmRnp9s9D/2Y9+8O6/DitAAb4ELrRllH3IH8NQm8WcLDd93PhnFmDne9YZvjpEKu5Cm59Pvh+42zESuw8K8NdhKw7ew/qsAGPgSy+1fmDtGUi2quty3AEKcEzKnBc6+egoE1njPi4E6CwirwILDMnV34EkyfwMdeB1ubHBzw6uwIa4AhTgyy6TLrjJAQ7YBtStB0vc5yDARgJtbnlCEot1YEtwKaZSyAv9GcpIG+JDGbymwRUY6Aq4ABPP/zm8Bi7AJUXW/5t4VmaZg9m23n3kg6WTkFg9yEKnybVg5BgcrfI5PL7BQ3zVVuDLE+DSIh2olPRir6IxxuMt/m5ILPOjQ44B5rymkdi9vLx8EF74Vdt9g9f7mVdgwxNggjd8OLUOgg6y0Ljdrnb2PGprFPqBRa69Ae2E69eN9JlXcPAAgyvwJa7AlyzASmmZ8LLexIDAjg387kJ7gzLqwPoiJ9aNvxkU4C9xEw2e+stbgQ1TgBEDoxkZthjNDcZAyWUiw4ABOcDwkzZogb+87TN45i97BTY4AdY6sIE12OwAuFfcAvd0A6htLrQy/8g1N/xqkBPry95Jg+f/UlbgSxZgmtTeLjSzVyq0aCfUcNfhlJqlZmshemvT0uTq62+QoUMHid2/lB00eNIvdQU2AAFOjIN1XrAT16kA65gV5fSh+LLBQePgjAxMZoAADyaxvtSdNHjyL2UFNjgBpvgCVRLEvehAAhWIdyDBx0bLoQlwOurAg7zQX8ruGTzpl74CG6YAd3UqJYjyYmrDMeaYugXG39BxITobSZFYgxb4S99Ngxfwb1+BDUCA1WUOl5O0J9jJ28F3C4H1nkUwzKM9Cu+nK5Tyuus/JwFWMKmz9kU9jWBqRJhY4N/+2P7DTmiDBmqqq6WsrIytlH29+np+X7eV2yAF2Jkn2dQAQi5jDtA4OBiexCSWCvD6Ueo0NTXJSy++JIcceojcesutPHRmVqZUDK+QffbdJ5Io75yzz5Gbbr7pc6WexYb78Y9+LL/93W/ZSD3I+ZwoZsh7XHv1NbJ0yVL5w5/+SF7sqBfYQo884gjSGoE1dMb0GXLeT8/7Wq/nhinAFNp0UmCqce7S54U2QiOz04blTMnIXH8BXrNmjVx6yS/k5j/+QXbYdju56Y9/kOzsbHnrjZny8CMPy9333C1bb7NNwl455eRT5J577yHpHAQPFiEscKCaBftkSUkJmSbBMU3C+J4eaWxoZNdIaWlpLyty+mmnyx133sFmfhAD4Pthfmp8H/xdOBe+Hz4nFFFba6sUl5Tw+vHCdYDGB+/hu1HnxOcAgq+rq6NQBFS3TU2Sk5vL68artbWV1+uC09LSIi3NzVJYVMRz+MuPhe/h+v0FwaqrrSPRePjacV1gOsH3/PogrC1NLdLWrmuAY+FevnX8N8khhr/h3FHXh/XafdfdZNqM6fL666/LKy+/IhdedCGfQ5i/DM+hqBhQ3q/+awMRYCxkqJxkYx4CBFaPDk+M0W11NgGdRP5ZLPDq1avlsl9cSgHecfsdyHMF4jlsLLx36infludf/BdZNPx1ysknyxFHHil/+P1N0trWJvsfsL/8+je/oUCB/uaqq66U/Lx80ulA+A8++GDZdbdd5dZbbpE7br+Dnzvq6KPliiuvSNg9EODzzvuJnH3WWdLV3c2N+s9HH5Xi4mJpaW2V//7u9+Tj+fPZ97nrLrvIH2/9E1k8/vbXv8l1115Lwc3OyZa777mHvF4nnHCCjBk9Wl579TXp7OyQ44//Jsnx8HLhb2xqklNOPFGqqqqls7OT9LUHHXwQWTS//9//JTvvvDM/f+MNN8rIESPk9DPPkJdefFHO/9nPJS8vj9d1+113ynbbbkulBSGrXFspXZ1dtIRX/PIqgbB/98zvyKJPPxVMlthv//3kN7/9LY8LDrB77rmXXE6gMbr0sstkxozppCYCM+JGkybJQw//n5xx2ukyY/p0KSkrk5defkl+9tOfyve//33ZaeedeS+4PnCMnXb6abL7brvLtOnTAgHef//95Lbb/iL33n8fz1NXXy+nnHgS2UK/Dp7OBivAOg9JLQAHMTkmOmEGaY9kZK5/Q39fAgw9cehBh8jvb75JNtt8c1cbAgu84447yA9//GNpqK8n3/N9D9xPK3bOWWfLrbf9mQI0a9Ys+a/vfV9u/sMfZM8pe8r+++5HnmlYscsvu0zO++lPlaXSXhBgbDAoE1iLRx55RB55+BF59LFH5ZZbbpHG+gb5+QXnU9B+/7vfkZZ29z32kAvPv0D+/JfbOOD89Vdflf/93f/K3//5Dzny8CNkzz33kAsuuoiK5qRvnSCXXX657LLrLsE5X3vtNbnx+uvl0ccel3kfzZP/e/Ahufraa+TM08+Qc37wA7JzQpld/curZeTIkfLd739PDthnX7ntzjtIwzv/4/ly4w03yB133yk/OOsc2Wvvvak4QMb3ve98Vy67/DJ5+umnJTs7R3704x/Rs7j+uutIeH/SySfL/vvsyzWB8kFTOvjIoARuu/0vstFGG1HpHXb44bLRpI3ksEMPpdDhek4/9TQ55wfnyK677cZ7wfWNsutLFuBf/OISOeaYY+lNodT4wP33ywcffCA33HjjV9/8ipDoEP3A//52QnYjhV9JgA4fDZFQ+7X5LgbwwMPMyFp/Sp1UAkx/oKdHjj7yKLn6ml/KtttuF7LAp8gtt95Clw+vq668Sg477FCZPWeOLFzwiVx7/XXBZ3963nly3HHHy5S9psjll14mK1euJL8WNt6wYYnAEwjwNddeI+PGjeP362prZa8pe8nU56bKD8/9IY+Rm5dHIV+xYqXMfPNNcng9+8wzjOH9dc/d98jr06fJkUccKRdeeKEyWIrIeT85T3bcYQf59mmnBp9dsWKFnPU/Z1Eh7bvffrLrrrtSmE499VT5wTlxAb7m6qtl5IiRtJ6//e1v5U+33JKQ6IObvvNOO8tLL70YTKlwMrWjjjhSDjjwALraiIY+XbhQPlnwCZUMwpfKyjX0SLAmIArE9T/77DNy1FFH8W8QZLwOP/QweeqZp/nzaaeeKuec8wN6NrCiV//yl7w+KJhkAb78isvlvnvvk3nz5tLDgDdwxZVXyoSJEwYFOGIFBt4PnCzAFNgQJYiPUPE5SGkxHcLkrYUG+MjIzFzvJFZfAkzS9332leeef07yCwoSLDBiYGx0KBBYoL333kcWfrpQ3nvnXfn1b9Wdxns/OPscOfmUU2iBcbzOjk65//775L577pOnnn2aLZBhC3zxJReTBxrfh2bde8pe8uLLL8lPfvxjWqeiQii9HsZ0iA3BiDnr7Vnywx//iIdBrIlzTN5yMgUYxPG77b4737vwggtk8uQt5fQzTg9cR2htfGfJ4sXyv7/7ndTW1pG8/rvf+a6ceeaZss9++/K+f3HJJTJxwkQ55NBD5corrpA77rqTx8Q9IheA+HjnHXeS5154nqEDXvg7vI2TTjxRLr300iAG7ezsoqsPwcSatHd0yP333kvL+OQzz0hBfr5kZWbJo4/+U37/u/+Vhx55WMaOHZsgwGecfrqcceaZst9++/Fcfn2pBBjEgfBI/vHoP+XG62+ghf86uM+49w3IAnMLhnQCxkQAeQU2PSO0w8gIJLIYkiLB1S0ZqAPfgG6kdZ9OSAG+9FK56eabZacddpQXEQMPGybz58+XH/7gXPne978vJ550YoKewiSGu02A8cYN119PAd5i8hZy+CGHyq9+8xvZY889OB7lisuvkD/f9mcKEVxDfA+W+9ijj5bLrrhCtt9++wQBRpz417//ja7exRddzGQNsq5//X9/lSefeCIQHFjHs88+SyZttJGccPw3GYdOmDBBHnrgQdLZ/uGWP/UW4PMvkC233JJxrL/w2VtvvZVxM2YxIQR4/l8vyO9++zsK9S1/vlWq1lbJMUcfTYH+zve/Jwftt79cdfUvSbf78ksvk+b2zrvv4igYxNq4L3gPRx52mNx1zz3kwJ458y3545/+SDfvrP/+H/npz38mkydPlhO++S256567pbSkVI444gi5+upfyuWXXS6/+s2vyc551ZVXynbbbS9HHX1UggBDaWIG1Z/+fKtUV1XJMUfp9VGAk5JYl19+GS0/1gz3dPY5ZzOH8XV5bWACDFqQeMKIvcA+B4mTCXVAsXNi4SFkpKfJNdfduM5QSjxUbLS777pLfnDuuYxXi4rUrccAswMOOED23mefXvStSBhdcOGFQWb54f97WL7xjW1ki8mTGfdinEqsO8ahZ4VFhbLzzrtwUsNLL73EyYLInu+0085yxplnBJloWLJf3XijHHuszj+qqq6STTfdlGNWkCzq6OyUB++7X9544w12WWII2mmnqyC+M2uW3HXXnbTKFRUj5H/O+h/Gq1BM3z71VAoKXrfffjspcQ866KBg7yK7fOcdd8i8ufOYDDzp5JOobJB4uun3N8lHc+fKyNGjZPjwCgrUYYcfJnPmzOGaNTU2cXIERr6MGztOOjo75Oabb5aP586T7JwcOfSww/h5WFkI+dtvvc0sNFz1k046iQm4F/71gjz2j38yXNl5l53ltNNPl08++YRrgHh57JixcsFFF3KdYGXhAqt1x/X9nm4xLL5fH0KJH//oR/L7m26SDz/8UGa/976GDGlp8uknn5Bg/+VXXwme89dBiDcgAY7uDcaD7sGAYmCiaYgdZqmCDgFeHyileuCYHWMEYOaS07Zz6HGCKkl41slAAX7WwAbKjq8vjnVUZHfgVqdy3YKRj30SkWEglR/cObPtXH4fNqzZ7yN5k/a69vAa9EOCFvldPZHGxE7EQEVr62jHD3/XwTDmWsW/Zxc7ECBG+PnxeGAxDd2sDvpSYgi8/+D9D0hzSwsV3NfptQEJMJY1MZGlFtc7k0zAjTOLggBGDtaBgcSCCx1+hF+nxzR4L59lBWDNd9lxJw6k8xh9MAaOXtH1T2IFzByJDB1BQz9Vus1ysbGJcKVRL7xuPZFYn2VTDH73q7MCmKTx8osvcXgcQoWBWPivyt1tYBY4hRWme6jDmNQn5dxC/v9ZkFhflYc0eJ2DK5BqBTZ4AeaFg/PW5rrotMI0HVgMwOVnqAMPbovBFfiqr8AGKMARyawgweRslcoXDa87HUiswXbCr/o+HLz+9VyBr4YAM8uLNsJwHVgzv+C+u+aGXw9S6qznBhj82ld7BTZAAe4dBxv9lQ4wRvI5wEMrpc611294vNBIlAC44B09X9Q2wXlQz0W9+IvOrKKm691OlowYzPx/UQ92gMf9aghw+GZAK+tjE8mJhTLShkepg8YA4JjvuffeAT6Kvj/2nTPOlGuuu1ZGjx4dfBDCe9GFF8pbM9+SZ6Y+m7JP9vO4ALT07bj99oQ7jh83Thobm3jYnNwcycnO5kxl1FrRTw2gxuDr37MCXzkBJlza0Aw96TbcbAMU4JrqGqmtq5ONNpr0uTzJffbaS+6+516ZOGlicLzFixfJz3/6c7bKhftdP5cTJh0EmOnZ779PxNkbM2bIBedfIGd+5ztSX18n06dN5zXce++9FOazzj77C/cGvoh7/CoecwMV4Ag3OrS6GDkaI8E7KHUy19uFRgvggw88aCgikXPO/QHhji88/zx7Vw8+5GA5/pvHS0Z6hsydO1fuuftuqa+vZ8fQOeeeK2WlpdLc1Cy33/4XmTt3nuTn5ck3T/iW7LHHHvLWW28R5njiSSexDxitgI78Akb6/AvOJ2Txlj/+SZYvXy4VIyrk7HPOkTGjxxC5hYb0hx58iNDLAw88UG6+6Wa55757ZeLEuAD/8Nxz5a03Z8p+BxzA/mLgsoFR/usjj8jvb75ZFiyYLw/c/4BUVVWxeeA73/suu3YeffRREgC89977smrFCtljyhQ57IjD5fbbbpNFixbJtttuy2uBW+4vtDH+5Mc/kSuvupJrgaYAdAfBbUcjAvDj4CWrq6uVrs5OWbx4ieyw4w5y1llnsfkeYIq/3PYXmTN7tuTl58u3T/02u58AAf3/7X0HnFxXdfd/+mzXNq3KqmvVu2U1yyqWi2RjwJTQEoppH6EEQgmhJJCQECAhAZN8wQY++CWY6o5sq7hJVu+SZfW26lppe536/c659742b7U7q93VzOo+fkbSzJv77jv3/u/p53zpr7/ImUWUgE/a0fv//M+xePFijgzYs2sX/ud//gfNTU2YPHkKr5G1iEA2gq4355y1AJbVq3gDfedf/jX9WOhkElSRY/mSpfjy33wFb3v723kDPfHHP3K2ComnlBdLAKT44btXrMCPHvkxb7qf/+zn2L9/Px75ySMccO/3+vCVv/0qDh06xAkBf3zyCY5bfmH18/jP//tfnAtMiemVlZU4dfIUJ+BTksIDq1bhr77wBQ7kf/GFF/E3X/4yNm3dgtOnT3MS++O/eRxVEyfgX7//Az5oqFSMlQPv3bMHjzzyCH72858zHeg5M2ZMx+c+/3nOdHrXO97J+b3z58/nGG16P5rH97/3faz+05/w+OOPo7S8DO94+0Mcw/av//5DTJwwEQ8//BHMnj0bn/urvzI4KQFw6uQpnFB/6tRpPiwol5eA/dP//m8EA0GuNkIFBn79+K8xvLISH3jv+7Dinrvx8Ec/io988EOcB0yJDJRUQEkhj/78Z5x9NXP6DDz41rdyOiXFQr/n3X+GF9eu4YPggfsfwO//+Ac+gCj++cTxE5xz3VVdrN4ESSaPlX0A5pI65uWlZAYyYvWgsDtlI33us5/D737/OwbsW1bdzxktc2+/nR+wc+dOrFuzFh95+GE8/vivOTmf7mPDUWsrB+ETaH79m8e5/A0dKr99/DcYP24sAsEgVq9+Ho8+9ii+/rWvY+zYMfjYxz8OSoX74Ac/xIkAf/l/PonHf/tbw9BFm5oygF5at551+7/6wuf5WQSSWTNmYvXzqzFmrCmSKwD//Be/4Pnetfwu/OEPf0BpWSkD9trVa/jbr3+Nv6Nx3vee9/Ih9Ktf/gq5ubn4zGc/w99RssHBNw5yFhDd9/JLL3ExgUd/9phBaAVgSm88feo0Pvrww1yCh2iwcMECnvdPHnkEkUiUpQu6Vv9pNdatW4uvf/0bWL5sGbbv3GEY2yhhgdIXv/ilLzKA6dCjbCl6/qr7VuJrX/8aH7Bbt27jedIBRRLT+9/7Pk5IsBZDyGSA9fXcsg/AMnFART2TCE2dGXpSVlblA9NGJYvx/fetxO3z53F2jboqR1RyPjCJ1f/0z2ayPn1PIXrEwT/5qf8jspZk8YFFixbh5MmTDODHfvYYKHH+K1/6MoNn+dJl2LjpdRw+fBif/PgnpL5Io4lgfAr3++Uv/h8qKirw4Yc/YoBvzqzZeOqZp20itBPAdJisWbeWDwRKCaTD7fNf+ILxLh/+0IdZBP79736PiorBnFNL1xNPPIED+/bjW//wbf43SQ+P/fRRTl9Ulm0rgEnM/u4//TP+5/FfIyccNmpp/ehHP2JOTCl79Dvi+H/84x8YwPfcfTf27t9nZHf9+n//l7nt337tawxg4uZVVVUM4He9852csE8FEKhgwZ1LRFECVbmUsqxU5lhfAyTTx89gALsEdEhqkg6sLgIO9Ua6EQA/9vOf8XD/+O1/4KoXxBVoXCrpUlk5AnNum8O5qwQgqqRx5PAR/PSnP+Uqkh/8i7/AZz77WcybP5/zd6l6BZXLoYqIq1evZgDT9bGHP8qVLs+cqcbXv/F11Fy5wjm7xL1JPCSQU6mdf/vhD7Ft61b8x7//B4uOtFFfeuklfOYvP80lZaw68J49e/CTHz/C+bh0WQFMZWP+4VvfZnWACu+RAYoqdDz/wgv4wfd/wBzswx8RAH7yiSewjwD87W8x8MhI9dijj3UKYBLxqQ4VSQRmNlcSP/7Rj1jy+NSnPsXjbtiwAX/8/R/wvR98H/evXMU1uZYvX87J/n/xgQ/g45/4JFfrIOnimeeeZQDTRaL/pz79lygpLsGXvvhFpjvVBtu5cxeefvJJ/MN3/lGL0BIAGQxgmmFqA3DmVcIdzBeJmv/Yw84MJKJROZZHfvITI92PqlFUnznNdZwIPFTviowmtKEpd5ayWc6dPcu65PiqKuYS73z7QxhcUcEi3sKFC/HP//JdBu/aF9dwjSu6nn7yKXznO/+IVzdsMLjHnt27uaQN6YsXLpzH3/3d32HVAw+wsesfvv1tPPPU0zwuPfPSxYv4r5/+Nyfuq4vyXUlU/sn/FSVuqOrE088+Y+QqP/boozxvKvh2+cpl/OQnP+FCcKRLlpcPZkMSXc8+8wwOHngDX5XiNuXu/vIXv+BxFUCpaB0VPSDD1ZkzZ/Dv//ZDLotjXMkk1+4iAFPBObo2vb4Jzzz9FBc5oAOKVASiJeU7v//9H2B9ONLRgTsWLeIaYFSggKxYH3r/n+Ojn/gYlixbhh//x4/w29/8ht/hytUaPPXkk0wTfQkKZCWAiQH7JBfuKYDp54l4nLkBne7qIqtoXW0ti7TFJcV8QIhexUBDXT2XOyVgk9tGZbXQ5qaSrxTkoMrMkshJgQ80NuuxsRiaGhtTCpNTYnxzSzPrhnSvKsdDv7lWW8slb0qKi0EVJOl7P81HXqQbUxCHmj/NgZ6v8pMpg5oK79Fc6B6y/tLV1tLKyfXKykzzp/nly3ciGtC49J5WDkubhcYndYPoRn9XlwoooX+Tfk2ToCR/9Wz6N43Z0NiAYCCAQSUlYuxkklURsglQdRW6qNQszU0FjdB7RToiyC8s4JI7+jIpkJUApukrMbqnANabQFNgIFAgswEsc4DdCK3EaA3ggbAN9Tv0lAKZDWAWBkXaoPPSAO7pkuvfDSQKZDiAidTXN2RpDjyQtqN+l3QpkAUAvr47SQM43SXX9w8kCmQBgK/Phckq21M30kBaSP0utyYFNIBvzXXXbz1AKJDVAKY1CHg1Bx4ge1G/Rg8ooAHcA6Lpn2gKZAoFsgTAnRuyKJXvOz0MpcyURdDz0BToKQWyBMCdG7IIwGTEKist6ykN9O80BbKWAgMCwJoDZ+3+0xO/QQoQgKl9K8XM98Z1A61Vunq8+wSp3E1Pmpt19TT9vaZANlAgiziwux4seiNlXlXKbFh8Pcfsp0AWAdhdD87UsrLZvzX0G2QDBTSAs2GV9Bw1BTqhQJYBOFWM1hxY7+1bmQIawLfy6ut3z3oKZBmAU/VgzYGzfg/qF7gBCmgA3wDx9E81BW42BW4agEuKRbG39C+7P1hz4PQpqH8xcCiQhQC2G7KofvM/Z2B70YGzRfSbZDIFshDAdj2YAPz33/oO107Wl6bArUYB6i7y7W9/u/9DKUmEpqs3xOhFC+/Ae973Aa5HrGo19/lCquLLLgX3qLsgNyXnWnz2gnysNCSTopFKaq2+tKataMfPSXq4qyGPadFMRF3nVFVFNIdTExD/EgWl7VMQ9JS91VVjdblu5tjmj3hOHnNktxdyWyPrPnA2Ku96TV0mLt+6cxKbv3H/tZj59Z5N9FZvaq6Fordj3eVD+Fum6Q0uPsDdLX//+99j8+bNPNfeGLPbsdA9BrCj1CwRw+vxIidXFAK3dm3oDhoE4e2b3PjkOjq6gIQAqir8bi6JB0lPXCxu0rmQcTEtj88GHzEQ/Sd6LCnQ8XMSCXhk0XPrO8Xb6xE5/wbC4xbze0euHEa8+SoQi8ATLoAnlI944yUEysbCXzIKHef2ItFaD28oD95QLnwFFYhcPIjA4CrEGi4iPOK2VJIlqTw8gdLPnZ/k5PkzTzKOpMcrACu/ErST//DQu1gvD7dL5bek7yxf8ttz83Yvf2e9aBmSqjqpVxw0BoXoHOTHOX4jzjR4+Mf0A/G9CS8PEojz9x6v33Wr0FwFMOxj88onYvDQGlrWRYGY38MXsP+O3pvWJRDuFbCppncE4t68+h7APNtOMi8cnQu782LXkwC6lA54gWlzmN0SBKypgXE8ZWOIzU0bmCDqAHYiKu93nswmaGybmrZ0Wz06Tm+DN5ALX9EQJKIdSLQ1IFhxOj3DAAAgAElEQVQxAZFz++AbVAlPMIzopSMIDp+O6OWjCI6YgejFIwLAhUPQcX4fghWTEKu/gPCYhS4kowOHNnDqQSQ2tvVz+rugSep3gi785i7cR9A6waBwXolkQjSOI/A6LgHQBJLegMt3Yi5JlzHFGSMB6nU80/KdAr45OD2PjqgEvC6/Y9DTnHzmfJQUwwexz/2w6M5e7Y970gYwb/h0rNGG6JoqFvI57P5xp+/eUwDbOE3K5k5IrmyHaTJJXFlwMycYBddKPemRJK7kXHTBVRIdTWg/swM5VUsZSNFLh5CIRxCqnIn2468zMD3BPLSd3MSgjtWdQ3jUPEQuHuAN5mcA70dg8ETEGy8gPNoK4CSSfAjR5k4FjvjOCmBFkQS89B4uIE3wIeWD13ngcctWAi9x5dRnUTN3+l3S5TtPIomkE0iKuHHRBD4VhLTp6GDyyPdz2R4sDZhtdYw7mPTiOzFfK7Tp4CYuQutlEczp/RJReP2h/sDgDT2j7wEsWBzgcefC6QNYDZj63tc/WOyimW0ZeTM6OYnoK+wmjgmQOoFiFVetECKok+gHJDqa0X5qCz/a4w/Cl18OxGMIDp+B9pOvMzARyEXH6S0Ij12EjrN7kIy0wuMPwZdbzBw4cuEA/BUTkai/gNDo+dZ9CiQi8DBnc4KKaK/Aaz0xBTfsTCTlcRyqvyF2QqhCzkvp1A5NROwByoFlrkxAU79UwHGXHNRdnkQcIOC7SgPE8Qn47nvCQ+/o4KQ0Tz7UaB3psLFSTXLlTOe+9Lb9A2Cma+8A+HoSwHW5My8W7UbnphM6Hm8A2yV1X9psDv4r/ukUUUncjLtzX0Jv0stci/RdYX8i0VSOQ+JbLAqPz4ckiXvxdnj9YaF/xgU3E4/0IhFrgdefxxzJ4wuKz1kiUlY4p1UrIbglA9su7rCIzAasVDWA9EKvGt/y/jwnYlouOr4QnelVU/VbPqj5vVO/Y7Fa6qGpEBT6q9ci4tqXg0RgOhhcRF1OmqfJEvdNXS9hv7MeJkxM5sq0Ftlw9SOAldHHTpZ0jVjXAzDrT52K5IoLWZ8vwCvsu04dVwHH+rkpOjpBzHq0zVIsscXGE1MsFHepe5XlxtQ3haGNDgLiChbzmAKpmqdhOZaSBW9ip1QgwOYuRSTYaOQUj+WsxZu4icd0cLCxKxX0JI2yCGwYCyWtFbejQ8Q5pvXwYSuW87wk41sCcNNF2aZBv+nEQszeA9KpU0V9Ohj5cwvwFRdOxiMsPveW9bkvD4IeAfj6IOpsuu4AprvTF6M7V5wFgO1iIuuyzHmd1lKpVzm5MgMo1RBk3dxOLkDPgDfgpn3KWx0HRJw4LnEN5wGhXBbm5+JtEizyeXnDdc9wBpIIGBRO6UKYhe1Sh9SJpaGPLbYOYLBu6/I5z07SOOFwSfEBog4tF+MUicYsOTHHS5Ue+JNOdGYCIR0YKQcUn2nCHpDKeYXVnZ/p4NoMWGXQ6wW3UV8CV43djwAWm9DtShfA1+O0KWI0L5QQYe2XOlDc9LgoPGyIcrPkuolWwlItOLl50YYXlk8XEdWFWyuQCnHXegkjm2BWSvRW3C0mPWNqXpIDWlxI1pFM6zGN47DGS27IG9/hZBaiczLFkmvoxKyepK6uJyGlHAcdFFjEj+R/yrelhpHGMD54ndimg4Yd3u7+1KR05bmKzmycI2kg1Rvh4YM12DlX7w9UpvGMjABw+mL09URl+3fCWio2v3UxxQntRTJhBYSVcxt8w+QgvGncNr27O4V1MxfuJ/ynfnsABSuPqYYzsdGlnu624QygpXJ4lgjkx6Y4qJyyFh1cnQWGpdpurWULetLFDSOFHbJWw291w4j9z6q/stbzGlgCIqSl1+MLGGqPsT6SEzLtUkRu5fYj7ut3D4Zg949TglJKONGYdAfz4Fb2eBnT4q5ypAGq/ry1/wCsRFvnKUvnryFmdf/VhdPeTfdxglsad1isEhtILJgAnZVj8xQTETbe2HVpNUEZ/eTgjqlGMJqD0GPddEVroIIxFAVZyCAF60an6oWXLl9BxeByNDU149KVK5g0oUoIpdIXbcYXqdFEwArPSwKA6LV77wFMnDAWBfkiMcV2oPE6JHC55houXbqCqVMnIeD3Ix5P4MjRoxgypAIlxcXG76KxKDo6IggGgggE/RaXkWGtEsalTlw7hjRmOeBojps3bcWMGdNx7OhR3Hb7XJM8au1YChGHslh+p5SU4PdIVU/oZ9Im4KZPkyjP0npm+32dCOkxgHkD9ZI/OD0AG+el06gqNrXN2CPELKXrmfMV4BecmVmfSRcPwYEsxlZzExlSKALICXhypUjR1kZZZexKtWA3NjWhpbkN5eWloMysxsZGxGKk23oQDofR3t6BcDiExqZmFA8ahEikDete2oB5t89h8fXQkaOYPnUycnJCyMvLRyKewNVrtQgE/BhUVMQMq66uDvF4EqWlJTyr2to6+P1+vPLa61i6ZBHy8/JwrbYORYWFyMvLRUtLC2rr61BRPpjnsnb9y1h13z0IhYI4dfoM9h04iFkzp2PMqJEcw3v8+CmcOH0K4VAYLS3NmD1nFoYOHYJIJIKamqsoHlSM9vY2Hv9abT38AT9brfPz80HB/AX5ucjNyUEklkTttWvIy89HR0cHz5fmmojHsHnzNrz9obcaa9rQ0ID29naUFg/id2nriPJ7lpQUM93EO/rQ3taOsvIytDS3IBaLobikWFjaaZ0IwLwfHJZncXKbe6UTm1j32Uv/3dl/ABZLkeLKUB8rTai7r67il533W4En3DqCC9o5bVxaX83PRdQRcSUBOts4hnpnH0f4UAns9lkQJyGwOQ+4+oYG7Ny1F2PHjMb5CxdQOXwYA3LCuDE4cPAIZkyfiuqz53hzB4IBNDU14bbZM7Dupdcwa+YMBvbmLdsxZ/YMHHzzMJbceQe2bNmOoUMr0NTSgqDfj5LSEly9ehXhUA5C4RCamhrZV1heVoY3Dx3B3Xctxa69ezF18iTs3f8G5s6ZjR07d2PWrGk4evQk7lp2J5557gXcd89y5rDbd+zEyJEjEQwFMXrUSBw6dARFRYNw+cplBrPX58W5sxew/K478dqrr2P0mNGouVKDWDSK+Qvn48UX1mI6vVf1Webm46vG4s2Dh7FixTKsf+kVjB49mt+zob4eK1fdh/XrXsKcObOwefNWvP2htzFhT58+g+PHjmPw4MH8brfPm4uXX34VkydPxtEjR7Hi7uV47dWNKCzMQ05uPs5WV2N81XhcungZw4cPxaTJk0TYJwHXxSDGYZb0vyzjvkSbfgawPOlcUJoeF5Z6UCfGaJML210o7LxncJn6kQkycbikAJhB6sbFVRKA1JUNFJvj2ADsSSIejWH3vgNoa2vHuDFjcP7CReTn52HyxHF4ZcNmjBo5AtVnz+OORfM4SGLt+ldwz4pleP7FdfxnQ2MTDh85iuVLF2Prtp0oLS3Fvv1v4K1vWQXi7Ju2bMXyJXfgjYNH+PCYPn0Ktmzdgdkzp6OkZBCeW70Wy5bcwdz34sVLKCwswJTJE3HgjTfR1NzCzx87ZpQB4M1bd4iEEwaqD9OmTmbOOLxyGAMiGhNW/KtXr2F81TgcfONNrLr/XtTX1WHnzr2Yv2A+1ry4Fu9810M4fvw4GuobMPe2mXj11U0YPWYMduzYyVyWpJCtW7Zh1cp7sG79q7jtttnYtGmLwYFJrJ40eQJKigoQS3px5vRptLa1Yfr0adi7Zx/y8vJw4sRJBj79ffXqF/GOd74NZ6vP4fz587hzyWIkKBBERmOlbD8CN1usXSLrustRbtJ9NwHA7lw4XQBfT4RPkEMyKfy41kURACbLsGlhNjltwuYTtQJb6IoOoLIRzNSXbAeBTAqwifOJGJpa2nDsxEmUlZbgzUNHMX7cGJw+c5ZBtGv3XkyZPAnV1eewePEC+H1ePP/iS7j3nuV44cV1LMKSmHzk6HEsvXMRtu/cg8Hl5Qzo8ePHoqmxCe0d7QzChoYmPqiIg0ajxHmSGDy4HLt278OKu5bg1KkzzP237diF2+fOxtmz5zBmzGiWDu5feQ8D+N67l+HEyVOIRGMM0GAwgCmTJ+ONN95kw9TIkcNx7Vod8gvycOH8JSy+cxFefuk1TJs6CZevXEVDQyMWLJyHF55fg3e/+x04efI06urrcNucmXhtw2ZUVY3Dju27MXXqZAbwhQsXcf/Ku7D+5Y2YQwB+fQvuve9uFrnpwLt29SoqBg9GzdVaTJg4Hlu3bMf0GdP40KDnbNm8FbfNvY1VgtV/egEPveNtOH/+AnP+xXcsMINerEBjQxrtE79r8slNwmRaj70hAKetB19PjO5FfzAFrlPEj1ekt8inKquO0HHt66gC+k2dVWTUUCy0jNaRP7gedzeC7Z1iOOvP4gCoqanF5cuXMHFiFetyFy5cQEtrOxuDigoL0NDYiBEjKuH1JHHi5BkGeWNjM65cvYohg8tRW1uLkSMqcf7iZRQU5KMgPx9vHj6KvJwQi6M06+pzF9DW2oqJE6oYbCeOn0QwFEJ7WwcDjyhCgKqoKMPg8sGoq2/AqTNnMKmqCjm5YRw9eoI5Mc2PDq/Ll2sQCgeRm5eH9etexrJld+DU6XMYPmI4zp09x2Ckw6W1tR3Hjh7DsOHDsX/fAeZ89OzJkyehrq4W7W2tGDqsEtXV1SgfXM6HAonkdBA1NtRjfNUEnDx5CkOGDuFxx4wdzSLz0CEVOH2qGi3trZhQVcW/I5337NnzfGAVDSrCyRMnMXTYMAQCARa3J02ayFJJQ30dRo4YYUtWMNaeFjneAU8gJy3QZNLNNwHAnYvR6fqDOzOiuflfhfFSBOc7AxhY+mU91269YNeJI9KHnyndQ3a3lBKdLe4JwxAmA//l+KQ7Cmt4+kYwEavosLzKbCoWA1Mdpq7chZ5N3MdnCZc0rPTXScuruXoVB944hFg8xkan2bNniv2cTGLTpq3wef1obWtlgJKIy1/RexK3s0gyCgQizVFkL6Xqp9JgKQNIXOOgWTQWh6yrz9dxAJvgExFsIkoui6xWjtPjhgHcMy7sHtCRrhjduSFLAMaawC3mKT63cV+OcFI+Tkv00/VyS5UbwwIW4TYydWVFF7d44wT7OUWWjNdLflB75JgY1itjnM2tLmJ+6XPLPPlBMijfhTXQvITKYH9rAVa3bCIn1SxbXtKEYp3FnE0fOlnpyZJ88XINqP/VsOHDzHhpCTKnD12gW1p/3RIj5MHUef6vDJ9xicsWQ8sECbdILnquShfUAO7EmtSprOEAsOKAafqD3QAsxGfa/i5ickrgvnywI+pILL49hlmyGQ5o4NPeeQyo9DobqIXOrVL8bNUg2F2VqlurABNydagEdfEoGRTicHuJXGZ6hkt+bWcJDkiwUYcODyfXilManWtIKLlhROgicVKrH5mTEcj1pqQDB0MThQQ6SQ6IR8DBHC6x10raSU04kF4CCjyhRHzJ5VMlIirU4BValG1OqgKLigDrdKNm/BdZzYGd3F+4gFVOrIPnuERkMdfk4g+OqB0W98TvrSKpiCoicc8RjcUcRsQcW/cJc1rpV7bxPwoacCQSqCR4uRulj9pyMPJBQBtd6vJywE6TKAjwbHFPBbaai5BGTH+3kArcy8cQ4DlbyrGl+TcxisSizCgHco0sI5ewVLqbD5HO8oYTSMhAjeuVnum02ACnLopoNxvteU50SPk7jbHOeNRaJniTACw5igulbkwPltuLNqZFLGVuqnx8Vkyw/qX2nbnQFBooNr796Bbc1yVzyUV85jekrBapY1qBweVmOKbZ8kxDt/YYebaGaC0nyf5sG4BZk3VJhXRLVpBQVdlEDpGVDhs6/FLFbT4mRWqjQxTl2dNhx0qoW3ED6XFw/U7kSKsso5TIMD4UXUR8eUjzdy6isxmhJ+fjBLCyOvPpnL26r4LOgAJwEuSQF64jq15JgPSxmGbGkQggiOB8e5CH0KuMynBGJLQSVRU3sYRsOsRhRdwE6biW6hzi+YIzOvU6Zd12ur0EeIS4K6EkwiTZDa3EaoeM6GJkE3MSc3bL5XV7Ph9C1ymPI96FpGdnxRLBXflygF5kJ0mDn1PyUVKFBJnzfDfekq36LkkoUvXhemApGWY0WlzqvS5pjdnEdnubA4uDOF09WJ7ODsL1lAM76zfZAzRkKJ3kXgq8wlbks3BrM5lAWYkFhxGchjeNlYO7+JXV6xCXFaK2nS5Cx1XF8yzGKJfUOJMrqTEUB5aWcLKRs0HJERfOB4rbs0mvtycACN+44NhuFTZEAIRXVtIwF0vovUzAlNI5PBxVLXFLsudlV2mALnqxzHpycl+1BlS7jJP7XZhnkvz/bN0nzu081IT6I8AttOaBcPUKB+5NAPOWSIO2CqiJeJQX1gjeV2CVdaKsn7M1mo0m4hS3iqXKMmx9JwYIbRzW84Q1W+wgsUlETLUN2cIIRhk6to9lEH6KCUxGiFkMPfwzFWBv4WJK/BZRY3L+NnWB0uHIsJO6w2mOdu4rir2ZVnhzS5viO0n7brot5T+TjmnhhPIgEFVE3PVPih3ny0185QoaqiiAHV5qPmx2cnJfmf/LB15KFREJZEoTpLlmYbjk9Q6amwhg3qGuc0sfwCpE0hIZJeVM4Wu1BGjw56r8qDVwI7VQmxIrleitNr9xaEgjjBXAAq8iqitFXzXcWFY3kMUf6aAGHxSOxHthmVVhgWIc6zyF+G83pol5kKvJyX0tie8pz6ZfSZCq7xRTU24wt2J4fJjI6icOkHLyPqvLLhk/vCzSYu9W94pLInWm95oSinv6JklPsoDBANB7rUuV9QBmuEgrsFUEZGOjtDba0+YUt7NXaBSipHQRGSl4wkhE3M52CBgZT2astQK14M7E6fx2zs4itUxMt0oYsu5yin/aBbxCWpD+y5QwTlNXdgiP4r24oqPTtSZ/45Lyp8xjKYyczwJhdXZyeS59Q+uRUl9azFyy3tQcXou1OjU1Uv6WX6qTMj8xaaRk46XDGM51xajCZNg9+/R67C0Lvus1AJucIJ237h0OzPqms05TMok4GX84QofZkthcSiy1WDg5D4lLyKZuEIrqchYvJ4utiGKyu2hUhJWQEO3cUVikQ4ZtTEV5KrGWx+xoQjLSBm/BYFkx0Yt440V4c0vgDeTwgcDlTlUsN5c85v9jYAvVznwHqxgsDiC7bkJlcNxqYnEABKnpKdUapc2KH2M/DPhtibZuhimp97JU4hZ0oWozu2UKMbhJfXFzhxE9pDjumohAhx1b7bIyUaE7SLrJAHY3ZKUTkcW1mNhoYdfTOv/c5ITWX8TjHQJgFqoJwIiUQZs/uJPyMgx2lmCpK4K42D2jCu5wVckOtB55hTdUzsTlkqv4kIi0clcG7rgwbiGSsQ6+p/XYBoQqZ8EbLhCHEImZwTwkY+1sUfUGRXuaZLxD+H0DuUJmoN/T536/PMRSA1voPvfSsOQycnELGVUeXcBEhinOs3VzzYiDw5oUYkjl0p5gPWStG5cPOPaxu+j0NB8ueCcKMJjVR+TfSe+l9+ikk0N3AJLp92Q/gFlvIoDZNxxxPAp8MDkhw+k6dZ1EOw/rNhHcl/yyTl1ZhC7aDg2uRipK1zpdQUKUD/IGizacR8eFg7zxwqPmwhcqQNuJTYKjcSWJAAIVE7kmNHVjSLS3IDRyDmK1Z7iLAxV4D5SMQvTqSU6P8xcNgSeYi+iVo/zcQHmVSPWrOcF6b3D4TAQKK+Q+FEASNi9nzWt6cxGh1Vn9ZbOSiItRi4v6+V1FWLZYuxqPRG1mkeZnGVPOT1jsOymbo7wDrsUHZb1r1/jqTIdkevPrVQD3txhtWCaNIHm1Qd0bdnE0kQx8t5KJP5cuIrvo6yggJw1GdL8vpVC4e18eUQxO+H1pi7ZV7+KgkkR7E3y5JfAXDEZb9U7kTriLQRlvucquGV9eCYKDq9Dy5hqER92OaO0ZZsDhytloPb4R3mAePIEQt1gJDh6P2LUz8BWPQKB0NKL15xC7dgr+QZXcZ8lZU9msLmmqFsplxdzb0TeNvzPK48hYbKM0UhLUbYH1XtMwb5LXiOyyF73jMS3GLqkJiAOGZQ0Z7shZXKncNx7tYIuzWzKC8BrIutYDzGjlhPfNBTCvVM/1YBEZJa2Lljcj3dfnOJmVRdgt9I4rS6QYeKhGkhkVpYbnDKWUhAihW4sGYGqziaAJlRlFG41cXa2H1hv7kWKkiQu3ndyC0IjZDEKOnQ7mIxlpgb90LCJndyM0eh5zYBKdQ0MmMcf2hgtZrE60XIM3vwyIR5GgovEkkeQMgicRRbylFt7cYoQGTzCo44x4siCN50qF8FINVyJizRaJpdTpRIzF7dRkeErVI1eaLD5vzkCqAtIi7RIjTWoL+Yo7a20i/NadlP21hIKK8jkD+7r5AOZg5FTHb1d6MOt9Lp0F+FMGmT1IQHBfu3jLQnUntY7FRjc5lJIu3LJ7TOOVnWOLzn6mBTveVINo82XugUQbMHJ+P3chJBDGW+s4L5WAEBw8AR0X3+B7yKfqLxuNRHMNf+8vGoFktAWRK8dY5A6Wj2XQRWuOszgaKBvHPCx69RRzsWDFRHhD+VJ0TvJB45QezMOJ+haZ8d+CS8rY65SysCQn0CHXSTqe9E2nRkwpNx4R170dimjB0knfJQp44fI3qXo4A1saC0ULl4F/9TqA0xajRdhOKqW76FyoXEdOy7EAqkslfpcgfWGkSo3/FcYoT2oNZGnFTckblu1PUgxpXBc61eepwhOt4roI0FDuJxkmIg1g4qAShjTV2oStxFzqhvROqTpIY5kwTqkN7PQ5p9ZR5jFFhIR9HdjnLJ7t6hoidxK7y5wle1VlyE5AxrHpboYwYXFmHZzLGNlBKFQmrlzmUk7WiC8dsBZnt+Po5gOYZ5UqRnfGgRXUTbePPYFecEh7MXXikMI36yxYl9qgy+TgqSJaPB6xJcArgrqJpW76thrbzWougjbsm5buF6K5aeRRkod6NontRiYTe3IoIk0Zfizg5YqMnVmdRSilEXFlEFnGWtuirYSWKh1XBpCsOqzRuTHF1iUt8obNwnleED8XvYycl7C0x11EcnEnF2sgF5qru2ngcuKMBTCRvPOILPfOgdZwRnumj2qhadH4OHAjlfuquGC3019EIttP/zhxWYcVVQSFqIR5++YROrEj+F9GL6V2SlDNtU1Djgo4UcEiTolHFS2wSwNCH3dz1QirM8UzE4eXyFW131mUdbiG+DthzRc1nx3gkFVP3JL3+ZBSvZqsRmcZXcZ+YrdgDSNe281NZW+ryut2a0jPTPgMAXCqP5g+8blI1kJvpUwXIW6qDUwbVuizdoOKG2cTPERkBjmNL+5jqFBN92bWTqOWmF9qLm5nhjThsxYgtbq9zAJ8joNHWs2dsdAi68ppNJJ6vlu5HZltJOMMrQ8RWg1najkjm8yGYS5sUuRLu4ZKykbpzvQ+Gl66jTqPtBKiutGl0XiwFJvp0OBevhaJo5O85oHGi/sEwAJkKnC/OyRLL6BDZR65iVmpdZHc3DskmqYGaFi5mbO6g6r1bH2mauhlD/KQ78KVICzRBSzeUiaNXTRXHJ/GTRlHJtHTIgWDQS4cpxIpUqptWnRo6xwNacChUxqcnBtq21kWuYyam1sRCudyYTsDFzLkkazRqel6Kk3S3YqtfLpqbvR8qpoZCpJ7jcRmsw2MiU9VrqATQ5mRKUUVUuwZWTx2KPUw685u7Oye5uZmLiLPNMmQK0MAzJB3JYlTjBaW3VRdjvRTtxIxnVmTUwMZBGfvzAAmJDNzo4sIKzdrt10KUM+nu9ta27Fv/0EsXDAXu6mecX4+qsaPljHSltFVLyIRgY9XNryOCePHo7m5BaUlBSgtq7AHnMhQREPHV7lSySRaW1qw/83DWHj7bdixZx+KCoswYfwYo1yPW8QVVfN8+dUNmDR5Inc3oG4No0ePFK4kaZlXBiUT+4JVKzF93dqXWUUpKyvDjJnTLZteiPPxeBzPPP0c7lt5L9fGthr0lBhMBsbLl67g4qUrmDVnttgfySQOvXkIJ06cwISqcZgweYq9RYzkvOvWrMU9991r5dVG8YbLly7h8qXLmDZ9OjZseA0TJk7kipZssJMiuOEXt3Dy9WvXYfqM6VwRk1rNFJeUiNxsq9TulFj6GOh9AmCrLtr9+btzYSeAO/P9Ov2zrFZRNg2D3cWl5AiPFHvDRaR2gEO9j1scsWlgUlUylNWUHcJobe/gzgoTJozDiROnsHjRfERiMezdc4CBOmPaVN6Mh44eRbQjity8HMyZNZPBTjWRd+3Zh5ycMBYuuJ07M+SEw5gyZRLeeOMgt2KhQu/UzoS6EYijJsn9lLZu3821o+mZS+9cyODZvWc/IrEo/z4nJwd7du/jcq30m7lzb8Pevfu5y8LOHbv4fqqtfPjIMYTDOZg6bQqOHDmKqzXXMLiinCtOTpg0wbRiJ4E//el53LF4IddtHjpsKIYNHYrdu/dwgXgq/Up1qKkLw5ixY7gdStWEcRg6dCiPe/nyZQypGMJhqNSxgWpGz54zm4vBUyuWjRs2YsmdC1F99gKmTJ2KtrY27Nu7D4VFhdx+Zf6CBVjzwou4b9VK7N+3H3VUinfUSIwdO5aljbNnz3LZ2rzcXESiEcyZcxu3l9m7Zw+vw8xZsxCPxXH82DF0RCLIy8/DrFmzsHP7DlSOqMT27du5gPwddyzGgQP7EQqFMX3mdOzdvZfHKS4exGvBh0IfX30CYKuY1P35dw/AZtMwc2QGjuSQVmFQuEdEeKQtRDIe4ZBEa+CkKiCXWrXSWgBNMQFhABPpeSqfmDr4qbhs9wr/ra2t3G2B3pQKqAf9XmzctB3FxUUcSHKl5hpmTJ+C1zZuxl1L78SOXXu4oPuevfsxeVIVzp07jyFDhmDUqJF4+pnVmDJlIm/CY8dPYMaMaZciFmMAACAASURBVNwNYezY0cyZRCGCBHP9tetfZWA+sOpeBAJB7N6zFx2RGMrKSnDs2HEsuoM6KLyEFSuW4vDhYygvL8ep06cwffp0LqwejUYxc8Z0PPvsnxgwdEBs3LAJt8+7DYcPH0Uw4Mf8+fOl70sotc/S/KZOxrGjxzFz5gwGIR1OI0YO5yLs8+bPw4bXNmLWrJl8gOzduxfL71pmjHv08FFOYCgvL8PpU6dx59IlCIVC6KBDcNPrzNFHjx3LB8MzTz+DOXNvQzQSYe784NveirUvrsGUqVOwb98+zJo5i8dfvOROFBcX42z1WezatZN7U93/lrfA5/XilZde5p5K9BLXrl3FpEmTsWXzZiy/azm2bt2GuXPnYtvWrSwJnDp5EsOHV2LU6FF46oknMW36NOTk5OL48WOYPmMmdmzfxlx9/Pjx3d/+Pbwz4wFsdScJvU3E3CpQCq5nNqYy4qCUD9XjrE8pKJXwUK1ixadkXqwjo0k9z5qcIDi1rPwgE9BFbTiR1E9AdLqVlOWZTueNm7ayj3bSxAmoHDEMz7+wnvsZ0UyCQT9GjhiOvfsP4p67lnEnBaq9fOTYMe7ecPlSDYYPH4ahFeXcboVakRw4+CZHgE2dMgl79x1Abm4+qqpGs8uFyru2tLXh9c3bWdynzgoMvtc380YlQBB3nTJ1EgP4Pe96K44cP4XW1jbufUQAbm5qQqSjncXNF15Yi1X334dLFy/h9JkzWDDvdpyprsblKzWYN+924/2JRn967nmMHj0CTc2tWLCAwPo6pk2fgpKSEry0/hVMnTaJP1u16j4uGE+ApwOh+sxZLLpjAS6cv8h9ooYNG4aTJ05g+Yq7+FCiaLNogiLkgDUvrsHcebfj9Q0b8cCDb2G/+Pp16w0Ajxk7lrscUk8lkjaolxJxRgLwiePHuSPEkmVLMWjQIPzpmWdRWl7Oe4PoQmVxD75xEHetuAs7tu/gg/PA/v18UFSfOYNRo0ZzAfrn/7Qa97/lAebewRBJRJOxc+dOHpM4vkjj7DuzeLcBXFpSlHbZnPRF6ev7g1nvZOR6jJak4hkUiysyVkzLNXFElp/Ne2V9KXLX0P3qXmWppiqIPmvNZVlVkku0yBOSjF+ULKCqf1h1JfazugYfCJcSEXvTlu0s/r2wZj3m334bWlrbmAvS3Kn7H3Ut3LPvAFYsW8KclzbckaME4AloaWnD8RMnsXTJHdiwcTNWrbwbsUgMa9a/hGAwxHWZJ06YgHg8xsaWMWNGcZe+Ldt24s47FuCFNeuwYP5tiCeAXbv2IpwT5ueNHj0Ka9esx7v/7F04evQ42tpacPnyFQYwjbV71x4sW7YUW7Zsw8pV9zLo161dzx0V47EkSstLuPNgXm4eRo8ZxarICy+swT13r8Bzzz2PpcvuREtzK4vQ9MzWllYsWrQAr722Efn5BTwO6cF3LF6EtWvWMa3oGaRjjh8/Dhte24BZs2di3Lhx3PWQ5lpYUIDm1lbcu/I+HNi7D5cuX2KuTBxacWDiuMSJ6dCgQvR3rVjBBywB+Ny5c5gyZQpeXrcOd91zDy5dusjdHWg9qyZUoaCwkAG84u4V2L5tO+u8B/YfYACTGE9SAR0qr778CgOYnrvmxRe5A0akowNTpk3l7hgFBYWsivTV1S0Ak7ulpAcANrhVt2fvYsiSEVmCG8o6SxYAk+6rSrqyYYrxLNw+8Jm6L+nSStRWVlelX5Mvl0P+ZA1hAqtKzOd6xnQ2JFRyv5LHORzDeLO4dO2kAFh4jvk+6s5HnfiKiorQ1NzIA9HGpzaZdA0qKuC2oNS4i3RZ4tjcSrO9nTsW+gMB1gkLCwtZ5y0qzOOcZDJudUQ6WBSlZ+3dfwC3zZ7JlmsCAjUuKyoq5PuIBnkFedw/KRaLip6/iTjqGhpRWlaO9rY2nid9l5cbht/rRX1TC8+Tfk/6HV1tLc1oaWvnuUQiUdbD586dI9qxJGOoq29iABKXo89obnW1dfARLfnfufwd6fH0vtQmlETsjo4oyNpbWFjE71RQUIDGhkZ4EUV+YQmvE7UxpUZppPMSt6R3ulpTw5ycgEQtRevr61lcJv26sbEBg4qLmR500UFHY9DY1KqGDjuaH/2d9BuSiEhtIN2a1qq5qZm7RdLBQ/owid60DtSlsbGpkbktzZ3WlsbldfB6sGfnLsydN491frcY/G7D4jo3ZhaA3cIqVbF3yX05Wkj6hznfVYYZSi+jwCaDTQYhyJdnABP3ZDeOuLjnryzVqqKQlMhu1L3i56kIIq+ZbiciefkSbi2ueUg1McVnrDqLA0n5ia3cWkRdmRe/knRtWdeLKluKEEtZldJodC2IkBKvjSRbjak5t/US1ntR1M36YKYh29rsrhpWByhgo9N0PXtbEgK8n8M6pd3BktRh8UOJQA5b4ogw9IloOVU1xB7+KdZJ1coy1R5x0Fqbttvp2ZngmuraTq2FbVWD1P3Gn1KFsqprqqySFahkwe9rl1NmAZjpn9q1gRdKFqeztQWSJVqtCdssYZPR17F6BGCOcbakAfK4FHroDZj3J7m9t7RIe9gSqgxbKhLLKPouS6TywSD9qTadncahfGJbQEpS+oOdpVjlBk4RwUULT3uQB40Rhc+R6UObjgxp1J/I7bLSRABU6P7wOMqssrQii8BZLfgUqkjHFP3G2VOJW8FExVytRfhUUgPbLpz+Y1kRk6tmkKRjDYuVC0lx5nTYucVO9wYLy/IxMh/Ach1po3HamnWDu1UxlBUkycpsvTwyFtheRZHALrmMBDwfrjKSioxXJmemWNwYwJxN3Gxwa8mDqbwNGcZYCJBRYTxnS8sYVWvKaacW7jFHMTra9LJ6pps9wV7rS3Ej01+tuIgKl7QFbFgOFWWptxGMwyid9nshtbiGO6oG2iK/08H9BYdzC+Xk92KiWyUDGfqp4sPdehtlOfB6a/ppAViIhp3EN3Yyo3Tvd09skP5Uh8zpBJ+anzAKW27mTaIC8y2f0yblPSrgpEQykYEjsl6MlEWug2XXqzmwQeq+qSK4bM8i5yF0cBGEQrHHVq6stGt1OBkGM6P8rRLLpW7PU7b3ZxIiKIVvusVZUy6vA1UkrhOdHIkfTCeqbSV7DtmEUo6bFpFWtqWQEVqix5EDvzKRhDtjOL7kXksMXGe5HzooKFVRhqMO8KT8GwFznwM4PdC7+IJ5c4h+RyL3VB4g3MTbDighgQtx1qpFEVdk6DjKtvABwCIfWarluFIPJ+MV7zelb6s6EZady6I6JeBbuYesXsFzlaBRYj31q716rRYVQwYjL0w9aZOoq6vnkQcVD2KfLflLCwryUF5Wingyierq8yzqjhg5gt/txKlTCIdDqKysZDeRGR6VWnNa1fQyRFpDaeNVEVCz1pZmcV9kblmbkSlxm3/j7LRAn/FBqFI4LSiVbVeEg0C62dThygcildqxZ46JNSSaipTCFHZ+I7t9AP62RwB2+jm7oku3ubBi7tYqHSoHlC3PpizKOi0bmKQVWhqlhKVZlneRE0vGyO1D4rD4gL1LylpN4OWK/px6r9IchJioXkzE/knxWXwo9HIZQGI5GIQV3CwKZ9CKLNDNTRwVNWP6VAypGMxgfvXVDRg+fDgWLLwdFH44atQIHDt+EnNnz+BO93TRIlGwR0NTMyoosOFMNSqHDxMBG2QA6iRaTPirXQqzy4R5mb1vLh+LwXTwkC/bct6xJOAUcyUtmYu69+YlVYQ5rzOBQXahYO5ru6TtgQu0d96Urav9dit9nzaA0+OocpHTFLttYrTR+Y8WWxi4GBSG3iSNXsqgZFR5MEV91n+Zc4jPOEQ+TskMPuNQkB17RUK5td4V/0RxK8vWYMy7lFGV1lRbRQg2GIlmK1u27MCYsaNQUTEYr768AcOGVaCuvhG3z5vLAQ733bsCp09Xo7mlBaPHjEROKMzx0+Q/rRxWgcKCQg7HJP/thKrxstSs1J8tRalExwV6F4ctQIrywvBn55ZG/2GLJZ1blLg0wuZfquR7J2JkwTmh99pFd7EV7Nzf+LksEODW9+hWAmU679ovAE4f9KYozf5Xw8VhAStzWhIhzc9I9BI6GpuRBKfk3ytR0f57QzxTLY9YLxS5sWpc03qtuhVK8jLXtoj08mPh2jL8O8YcmAZeDzZv3o6xY0fh3LkLrBNTQMKlS1ewYOE8bNjwOu69ezkDuKmlBdOmTUHN5RqOyFq2ZBH7Ti9cuoQ3Dx3hmGb2uQq/TEr1ChUzbqvfLA++JIv8lih8qcOKg8tqO1CHlMjDteu9ZI2mjgepFm+y7HP0mrPOmNSH6fkpflGZHMKWaqcVLJ0dfYvdm5kAlnqo0ktNfUyUneFADaP2srRiGqAxTEDioJcxyyxuMw8UerLqECh4I8UwS7HYcJvIA8DWPlN+RsNyT1zKQTXdXoLTm5ICT0mK1AQAOkg2b97GnPXkyTOItndwsDw5/+++Zzk2btjM8c1vHDyMWbOmsz93187duO+euxDwe3HuYg0nGdC/KVWOEgNEgXkTeILBCbVCGdZU+qWwrtPn1hRBJoiwLhv6rbIHCG7pzMNV0W+2lEaHtmovEytoL3qPCeOgCpzm+xLC/aTF5vRPnx4BOH2Omq71WnJgaRwRHNUEIMX5ms2bVVI3+XiJS5oA5gOAYpRFsLJSXKXriERqxUGFIYazkYx+vqIIniiwpgwtFm5vHBiWzU5VIQMEalN85+AMKjYgky1OHD+FsvISjrSiq7auHvV1dRg7biwa6xtQXX0WBUVFHCd9/uwFNDU0sZhcUFSAaDSGtrZ2PhRIJx4+bEhKOVyGIx9aVN3CKvJbi9OZnwtrL/E8qnslqad8t0wzR9UNejUqIk90clqHpbqTAngLbU2hXfxNBeO49gJOfz/fcr/IUAALriAsKbL9p9LvVGdAW50mWaHf5hIR/XyFm4JNTqK2sYzeYlHbuOSzbBUW5ZjsOlKJ4RLAshi5sOAqTi24lZAWROkYzpCiOk7chd76OAFq0Rhb/I5bovCfSmUQ97MKwIETpqhquqTI3UX0ETqw4oxczdKmekojnKFeWOciWsfYXTnSssyBF1aR2mwAlwJe6aZL1XnVYeaSlK86WWiDVY8Pnn4DcNpcmzYtW34tVRWUrmZE7chTnPsdkTvI6k+kguMiSIMtyrKou4SFdEmpf0nfpwF2cYBQnitV0zIt0sJ4JpIfVH0mKQFwRJN5WAhQKrHcBLoApehGYAWZkBaE7mz7nOVOuyVZxXVz8BNxMc7aUAY6GXJoCAEyPpzHdbQCpTBNjsKy7x8P13p2dDJkkoj8aqH3WsVsS/F66S5iIHP2kCx3Iw8CNUsjPNKwT/R4D9/SP+wxgNMGZBpBIIbfkd0x1mR84fslLmf18wq/oRk1xStKgCJQeP3wStFO9OiTRi1bRBcBika01ilOiAPAZqSxcHUr9zR8oUq3lIAi7kt6KrunrJyaJkgHg0N/lhlVpmCggi0cjcRkAIrQcUWopjVIxPi9sviytdjZy1e4hpLcz8iKASmpWN9bHlrM5dmYZbFey/htZxF1FWFl2iqsXF/rvL116vQrgLsNenbREBewWH4ZE8LnaIhv0kcsOq87axrHjRIqRvFxFqFlNJGioDR0Cd+xELWFOCtik60RXUIEl/NS7QUVZ7K16JROKdkZTzxKiNV82Hj9bE4TTEkZ4VQDL1N/9rIFXYrUlvmqQ0gZp4SlXBT6E+GfppwhOhdKyClxmERueqxVYuHHykPGrayrtCwr2gsIqyAOnyPnVXJeL+nJ5qHI85WHrV1a6q3tfOuNk5kA5oWOI2F1KbCISW4iaXySex+gbB17AL0hpgp5z6jjpLKKUrrKc5KD1Il5Z4qNJqy1JnsyIrdYPDRiL+XBokRRBV6L/s33Cj1bmOLUYSH92iRmslHIeClp3BHitF3akOI3S9viGxKhmS/K3yvdmhtqS7eYEGnVnGOmu8x6kHGLUjM6S0gyorsEB2tY8WGEocrP5ZdmbLMsEatsAUYsgGhYpiOseuew6RaASTwrLS5ypXm3o6zkfLtVrZItt84etKaOaOw51XRLcQy1QQmQbHyyi43ULyhh80GqQHqH7swfyw4BatvSZ/EOWb7UJL5o+qVcIxIjRpaUGSbIFm72U5MEodQCoRJQQXLBDYXobXBUZZST8ZwigIWrBphSMkeJiQIDyoUkgC3+s8eEc9yW/XNDzBaHWIp/loIrnEYmSR9Ok5Rc3AiSS8aR4Mgs5VyXhxK5ilxLw/bORr5VR+kWgIlzlJQUWjUf+wZKg3oiMT81/1Kc9oL7kW/TQ7qZRcRjbuLgDpxcYPVTys1IrhHeRNaoe9k9PpX70gY1DWU8NwaaIwSQOQj95+jnwxvc4oeVv09SdwQRcClUcQK5Gtc4gch4FgG8sqaxcFLLuGw6FMyAEiV+i0AVU8zmZxjBI1J0JlpxnLF8L8U6XQ4W5uAsxltyhfmsVBKDGdPNS6Ri0+U7GwIKGaz4/ahjoEVmkOI6z8zn4OJp7Bt9qzsFugQwVfkjrllSXAQOq3Nc6XLgbt1vxDcruUxsbBF8b3VrKPeRcLEInSwuq3E4agJzap402BiBvi4c2IhKsojUPDoZXpyglkYoi/4trMkUYmmNUEpy4Ido+2EXyU3XkyJsAslYBB5fyB5RJq3UwqhnCTIxuieYC0PWcz4o6V7DpC0OO4MG8naRTUX6uMVYqCQQ1kCouLvMzlLNzozEezUI5SHT+F570Ae3Q4lwO5TU7oUakr1BASqzRGWCKCqP/uTw1Y9+9ONJAi2VFaHyI2QgKSmmsiGpADZO5W7O5roAVoYU2gwKAFYRz9n6UrYFUY8mqzEzJAa6kDMNe6mMs5VMUfyEXT/O1iEqOcJgW9JjIl1HxnsK0TWVUzt+L6UK1XFPAZgNUVY/tbpPRpqZWT/Kf21t7ynAaGZZmUkY4gCRYZ50lwpiMfJ1nUYlMnw59V467FL9tqqogtM3TMUFhA6vaC5j1flUTe0I2c2tkvG3GUsmbZ/W1jTGQc3WQss5qkJSLYb8G3nRLjkwAZgKm3HNok6KrwvDRfftEtcDMYvKhugsraecoypBbWXAsXaAOBVL3jI4wpKzagDbCIc0OQYbkzgV0OoHJU6p9FwTwCLv2F5b2gi6YIWUACAPN4rGMgxSLHMy3YRIb17souKJW0RyVYzAelCRRTwZkfHZag5S8uAoM9I3ne4ocZ/RQFtp17KWmDrEPGQAtAW0iCOPChc4wxpZh1cVFqVljbm8fCUrBxe6Oum8QuLoq3pQN7Lx0/6tyuW2/lBWSVX2OXtgmjQwqsAh40t5oFmNo04PShqTIwBTjS4Kp7VxYFoEqulDXJjEaCpqR3qcM3ouXQ583ftVLq3TjaGS8a0ASCaEUM2F6Ahg0nBjcDUTrEqMs1nhZBeGlMR/9hM7StNxHWmHSM5GGUfKm8tKMkfkQ8lei4oactuMQ1L64MxlTrOTJ6JM5bP5a1V6HxupTOOXyeXlZwQ0rqlF/myHgUqFS9pcSaJpWUoPItnCJCU5IRYRrj5ZXECEsItgDzZY2czWaezKm3CrcRBZ3GnCXqNUD2vfKiN3rUczVZxaPJMOaNMQyqqGFdAuTcqVSkNScmtrOxfNIxCr7C/Pxz72CRah7WJ0AsXFhfB1UuO2W7qtgSl3UVz4SqUxxSCN6hlrz3oRbh6RDiiMW9bcYCublqKy9VBgexTVfHIEfxhGJqs4QXO6vu7NUzWixCSoDZeQNHzZDh8ZkGKZk+DIMmHe0NHN5HabPzpOvmjpphEPl89XBQ7E+3OGMxuuJNCVf5i5CemrYgOJS3T5EzHJTp+6bLgt77W6igy/sDLyyRzgbNJ5hcQgJCJum6qqlch0SDejazr7vWuUKzzIqDmxcoZLT4DafhrSHEn/JeCS/qsAzCuqAEyTpLKklC1DnJjq93IpU/Ktsm/Qam3sDJT26bu+OBtaVIVJl2PbwoGFu0LqhYabRIqwzH1p88l0OQUsnqvV9yLGMEEhVQAyPskkcwUB5mBs/DJFXZs/WL2e4pQWUVuEXUo92XBHCZE6yXOUhjlWAcj4ZoaD8qZRYxsBGPSBOuSkOC1DFoU+bzm9eTmI+8pyuUaFSRUQYwbJ8BAqZtsIMJHVTZIJ7pBgPU/jsQ54SSKx9Ftmyz391lIzrOuN2/93CDBK+Yarl8ZFFVPlU+9CbFD7V1UYMZbf4Vlxfn/dNzWCgkxuz0C0aKbMBmQ0Hc2hta2deQZxXyU6058GgJW7h5BOICYA03/071AogLycHPh8ZoRPuieS/X4JfoMDWiy17D6S1SBUHAIBUhmQeMbSiqAis5zBF4ZfVJBRcG+rqCJjnPlLZ7k5dS5bBHCekwrGUByQREdrKKVZpsdMWhDSAIPFFxTvxaGQdvAqjmjGTMv3k7o+idOqVpdIr5QL70jmMKQTOq6oqIAMyvA4jYHKtefI31W1wcyDWnFp5V8XwZjCDy3enQ6hjBadpZfCEF+N+JbuG3HS3etdH1MsEhq7W+w0cmeKhgWixhuROY72jhjiiQR83gDXqraJzuoQIg4smJdwRygQU34qWaQJ0NyhQH7f9QRv9h3dX5ybPdPMf76mZX+vkdJticMKgxWJzcJwZei9VqZlBbATyEo3zh7w9je59fM0BXqfAlYQE5ANi7NL2SLWgRVwrVNRoNXg7f0F0iNqCnRFASu3NeLgrembcgADwM4BlexvVeS7eqj+XlNAU+DGKeDE3PV8650CWE3Dzax+41PUI2gKaApcjwLdxV2XANZk1hTQFMhcCmgAZ+7a6JlpCnRJAQ3gLkmkb9AUyFwKaABn7tromWkKdEkBDeAuSaRv0BTIXApoAGfu2uiZaQp0SQEN4C5JpG/QFMhcCmgAZ+7a6JlpCnRJAQ3gLkmkb9AUyFwKaABn7tromWkKdEkBDeAuSaRv0BTIXApoAGfu2uiZaQp0SQEN4C5JpG/QFMhcCmgAZ+7a6JlpCnRJAQ3gLkmkb9AUyFwKaABn7tromWkKdEkBDeAuSaRv0BTIXApoAGfu2uiZaQp0SQEN4C5JpG/QFMhcCmgAZ+7a6JlpCnRJAQ3gLkmkb9AUyFwKaABn7tromWkKdEkBDeAuSaRv0BTIXAr0GMBGj9XMfTc9M02BzKeA0a2wZ1PtMYB79jj9K00BTQGDAtRskrvlct9H0SM4zavHAI5ePozolcOy3WWaT9W3awpoCjAFPB4f/BWTECifaOlp233i9BjArQee5i7vPTk1uj89faemwC1AAY8HOdPe3iMs9RjALfufpFbSslHxLUBk/YqaAn1IgdwZ7+jR6D0GcOv+J3v0QP0jTQFNgVQKaADrXaEpkMUU0ADO4sXTU9cU0ADWe0BTIIspoAGcxYunp64poAE8YPYAOfU9YJe+xwsk4+ztT3qMT3v1TWlUJJPgGAIOr0si6fHAYzgYxF+62zG+Vyd3Cw2mATxQFjsJePOKERo+E/AHgUgz2qv3IBFtE6Du5YuA6c0pQs7o+Wg7uRmeYA7ClbMFkBMJxFuuIXr5EBKxSJ88v5dfJ2uH0wDO2qVzcSlMvg/JaDuiddUIDZmMeHsD2o9v4hs9wTC8OcVAtA2JeAe8wTzEm6/Bm1/Kv0l2NBFDhTdcAG8gjHjzVeag3rxSeH0BxNvqkYy22R7qzStBbtUytB5eB08wDzljFyJac4zH8RUNg8frQ/vJrUi01Q0gKmfWq2gAZ9Z63MBsPMib+XZEa04gcvEAvKECwOtHouWa4JTjl1D8HZLJBJLtTfDllaJ571PImXwPB9a0Hn6JQ/JyJ96NZDyC9pObER6zEN5wIZKJGDz+INpPbEa85aoQmT3E8U0A04EQGrMIrW++gGSklZ+VO/leJNob0X5q6w28l/7p9SigATxg9ocH4dHz4C8azoCLXjyIyNUTjLX8aQ9w7HnLofUs4uZNWgEEctCy72nmsDlVS9F25CUg2oGcyfeh4/weBmB4+Ey0HFrHXDtYOQuBsjFoOfAcEvEoa9upHHgRWt58UQAYQHjkXHhzS9B6eO2AoXKmvYgGcKatyI3Mx+OFL6cIvsIhCAyuQqKlDu2ntyF36kpEa44jcvEgG7pCw6YjUD4eLfue4qflTl2F2LVTSLTWIzR2IdreXMu/95eORrKjFUkk4PUF4fGH0XpoDRKRZileO0VoO4BDo+bBlzNIA/hG1rSL32oA9yFx+3voQMVkJFquIt5cg9DwGQiUjUXzgeeQN/V+xFvr0H5S6MM54xbDm1dmADg8ej48/hBzabIktx/fiGDFRAQGT0TbideBeIQ5KYnksdrTRiaZN7cYuROWSx04Fzlj7zA4sDeUh/C4JYi31KDjzM7+JsUt8zwN4AGy1OS+CU9YBm84H9Fr1fCXjESirR7tJ15HsLwKwWFTEe9oBhJxeEP58Hj9aN73FNmM4csrQ07VEnYBtR59BfG2OvhDRQhNWMrGrURHC/yDhiN27TQ6zu01KCZE6KVoPbwenkAucsbdgXjTFQa6L68YiUgr2o5uQDJmN34NEJJnxGtoAGfEMvTSJLx+BIpHwptfwsaraO1ZIB6nzG/4CioQKB6BWFs90NEEb/5gRC7sl/YoDwJDJgHwgvK1mRPTv/whFrVJdI43nEes8ZJlokm2PAfKxiN65Qg8viD8ZWP4ezKCxRtrkGivFwYw7UjqpQVOHUYDuM9IqwfWFOh7CmgA9z2N9RM0BfqMAhrAfUZaPbCmQN9TQAO472msn6Ap0GcU0ADuM9LqgTUF+p4CGsB9T2P9BE2BPqOABnCfkVYPrCnQ9xTQAO57GusnaAr0GQU0gPuMtHpgTYG+p0D/A/jAs0Aiytku+tIU0BRInwJUTIHw4/X6EZ76YP8Wdo9dO4nIhQOi5Iu+NAU0BXpAASplFEBg2DT4S8f24PdAjwu79+hp+keaApoCvUoBDeBeJaceTFOgfymg19tnZwAAEHNJREFUAdy/9NZP0xToVQpoAPcqOfVgmgL9SwEN4P6lt36apkCvUkADuFfJqQfTFOhfCmgA9y+99dM0BXqVAhrAvUpOPZimQP9SQAO4f+mtn6Yp0KsU0ADuVXLqwTQF+pcCGsD9S2/9NE2BXqWABnCvklMPpinQvxTQAO5feuunaQr0KgU0gHuVnHowTYH+pYAGcP/Su3tPk20/kfRwNwb6H/UBpZYp1ByB/1D3dG/EG7xLPVjkr+orcyigAZw5a8EzSSYSRgOTpMcr/s7/l0SitRGRywcRHDYT1HSsvy7qRRxvuMAdCqkNiwZxf1G+6+doAHdNo/67IxFH6+EXkYy2M2apGbe/rAr+svHcxCzecgWR6p0IjVkIT05xv3UqSiaiaDvwHILDZ8JfOk4eKP1HFv2kzimgAZxJuyMRR9uRNfDmliFQNo67C0YvHYQ3pxihsUuQjLYh0XAevuIRgC+IZFs9Es1XgGAefEXDuSQLCbuItiNadwpeXwi+QSMBr48bkyUjLYjWn4U3mAdvThESLbXcOzgRbUei4SK8hRWIN16Cv2Q0kEwiVneGuyD6iivRfugF5vz+snGZRLFbfi4awJm0BQjAh9fAWzQcoeEzeWbxxotoP70FodEL4fEF0H7iNeRMuIdbhUbObOXuhARkb04hQmMWI9ZwHpGzO+ENFyERbYXH40O4ajkSrbWInN3BnQvh87MiTd/nzXgH4i3X0HHiNXhCecz9w1V3o+PMJm4K7g0XsFhP7Uk1gDNps4i5aABn0ppIDuwrHM7iqtB8gbYDz8JXOhr+oqHoOLER4Ql3I15/jtuBhsYvZS5J3DpYOo4BTr/JGb8ciUgbYlcOwVtQgeiVQ9xuNDz+LnEQnNyIRHMNqBpivOUqOk5sgK9sHIJDpiJacxSxy0cQGrcYvrxyRK8cRfTSAQSHzdIcOJP2iwZwhq2GC4AJnK1vPItAxSR488skgO+BN5iLtuOvIEnNvpNAaPQC+AqGoPXgs/AVj2IOzuJ0MglPMoG2I2vhKxyCwLBZ8FD/4KtHEb14wABw+/ENyJlwFzzhInSc2YJkexPCk+4VFrRYBK0Hn0NouAZwhu0YzYEzakEIrEfWwE8ceNhM9hV1nN6GeNNlhCfdh2SkiQEcmnA3Em21QDwKX2El4vXVrCvnTF6FjtNbQeVKc8YvQyLaxlZrf+Ew2fA7jnDVCnh8fnSc3Ih481XkzniIRej24ySar2DRO3rlMKKXDyE05g74CgZLDvwGz8lXOrZH5U8zis4DaDJahM6kxZQABrmSAmEkI63weH0IDJ0Bf3ElEi1X0X5iA8KkA7c3sU7ryy1hIxSBPTx+BeLNlxGp3gFvqBCJWBs83gDCVcuQaK1HR/U24U/2BfhPMmrlTH8IiVYhQoeqBIDpYOg4uQGJjiZ4QwVMoUR7g9aBM2mvyLloAGfSopDlt74aBGDytRKIfXmDAS87lRioZNTyk8XZH0SivRHxxgvsm/UPGiHDPYAk6b71pwFfGP7ikYD0JyciLaw7k7GKjVwt1+Aji3O8A/GGi8KS7RfgRiKGWO0ZJJNx+ItHCT9wXik84cJMotgtPxcN4Ft+C2gCZDMFNICzefX03G95CmgA3/JbQBMgmymgAZzNq6fnfstTQAP4lt8CmgDZTAEN4GxePT33W54CGsC3/BbQBMhmCmgAZ/Pq6bnf8hTQAL7lt4AmQDZTQAM4m1dPz/2Wp4AG8C2/BTQBspkCGsDZvHp67rc8BTSAb/ktoAmQzRTQAM7m1dNzv+UpoAF8y28BTYBspoAGcDavnp77LU8BDeBbfgtoAmQzBTx1dbVc+0xfmgKaAtlHAU+SKqDpS1NAUyArKaABnJXLpietKSAooAGsd4KmQBZTQAM4ixdPT11TQANY7wFNgSymgAZwFi+enrqmgAaw3gOaAllMAQ3gLF68mzt15X0UPYmpd4S++p8CGsD9T/MB8cTOwgeoybi++o8CGsD9R+sB8aREpBWRi28ieuU44o2XEGu8DMSi8OYVc/9if8lIBIdMhL94xIB430x/CQ3gTF+hDJgfcVtqcdq8+wm07PgDkvFoyqxEL2KOLGCBOlQ5DYXL/pLB7PGF+H7NnXt/MTWAe5+mA27E2he+i9Y31wPUxtRyEbCtoBTQTSJJLUwFYpkjl7ztWwiUV2kA98HO0ADuA6Jm95AKhkD0yjHUPfdtRGtO3dAreYI5yL/t3ShY/DA8Xj9bvCTEb2hc/WMdSqn3gAsFiLN2nN2Da098FYn2FmKkvXLl3/4eFC75BLwBEql7adBemVn2DqI5cPauXZ/MnHLTYo0XcOXnH0Iy0trrzyAQF634HEAPoibmvf6EW2tADeBba727fNtErJ3BG6s71+W9PbrB60Pxyi8jb8aDyurVo2H0jwQFNID7aSc4DT4pj00mkZTs6GbwJWFFTqDuxe+jdd9zfUoVb24RKj7xW3hDBdqwdYOU1gC+QQJ29XNrwAPhk01ETqUySZ/LyCYy8BCS+1m2pHmS0erK//tIV6/UK9/nzXkIg+75ogbwDVJTA/gGCdidn3dcOoTI6Z18a2jkHASHTU35WduRl6XY6kHu9PvhyyvtztC9ek/d2h+gZffTvTpmp4N5PMyFA8WV/fO8AfqULANwEoloB+qe/2fkTluJnHGL0KVomgEL17zzd2ja+jiCI2Ygd8q9yKlazDYc5rLyz+atv0bk/EG0ndiMwR/8KYJDJvXrzBMdLbj4n29Py3BV+dVNxhwpOuvKrz7e7TnTaxev+gryZ76t27/p3RuFxEPrkGirQ+TcfgRHzII3XJRVUkHWAJjInWytR+3af0Pb4ZfhIWPIqr9B7vQH+lvaTHsfEYA7zuxBsHI6Imf3I+nxIFA2Gvlz3wPieojHAS+QO3E56tf9CGXv/SGCQyan/Zwb+UHr4Zdw7em/S4uWNwJglkbGLUD5u//tRqbd49+yauMBOqp349qTf4tkewu84QKUvPO7CI+Y3eNx+/uHGQ1gRWTmUtFW1PzurxE5/4Y4OWW8D7kk8ue+G/B409p8/UnoyOUjiDfVoPWNNSh+4Bt8+Fz93edR/MDXcenR96Hyi+vRtPspIBGFJ5CHnAl3wpdX0p9TRN2aH6Blz/XFZ6GnmyY2NwCre2iFujTG+QOo/OuXAa+3X99VcF4RRXb1j19G+/HNkhsnkTthCUrf+S/9Pp+ePjDjAUxSZqKjCVd+9THE6s6nvqfHi7xZD2LQPV+C5yZshK4IL6y7QlyrffabKH7w7+H1+nHl8c+i5IFv4PKj78HwL7+Kpl1PcBhi3px38b39HTd87cmvovXIhm49t/ht30KwfDwCpWMMY1sy2oFYw0W0ndyMxpf/syuyGAfwkE/9kZMg+vsSzMGDa3/4ItpPbJUqTRI5VXei7J3f6+/p9Ph5GQ1gequOi4dQ++RXEW+6et2XzJ2+EsX3fQUevwicz7SL9kvTll+i4+xenlqgfDzy578f9av/CUjEeTORZTanaslNmfqV//0kIueEdNPV5SuqQOlD/4TAkEkGlyXO23FqG2qf/RYSbU1dDWF8X/a+HyE08rZuHRzdHjSNG9tObUft099AsqMFnlA+Sh/6DsKjb09jhJt7a4YDOIm245sRb7yM+rWpupKZSO5ByYPfhH9wFQLlYzNWlI43XwWl4zGH9Yfgyy9FvOESvLnFSMY6+M/+5rxq+13+5cOIXDrSbdr5CspR9r4fI1AykodoP7MT137/RSTjsbR2dOk7v3vTDi0x0STirXV8sIbIiJVz89YgLcLJmzMcwEJXSbbV48KPReSOr2go8qbex9oYcTTpWMXwv3ldGHUdGTI9IUpf/IbmW/vMN9F25FXWI8mgVfqWb+LSzz6AQfd+CZELb2LQ3Z9n/fhmXFce/zQi1UI66OoS2m0S8Pow5JO/Raz+PGp+81dd67wuA5d/8L8RHDrtJh1cSZD1vb16J+K11fAVj0B45O3whvOyJlY74wFMa55orcOFH7+Flz80+naUv/c/+O/nvrdYxtR6Ufk3G7vadzflexXIQbEb157+Jorf+vfweHyo+c1nUfauf0Ur+X+vnoI3lM/+4dCouTdlM1+jw+XNl68bQGJ6vjjyhC9fQRlLD4bYLDONultmZ+jnVoMis7o0ePXW6tHUPUm0HXkFjRt/IXzvMr+ZD39/EP7iShQu+ThyJyztraf22TgawH1GWimgJZNoP/4aoldOIHr1NAKDq9hi3n5yC0of+i6at/0ankAIyUSMda/mnX9E0dJPch5tf14NGx9D46ZfdkuEzp/3vk7vIxA07/htt6buLSjH0L98Uh5Y/RN6xsUJ6s/j0k/fI/Mp7EeN8m7Qp0NvkoGtW8TLFhGaOXBbAy499gEWoUlPKXn7P8HjSeLCI2+VHBgY+pnnbgrn6prYSTTv/D3aTm5D3tSViLfWwuMPw1dQivC4xfxOHWd2sU6caK1F3ervoux9/9HvfuD2s3tQ8+vPdAvAgx/+FTwed9dPMhnHlV98uGuyAMidcT9K7v96t+7ttZuSQLTmGGp++4UuhywnHb98bJf33cwbsoID01EpjD+kd/kNS7M13c0bIr0lM6+mnb9Dw8v/yfMuvPNjyJ/7ZzxRZbCiU7/26W8yV05E2lHxoZ8hOLR/AzkIeJcffS9idReuS0TFrzrjlxxw000NsvRd30POeDrE+u9KJhM8wWS0rcuHegLhm2aT6HJy2cSB7S/T3e3RXRL0/X2J1nrEm2v4Qd78Mvhyi1MeGqu/gGSkhT+ngnC0efrzokOEJIWG9T/ul8d6QrkY8qkn4QsX9MvzBupDsoMDD1TqZ9B7kW6YaL6KS4+9D8lI19zphqbu8aL4LV9D7tSV/We8uqEJZ+6PNYAzd236dWbKWt52/DXUPvkNI3qsLybhLx2Fiod/Bfj8GsA3SGAN4Bsk4ED7OemI1/7wJbSf3CZfrTdVliQ84QJUfPgX8A8aPtBId1PeRwP4ppA9cx9KcCWDYe0TX+EMql69AiGUvvVbCFct6Za1u1efPUAH0wAeoAt7o68Vb2vgqpSU/nijaGMeHgij7KF/RHjswu7kKd3o9G+Z32sA3zJLnd6LklWa4pobXvoRWnY/1W3XkNtTfIWDMfhDv4A3d5DUeUUmkL5unAIawDdOwwE/QsfZfWjc+Bjaq3c7jE6WLgwOiNM3FB5auPhh5E1/gJPl9dX7FNAA7n2aDrwRKaEkmUBH9S60HlzHzc1itWeRTMQt0rUwdnnzSxAoG4fw+EXInb4K3mB+hkbIDYxl0gAeGOvYp29hTchQdTYogSF27Qw6ao4BkXb4iochWDFRpuPRdETfYIqiu1kpkn1KlAwZXAM4QxbiVp6GrfSu1o3T2goawGmRS9x89uxZ/Nd//Ream5t78Gv9EycF8vLy8OlPfxqVlZWaW6e5PTSA0yQY3b5gwQJs26YCHXowgP5JCgXmzZunadqDfaEB3AOiPfjgg1i9ejVX/9DXjVOAdOSVK1cyTbW+nB49NYDToxff3dTUhP379yMSifTg1/onTgoEg0HMmDEDBQXa1ZTu7tAATpdi+n5NgQyigAZwBi2GnoqmQLoU0ABOl2L6fk2BDKKABnAGLYaeiqZAuhT4/wLT3QFMcaeQAAAAAElFTkSuQmCC;" vertex="1" parent="1">
          <mxGeometry x="380" y="60" width="189.22" height="410" as="geometry" />
        </mxCell>
      </root>
    </mxGraphModel>
  </diagram>
</mxfile>
